<mxfile host="65bd71144e">
    <diagram id="V-kYW9GV2uXmBUqnUB78" name="PÃ¡gina-1">
        <mxGraphModel dx="4334" dy="1426" grid="0" gridSize="10" guides="0" tooltips="1" connect="1" arrows="1" fold="1" page="0" pageScale="1" pageWidth="827" pageHeight="1169" math="0" shadow="0">
            <root>
                <mxCell id="0"/>
                <mxCell id="1" parent="0"/>
                <mxCell id="72" value="" style="shape=image;verticalLabelPosition=bottom;labelBackgroundColor=default;verticalAlign=top;aspect=fixed;imageAspect=0;image=data:image/png,iVBORw0KGgoAAAANSUhEUgAAAl8AAAMKCAYAAAC7iyHtAAAAAXNSR0IArs4c6QAAAARnQU1BAACxjwv8YQUAAAAJcEhZcwAADsMAAA7DAcdvqGQAAABhaVRYdFNuaXBNZXRhZGF0YQAAAAAAeyJjbGlwUG9pbnRzIjpbeyJ4IjowLCJ5IjowfSx7IngiOjYwNywieSI6MH0seyJ4Ijo2MDcsInkiOjc3OH0seyJ4IjowLCJ5Ijo3Nzh9XX2I+EyLAAD0nUlEQVR4XuzdC3wU1eE3/J/VKgLZXAghAWIiCakxCEQQDIQgt9Y8oc1LU6RivfEXbBXbWi3lFfTxUfBBqtVW1ArUa8Uijb5pyT/WgCgEEASDEIh/SDAxQCCEXDaAaLW+58ycmZ3Z7Ca7uWw24ff1MzJzZuea3ewv55yZuSAuLu5bEBEREVFAfEf9S0REREQBcEFKSgprvoiIiIgCRAtfp06dUpNE55d+/fph/w/Xqimi7iPln7PA391E3RPDF53XZPg6ffq0miLqPvr27cvwRdRNsc8XERERUQAxfBEREREFEMMXERERUQAxfBEREREFEMMXERERUQAxfBEREREFEMMXERERUQAxfBEREREFEMMXERERUQAxfBG103++e6kas48TERF50qbHC6WGXIhVV/RRUy2bW3oGxae/UVNEwaXNjxf6zoU4e3kaTo/IRtiWF3DxyTKt+Kv+iWiYMA8he/+BSw9vE2nsP1o5UUfj44WIuq821XzV/ftbNda6Uz69djTmLL0fPxykJinoxEy/H0tvH62mOlZnrrszNInAdexnq3Hq+wuAb/5tBi9Jjl/wzdeonbYA1eI18rWt+q812FuxAY+rSerZYn+UjUlqvJmp2ciOV+NE1GO1KXyd+rf+1/ze09/gzk/Pehz2qdquum98D2rUxQb9EPcvnSOisP9G374U90+PUVM9m/Oa2fimTz9t3LH7Te1fq5DiXO3fr/tEwjlqljZOwe/xjRXY+8ZcNeXm9xtQsXcNvMz1wy145ME/4o9vL2oewKYuwlvL/4jFD9+iCoiop2pT+JK56uv/fKstvLvpayT2/g5GOS60DQMu+Q6+FrnrtPwfUQ/ynS/1Zsrv1lWi15E92viXUUPx74jLtPFen+/W5knGa4l0r+L2/3cVyuLm4o9vzEeKKsXw+VizfC4SK1dhwW2vqkIi6qna1OdL+u+RIfjm22/xw09O49Ur++DKPheqOS4nvvoWWZ80qamWyGbH63Dy7f/B92Zci3BZVP8hVjzxT1Rr8/WalRmJagLleHvRi9iljatlt9fh2rQEraRc/FX5IuZg6QzLtP5ijXVd9dtX4In1xlas5HpnQF+DZR2ydugutY+CdXnZfDa////gw37X4lr5Au0YdmH0/fMt0/ox6a99H29jhrkvLe2n7Zi1feiP998GZqhjdD8Oz8fo4TyXvY1FL4m1jnadL8l9fd73NwY/NI5Po+8nxPavO/kh6tKu1c+hth24zqmxXcFYtzEdSG3p83Xihj/hq37xiHz3cVxavlUrq5v0S+Db/yDi/RXa9NmEdK1Z8uKT5Rjw93u1Mq9ks+ODUShYB8yaaZzctYif8jt9HI9jQ8UsuN4Klnlq2ZLtURiX5hAFTmx7dDg2Td2LRZbp2X/RXi1Y1+U+z0LW9Bj7gjKsjZ8KucW5bxjrlezLy5qjzJptqEkbp69f20+4tmfZb/21a1GSMgvjtNW1tJ+CZVltH6IKsBazMEt7M/l4jB7Os3P7Ugy/EVizd5HaD8l1vJL9mMXcdfGY+lv9GPTtG+tZpU/4QqvlEmHrf57Ajf8XWPTy/RgmgtevZizFJvWS1rDPF1H31earHWW/r/4XXaCN33LgDEZ/5LQNsmas7mt/OhuH49rrgNcXLcKiRW+jPPxaZKr2L/nlPKOfCC7aPDHI0HH/D+Fq5BLL9he/ILV55UgQv8CWXmWddjWlaesSEUKbt2gF/ueK+ZjTrJ1ND14iReive+5DnDTKRfCqM8o9LZ/4PeANfd6HuBbzl95km77J2jSXOAPD96l1iW1EzHD1e2v9mBMwwzhGsSzSbrIv6/UY3c6z2Adt3q4XtfXUa+FpkedAatnfFdvrkXCd3J9q/POJRXi7TA9si8xQLLaU1h97LdtZunS4bbr5ee8evvPVGVzUcAyXHt6uTcsrHM8OnagN3150iVbW+/A2XNR0Ehf4XPOViFlX70Z8fDziH90GZ0Im1vyXLJ8rgsEsRIkvd22eGGTosDePJWIYntHmLRW7NO7BCtxjnf6V0VymrwsiPOjbKcGwBz30NdOCF0QA0V+3dHuNWb4orcYs97S8Iy0Ku7X5a1GWMAsVFaNs0xt+r14oONIygT+qda2rEfttrMuHYxbrGvWxPs+/Y7SfZ6TdI87zKsweLrZRroeoeEvwklbdOFzsn3iDO7dhqVhOBi8ZyGaJvTL2z6/gJW1Yih/f9gRKvnc/8t8SwUuGMD+CFxF1b20OX7Lf10XfuQDzB1+CJQmXYuUVfbThpgEXo68IZXLeqa/8aXKsx4dvGDVdu7BX/K6LiJZRYzQy02CZJ+wqEEHmexhtdtAXy76rvvJ37RXxwX06AjHaa9W6jHlijbs+rVfbsRg9HAllb7tqoY7+E/8U4zHTr7OXy+Dxvgh3V1lSRNn7+OdROaKv2306vL/lqgK3bbxfFo7vpfp6zCIkGTVFR3fhf+rD0V87jNaO0dt59oFlf6uL/wf14f1hOZpm6rcXqCCmb8d92uftBptzp+Eo/rtW0yWdSZ6Gby/8rha8zlwxVSuT8xwfr9OCmm/KsNaozfrLJpQ4HYi6Qoz/fhbGYRuesXy5/26NCA0pk1TYkMpQoOav2lACp/u0I0qvBVLrWivCg0bbThRitZDn8vjViShb5wogq26cLcZFqPmBvRx/mY2C8kSMsgQq5/a1av7vsFsLM/bpqMGuvXZuf8ZVW/XbtdjmVOvy5ZjL12ohSPLvGL2cZz+tOiICaf9Yy8+AiMh37ar5kv5x8t849uW3uDrkQm0IFcErUtWI1bWjv9fRkyK4mOpQrQUYQzWqTxlhw1/huPaupVi6VB/mp4XbA5EQEx2B+pO2DZqalVefRH2/GEuNVNu1/ZjlPDWqaf0YDfZt+uFotdjD89N3G6rQ56CrjkLeViL2+R9pQ9+SfFUK9P50A77b6KEGsVWrUKVXtepOVokSi79UocYIG/5yjMOiigpUaINsanMPH3MR29+Jmk/VpE3z8rIapy1QtV07jlnOU6OaVo/R4LZNf/x2KpbuH6ZvZ28bOuLLZkfZ1Pg/TyDrx3oN2Btve+iET0Q9UrtqvqTw716AlUe/xI37z+CGktNYeewrRIgyqU69pv2MmiuDCDv96nGyLd9rqllNb5JTg4e+Rt7CSrPymP4IPyXCj5psj0H9w1F33FhTe47Zt2OktnEUvwX8p/V7113wn68RImvI2su9huW/YhHlrEGZmvSL7DulmsqMwahBcvEWVpqXJ0Y5UHPEFpPayC30teeYfTrG9tOaI8W6tRC20Y8bhVj7e924Avv3rsBs2QQpO+EzgBGdF9oRvvRarT8m9cbShF5ah/vUvhdiWeKl+MPQ3to83+7x1RrZRBWOa2+09HcanYlr8T/Y5blyqgVyXQmY4emeUpbbLGhNatY+SWLeD8V4s3KxRz+8LgHl+9oYbBKvc93bbPQczEgsx15tVe055haO0V+yE76tnxlJ1isYT2Y+iKpf/MM2nLx+kZorX+trs6MXv92NMsc43GPp7/T47HHA/k32miFfyHW59bsymbdSWIVN+51InOnqJzX3jTVivHm57MCemVCG3W0MNo60WZZt3INxKMEm2QzZnmNu6Rj91OKtJyz8a4K8BS/9X/2qxl/J4KVKIQPYAv0qyOUv81YTRD1dm8NX5bn/QHbp6nvhBZgS/l08GN8L/2/8pbgu7CKt7Mv/ABXiNR1h10uL8PYp2XldNaVdd9J2JaQ/dr20Ah/2k52/jWY5Dzd3PfpPPKF1gFevuet7smWvefnS+ej/vv0KRb+U/Q9wo1rXjAh8+Jyrs3p7jtmnY/RE63cmgptYxt97du16V3b6ny+21bb7hHVH337nQnwT1vw8fRM+GLigzR8tN7/D1Pi1qElbpJrR5FWCfl5ZZxLrenQbomYaTXKem8xkjc7S7VGYpV6zKEX2lGpeXiGvHHTrnO4P5/YajDK2ITvyD5+twlV7jtm3Y/RE61embdN+EYFG9kkT8VA2M8pgJzvcm+uXFyeY+96aV/HQo7/yfFWj7IS/4FdY8jBvNUHU07X5VhOSbF0cFXIRxodeiAwRwGRDzNb6f2Nr4zfY1fS1dp8v8kxekdhVt1cglzY/Xsjwne/g9JXXazdexbffwrHzdfT99F0+VqgV+q0m2hoiSeKtJoi6r3b9eS5bFT90fo0nq75E9t7T+LEY5LgsY/Ci84IIWX1L/hvRa+5E9Ovz0PfAOwxeRETUoo5qGyE6r8m+Xd/59xdqioiIyLt2NTsSdXftbnYk6iJsdiTqvljzRURERBRADF9EREREAcTwRURERBRADF9EREREAcTwRURERBRADF9EREREAcTwRURERBRA2n2+1DjReYn3+aLuSN7ni4i6Jy188cuHiIiIKDDY7EhEREQUQAxfRERERAHE8EVEREQUQJ3W52vA4Mtw2ZChiBo4GN9++y1qjh1B1eFDOHG0Sr2CiIg6y3++eym+8+8vmo0TUde7MCoq6uGvvvpKTbbfdy++BJN/mIOp2TNxWWISLrzoIvR1hOJ7w1Nx1TVp6N2nrxbC/vOf/6gliIioQ3znQpwdMh71k+7BxTUHceHZOq343/3icer6hVoA+27DEYi/iLVyIuoaHRq+LhJBa/YvfoPYIUOxY9O7eGfdX7Hz/ULs2b4FJbs+xDdf/xupaRlIvPIqHPh4JwOYj7J+vRw3J9di057jqiQYZeHXy7PQr/BDHFIlwSpiwp341f8Tjc93HEKjKgukrt6+ZxGYOPdXmDHoc3x4MHj2qi38Or9Xz8Ej905E7yB737blPdI0Ihunvr8AZ5Kn4SLncTg+XqfmiF/0IoSdTZoE58gZOJs8VSu75MT/aP96FaTnhjrCFZj5mzsw+utd+OTY16qMAqlD+3ylX/8jOMLD8eqfHseH7/0LZ8+cRuSAGG04e7oJWwv/W5sXGtEP478/XS1FFFh1WwqwD2Nxxy+zcJkqC6Su3r5ndfjg3X3ANXfg1z8Mnr1qi+A8v/5pyzE4r5mNb/r008Ydu9/U/rUKKc7V/v26TySco2Zp49QN/PDXWP6/5yBVTdrIgLz81+JPX399in9uOYb4GQtwyzW9VBkFUoeFL9ncmJo2Ae/n/39oOFWLlKvH4BcPLMHNv1ygDb9YtBRXjLga9bUntdeMFK+VyxAF3ufI/9Nq7JBfbvN/0AVf0F29fS8q8/H0X3ZoAWz+97tzAAvS8+sX/4/hO1/qfXe/W1eJXkf2aONfRg3FvyP0pXt9vlubJxmvpfPXuY9exfK3KxAvwt2NDGAB12Ed7i//3pWYfuNtWPF/fqeFqrm/exgXX2IPV+e+OIvVj/8ffP31vzH/fz+Of/z1L6gsa6XqW+T9Of/7RlzRR586V/oGHnppIH69fCgOLXga+Xqx1jQ3tHwBnv6nPj628VPUJV+BgWc+xRv/50Xg9kdwY7J6gx37AAue1pdMtZbjHD7920N48WM16Yn8S+OnV8BY4tgWfZt6uQM7tgATJwzU5un7WqyNS3K/JuqzxHIfABPUMchlfwi8LfZTf7U85hnAP/V90Y9Hrcvb9rVmv7FwltbhiuSBzbZtUvtZURohXifXoh9z8QjjPLjOgW27GrUNy3yPxyNfaZkH9TMoNs6R5eemnf/QHdrPw+MyYlTfjw9QcdlE9T6w/pzUPm0Rv0QmqPNiWbZll+EH8+/AeGzF6hX/El93nln3yziv+j7Z32OiVOzLRBiH4PrZeOP/9gNyXuJ+gPm3jQe2r8aKdz3vlfFz+wATLe8By/F6fZ8K1nlinz74PF5EjLfN95ntM2n5rNrXeQwfWN5Hnvlwfo33pOVza9umYDv/1u2qZX35LOms7w/3ed749h6RTtzwJ3zVLx6R7z6OS8u3amV1k34JfPsfRLy/Qps+m5CuNU1efLIcA/5+r1bmVTCeG1kLZOyLZXst/R63fVZlgXYMcG3P/fugpfe122e8+fuzpe8AL8fYwnL243LbF9u5cC1j/Zl4/R6w6HXNjfj1/4pD5X8/jTc+OqdKqbN1WM3XZQlDceLo59qVjdGDL2sWvKRel/ZG1KBY8+rH2CGJao43evCK//wNLFiwQAzii0bNaU2vZIcIAmIZ+WUjk/1lFXhDW4cYjA+LLE+uEx9gVf438UX105arcFNHiF8of1Ov33IMAydYXz8QExMOqXV9CiTPwJyr9TnyQzRRfKT141iAQwmWD7AfWt5+L1wRqm+/5Q/cQMSLLzv5ujdKgSt+uhwzrNM/1Ku488uPoddlqa7q7h8OxcBjO7RfGC0fTxaGmvPewKe4AjNuF2v5uBgVZwZiqAiaOrFu8Uf5p5vlz8PLMkqv5LHAP43jFgHT9nMSxy3O89tqXz5ovAI3/tqXivjP8a8Vq8XX2njccdcURKlSK/fjtJ5X23tM7I38xQrxy1F7rfj5O9XrvGt9+11yXir/hRUviy/vtDswf6rnvdIMnKj9wWMcb8SER1zvd6/vU3Gefhrvmie+SMZavly0z6Tlsyq/BB/RjtdtuVaDl+TL+ZXsn9tzA8faP7ehIrSq/VkgvyBtTUC+fZbke33O/7a+P1r/XaPz9RjEL/OvzuCihmO49PB2bVpe4Xh26ERt+PYi/fdx78PbcFHTSVzgc81XEJ0bLWzA/H39Rqn6hPnwe9z8rIrvkGPifbtc++PdNf1r83eS4PV9re9nhAg02jwxuN6fBm/fAa0do+flil96SPv8aH84iXm2P+b++bT22nNaCNV/N7X0+8qbcx+9gaf/uxJx/0ucR/Wzpc7XYeHrgu9cqMaEC9S/HnznO/omZQC78Lvf1ca9ujpVfHg/xdvmGygfL/rwZpLOlX7g+uV81IlzfRzi7W0lPgxXDxR/SVh+iX/8InYcM8KB/DJdLj6k+mB8OItfeloLH5p/HhJveyvxITCCnRY0esExSE5kYWKyETJ0+U+LD70a90fL2xd/TVm2IT+Ixv7b+wwcww51Hos/qdA+vLZp41zJ9VvOW1aCOF/lcv2tHU8+njb/Oi5G8efGX1P6eESk2hPt51uBYu14vC2jO1f6tuW4P8CnthAnjvufrhqd/M3yS2Ko7Zdvqy6yBACL4to6IHSA5dy52N5jWjD9wPXLUbyXXrT+omyNl+139XlR39meuR3vjmO9ED9CP1Pe3qept481A7xGLPd2qXFM6jMpysx9ln8AhMp34DE4zc9TG3g9v1Irn1vLOdTOsXjXpppfUj5+ln44UcTmT/GBeb7kdiIwwJ8vuxaPQTh3Go7iv2s1XZLseP/thd/VgteZK/RO9nKe7Igvg5pvgufcaL9/LL+vi196UYy39ntc5/qs5uOQeDO6T5u/kyRv72u1n67vI/0zBesfqN7OV6vH6O08+6el31etuvBitPKNTB2ow8LXyWNH0D9msDZ+6ni1xysZ//PNN6g9Ua2NRw0cJJY5qo17NciBXo0nXB/uthIfoIfkX2VaELH+tXEOTrddONZohAPxpaf+epCD6y8OayhrqfaqGCdslynV4YTxhdMuvm5f/nISfzUZx+BLc1Mz8heTK4wOHXgMh8zz0PLxWIOftdpc/tI1flmljogXf9iLQKHP8rpMc+7n1s3HJ8Te+UJv0pl40Q6s/lM+alSpjfjr8o3P43Gj3C9vnV6F1MgInGu0R+HW+bB9IeDnRTY7/tdEXPTxajyd722vmpOfHRfv79PWztPACcZyYpDNKtqXSTFe/D+yaVsvt9VUeOXb+bVr7XMr57cxBPa5Qn8faYPsSuHLenw/hu82VKHPwU1qCgjZ+w/EPv8jbehbYkYT9P50A77bqP8e9k9XnptUDAht/vta19Lv8fazva/dv4/kZ6rZH/YGt/Pl88/f/Tz7wcffV1Zas+OPhqLmn8vxaod8R5EvOix81VQf1ZoaZUf7M6ebsDFvHb4653rTyvHCt9fiizOnMWz0tVq/sBPHfLjhaltTvDtZRStDiK1qvPmbf2BoL9TVeosp8gtF9nkyQpk/tVduf8ldPUCU+Ks9228b+ZddRIKIq1rNziH116Lk/XhkWND6cang94ZZsyHIvyQb5V/HepNjxSf6uW5xmWZa+kUsyH0542zl3Li+1P4s/uJsqS+NEWK1X2otNNvpNTS+8m37AT8vRvD66M/iD46Wzkpzrs9Oy+9T9/Mkl3ORfWGM5dRg/uFg/EEkQ5iridMz33++LXOvgWnlHLdE9g+yHpcYbM1Izfh3DI7it+RfuGrKuwv+8zVCZA1ZuwX63HgLK/7+HvePbV3u30c+/a5R/P75t42vv68kM3j9YzleZH+vgOqw8FV7/BgOf7ofk374Y+1WEvK+Xs8vXYTXnhFp+o+Pa+MHij9CaHg/TPxf/w/KDuzDqROt3LdKa/ay9nHJwhxtXDZBWKqVf/hrS6fPVphNkHoTjq3P1NVzMNZWu+NGCxiWv/ZkIFGjLZM1SL1wRYbrg5CV4eqMrP/15KquT719BowLDGzavP12kFXgoUPx64QISzNjy8cjf1m5ajdkyLLX1uSX1yE+YyLiG13NT60t0yt5ovlz0s6P2VwpWfclFXN+eIWtRq25tn0xt1SlrzWjWPuOiPfSHK+1M75vP6Dnxd/gZen/o38G1Wenhfepfp4sy2mfOTWufSatfYG8aa0JsqOCl3qfW/dHaz6ynmMfyd9l7n2LWuT/MVivYDyZ+SCqfvEP23Dy+kVqrnytr82O3gTo3Mh+Xtofy81/X6fePkeMt+H3eGu8va/lftq+j/Tfey3/rlH8/vl7JzvU2/uZeWb8vvLGn+Bl3aZWE2+EOvPnQ/66SP3bbrIPV8Gbf8Xsu+7FTXffh3dz39ACVu1xV/V2Yspw/ODHN+K0swH/+vvrqrQl8i9deVXKjVo1rSSv9pBe/HgilssmiAmy8AN8IJvHtDkeyDeIeVWIfpWJFiPEXwjaVZDLl2OiNu+YefWMRx+/iLfl1TrG648d8+0vHiH/6Tcw4H/L41Bb2vKB+DAae5yPD0rH4safiuP5qdjDUtl3Z6yaZ9GO7bed/OU2Q+sE/YHll2pLxyP7fw01f2bnxG66fbDFL6I6udyWp1VB68ucK3WK+eL8aFPy52RtRhU/08ahYll9rvYXpqVfhruIqT/CWB+/1LSaJ7Opz7XdZqFXNm1DXrWk3pPa+0yb04w/2w/ceYnAlB+O9a/G61iF+Gzp71n9eNXnqqX3qTxPg8TnUb3XtasdS8/BeLfLv9oHil/0cln9Ey8WF5/5p/8pa9NczZfaVVxevlz9Ob+tydd/Abn2x9crRpsRv8v+NsDy/hBaWFd7juHb71yIb8Ji1JTLN+GDZedcs09YewX63Mj3hu33tXyNp3Ltc+DLBRleeHtfy/10+z7y5WpCnX8/fxvZl+7qG/XjE58F2w1vxedpR4YoF/PGin15G+J3tdvvK8+GYcZU1nh1pQ5/tqNsTpz4v7K1Rwl9ee4L7Z5fF154ERxh4bi4Vy/s3bEVmwv+gX//u+MeadQtycuLxV9BrttLBC8ZQORVSr79kvGF/CK13yqkJfql4t5+yRlNXL5ctt+zdOV5MZtDRThoL3kcxm1iqIN85zs4feX12o1X5aOEHDtfR99P3wX4VJEWdeT7mqglHdbsaPj3V19iw//3Jt54/ml89MFGNNadwqma49jxfqEoewob//F3Bi/40jQWLORVTXXmVUodQV7xFmG9UpDOX9ZmHeo4ImT1LflvRK+5E9Gvz0PfA+8weBEFkQ4PX4bjRyrx0eaNyP/bK/jvta9i15b3RFl7GwG6L/nXvX6VixxuxBWNH3RgTVLn0Pd5otY82CFBSdb2ieOXTZjWy7XpPKLeA+ZnYUIEPv1bB72/qBnZt0s+TJuIgkuHNzsSERERkXedVvNFRERERM0xfBEREREFEMMXERERUQAxfBEREREFEMMXERERUQAxfBEREREFEG810aKf4rE7MxHf9AmeXfMHbFWlPcKUM9j721o40Bvbft8fszeqcgo+017HPQvHIax8LR6dt1AVdrZluHnjLMRr407sWjYCBYXahE/mPnwSi649CzRGYumsPlilyv2jPn9q6mzJn3HH1u1qqivF4snfpGNAcT5+tsmpylxuy7kR2XH6+Bkvrwm0jElZuDfVoU9UFmFGbpU+3gnk8U+tC47j1lyVjrenhWL3mnwsaeVxwkSBErQ1XzHj5iB71kwkqd8XZNH/N1h95yO4SU367xusmVcLfDgY8df7G7zkl/JneFAN9yyZq8p7ttSV58+x6hbitSmX49Epa1GhSvyx6uH+4r0Vh7WnanHPw9+oUv/clCWC15ECzH7hVm0IjuDVEgcW36EHjxl/eEMM+fg0IQtPXqVmd6HNm/R9eqq4kwNRdAqmxlVhQ7AEL6IgFYThKwljZs1BbGMpmlRJ1/kbHpC/+HtarRe+RlRob5RsuVBN+0jWwGychbDtj4kvZfnFfDnW4QZkTlPzqXMU3oRn5PkOWK1Xx/ndJ2FwRH2tpvyRhkGhQMVhL08nDwInat0CxlXDMaq+yFLj48SSHVUYkhSrpnu+jOR4oHgvXlbTwaMRR1jrRUEk6JodY8bNREjJOhwUv3wnZw7GkQIx7ucfUZdeeinOnTuHb7/9VpXYXXDBBejVqxe++ML7YzfGj38edw/rrU/Iv77zXV8Cct7tOISaYSMQj0rkbwayMuJcr0t+BGuGHMCzDRPNddibTOzNKbA1a6ZhweyfI6z4Vuwf8gqyBsuys9jz1i+w/KTbciZjvpps1ZfY8I4TNX42N8ran+loqenL2lQlNG7Dqh/fBPk7L3rJJ5iJEjSkjRPzy7A+F5iekwgYTWl3FeLBkbuxqiYTc9P06s4GEfKeWWw0WHlftz5vFEqW1SBdNs81my/I9cvtaezNaPq+rUBR1AOYnqCXVeRejtee0+cZ+2PTYU2Ac5H51gMYLYKGTpybKdPMZ35q51ztk/186Dzun7Zv5WK984HnCxC50Dhv9nU3O6cej0m+JhO1fjY7mu5sRMWIXoi/6xJV4Cv9vY7Nt+KBUlWk3JT1CiY1/Bkv4Rbz81VhfZ2sGf7xCKhPr+XzK9d5JRpK+mOkWO5sSQEOxmViZIi/nx9PZK3XBGC9e9OWbKKMw74/FGmBxNb8J96HrqYw9bo19Zg6ezj6aLP34qnV+yF+vWjsyyqqCVGbF7HX1ZwYnYK/zg7HBrVdQ7PXmfSm1CFqytY0KZvtxtbjqfXAPGPfPDZdynUMR72H5j33fT9c+Abu26ePtzSv9W3b97stzby3PpmLH8V/hn/k3I9XVBlRZwu6mq/qbf6HLauQkBBkZGRg7NixWshyJ8vS0tIwYcIE9O3bV5U2t3XrL7SmjmdLzqoSu97DhqLhrT9jT1McslIb8Oxbn+Ds4CtdTYGDM3F32Ad6k4mYh2G3YEF/OUOGq0xEiTCmN6eIdWAE7s76qbaYIT5D/4KRr8k/0hsjx8j5qiZObkuGPm15ObT3i8MXyzBMhICKPd4ChwwR1lqxx7AL4zB35TI1HwhLGya+xEV5YyKmT63BqmXb0JAwCqlqPhJmYW5Ugb68mIe0+apWrfV1A2KdC6NQpM1fi4rQcZh2l5ola+xyokTgkvPEkFuD0QsLXdsVwtIeQHqNvv5V252In/o6okX58cUjtLL15Xr40bcvhg6qhYpeMh+ja0XoMdZrC0dA8Ty9XG6/GXFcM9NgHpf2Ghk6zX1ziOOUwUnO1897uqXpNHWlCKzmdsU5E+f/ZuOcdRWtSf0VrFF/ZMjPwRpt2t7M3nvYz83Pl/yMxqf+BuO1OSJgieBVI8KY/tkoQIX4LK4eL06UJg4j5XKbK8U6MrU/cuTnKynJmN9G0bG4AhXYLEKHDBNv/+ZGbXjyqkbUG7/PRCDKxhbVJCmbAIFR01OQoWbLIJGtBSY5vwiHHcORbTRZimXniTfs7jX6snmVokyGs2YBqG1uy5EBUV+3tu24dHtzqdiXe419W7MXZ+KGY7H8gFhkTBqOIZV7vQSvRuSZ67eHK9u8wioMmZZlX7fXbcvAq/e9M/b7RGpwNPMStabHXe3Y1NSEnTt3IiwsrFkAM4JXnz598NFHH6FdNX5HPjADT0Wxh2ZJWZtl1Jad3I6DTb0RFinGk+Vf2pXYZNaCbcfyQrfgJom/1o2astcPi9+0oQPVl0sHmPI1onAxqjqyk/1dN2B0aBmKzJqZVSh43i1clReYtScVGyy1UgZrcCh8H2WNDkQOFeO+rFurzTKCy0KUiCASNlAPGtETh4nTvMJVc/Pcm1oQGWYNGuVrzVql4x+UoCE0CjHaVADYjsN38rjCGktQrI6reE+ZeJ/Y97si16ixWoXiA06ERalqNKF4njXo2c9Zhym7CM4h5/C4mmzVyT/gDiM0iUlZo6WHqIfwuv4KneXztfXgIZwNCdPC2vjxE7ULZPLN2jLxB4sMWnFp6vNzFnt2qs+l7XXt1D8cfUTK2qyFJBkm8rHb6US99Y+i4/txn6VWZnNpBc44wl21TVpNmFFTVYV94mM/IFKvEZLNeX2ceriTXj4oQpdt2fZ5OddaQ2bfts6yb8er8KnTgXDtj0mDAxkJDhyW+2UjAmWqKC+018DpRHgaG4sz1mbKfUUiWDpwRbIP29YC716sNM9pFfKKnX43875yXw5yWOtFAdYjbzVRX1+PHTt22AKYHOS4DF67du3SXhNoURHqr+umhlY7Mdv6upQ+1EH9zmRzYyUq5gHPXB+K36nSDtNYg2o12lHMMNCOdcdEObSaLeMigQc3Wpv5upasWVtfnojpbbiA4fixGhG2hiFV9blLHSmbcXfbas5aJJtizXPiat7sUBv7YPjvL0KmfN8996UqbL+zldtdnwctsFnCWeOxLumjeaau0dLnKRThDvd+RnqHfKNW7G2jGc0Hm2sbxeLxyFA1QrfJgFFZ6SHQtJFs3jP2SwzG1ZomS/CTYWjJakvtlST7u4kglGctk6IdGCBebwuhbpr1nXPnbdsy8MpaMct+N2uWJQpSPTJ8SUYACw0N1UKXHGSTZFcFL6mmTtV2qb/STZFhrv4pneoSTL0+DvErgXveafS9NkJTDvn7P36ktanPjXtt0dAovf9VOzQcU7Vd7Vy3rclQDbJPVzAwmhZl01+DCIk+B7BDNWjQmhaN8FSG9b42h2pNsYla3zbjfHhs2mwv2edLC/vifed3v682cqslHh9hq6LpFBmRepofEqG+/GXocNbjsAxhkP/Kpr0sLaA8ZTSxySY0/dWtO1kvXuvAqNlGOKpCXgc1OWr9w6bFan2tjGZBrVnTDzIMnimvMvunmY47cUKNemOvYXNgcLga9YVsejXOpzF01Hkh6kQ9NnxJMmTJJsjw8HA4HI4uC17jx9+iNTXul00cpQdQgThMMvugpGFBapzW+dfWrNKSk8dQI9aRkqym/bXxIrH8V4idoqZ9sgoFG8q0flnWfkHRSwr1flnP7RbHZe1TNBeZUxNF6HnT95oYC60vVGgZSmRAaue6ZXNcmNl/rG2qa5wIu/I6rR+YJ7LTbm5uLp64XRW0iR5wfZU6cxxgC5X2/mKtc6L2kBq9q7Bzar6kUxe18T5f/tObIEcgy/xs/BRZw3p77hrQgbSaKQutmVCOXBWHIbI5UisVzHEHFk/3vebrtvHDxRvZ6NskBw/NeOEO1X8sFk/6Uaums9ROXZXevOarJSK8eb+9hGzCFKHR1rfNIM5FuRN9UofjNlWi1aA5fLxVxb5KrV/cvEntq+3SP7uvYtFEVUAUAEEXvkJSZiJ71hxkZyYjRPyXnNm++33JsFVQUIB3333Xj+AlO8XrHX21q6kGZ+qdft06xbdIfAHcrXUUlus4iXyzWUR2mi9AzbCfq47EP8fIRlf/Lt/o/VhcnZGfV535O9lz0/Bobhnic1xNVTPxpupTJO8Lpdfc6PMe0DqSu1+d16LQcZir1js3rcZyZV47163tt+xk79rvBzfaO9y35vjiFXonf2N5W2d/4JWSz7R/owZM0P71jbyQwLpP7sclrzTU58lgZDSdGjVjxevkRQnW5lQ5+HhchTehqNxVa/bg1BrsstZ8mU2S8mpI43WfBP9tRWQT5FufIMr8bGRqF7e4XzHZGfpEhGp9sfqkyisKK7Abw3GvvLnnVr0m5uWtsrO40byXhfBy32u+5LIQ6zWa1/Qh3Qwtmzdt0benlQ9HfaF13a7mTq1ZztiHHNU36vh+bJABSdWqyasLd/tR86UFzRaaQF/OfQN59fbmQaNTvLz/2FPFocg25mk3Q/XUP8yTKtynOtkb67Wu21eHT8oz1QffS/Pns0vUPrzDfWeQt5qQV0AG7f3B2nariU4lv+zlFZDW20N0JxMX4dVfXo2a9Tm4/yVV1snkbSjkFZrWENr67UACrM23muhmZNOdh1s7dBRPd43X7qSPzr1bfeu8316i27j9CeROj8LHf7oFSz9QZUSdrEc3O5I3F6Gm8SyijNteUTtMwKKXcpEb4OAla82i5dWzNvrtQBpqOqPzVts8PqIBzpqL1FQPptUexSLbqE0SMialN7sdQ9t46gcVK1s0tU7+XUvWPnXX4HUrnsgVn10GL+oCrPnqDEFf8yUE27Mdu3vNV1cwnvmoJiVPN2LtCuazHcXere2MK2uDkmzey8Ioo4uE201S20WrWbP34wqW50YSkf8YvoiIiIgCiM2ORERERAHE8EVEREQUQAxfRERERAHE8EVEREQUQAxfRERERAHEqx1b9FM8dmcm4ps+Ce7bRrRFsN1qohvxdHNTr2y3gyiz3LW/I8ib5R6HvF1b2dtxmPqCXuqv8eOf15/koKm0PI2ha2VMysK9qY3I83TjUtutF6o8vybg5A1H0zFEG3did2feeLSTb+oacPLB3trd7bvxzVqJ/BCENV/9kKQ9UkgN45JUOZn6/war73wEN6lJ/32DNfNqgQ8HI/56f4OX65E3cvD5IdBdSIYl22N3ZCAK1L4X3oRn5HMXl21DgyrqOOpB6b+PRNQMfx+Uroj30u3DgD1v3YrZL8ghOIJXi+QXtRY81HMOC4HsOzw9OzDQ5A1H9ecuygdpdyb9WY97e0bwIjoPBV34CkmZjMGf5yFv7YtiKEJ1bDomp/RTcwNNPodRfCH1tFovfI2o0N4o2XKhmvaRFlpmIczyMOd1uCHIn/cn7wTvRENjFKLVfkZPFGmjsQfdnHJjL5Q0+vugdCUyDL2bDmGr8VDlYOOsdwsyDiwe6/b8v317sRvxyOiQu8l3B/Lu9j4+fLpbacQR1nrReSLomx1jxs3BGBQhb9tBVRIYtqaYIwWYnf83fVyQ827HIdQMGyF+5VcifzOQlRHnep28w/2QA3i2YaK5jrMlf7Y8PFs1Z6op2Jo15UO9f46w4luxf8gryBosy85iz1u/wPKTbsuZjPlqslVte7Zj688NlLVi8kHMSuM284710Us+wUyUoCFtnJhfhvW5wPScRKBcrq8cmW/NBw7UYHSaXrYes7SHSVfkXo7XnpMr875ufd4olCyrQbrRxGfOlw+v1tediDfxzGIgc+V1OF4zDNOjCsxj0Y5NbE/nxK5lI9QDwyW5jgcwOlRNCuad5JvdmV/uSyZqbcsLWvNjFIqaNTu6rVs7H/4+l/EbrFlbB6z0v/lYe5/HHWrerC5rV38chk0vHECK8Z5za36/Kct4f0qu92Crn4/2kLVeSZXNnmcomyjnYYu647u1+U+odD3/0HjdhogsZItdkg4XvoH79unjzZbVGE2IzZ9j6OmZi/o6PD/vUG9KNW+Bb2lm0++OH77jDexLulHtm+emS20dEXs9PNPRbd9td9j3Pk8/JxU4kTpczK9CnqxJnBarzhvEcnGoLw7FKLHfZ4qL8GlCOkY5rPvW2nbjsG9NPaYazcRtuPP/rU/m4kfxn+EfOffjFVVG1J2xw70XW7f+QmuGebZEPiKlud7DhqLhrT9jT1McsuSjhN76BGcHX+lqChycibvDPtCbcsQ8DLsFC/rLGTJcZSJKhDG9mUesAyNwd9ZPtcUM8RmvYFKD/pr8I70xcoycr2ri5La0vjlyeTn4E7zaSn9uYMUeb8FAhghrrdhj2IVxmLtymZoPhKUNE6FElDcmYroMLLIpLmGUag50YPSVRtksrU/Vqu1OxI+Uy7e+bohoNV0LN3L+WlSEjsO0u9Qs6YPdaLjyOkRPuw6RNe+jWhVLMhhOjxRhTdXmrRIZefRCVzNl6koRjmpFKFLz13fgoxPt6xbHFTkrIM2hMjitufMV/Y+DEPH+E+NyevX4NPUKSby375wo3ufyPVaACvG6rGR9jgxYWaEijKn34LMlwMgfu5rCW/18tNFtSbE4fFCGDvmlfiPelsMdKUCt6xmHt+WIL3ujSVI2Acal48mr1EyhT2qWFpjk/KeKnRgy1tVkeVuOCBEydMhl1+zFGVF2uLB5AGqT6BRki+Cn75fcNjBqur25dMg0PczJ+XmVDowa73pWpC4W2eKNuXur5+A1oFhfVhvMgCODnXVePnZjOO61PIeyT2q8FhZ3O8X6x9bjKXnscXG4TZsbi1Ey7BVWidelawFR7tsVyTJEtr5ubZ/NZmLx83AMR7bl50F0Pgru8DUoE2Nim1BaEthaL58c+cAMPBXFHpolZS2B8Vf+ye042NQbYfJByMmZGBlSiU1mLdh2LC/08MV0pMCsKXv9cCUQOhDjtakOMOVrROFiVHVkJ/u7bsDo0DIUmZ3QV6HgeWu4EsoLzNqgig3Nn+HoKrOuR/Bl3VptlVGrtBAlIiCFDZQhJgGRWq2SKKsdhmkzo1D7gbWj/DJMS3PY9uf44hVaQBwmw9u015GeUIb1ftdG+UIGWuu6xXFtKEOYDImqxDcXourUWQyb8I2abt3r+UZoEn9cyPeqClGu2lldxWYj2P8N+48AUREynP0UWSK0Wd/3W7e+qgWtFBXOWv18tIl8wLQT9WK9MiRpX/giEKDeaatFeTnX2gm9CvvEx2dApFHbJIhwZdRUbS6twBlHuKq10R9WrYc74XgVPhUvsy3bHsf34z5LDZl924pl316W+xHusPdlEzs4xFmBzW4fnoxJw0X5Xqy01cApVw3HKIe1mdKJJeut4Uqo3GsGzMM73GulnK6wJ7aRZ9YSCr6sW6vBM34mHn4ePnjlvhzksNaLepDgDV+ONExOj0F10Toc9PD7pDvSv7iEpgZU6GNeVRy2NM+UPtRB/c5kc2MlKuYBz3TGw44ba2w1Sh2qA9ZdvKcG8ZE1KBYB8PixGlUqOVF7SI0G0rRYhMkaO8sFDA/Kptg2+N1dcSiIOoKKd05iTVv6fnlUif2lalSQgc0Vzs6ioVaNBpTsF+Tq85QhkvWZOletl0Y2TRq1YmIwmhdb1yhzHIYkqVqb6Fhc4XDi09KO+gUka4lc+/W224OyJTP4SfuKLLVXkuzvFushHIl9jhBhxi2E2jTrO9eBOnPdRD1UcIYvGbwyxZ/QJXnYeVSV9QA1deqLKyTM1XdJkp2e1WjnUlfHrQTuecffq+PKtZYdvRnQi9AoxKhRzdAodYuFDtCuddfguKxxe24aHjX7ZgmRsaqGyYHIodqIYtSWBYK8/YTenGkO1n30iezzVYlRn4ifrd9Xr7aVqsk1xSEsRI12mlBZESRCkQMD9AItdJyo1UOY/Fe7BYMItbIfl9H8llepXtwqJ47Ui3/iVHgT4QjFWzqmyVG4LScLo7AXT6n9Mpo1faaFwSrss9Y8KYfrWgmI7jVs/cObBb8268x1E/VQwRe+LMHrvf2nVGH3Nn78LVpTo1aLUHoAFeKLapLZtyYNC1LjcLakwPdL/E8eE3HC0sTjr40XieX9vTpObxJDwizcbOlLFb2kUL/a8bnd4rgSkW72V5qLzKmJaNj+Zvvva9WZ61ZNlPFTXzeb+qKXZCK+cRsKZUf/wio0iG1rTZDavE8sHfMVMxjqfdOaXxDhReH7KJP932x919qqN2rEjycw9CbI+NTfmE3h48dP1O6Hl2+pKet4es2Ui95MKMNzhviZyOZInd40qbkq3feaLxHcpsbJe4a5gpu9I73kQLjWd1PvqO57rZpi1k45sHh685qvlrR0ewmtCdOtb5tpXyUOi3M1dZLR1KfXoJ3piFtVdOa6LWSH+9zcV7Fooiog6uaCLnzFDEuG/AM6ZFi2615fs2Yiyb8uAu0kO8VbOiQPztTG17h1im+RpRPz3cNOWm5cKTvNF6Bm2M/1dd75c4xsdPXv8o1Yx+ZKrVO+vo7nVWf+TiZrjnLLEJ/jaiabiTdVP66FeG3KWjSkPaDm6R3JfboRaavasW6taa9lxfMux/racZirjmluWg3Wm7VPYtuWY54bVaBdCGAS52R9udF0+AAiN6y1NSnLsKbts3YVpvE6ozO/CLQ/1jvZ68elD93h3mmyCTK/0e09HpBbsoRiMGRfrFhkyysKi6swZFoWRtWrPkvH92OD7Kg+WzXtja3Hbl9rvrRl5XrVsmr4qxksqnCfCOOyU7wsl1cc2mrVzOZOeeWfsQ9ZWKxS/ctbZV8o4zVZCC/3p+ZLBs0WmkDFvv9szV4MUPumDea9z+T9x4pwIjXL3PaoelffsvbpzHW7HD4pz1QffC9tgl5A1M3xDvedQd5qQl7hFZAvo7Zo260mKFi1/VYT3Y3nWzt0EE93jdfK4vGph1s+BJL320ucJ25/ArnTo/Dxn27B0g9UGVE3FtxXO1InuQg1jWcR1ba+3RRsppzDsNAOvno1SMnaI6ROMGuTZI3Qk7bbGrSDh75KGcnxoqzrb/65eVP+eRq8bsUTubkMXtTjsOarMwR9zZfAZzv2AK5nOzo/HIzhD/v5xILuSjbvyZuAKvabpLaPrFmz9+MKludGElFPwvBFREREFEBsdiQiIiIKIIYvIiIiogBi+CIiIiIKIIYvIiIiogBi+CIiIiIKIIYvIiIiogAKvltNDMpEdrrlEcpVRcjbdlBNEBEREXVvQX6fr35IyszG4M97zkO2iYiI6PwW5M2Op9DUqEaJiIiIeoAgD19JiI1twpEq1noRERFRzxCUzY4hKTMxeViIPsE+X0RERNSDBP2zHbUgdtkRvFewHU2qjIiIiKi7CvpbTTRVHUGTIwx91TQRERFRdxb04StmWDJCqspRraaJiIiIurOga3a09feS2OeLiIiIepCg7/NFRERE1JPw8UJEREREAcTwRURERBRADF9EREREAcTwRURERBRADF9EREREAcTwRURERBRADF9EREREAcTwRURERBRADF8tmbgIr+bmIlcbnsCtqph8cGcjKtaewVw1aTNwBQpnFIhhBe5URUREROeLIL7DfT8kZWYj2dGE0oJ1OOhUxYFy+xPInQ78I+d+vGJMZ9Tj6duXYov2AuDiBY8iebRDTVWg/Ian0OOfFXDrvRgx4RRK73gVX6miZqacwd7fnkXJ7/tj9kZVZroDz8/IAXZk4hfHVBEREdF5JGhrvkJSJiO5sbqLHqg9AYsyovDxn1Twkl7Kw8f4HjIm6pN9l/9RBK86Ebh+hU+0YT9Cl39fn3le+wZr5tUCH0Z4CF5CyGWIRjn2MHgREdF5KjhrvhxpmJw5GEcKPkFY5gg0+Fnzdemll+LcuXP49ttvVYndBRdcgF69euGLL75QJW5kLdewfci5z4xemgkLX8VcrMIt2y7H0PlDUb/iQdRuVjPd2GvFgNr8X+GoXJ2sOUo5haMRozDI4cTR/EMIzxqF3s7dqjbp+xj0ZgoaV5xCzHxRLhc25+m8rluQ8+LwGqoj70ZCvF5mnQ8kIXL13WLbarIiH58seFcf1/ZtP0prJ5jrP7vrWRxafhDIuEUcs9ofG7caP9ncOPkiLJ3VR5wpD0IewdtTI/DO2/PxgioiIiI6nwRhzVc/JI1PBkrea1NTY0hICDIyMjB27FgtZLmTZWlpaZgwYQL69u2rSu1uHXY5PivRkhKeMPp8vbQIOFGjzb/42qEiLB2C00vwkiHGViuWX4HIrEcRmaHmx4/CJVt+hfIKBwZl9UP1DfmodQyFw5iPeCTMl+Vy+WdxFKMQtyBJn9XauoXeo+9GTO2z2vzSXU5ETrgFF6t5fZeL4FUnApex7ogsDDXWLcVnITlyi7nu3qOzoJ2lza/ikCrTwqC2vBzsTa2Pj2iAs7SX5+BFREREQRi+Bo1BMkrx0f5TqsA/TU1N2LlzJ8LCwpoFMCN49enTBx999BG81fgNjjiD+sMi5zz5I0R99DRy1n8G1B0x+3q1LEmEnXic3ZXvCiWvPKUFrfBrVcgR4eWkqomyvc7kxNEVRqg5CKdIob0jZTWWD+uWKvL12irhqw8P4ayjnwpf30dofAXKjZouse7aLSJgJV1rhjMtWBnzX9mPWkSglyXYtewbxPYDaqovVNMehESgb1MdDqlJIiKi802Qha8kjEnvi9Kt29GkStqivr4eO3bssAUwOchxGbx27dqlvca7Ghz54FZcFf8ZNi7bggkDonDmpEhjfjh7Qg8/HSYi2gxIbV53RjR6y1q1N/+IEcaQpdomO8TXiApVo+5kc6O8wnHwHkzb8BDeU8VERETnm+AKX4MSEIMQJGfOQfYsOaS7psdZanZ8YASw0NBQLXTJQTZJth68gHDZ3WniYETpkxjSvw9qTughTP771Yk6wNZM2FzvAdb9TUKvCDXaVnXHzT5f7Vu37KNlNBmqoaUrF/1yEWoa1ai7pocw4+1MTDsyEoVTH8FkVUxERHS+Ca7wdbQAeWtftAxFqIa81YQY3+Z/bY8MWbIJMjw8HA6Hw6fgJdXb+prJGjD57wRkfE/MkxVgr+TjqNOBQbe4+lLJJr1B2tWOqpnQ6Csl3ZqFQY4KVKumQL9k3IK40Q7U7pdNge1c9+YPxbHFI6E9V2V+dgpnvQbPC1F1CoiK+UZNe9BUh9MhERiqJomIiM43QdjhvmPJsFVQUIB3333Xp+Cli8JgbMb/OC/Hj3KnoP6jz3D59F/j6rqNWPqBnH8QtXfoHeGTzSa8FDSqvlJfLX8QpbsiXM17WRGWPly+EMFuvlp2/iictVyt2L51q/2OyFL7rA+2Dvet2fwqKnfBtX9v3usKgsLvPgmD49rTeFxNExERkV0Q32S169z6ZC6mnHwatyzzrYt9x5K3mpiAL1u4jUVw+wZr1h7BsNLBGP6wh473vNUEERGd53p8zVdbvPKPj4Fr5mKRuqGqbHp84kk+XMg3F2L2ykjg2jqsmaKKrJo+x3FE47IQNU1ERHSeYfjy5IOluGV9Da7+pfFcxx8B2n2/yCcb+2D42xdj3DxPz3ZcjV/sOI4xU/lsRyIiOj+x2ZGIiIgogFjzRURERBRADF8eXH755WqMiIiIqGMxfBEREREFEMMXERERUQAxfBEREREFEMNXEEpd+Rke3KgP9yxpfrOGHu2qdLz9mywsjlbTXc6BxXfciCevUpNdIhZP/uZG/HWSfOgoERF1d8EXvhxpmKw9VNsy+PlQ7e6ueN7leHTK5Vhfrgo6mAx3512oIyIiChLBWfPlLMV71gdst+Gh2tSdNeLIcTVKphO1tie+ExFRNxV8N1mVNV/jgY8KtqNJFQWavNXEZ599pqba6K5CPJiTqCaAhu2P4ZnFq9TUXGS+9QBGh6rJ8rV4dN5CNeEia6jSa6zLKbZ1O7Fr2QgUFKpJzTLcvHEW4tUUGrdh1Y9vApZ8grlpHpquLNuPdntNRe7leO05NSG3O7UGq54HZi4chzBZ1mzf1ba9HFPbyea/LIwyds25F0+t3g/98ZeyWS4O+9bUY+rs4ejjPl82ZSZV4qm64bg3VV/BmeJ8/GyTL2FG3274jiJgWjqGaGVVyPtDEV7WxoGMSVnmeqXDhW/gvn1yTN+v+uJQjBLzzxQX4dOEdHEMTuxek48lWsB0O67KIszIrVITRETUE7HPV6cQASQnSoQivflQDtYAlbpSBK9aEU60eY9hV+Qs35sBp72Oe6zrzq3B6IWFSFWzjfATJsKese1HRfCS3/PHF4/QpmVzpgyD5nwjJIlwNTetBuuN8twyxOd8gsxp+mxN6DjMXRiFIjl/2TY0JGTa53eSjEnDgfVvYMYf5JCP3RiOebY+ULHInh2ODd7mx6Xj3oi9+vJr9oofwgS/+pUNmTYc9WvUup2xmGqsWwS7e1MbRRhT+1ZYJV5r7bMWi1Fyu6K8T2q6CHFvIK/SgSuS9eVvyxHBq14ELmO/w9PZt4uIqIcLzvDlSLb0+8pEjCruXhxInOgpUC3DsIQyrDdrhVahYEMZwq68Dr5kgeiJw4DtK1w1Xc+9iV2NiRh2lz4ZvSQT8Y3bsM69tqxVc5E5NVGEsjdRrErw3DQR1NyPQ9a0TdNfU/g+yhodiByqzVAW4jVroOsgmzcVqZoiyYnN5U70iTCqDiVZm2TURnmYL2vCjBql41X41OlAeH990heHC42aKuu6HVg8NhZniveatWDYV2QLV9p+bVXbFfuQp9WIGWJxVVwV8syaLieW7BAhLSEWGaqEiIh6nuALX87ttv5e75X0xZhuF8BEAFm2DUh7QF21aKmZmhaLMCRiurqaURsszZOtiYlyIMxcrxwszZeCnI/aKq2mqy0ajrUS2hpLUGw2cYrg+GNLs2Rnik7BX39zI95Wg7WZz6twR4shZkCksQ79ikZj3XLw5+rGNvfFinZggKyxs2z3bfH+ICKini3omx2bqo50Wd+vdim8Cc+o5rtV26NE2LI2DZa5mvaMQTUN+sLWZKgGIwBV17SvU3bYQGst11xER6rRLhWLJ2cPB4rzVfPcG3iq2IfjrHeqPmGeuUKTE0tWq2ZDNeh9tnzjCnGSA4PD1ahPZP8x+7ZnmH3ZiIioJwry8NUPSeOTEVJVjmpV0h0dP1ajxgStqS4R01cuUwX+Kd5ThrC0+V77WR3/oAQNCbNws2qG9EQGtObNnKtQfECUp93gCol33YDRoWUo8qsJU/Y5+wwPtvH4WmKGpegUzGup5kvNP3zQc8f1jEkTMMpRhX1+BCzPVBNk6nDcpkpw1XBt3Rt86cyvNX/GIjunfbVdtz6Zi9zcXDxxuyogIqKgFnRXO4akzMTkYSFqCmgqycN7+0+pqcBo99WOblc6yi9p+xWJblc7Cq6rId2uVFRsV0s2W7+sSVP9sCTZKd+4GlFSVzu6ata8X21pv9rRbb+Nqx1brKXrnKsd7VcUVmG3vIJQdmTX+kvJqwqNKxF1risOBXm1o605z361YsuMqx1d69P2xdy2+75Zr2SU+yU76ovp/mIfxtZrV2AOybkRU+uMqy3drnYUfL8SU7n9CeROvxxnPnoatyzbogqJiChYBd+tJoJAh9xqggLIEnI8pUIZvlTw6ZHNeRMX4dVfXo2a9Tm4/yVVRkREQYu3miDqtiZg0Uu5yGXwIiLqVhi+iLqtLVh6ew5ychi8iIi6EzY7esBmRyIiIuosrPkiIiIiCiCGLyIiIqIAYvgiIiIiCiCGLyIiIqIAYvgiIiIiCiCGr55O3pX+rdfdHiXkjXo0kDZ84vURRkRERNR2QRu+YsbNQfYsNYxLUqU9R+rKz3DPEutDrIPBQrymPah7LSpUSfcxCQPuKUD81WqSiIgoSAVh+OqHpMw5GIMi5K19UR+2HVTziIiIiLq34LvJ6qBMZMeVd2ng6pCbrLo9/Np4MLb9wdUWtgdRuz1c2zpPrnfkbqyqyTTXY3vottBsG7YHa7s9VLvZQ7cluf1M1NoeBq6TNXbTE9SE7cHbcr3zgecLELnQ2He3B367HZf7fkv6vsPtQeQtc9xUgGTrU7WV0zuXY/+/NgEDH0HKf0Wg6tE9iHgwBwPkzIaPsOeZh/ClGL3kB3/HyMh3sOP11XKO5fXzxRFKslZtAeKNJ5UfznW9loiIyE9BV/MVExeDpsZ+GGM0OYphzCA1s9sQISMnSgQI2YSnD0bIOL54hDa9vlwPH8Z8V/CSAWcUSoxy2QSYMAs336VmSmJ6blSBPj+3DGFpNyBVzZLhbG5ajQg9ankx3yp6yQ0iIBnrfgy7MA4zfWz+lMFoeqQIa2rdq7YDoxcWurYNh5iWoU2tuzER6ea6ZTibhTDzmNeiIe0B+3G1kfP1TOx4dDkqGoAT+XJcH7TgZUpA8oPX44u/yHm5OBF2DWJ8bKJ03CSCV50IXNp6xXYicpDyg0lqLhERkX+CLHz1Q0goEDIsDFVGk2NRNWLSZyLJQ2VRcHMgcWLb+nQVz7PWFi1EiQhqYQMt65K1VUZYe243KhCFaK1zvAg4UxNRkWtd3u744mmWGqVVKD7gRFiUWZXVgmWYluZAxQZXLdnxxSu0gDXMEqAqco0aK7d1T7sOidiGdWZN10IUbncifuQyNa3Tw6nvtV7+OJH/E5w4JsdWo+4w0Ke/LwHqDkQMKUepWdO1CSe2lqNv0iRcokqIiIj8EZQd7quLClCtxnF0J0qdIQgLUdPdwkK8tmwbkPaAunLQWjvkA9m0aF51aG3m6wDTXsc9lnV7bAL1yonaQ2rUX0OjEBY6DnPbvO32Kkfdx2pUkLVl9poxLwZehj5arVkBxhpDVkf+QIiI6HwTZOHrFJoagb5h/dR0N1Z4E54xm+eiMN3XACbDUY6svdKXlYNsouwYy3DzwnGApblz1Xa9V5NvHIgcqkY1CYg0+o75QtbYqe2ag6W5NXiVo1Q1ZZqD6i9GRETkr6Cr+aqurEbIsDGIUdMYNAbJjmpUHVXT3dDxYzVqzKW6xomwK6/zcv8tSw3TXYV+1HytwvFauJryVJBz13BMNf2J+TN9rn3Smz/jp7ruGRa9JBPxIlAVPqcKWiKbR0Nb718m+5W17R5jm/BFHTAg+Q417aeIy1Qz4h2I/69r0FcbF45tQm1DApJvanm9tz6Zi9zcXDxxuyogIiLyIviaHY8W4L2Svq4O9+nAzrWWZsjuwK3Z8EGt8729H5bWXwqWZriVKjAV3oSictlxXZVPrcEuP2q+iufpHfS1ZRdGoWjZNjSoeWY/qxy1bjG/zFrzZe63vCLR2AdXECqedznW17r2WevY3+xKSW/kPcT0Tvb6NvShIzrcG5yv5+LEkByzedDXTvFf/utZVOAajNSWux5f5H8E1/W/m3DiGb2Tvdns6GHdr5ToV8dGDZig/UtERORN8N1qIgh0yK0m6PwycRFe/eXVqFmfg/tfUmVEREQeBGWHe6LuYwIWvZSLXAYvIiLyEWu+PGDNFxEREXUW1nwRERERBRDDFxEREVEAMXwRERERBRDDFxEREVEAMXwRERERBRDDFxEREVEAMXx1Iv1ROR17F/fubS6++XUFzj2shpsfV+Vk6Lv8jxi6IElNteb7GPTmHzFCGx5FZIYq9tXANfi38bN4eC++GajKiYioUwVZ+OqHpEz1WCHbMBNJvj6CkFqVuvIz3NPKMxY700X/jEevh8Xw2u9UiSEJkauNMCGG5d9X5cFLhqURb97rehZkxi0YKvbd9wDVHu/i6A2/wic35KNWlfjl2Gx8V/4cHl6Li1QRERF1viALX6dwsOBF5K21DEXyqY6n0WR5BGF3cXzxCDw65XK85suDp897shbnbgyqyxdhQgYKMexPwaBb1eyglIReEU6cdUagl6p1uvjaoYCzG75ZiYgoYIL+Dvcx4+YguTEP7+0/pUo6X/vvcL8MN2sPp5ac2LVsBAoKtQn94dUja7ArchxGh4p5uSVIzBmHsMZtWKU9pFouOwoly2qQvlCUy2XMeTrZnDk3zVUVWJFrCXhy/VNrsOp5YKaxfPlaPDpvYbPlTGq+Ri6fk6iPCw3bH8Mzi1epKZ2sOZueUIb1U+wPC2+dbHZchG+3xOOi3apIuXjBo0hOOoTSO17FV6rMToazLESqKTh3m6+Vy8bhEM6OHiXmV6A8H0jIEme/QgS5BRWIXH0zcLAOg0brZeXIQoIYrc3/FY6+oq9O1mDJMp0TR1c8iNrNclzWxonlX92CS+Yb2xfbuOEp8SeBmifWHY58HFoORC6/FudqhyIhcovY9rvaq72vW5LrEKHT8mM5u+tZsa6DYkwe8wR8aXm9XFdMrTHf0Px1Ord1a+dD3ye7x/H1w5m4YOVwXHhMFRERUacJ7j5fjjQkx1ajNIDBq2MsxGtTLsejU9aKr2kPEsYhcsPlWF/uwOicKBTJ14UOQ+o0NR+JmL5Qlst1PIZdGIeZRjOhCEdz02pE8JHzxJBbhvicT5BpLiuEjsNcY/ll29CQkKnNN2ri1pfroUpbXg5G8JLBT+zPrmWqXAzuwatzJMGR5MDZgx96CV4yRGShtwgleq3YsziKUUi2NEv2Hj1UhA9R7oxHwoRTKF2xG2fjU1RzoAODkoyyLC28lO5yIjJFX16Gt4QIEeZUjVvpLmDQfEtTolx+vgw3attiGzHWZsUP9+Ns0rW4OONaXFJrP4bW1t13ub22r9zjG6Zt7OsW+x2RFaDmUCIiaklQh6+YYclAyU7IhscepXEbClVNVcP2Nz3UHsnaMqNWaRWKDzgRFpUgxucic2qifZnnpmkhLnGitQ+XZfnC91HW6EDkUG2GD9zX1VzxPBnM/K31aodbszDIUYFqs7bnIGpftYYroWKLWetTu6V57ZmrzLoe6fvoP9phW+ar5a9pASvU0uRZm2/UKh2E86ATvSNlVVY8LtFqld5FY91Q9J/eD19+6Me6M25BTHwFyj3WRrXX9xFqW7c4Z1sq0FuGRFVCRERdI3jDl1br1YQjVd2t1quTRMYiWo02HGulNqqxBMVGM6cIbwU/9rXf2UK8tmwbkPaAdpXmgxsLkarmdDnnqWaBquM48WU7n6N+en8dIiNOwSkC2lcn6lSp1P51t0lGNHqLcJhgXg0pBtkUS0REXS5ow5es9Qqp+gQH2XdZV1tl9vkKG2itmZqLaLMjVAcovAnPqCbHVdujMD0gAewgzom80mKtjKOffd7l/US46CgOXHK5GtUYNVq+qMM5WSP2ylP4xNpfLSJa7W971t1esm+a3pxpDl771BERUaAEZ/hStV6lJdYmnPPUtNcxM82Bij2yX5Zqgky7wRWI7roBo0PLUORH36zqGrGOK68za9K8OX6sRo3ZyQ73HV0rdnr9bpx1jEKctU/SrffqVzu+sh+1IrS4+lklIXJCPM7uykf7LxV5F40VEOu7xQx3Fy+YgEjnbpxUnfHbrpV1bz6Os+K4jOZNrX9Ys8opV3jzPN+LzR+iXvZ/a+ftOm59Mhe5ubl44nZVQERE7RaE4asfksZ381ovecWg1mwnr3h0YPRCOe7WKb5FxjJiWDgODZarGWWneb1GSs3XOsj71//q+OIVWif+ucY6Vi7TZ5j73fZ1t9nmV3FoxW5g9N2uZrKU/epqRHk/q3ycNefpHcntV/y13ekFv0J53Sgkq+0mj65DuS81RFrTXstaXrc4rvwKRGapeZFbtAsBXJrPt3XIF+FUPx/yKkx5UYAcN262ehC1d+id7PXX6IO/He5fKdHbTKMGTND+JSKi9gv6W010hfbfaqI95K0mMlFrvT1Fj+H9VhPUlVq41cTERXj1l1ejZn0O7n9JlRERUbsE9dWORNRVJmDRS7nIZfAiIupwDF8UcF//kM92DArmsx1n4WtV5LIFS2/PQU4OgxcRUUdjs6MHXdvsSERERD0Za76IiIiIAojhi4iIiCiAGL6IiIiIAojhi4iIiCiAGL6IiIiIAojhq6eZ9jruMe9SH0QPxm6VvLmssd/+PA3AD1el4+3fZGFxa89VasVtOTfir5PUAxrlOu9IgXZTeermHFh8x4148io12dGiU/DX39wo3oNySMdtqtguFk+K+eb7i4h6pKAMXzHj5iB7lmsYM0jN6E60ENQF4cd4MPaybWhQRX5p635rjyZyW85TmVcL8Zr2QO+1sD5BJ+iIL9CpcVXYsIlPfA9enRmi2rHu4/vxsz+8gRlr9uKMKiKi81PQha+QlJkYgyLkrX1RH4qqEZOeiRg1n6h9GnHkuBptg4zkeKB4L15W00Sd4UQtwz1RTxZ0N1mVtV7JjXl4b/8pvcCRhsmZYShdW4BqvaTTte8mq7L5TD5Q250Tu8znNc5F5lsPYHSoNgMoX4tH5y3URqOXfIKZKEFD2jixjjKszwWm5yS6XiNrk0buxqqaTMxN05smGrY/hmcWr9LGTbIGa2EUiqa4PxjbbduN27DqxzfhuE/7re+fsV3I/TPWL/crB65pyVambzdyw+UoGfkZpifIF9jXrWvp2ZZqHy3nK7Bkk9Bw1K/JxxIjwMlmx7H1yCuPR3aqfl7OFOfjZ5aaMdlMmR2nJsQx7zaWl8sm1WN3+HCMcojywgpcMW04+jj34qnV+7FZe73cZjqGaOPN190quY1psWrCbXnZDDZbbE+fAiqLMCO3SozI2p0J4j3XiFGpYllRnod07RgOF76B+/aJEDopC/OwBRsissxjM+ZpvK5b0I67Ek/VDce9Xs6ZXL8xD6hC3h+KVOBV+7Z+L8JnG+fFNd9+rl18O29y3VkI31EkPj/+rhutnjOTdm7CscE8JiI63wRdzVd1ZTVChmWrpsZ+SBqfjJCq8oAFr/ZTzWdas58MJ7IpTQ6uMJG6UoSfWhEgtPLHsCtyFu5ZMlefKYSlDRPhQ5Q3JmL61BqskutKGOVqvkuYhblRBfryYh7S5vvcRyp6yQ3A88Y+iW1gHGZq2259v2WYmptWY85btT0K0996Hf50oYrP+QzpNY9py68vd2D0zGVqTvDLmDQcQyr3uoKXwTEc2RF7MUM2KRVWoU/qcLM/jwwR2eEiTMl5YnhKJNNRIjSY/X3ihosv+zeQV+nAqGn6F/JhRzwytJMqw0A6Bogvd23dYt6J1Czfm7y04BUqwp6+bTm4AogIdSIcnRDBwFj34bh0S18jsT8J9XhKNpGJ8ql1+WLfnRiS5ApyfcS+yHJteXHcQ0Rg0Y+rtXULYvpeL+dM7ve9qY0i9OjLP1Ucimxbvzqxb2L99dpx5WO3MxZT1bpfzjXK9NCjb9963K0bIgJw29bd+jkjIpKCr8/X0QLkrRV/eabL/l7ZGPx5HvK2HVQze4JlGJYgwo1Zc7MKBRvKEHblda4QU15gBp6KDbJWyo2srTKWL3wfZY0ORA7VJ1tzfPE0S43SKhQfcCIsSquGalXqyERU5Lpqto4vLkBF6DCk+tM5vnytWUtXvKcMiIz1I7ypgNgltV4OZCQ4cPigqr2xkjVVRq3OvkocRigGawcVq9WGHd5h1GIBmzdt0b7QrzIClFg2T9WKnHFvzoyOxRXYi5Xml3sV8nz+MhfBbWysWOeW5mFR0IKkZdty3ffJEJQQa4Yc13576eNWWeQKHpbj9mXd3s8ZcJs4vsOFrlqhzZv2WgKp7nChUfvoxOZyJ/pEGFW57deedbd6zoiIhOALX4MyRegagYYC2eerCKeHZSM7Mw0hana3Ny0WYUjEdPPKPjHIZsV2Chvoqjlrke1qyM8sTYitmYvoSL3mytxvj82ULavYYwlOz03Do1qTZzdw1XCMEkHIFSh85UT9STXqr/7h6OMYjnvNK+RutDTFtSYU4eKlLfYdqhfhQo12DAfC+6vRNq/bgcHhsvbJdczyykCj2ZWIqCcIsvDVD0nDY9BU8h4Oat8ZB7FTBLBqRzKSu+MVj15Zm/XU0M4Q0nDMrc+XR8tw88JxwHa92U8Oq7b799d5Ra7bfhvNkodqPF9d2VjTjZqMvZO1MWfKq9oQKCyBRKOHIp/JGiLVvGUORo1Rixpl/mmZ2BHrLTIyIttbe2QJmu1ct7VZTx8s/eyIiLq54Kv5EkJC+6kxYVACRBxDQ5Oa7i4Kq0QYScSwu9S0QWsmTMT0lR3T1yl6yXyMDi1DyXOqwAdmUJv2Oma613x522/VRBmf4+XWEc2Wm4vMqYloOPB+B9ZsyQ73n+HBDjp3drJ/laxl8XAfsDbfXqJKtqhhyFhXf6XmTXItkM1xjuGY1+I9n7ztt95k5uqHZbe5tAJnZF81s/9Y8yZSf9yWky6OqwKbxQ+7fetueb9948SRenHevTbPtvCzblVr6+5ctz6Zi9zcXDxxuyogom4pyMLXKRwsKEJ1bLrrPl/pfVFasE7VhHUnC/Fabpmlmc64cegqFPxY72Tvar77zNbhvlWh4zBXLad3gHf1w5JXI2rrXDjO0rxpBKaFKNwuA5Ta7sIolDWr+fK237KP1wi9k71Wrgazw71Ybtk2hJnL6RcVNLsK0xvtnmByOdmU6cDohXK8k2626id5e4k+lZVtujJNdtLOq3c1HWodyc0rGVtThftUJ3tXE5zv95javEl2+A5FtmVZs9O7vOfUmr0YYDbv6R37bVfltSYu3VyvdlGBcVztXLen/fb3RrYv5+qd/I3lbZ3926mt65YXX2jLaFeBikCqLe9fyHylRL8KO2rABO1fIuqegu5WE8Ggfbea6GQypMgrILtLX6luz8PtJUgLEtrVij41gVKHmbgIr/7yatSsz8H9L6kyIup2grLZkSh4yNonBi/qahOw6KVc5DJ4EfUIDF9EREFvC5benoOcHAYvop6AzY4eBHWzIxEREXVrrPkiIiIiCiCGLyIiIqIAYvgiIiIiCiCGLyIiIqIAYvgiIiIiCiCGr25HPWJHGwJ8B3jbQ7m9PGaoE/3n5gqce1gNv16Db1W5i7whagfczfyqdMsd1fVH0fh6V3ki7f3j5dFFtvfwzY+rUiI63wRl+IoZpx4tJIfMNISo8p4kdaWfjxQyLcRr2gOt16JClfhMe4SPW2jyVOZN4U14Rm572TbPD9EOgAt3LEWvh+PR6+nZuECVdSwRtsbGtvkZhxQYt+V07CODAuU7r4n3rnj/XrKj2z0vjYg6UNCFr5CUmRgTWor31r6IPDHsbEzG5HFJai5R607UtuOLLToWV8DHB18TedWII3wqAhF5EWQ3WU3CmFnpQJEIXUdVkSMNkzPDULq2ANWqqLN1yE1WZY1STqKaABq2P6Y9ZFo++Hpumoe/2MvX4tF5C/X5V5bYnt3oqUxvfsxE7bIRKChURYp9G2WuB29r+wTbg7htZbJZcWEUiqbsxjDtAddC47bmz5E0X2dZj2YuMt96AKND1aR12wZt2XGAOh/+kE0239QuxXcL/FvOH7JGZWpdPn62yQhwstkxC+E7isS+p2OIVlaFvD8UmQ/a1p5zmOr6mR4ufEM9RFo2g8ahvjgUo8T8M8VF+DQhHaMcTuw2nxWpr3+UsXhlkZ/PS3Rb3rZvcvvGPgtO18Ov5T7PQwVOpA4X88Uy4j2UPS3WtX3ZdJZUiafqhpvHdqbYel70c5UdpyZgPSb9uPetqcdU7SHScrblwduSXL/cnsa6rLFvW7AhIstcv3FO3c+1ya/z5v28tHw+pZaW9d23mXvxZWQBer32O1VCROeTIGx2bEJDkxqVnKdwGn0R4uH3bfASwSgnCruWyeZBfTCCxvHFI7Tp9eV6IDPmy+Clzf+gBA2hw5Bq9uWai9QrHWg48L5vD9IWYWpuWo0IPfp6V22PwvS3XoeH7ideJGK6Furk8mtREToO0+5Ss1oRvWQ+RteKEGkcU7NwFuSiUzA1rgobLAHDMGSafLj2G5jxh3zsdsZiqtHkJULEvamN4gtazhNDYZV4rbW/TyxGyQdQi/I+qekixL2BvEoHrkjWl78tR3zR14vgoC0v1h2e7kdzmgoK5vJyMIKCnJeOASIwmeuGCFI5RuCB2J947YHh8niyx9bjqTV7cSYuDrep+YgTxyb3XS4v5iF1gnlcMgRlh4vgobb7lPhBj5qd7lpWHHf27HBsUPt02DEc2Ua/OXGe/zotVAQufdkZhY1uy8p9y9JCsL5uJ4aM1fvgbd6kl+VV6mFQW14OfgYv13kRgyU8ZUya4OV86m7L8b4sEZGvgix8HURVVQiSh7maGWPGpSNGjXcvDiRObEOfrsKbUFRuWXbadUgMLUORj7VEqSMTUZHrCj3HFxeIAGUNc62ryDVq0xaiRITEsIF+HEfCqJb7j6l+Y/7WegVCRnI8+lRW2r5sDYcLjZoZJzaXO9EnQlbviYAzNlaEgL2uZfYV2cKVVquzVQUDp3tzZiyuEmEvzwwOTizZIUJaQqzq7N+Kq4ZjlMO6vIWa5wqSYt3r3cJV5V6ztsljHzdZq2Os+3gVPnU6EN5fTohgleqwLbN50xYtxF1lXpgga7OM4FKFfSIsDYjUz4k8zyjeYm4b+/a6LStUFpm1bJtLK3DGEe6qbWqHjEnDMUQc10oPAdtkPUce+PzzISLyIuhqvqq3FaE6Nt3scB8rfglX4zSaWvhdGXwW4rVl24C0B9p0ZWDxnjKEXXmdVlsVPXEYsP1NH2uQ5iI6EojPMa5IlINqPvRZGUqeU6NC8Tzfg5Ks1VtfLmvO9G237YKCriIDBVxByQ9t7mMW7cAAud3f3Ii3jcFsimtdRqQIgM56HFbTzbQ0r42MACXDVf1JNeqnIREOrWbLPObfWJv5OpfcNupFgFbT7mTNWl6l62fiXgv5cq6qQVTzeRUsEbVFEDY7HsRO1dle63Df1A99nQ0ifnUzxpWBRtOfPwHsud2qtko2OYo49IF/tUQVuUaznzGomqxDNZ6vUmys6bD+dDKs6dtciwYRPrtNALsqDkOcFdjsU9uunSuQSA4MDlejPpF9iowmLv+asjbXNqoxL9xri/qH6/2v2sEVNI1aMEMowv0IULYmQzXo/eQ61+G61oPyy7nGPhXhhAiJ9gDmxJLVav6avRgwjQGMiPwXhOHLQutsPxhHtm6HtRtYd3P8WI0ac6mucZq1W80tROF2YPQv5iOxtqBZh3rvVqH4gBPxOV6CXmGVCF+JGGb24ZqLzKmJvvcn80s5PGYDda+wrghlsoO459oKvfnQ/9tLqCbI1OGuZqpmzX0t0JryYpFt6YflkXbfKLHv7q/bV6n1pZrnqY+YnAdL3zRPTaR+0PpCiePapwUkvRnR6IclGc15vlwl+vJB2f/N1X+sLWSIarH5z8s505ow49J9DEyNspLMu+NOnFCjRET+CLrwJW814brHl7zKcR0OtrFVp8to986yNP1pne/tnc+PL16BXRiHucZrVi5Tc3R6x3sHGvboHfFN5rplc6IDoxfKcdfNVmXTn17TptYrB7PDvd4cGmY2Sz6gdZD3tVlRXkWpLbdwHMK0jvlyHUbQk1c6Guv1f91dSt5ewgwW/pHNVE8Vh7qaDrWO5PZO2t7JWhS9k722rBp873BfhftU7YxreaPjuvs8vWO+9WrFVolgZzSv6RcVuI5L1g7l1bvN97Xz+b4i1cne2Gc52Dvct0brY2Zp/msWTL05vh8/UzVW5rbdbqjr2if3cyY761vn653vA1FjR0Q9S5DdaiI4dMitJtrL6+0czl+ddauJ5reXIK3mSF4Byav5OgVvNUF0fgvuZsfz1lxk/kLeC8vXjvbUHrIWh8GLiIgCheErqBhNd92oyS7Avhm7qIVnOxIFN+PZjl+O9ePqBCLqcdjs6EFQNDsSERFRj8SaLyIiIqIAYvjygLVeRERE1FkYvoiIiIgCiOGLiIiIKIAYvoiIiIgCiOHLi8lX/B2FMwpQOPURTFZlNlPOYO/aM+hOj44mIiKirtdlt5qQjxGaPCwE1UUvYudRVagY83TV2Lm2oMMe/OyvO8cU4Hrncsz4dJMqcXn8uUrMQjTi77pElRARERG1rAtqvvohKXMOrsERz4FqUKYIXqdF4HoReWLYWRWDMZlpMKJYoL1wpBx9HQlqyu53dw3Gtn7HseFOVUBERETUioCHr5CUyQjb+yLe239KlViJYDY8Bk0lO81gVl1SiibHYMQE5Q2hL8Ts98KQOJnNj0REROSbgIevpv3rmjUzuvRDmKMJR6qMYJaEMZnJCBH/hXVV1VdrXuiFstCzmDRFTRMRERG1IEg73OtNk9mz0gHZJ6wK6BvWT80LsKY6nB40Et5bFi9CTeNZRCWqSSIiIqIWBGH4CkFyZrbWNKn1+TraDyGhwOkGT82UAdD0EGZsqMP18srHMXeoQqsLISvqomK+UdNERERE3gVZ+DqFBqfIOyV5lqZJvSmyoUlNBtrAFSgcCzzzdiam7VytCq2+QWw/oKb6QjVNRERE5F3Qha/qz5sQMmwyklQH+5CUEYhxHkG1CGVdxvk53lOjzX2NqNDeqClTk0REREQtCPx9vgZlIjs9Rk24WO/3ZbvPl7MU7xVsR1dVfGk1X4P3eKn1Eu5sRMXki7B0Vh+sUkVERERE3nTZTVa7jRbD1zdYs/YIot6Lw9QXVBERERFRC4L0asfgcefgBJx2lqspu8efO4Jxp6IZvIiIiMhnDF9eGM92/Mmgcrzj4dFC8tmOmf0isZSPFiIiIiI/sNmRiIiIKIBY80VEREQUQAxfRERERAHE8EVEREQUQAxfRERERAHE8EVEREQUQAxfZHEH4h8swFht+DsGDFTFRG015Qz2vlOJindOYs0UVUZEdJ7rsvAlHyGUPWsOxgxSBW5ixs0R82eaz3gki/6/weo7H8FNarLjrEbFo5nY8WguTqiSoHDrvRjx5r3oqyY1nso6k7a9P6rhUURmqPKeLOMWDG3XOf4Ga+bVAh8ORvz1/TF7oyomIjrPdUH46oekzDm4BkdQrUrskjBGhLLYxtKue54jkcXFCx7FiKwIHF3xK3xygxxeA6bfgovVfPJGf+h8yZYL1TQREUkBv8mqrPFKbliHnUdlyEoHLA/UlmLGzURIyTocRBomZw7GkQIx7lQzfXTppZfi3Llz+Pbbb1WJ3QUXXIBevXrhiy++UCWepGHB7J9jpHq+t9gRzM7/mz6e/AjWZMShYvOteKBUFqjX4hM8u+YP2CrnDzmAZxsm4u5hvbVFzpb8GXds3a6NAz/FY3dmIl5NoUktp03o6worvhX7h7yCrMGy7Cz2vPULLD/ptpzJmK8mW3P1CozNSlATwOmdy7H/X9a7+Mvmx+vxxV9+ghPHVJFyyQ/+jpFj+qipM6iwvWYSBtyzAPFhahLlKH10Plw/PrneHAxQU2j4CHueeQhfqkmvZK1TlljbDU/BfKe6l8lamvmjoJ9toSIfnyx4V4wkIXL1zcDBOgwaLc6cKC9HFhLEaG3+r3D0Ff3lMmAljzaqWSss2/o+Br0pNmR5rTv7stb1ymVT8OWuCLFtB87uykd9UhYGOZwiyD2I2s1q317dgkvmZyFSW9q6bcHrcenbjcNrqI68WzseyXpM+rHfLbanJi3LGvvWuOIUYoz1O3ej9I5X8ZU6Zn1/rIz9VpOt+hIb3nGi5ves9SIisgp4zVfTfhm81IQH1dv8D1tWISEhyMjIwNixY7WQ5U6WpaWlYcKECejb13uDyk1ZIkw1isD1wq1i+DP2hGZi9fg0fWbpQ3i25CziM/Smv/Hjb3EFL/0VwOBM3B32gb78W58Aw27Bgv5yhgxXmYgSYcxcN0bg7qyfaosZ4jNewaQG/TX5R3qLwCPn/w0PqPWdRSXyteXl4G/wihahSTYv6oM9eLVg4COIwbPmcnt2iv3MeQTGA5Yu+cHdiK/LNefvsAUvwHFTDvqIoGfO9yV4+USEBREgzorgoddM5aM2PgtDFySp+Q4MSjqF0hW7cVaUx9Q+i9JdTkSmfF+fLYJc8ug6EXr05UtFWEpYrWq2bk0RIaQCjV6Cl/uyn+RXIDLL2iwZj0GRW7Ty3qOzcMmWX6G8woHway37Nn8CvlS1auUV8UhYrvar1eOCWOfd2vHo+y2OaYKrRq7vchG86kTg0pZ9Fkcj7MvKfUuY3w/Vxrodo9D/Vln+Lo7KMnm+tDBobN+f4EVERN50WZ+vztLU1ISdO3ciLCysWQAzglefPn3w0UcfwXuN30+RMliEG6OmC9uxvLgSvePSMF6VbN36CxGK4jBp/G+QNQzYU2gJXpKszTKWP7kdB5t6I0xWJSRnYmRIJTaZtWBi3YUiTA2+0t6H60iBWVP2+uFKIHSgue22m4QB4xNweuezzWq0fHLsIVRYgtqX+w7gdFiEGb40Q0aKOOFd36RJ9tf7TAQFs8+VGLJc9X8XL5iASOdunDQDkggPMuwkXWsGkdotskZHqkD18oPamKFvSjxq8121TV8t3yKCyFA4Wu3XlSTCTrxWo2W+k155yi1cOXF0vaptsu2jS22+K9Sc3l8BRERr++3LccnarEPqeL768BDOOvqped9HaLwITmZN10FxDtyW1WqyjON+F41i070HWMNZO035GlFia1Ws9SIisulx4Uuqr6/Hjh07bAFMDnJcBq9du3Zpr/Gq/0DxpRGHrDtfwRpjyIhTM11ezy9AzbARiCp51aeap6gIVXPW1CAiQMsqDhvBTyh9CLOttWptloBLw4AzJ32s6WpGNisaV0OK4b+usXXG/vJfP0Hp4QQkq/kpP5ik5uicry8Xx30NRqr58VerGT6x1sCIQYQQm7rjKlz5Kwm9IoDILEuw89jk5t3ZE/Yw125mgBLaelwZ0ejdQmDtXLK5sRIV84Bnrg/F71QpERHpemT4kowAFhoaqoUuOcgmyVaDl8narKcGWwDSmw+xWQawn+OxZFXcgpo6VdsVEmbvtxUZ5urT06nK8UWDGm0Dx00LxH5/hD1Gs+FfPnLV+CjO19W8R3NxZswCtwC2CSeecS3bJ8vfANYCVVtkuHiASFR+kH2lzGCnDao26rNTOCuOOlRrjvPMXlukh7l2cZ5yBa52HZdbYJWD1qers12CqdfHIX4lcM87jXhclRIRka7Hhi9JhizZBBkeHg6Hw+F78NKaCeOQ5dYPy8ro55Vf+jc8sLnS7P/lifbakErsl53zSw+Ir0TZXKlqwWSIS43D2ZICvK5KWnXyGGrEOlJ8CHx2m9Bw8AwGZK1osWmwRXWfq35akzAgx17zZddK0Dv2Oc6o0fbSm9uM/krS99F/tMPS1NiSg3AedCIyy8stFTa/iuoKWTNmnZ+EyOWyb5W+rOzLZc67VXaob9606ZvvY1BWPM4e/FDb73Yd1+YPUe+09h9rg83HWw2eLdp4kXiffoVY3t+LiMgm4Fc7YlAmstNj1IRLtbrqUV4NOXmYcYmhoQmlbbjqsX3UFYyWXTGuWBw//nncLft5mVcYGq+VtWUP4XV1NaSLKldTza52tF5JqdYlr3bUr6T0wrYN/652tF+xCNfVjm5XQeosVzQOfAQplqbGEzs/Qp8xEajSOta7X+koHM7FjtdXqwm3Kx2F5ldZetGGqx3P7npW9YXSr/iTHd2PfiZfIzuYP4Wv5BWKsiO85cpB6xWLriv/dH2X/9G8olDvK+Xqp2Vf1jpPXjUoO9OL6cvF/k44pa3zYrEu2Un+0HIR6qxXIwqu/Va8HpfaruUY9Nfqx6efJ7erHQXX8pZ9U8chj1HfL8v2tfNsHDivdiQi6giBD1/nAxmMUhvsVz8SNWMJht6upuzWGL6IiDzp0c2ORNSVLkJN41lEJapJIiLSMHwRUSe5ELNXRiJqBp/tSERkxWZHIiIiogBizRcRERFRADF8eXD55ZerMSIiIqKOxfBFREREFEAMX0REREQBxPBFREREFEAMX0REREQB1GXhSz5GKHvWHIwZpApM/ZCUOUebpw3jrA8tJiIiIureuiB86eHqGhxBtSqxCkmZjMGf5yFv7YtiKEJ1bDomp/RTc4mIiIi6t4CHLxmuwva+iPf2n1Ildk3711nmHURVlVgmlOGLiIiIeoaAhy8ZrnYeVRNERERE55ng7nA/KBNjYptQWnJQFRARERF1b8EbvhxpmJweg+qidTjoVGVERERE3Vxwhi8ZvDKTgZI8NlESERFRjxJ84csSvLx1yiciIiLqri5ISUn59vTp02oyAAZlIjs9Rk24VBe9qNVyxYybgzGxqtDUhNKCwDU/ygdrf/bZZ2qKiIiIqOMEPnx1AwxfRERE1FmC+2pHIiIioh6G4YuIiIgogBi+iIiIiAKI4YuIiIgogBi+iIiIiAKI4YuIiIgogBi+iIiIiAKI4YuIiIgogBi+upu7CvHgxkKkqsluZ9ps5G38PTaunKIKAmEKXpDb1IaH8Ng0VezRHXh+xt+xNERNKv+5uQLnHlbDr9fgW1VORETkry4LXyEpM5E9aw7GDFIFBvn4IVFuDuOS1IxuZtrruKc7h6QeZSPunPJbTJnyDspUiWeTsHRqDqJLn8WiJlVkceGOpej1cDx6PT0bF6gyIiIif3VB+OqHpMw5uAZHUK1KbI4WIG/ti2rIQ2loOian9FMzqdsrXINsGYTmbVQFwWPyFXdjDD7CM59uUiVEREQdL+DPdpQ1XskN67DzaBLGzEoH1AO1vZEP2k5uzMN7+0+pktZdeumlOHfuHL791nPj0AUXXIBevXrhiy++UCV27Xu24zLcvHEW4tWUixO7lo1AQaEcn4vMtx7A6FBtBtC4Dat+fBOOq8lm67DOl82OOcD6KdNQLCajl3yCuWkONGx/DM8sXiVfYZYZKnIvx2vPqYlOlYjH3roTY43jQiXWTVmBP6upn6/8PWYm6OOnt7+A7MX2eqgpSx7CA2lu7X3l74igVinWOxt4fiv6LbxebEWyr1tvWjTmCdpy7gFPvmY8Ti17BA9oPwcr2dx4Peo2/MRjrZdsdvymdim+W6CfYyIiorYKeM1X034ZvNREq5IQG9uEI1W+B6+QkBBkZGRg7NixWshyJ8vS0tIwYcIE9O3bV5V2pIV4bcrleHTZNjSgTIQkMa4NRvCS4egGESSM8sewC+Mwc8lcfaaQunIWwkSY0ueLwRbMXPSQVaNtwwhesrlzpiozlg9M8JLhaTbG1orQozXxycEajoA/z9PL15WrAqtps/HLNGDHMstrGovxmBmgQjB2oQxOcv4L2NEYh8wlZtQSwS4ZxeZ230FZwvV44S410xcDRyKx6QA2egheREREHSkoO9wb/cGyZ6UjpuoTHHSqGT5oamrCzp07ERYW1iyAGcGrT58++OijjxDIGj+r44unmUEMWIXiA06ERakqISXsyusQrcY9cQUvvQbMLhHD/AkeynUPvYn8/Pxmw59cubB1Ccn4uRr1x5SJiejbWIaN6rz8eU8lEBqBofqkpizXqLESrzvQhL5RcVq59Od51qC3EcUivEUPdIWz1kx2iLPt/BzvqWkiIqLOEpThS9aOGf2+3mscgezMNLg1RrWovr4eO3bssAUwOchxGbx27dqlvabLaJ3xP8ODarA2EUrF8/TasLlq/s3NglQiRstlync3D16FN+GZ3DLE56j1v/V6iyHO6v1HbkBWVlaz4Zc+trRtXPwI1pXHYaa6sjDPUjPVmo3H6kTYSoTIkpqfjxTBqrzUVnPWorvmq6sZ9cFo3vTVUEcfNUZERNS5gjJ8WTVVHUGTIwz+NhAaASw0NFQLXXKQTZJdHrxkf66F4wBLs+Kq7e5Ve6tQ8GPVbLhsG8JEkLIHMNmcuRYVCbNwj6W50vTcNHPd62tFiPMxgHVEzZfRtCib/o6n3el7ADtUh9Na06IRniqxztdO+fL2FTlxKMs1tu2labMFh5xn1BgREVHnCvrwFTMsGSFV5Z6vjGyFDFmyCTI8PBwOhyOwwauwCg0tNP81HLP20bLXfNlo6/FkIV4TwQxpD3ioGXOprvG9zba9NV92lTjVqEZ98POZqSKQvmCGJ/f+Yq1rwqlDavSu+X7XfL3nPA44LsNkNU1ERNRZAn61o3Yfr/QYNeFSra56lP29Jg+zNDJWFSFv20E1ERjtu9rRQrsy0aj5cV3taL8asQy7tkdhdFQBHp23UEw3v1rSeiWj+9WO5jbK12rLu1/pqNeSeeoX1tHcr3QUbFccul2NqJhXPcraq4WpbjWcxhWN+rr7bfgt7lQXD2hXRkZtNddvvZJSdtTfUZuKlBq1btkkmePqH6Zrwg7bVY/yakdxYndk4hfHVJEFr3YkIqKOEvjw1Q10WPgin8nwlGmEJUULVPB0y4jOMfmKv+P/HXwA/3fDQ8063jN8ERFRRwn6Zkc6HyTiskg1apqC1ATgdE2lmu587336LHbiGtxzxSRVQkRE1PFY8+UBa766gIdmR083Yu18nm+2Kmu+vjKaNRu24RI+YoiIiNqI4csDhi8iIiLqLGx2JCIiIgoghq8OJmvNiIiIiLxh+CIiIiIKIIYvIiIiogBi+CIiIiIKIIavoBWLJ39zI/46qYVHDwWZjElZeFvsszbkxKrSnk7/OenHnYXFvj7FvLu4Kr1nHhcRURfqsltNGI8RMh4r1Fw/JGVmI9nRhNKCdTjo+yMK2609t5rouNtUyC/1dAwozsfPNlkOXn4ZTnMPNlXI+0MRXlZT7RKdgr/ODseGdqxPhrB7I/ZiRm6VKgkQ49xUFgV+29rPazjq1+RjyXFVFBD6+2SImjpjfb/I8zG2Hk+t3o/NeomFfTnD4cI3cN8+NSFp5zQUuwN+XEREPVcX1HzJUDUH1+BIiw/LDkmZjOTG6jY9ULsnOVHrljr3iWDxhzcwo1CGCxm6xHhHBa9u7rakWBEeinA4Lg63qbIeTQZlFdC194QYVmK4j7VUVbhPvXcOiykZuuTytuBlasQRBi8iog4T8JovWeOV3LAOO48mYcysdMBTzZcjDZMzB+NIwScIyxyBhvOy5qsVWo0EmtV4yVqnediCDRFZyFbPkrbXZjiw+I4sjDJbM41aM881IfKB4NZaD61WK9VY2D7P4L3my20b1hoqs8atElcZr3Hu9VJr44mr5unI+Btx1UHLMctzlVSJp+qGm/tuqyESbsu50TxfBv01oeZ6jeOUr51a51Yjadm+x/Ph5ZwZ61qJCeZrmtU+eaHtM1qo5Wux5sug/0zg4zaJiKj9Al7z1bRfBi814VE/JI1PBkreC2jg6kn6pGZpX+iyJuOpYieGjE1BhpqXMWkCRtWr2jNV86GHN1UTsmYvzpg1anKwhAkRkLJFsDOWfaoYGDXdte7W3JYTh33memUNVTqevErN1MQiWwswar5jOLJt81twVRyGOCuwWezr4TpxzEluTbNiW1oglNsurBLnaLirdkyElOw445jzsVu+70QwtIerNvLhnMmfl7Fv7j8v72LlIePwwUA3rxIRUXsFX4f7QWOQjFJ8tP+UKiC/WYLD5tIKnHGE22u02tosd3w/7rMEEo/rbsHLudZauirsqwQGRJpVcJrDhUbY8zzfG9nkeKa8Sqvh0fbL/RhlLZpRQyRWfBihGKya5+SyqKxU++bE5nJxjOEOn0Nli3w5Z5Z98/ecEhFR9xNk4SsJY9L7onTrdlieaUwdaPOmfORVyhom/Qo9/66mlE2WxpV9Ypg9HH3UHJ/IZjBjWTG4N/NpgcvS9PVy7hs+1j7JWiAnPi1Vrz1ehU+doszHWjNZU+YKpCJ0JTjMINd+rZ8z27ZEWPuZW1MyERH1LMEVvgYlIAYhSM6cg+xZckh3TY9LUi+i9pKhxmj6O5Ga5XMAuy0nC6OwF0+pJjS9idJHsk/XNNkh3tj2GyIEqnntJZscRcgZNdsIOXqftmZNj15srm0U/zcCqX6MKzuiyVFo1zlrUSPqxS76eoxERBQ8git8HS1A3toXLUMRqiFvNSHGtx1UL6KOo3+B2xx34oSsSfJWayQW0GtpHFg83c+aLzhRf1KNav2s1Hg7ZUSG6p33jYAjB3k1qE/Nq+I4xtpD4YxmHdQdCO+vj8nO837vd7vOmTdOLNkhj9Heby5jUnoA78k1AYteykVu7qtYNFEVERFRqwJ/n69BmchOj1ETLp7v9yWviOTVjjay6a6F+3w1u9LQvIpQzpdNYNYrHQVP98SybcNydZ62Lld4OFy8FwNSW1i3ZFm/7YpC517srh+OK4yrBm376Q99u+E73K/Ws1zFB/er/tyuTPR0Tq1XWlrni+PJE+szr3b0+PPw9Zzp56T5lZN+cNt+s/t8eT0u/fy49y3z9UpLw4SFr+LX1/TBZ+tzcP9LqpCIiFrUZTdZDWbd4lYT1EE8hTe97IrydoSi88XtTyB3ehQ+/tMtWPqBKiMiohYF39WORAEVKi9stIuOxRWirNkNbsniVjyRm8vgRUTUBqz58oA1X+cZD81z/ja/ERER+YrhywOGLyIiIuosbHYkIiIiCiCGLyIiIqIAYvgiIiIiCiCGLyIiIqIAYvgiIiIiCiCGr6Al70Du74OvKVjJJw+8/Zt0Hx53REREPV2Xha+QlJnaw7PHDFIFBkcaJmsP1bYMfKi2G3kHduMh0mLIcX+8DXUs/Xxbn6FIRETUVl0QvvohKXMOrsERVKuSZpyleM/6gO3z+KHaze+yLmvEsjCq3vIg6YNxDAbdgbMeh9UoERGdvwJ+k1VZ45XcsA47j8qHZqcD7g/UljVf44GPCrajSRUFWjDfZFV7cHZCheUh0W7k3drlQ6TXA/OMBzrbHp6tP7fQfAC2+4O13e72brvTe6vrbokMjXHYt6YeU41lrQ+vNh+sXYmrjAc+W+e7PwjaMs/TOWlWZjsuy4OvTZ7XP8T6MHAL6wOstW2lupqHeXd8IiJqScBrvpr2y+ClJshPDmQkOHCmvMoMGR45huNeLci8gRlr9uJM3HAsjtZn3ZZjrTXLx+7wdEu/MhFAkipdNWqFVRgyza2fUgvrbl0sso1l5bYxHPNsfdrE/N8MR/0aOb8Ih8W2srUaPRkY0zFABB5zv8Wy96rm1s2lFTjjiEeGuR9u50kGu2mhInDJZcVQ2IhRs63HpQcv1/rFoELby7lqeyJnyVBlzDcfuC1C3b2pjcgzltPOWZYf54SIiM43wdnh3pFs6feViRhVTL6SNTtFeFmOHq/Cp04HwvvLiVhcFVeFPLOmyoklO6rQJyEWGdp0Fe6z1mLtq8RhhGKwLUh4W7cvLMuK8c3lTvSJCNWmDIcLjRqpKrl5DIgU4eyq4RjlqMIGI/DI/V4vg1+cHqCO78eGSgeuSFZBTnswtuv1GcnxQPEWV03Xvr0iTIlzoZpqMyYNxxDnXqw01+8rEQrHxuJM8V51TMK+IuRZ94WIiMhN8IUv53Zbf6/3SvpiDAOYf5wV2Gw2qYmgslo1g0U7MECrXbJ01nd7oPRtOZZ51mY4g7d1t1W4QwU/SQQuy7pkrZNZw9RKf6mXD7pCpB62XIFoSIQDfVLl1YbGcVmaXQU5H/UiDKppfzXvl0dERORdcNZ8WTRVHemyvl/Bx4kj9bDUVLVFlauJzBgsfaeyZc2YOa+o8zuI+xp6HOH2INg/XO83ZpC1dFrTo2xyBD4ttQci2UfLdsxiMELj4br2hSetds7kwOBwNUpERORBkIevfkgan4yQqnLvV0aeZ17euhdnHG59pa5K9+1qR62ZMBbZLd2awlLDdFuOh5qvjhKdgnmpDhw+6ENnfa35MxZTzWP20NwnQ2UxMGr6BFxRv9fWmV6rFUud4LUfltZnLK6lc6iH3iFJ7udNNZ2mDnf1H2vWROqDiYvwam4ucl9ahAmqiIiIeq6AX+2IQZnITm/eiFitrnqUV0NOHhaiSoGmkjy8t/+UmgqMYL7aUaNdGaiuGJSsVxwaVyRarvyzc7vaUXBduWe/4k+GmxOp8ag3rgxsdd0tcbuaULBdFWhe7Wj0CXPntrynqyzVeTnh6WpD29WOkqzhs2zL/ZzarrSU3M+Nt6sdPV1J2ZoJWPTSr3G14zP8I+d+vKJKiYioZwp8+OoGgj58dUsyvMgrGf0NJn5oNcAFr1ufzMWPIj7G07cvxRZVRkREPVPQ9/ki8o0Di6cPt3W07xZufwK5uQxeRETnE4Yv6uZkM6q6grG+yHV1ZHfx0v3IyclBDoMXEdF5g82OHrDZkYiIiDoLa76IiIiIAojhi4iIiCiAGL6IiIiIAojhi4iIiCiAGL6IiIiIAojhK2jJm5LeiL9aHyNE5ym+F4iIepIuC1/yMULZs+ZgzCBV4CZm3BxtvjaMS1KlpDPubaWGlp7VSF1PPtrojpR2PAydiIh6ki4IX/2QlDkH1+CIl4dl6/PHoAh5a1/Uh20H1bzzz4la95uGyloQ/YaiM/7whj4cjPPtwdrUrTV/LxARUXcU8Jusyhqv5IZ12Hk0CWNmpQPqgdom+eDtuPIuDVzBfJNV7SHOCRXeH25tPPx6PTDPeFC07SHUbg/Wdn9AtdsDqG0Pv2513a2zP4Tavn6v8+R2k+qxO3y42G8ndhdW4IppYvvmw69lII3DvjX1mGrsl9uDsVvb7jxswYaILPHe08tsx62t3/NDtfV9q8RTdcPN9Zvz3R/WbbI+1LuVnwcREfU4Aa/5atovg5ea8CAmLgZNjf1EMHM1O3prmjz/OJCR4MCZ8irPwcvgEEFAe8D0G5ixZi/OxA3H4mh91m051lqzfBFo0i19iUTIEEHCrFErrMKQaem4Tc3VtLDu1ugBqFEED7V+MViDnW2etu0s17rFdsJ3vIG8SgdGTdMfnn3YEY8Mc9uxyDb2Sx4XhmOecVytrVvok5qFqXX52vynip0YMtZoJpThKB0DRKDS97kIJ8RrbTWNcWL9EXvNdfdJHa6fs+P78TNVpoVBbXl9HcbzJ1v+eRARUU8UZB3u+yEkFAgZFoYqo8mxqBox6TORxO8jPzixe436gj9ehU+dDoT3lxOxuCquCnlmzYoTS3aIsJAQq4JGFe6z1rrsq8RhhGKwLVx5W3drRDhKdeBwoSt4uIiAMzYWZ6wPxd5XpAWtK5LVD16ElzwV1GyvM1n2S4xvLneiT4R4M/mybqnS9VzIzaUVOOMI12u6omNxBfZipfnMSHH+ZDhLsvSzk8HKOG8ez5k3rf08iIioJwrKqx2riwpc/cGO7kSpMwRhIWqaWueswObjalx+oa9WNUzRDgyQIcjoqC8HSxOjdFuOZZ6lqc3kbd2t0bbtRP1JNe1Bh/dpCneYIabN6+4fjj6yts9yzqzNl+3iw8+DiIh6niALX6fQ1Aj0DeunpsnOiSP1aGfNiOxvZDR/qUH1jZLNgtmyJsacV4TD+kLtd9yJE2rUmwGR1lDjwOBwNdpW9U6zebZd67Y1Gaqhw/plef95EBFRzxR0NV/VldUIGTYGMWoag8Yg2VGNqhb6iZ1PXt66F2cclv5M0lXpvl3tqDUTxiK7pVtTOOvNwHVbjoearzarwj7ZX2u6p1suqGZCo6+UdJXsXF+FDWZznx+iUzBPNnEelAGpneuWzYju59tfJ+vFz8zaP03x5efRqglY9FIucnNfxaKJqoiIiIJawK921K5mTDejlanactWjvCJy8jCjnbEaO9damiEDIJivdtS4X0VnvUJOXn0nr0j0WnvidnWd4Lp6z/2qvr04kRqP+jX5WCKbGltdd+tks6ZxRaHk/WpH2Yer+XaHiOVlx/ifbQoV+zpc7Zt9vyX71YotrFvQ5skO88Y51M6v3qlf7yfWwvqbnRP5WmO/tAKNffuytstYd0s/D99MWPgqfn1NH3y2Pgf3v6QKiYgoaAU+fHUDQR++yI3nwHPeuP0J5E6Pwsd/ugVLP1BlREQUtIKywz0R+eJWPJGby+BFRNTNMHwRdVuv4P6cHOTkMHgREXUnDF/UA1Thvj+cp02ORETU7TB8EREREQUQwxcRERFRADF8EREREQUQwxcRERFRADF8EREREQUQw1fQkjcOvRF/bc9jbchG3mVePrzap0cxuZN3vZcPvm7jo4D0bae7HnFERETnrS4LX/IRQtmz5mDMIFWg6YekzDlauX2YiSRmEAv5SBoRBGQYaEcgICIiosDrgscLyYCVjcGfl+L0sGTA8kxHj7RnQSKgz3cMjscL6c8ThNszCs3nDLo9z/FJFLm9joKJ9mzHhIp2PReTiIh6hoCHL1njldywTgSuJIyZJcJFK+ErZtwcJDfm4b39p1RJ5wvmZzu2+iVuPOh5PTDPePi2Nai5P8jZNk+Qy09z1aTZHlDd6rpbo4KjmoJzr/04bNu2P/xaPpBbPlB7JSaYD6g29s3TObGXWbdrX6+L932zPgzc00OvtW2ZD81u/lBvIiIiq4A3Ozbtl8FLTbTGkYbk2GqUBjB4BTcHMhIcOFNe5Tl4GRzDce/scGz4wxuYsWYvzsQNx+JofdZtOSJ41YvAJOf9IR+7w9Mt/cpEAEmqVPPEUFiFIdPc+im1sO7W3JaTjgEivJjrtwYv2adqWqgIRsa2GzFqtn3bfVJFyInYq81/qtiJIWNTkCHKN5dW4IwjHhmW/RgSYT1P8g74cr1FOKxNu9ODl7d9ezlXL8urVAVWIjDem9qIPGM57Zxl+XxOiIjo/BPUHe5jZLNkyc6ANTf2HLJ2pwgvy9HjVfjU6UB4fzkRi6viqpBn1lQ5sWRHFfokxGohRgsp1lqsfZUirIRisC1IeFu3b1zbsstIjgeKt7hqpPbtxW6n2F9r53hZG6X2Tw9c4XpN1fH92FDpwBXJrhApj3ODWw2VNxmThmOIWPdKH1/v4sDisbE4U7xXPx/SviIR0qz7QkREZBe84Uur9WrCkSrWevnNWYHNZrOaCFirVTNYtAMDRDDJNjrqy8HSxCjJJjZznrUZzuBt3T54OTcfuzEc96r1W686lDVVsmbLtW1L06hiq/ETgetnf1AhUHj5oCVEXhWHIZWVrkDUCrlt1Dtbrk1swYlaf0MbERGdz4I2fMlar5CqT3CQ32sWThyp91575JsqVxOZMagmNtl3KVvWjJnzvDXTtZUe1rR1r9mLAdPsAUz2p7Ltlxh87jsla+lU0+NtSbE4LMKYrw7Xte9NNiDSmhIdGByuRomIiDwIzvClar1KSw6qAjK8vHUvzjiGY571/l9Xpft27yqtmTAW2S3dmsJZbwYu2UerWc1XRznuxAk1Kmk1V6kT2tFXqkrkL9kEGourwvciz48O71oTZpyP59DGic3lTrHfw119064ajlEO35s8NRMX4dXcXOS+tAgTVBEREfVcgb/VhHbriBg14VJtXvWo34oiubEIedu6JnwF89WOGtk53bjaUHK77YR2RaK1M7uN29WOgusKPvsVf7Iv04nUeNQbVwe2uu6WuF1NKDS7ctB2taMka+H0pkXjakf3Kw1t1HlBq+uV3K56dD+n5tWOzfdbsu67/WpHb1dTtmQCFr30a1zt+Az/yLkfr6hSIiLqmbrgPl/BL+jDF/U4tz6Zix9FfIynb1+KLaqMiIh6pqC+2pGox7v9CeTmMngREZ1PWPPlAWu+iIiIqLOw5ouIiIgogBi+iIiIiAKI4auDscmRiIiIWsLwRURERBRADF9EREREAcTwRURERBRADF+d5NvMvTj3cIU+/HoNvlXlujvw/IwVuFNNERER0fmjy8JXSMpMZM+agzGDVIFFzLg52jxj8PSaYHdBwXD0ejgevf5ZpkqsVmNdaTR+MvURTFYlREREdH7ogvAln904B9fgCKpViZUMZWNQhLy1L+pDUTVi0jPR/GmQ3dt7n/4Ef3deg3uumKRKiIiI6HwQ8PAVkjIZYXtfxHv7T6kSu76hIWhqtMxrakCTGu1pXij9CEjO8dz8OHERXs3NxasLJ6gCIiIi6gkCHr6a9q/DzqNqwoPqymqEDMtWTY39kDQ+GSFV5R5rybq9pk040JSAkQPVNBEREfV4wdfh/mgB8tYWAemyv1c2Bn+eh7xtB9XMnmYTPncC0Q4PTY8fLMUtOTm4ZRkftUxERNSTBF/4GpQpQtcINBTIPl9FOD0sG9mZaQhRs3uaQ84z6OtIUFNERETU0wVZ+OqHpOExaCp5DwedcvogdooAVu1IRnI3vOLRF0MdfXDaWa6miIiIqKcLvpovISS0nxoTBiVAxDE09Mhe95NwmQM47tykpi1Uh/vcJ29VBURERNQTBD58ac2Ksj9Xunb7iBitb5dxL69TOFhQhOrYdPUaMaT3RWnBOlUT1sOETMKVIeXYc0xNW31wBDXy3/irwPhFRETUc1yQkpLy7enTp9UkSZdffjk+++wzNdVOozbg3IQaXPL0bFygigx3jinA9c7lmPGph5ovTMCil36Nq+v+gZz7XlFlRERE1N0FZbPj+WDyFX/HTxwf4RkPwWvCwleRm8vgRURE1BOx5suDjqj5ks92/HKsQ59o2OZW8yWf7TgSe96ejxdUCREREZ0fGL486NBmRyIiIiILNjsSERERBRDDFxEREVEAMXwRERERBRDDFxEREVEAMXwRERERBRDDFxEREVEAdVn4CkmZaXmskF3MOPVoITlkpiFElRMRERF1d10QvvohKXMOrsERVKsSKxnKxoSW4r21LyJPDDsbkzF5XJKaS0RERNS9BTx8haRMRtjeF/He/lOqxCoJycNCUL13O5pUSXVJKZpiE7SHcBMRERF1dwEPX03712HnUTXhURMajOQlOU/hNPoiRD2ph4iIiKg7C7IO9wdRVRWC5GGuZsaYcems9SIiIqIeI8jCF1C9rQjVselmh/vYSjGN02hyqhcQERERdWNBF75k7ddO1dle63Df1A99nQ0ifhERERF1f0EYviwcaZicORhHtro64BMRERF1ZxekpKR8e/p0AOuVBmUiO715L67qohe1jvjyVhOThxl39qrGzrUFHm9J0Zkuv/xyfPbZZ2qKiIiIqOMEPnx1AwxfRERE1FmCu9mRiIiIqIdh+CIiIiIKIIYvIiIiogBi+CIiIiIKIIYvIiIiogBi+CIiIiIKIIYvIiIiogBi+CIiIiIKIIavgEvEY2/9Hi/cpSbPW+7nYQpe2Ph7bNSGh/DYNFXc4SZh6dQCPD9QTVKXmHzF3/H2FZPUVBuFPIK3ZxSgcMbfsdR4KAYRUTfQJeErZtwcZM9SQ2Ya3H9vykcMmfNnZaL5w4io4+lhKG9JopqWPJV1lo24c8pvMWXKOyhTJZ3hzjELMMaZi18cUwVBIHXlZ7hnyVw11XH6Lv8jRrxpH4YuSFJzO5/cvrftvffpOzievKAdIViE6LHXAKXLMe3tn2ARH/5KRN1I4MPXoEyMQRHy1r4ohjyUIhmTx1l+QYv5k4edxk5t/ovYWRWDMR4CGpHfBq7ATwaV4+87V6uCnu/srmfxyQ2/ModDyw+qOV1tNX6x4SNEj12BO1WJfxIQEXIGB45uUtNERN1Hlz/bUXuQ9mVH8F7BdjShH5IyszH48zy8t/+U/gJHGiZnDsaRgnU46NSLWnPppZfi3Llz+Pbbb1WJ3QUXXIBevXrhiy++UCV2HfNsR1lrdCfGhqpJVGLdlBX4syrvt+EdIOd6MWWdZ5BNcMY8ofwdTJm3UR+/az42jizFYzXj8UCaHklPb38B2Ytd9UU/X/l7zExQE4rrNW77Za5bL085YF1X87IpSx4ytwvxE9ux7BE8UCjH5WtnA89vRb+FPh6XUJb7W9z5nJrQyNeMxylzvQZv+y3p8/pt+C2KRxrHbt03STY3LkDEgUyPtV7RSz7B3DSHmirD+inTUCxH7yrEgzlwTUvuZdq0cVRO7Fo2AgVqu3K9M7ECRVEPYLr6mVTkXo7XxDHbt2lRvhaPzluoJoTJD+PN+64BdvweNzzyvipsnax5iql91mPgunjBo0hOOoTSO17FV97Kbr0XI7LitXnyuI6ueBC1m/Up+do4vIbqyLuRoF5Sm/8rHH1FrWe0h+OqyMcnC95VE7o7xxTgeudyzPjU3xB1B56fcT3qNrDWi4i6nyDr89UPYY4mHKlSwQtJGJOZjBDxX5iPVV8hISHIyMjA2LFjtZDlTpalpaVhwoQJ6Nu3ryrtaCoo1IqAoDWlycEaQsQrcmTAkOUvYEdjHDItTXs/X5mMYnO5d1CWcL29j5iYfiBqqz4/txJ9067Hz9UsGc5mJsjQY6xblImgYoSnn6+07peYH3m9782K02bjBqxRy/4Wj20Hxv5itohLhhCMXejtuOQ5uR7RIgSa25b75iNf9jsx5/fIrNHXv65c7MtM154hZBKuDCnHHk/NjSI8zU2rEWHqcjwqhlXbozD9rdcRLec9txsVYt+HWc5/9MAocU5368Fr2uu4JydKBC592UdzazB6YSFStVfqwtIeQHrNY2rdTsRP1dd9fPEIrWx9OdCwXZ+vDdbg1Um++vAQzjqGwpGhCoSLIx04e/BDPXhl3IKhWREicKlas/w6DJp/L6yfmN6j79bCnZxfusuJyAm34GJR/tXyB7Wy8gq3mje34CW9cKQcfQdPwmQ1TUR0Puja8OVIwzXDQlC9V9Z6WckaMNnfKx0okk2P4q/4sH5qXsuampqwc+dOhIWFNQtgRvDq06cPPvroI3Rajd9d12NsqAhAZs1Mc2W5Rq1MGTYeaELfqDitXPrzPGtQ24hi8eUcPdASNBqL8Zix7udKxRoicJnqoP7zkWI95aVqeX3diBygAtIUpMpgZu5XGR7YIMLblWPMANU37U7V6V0OlpomqXAN7rTUsG38oAynQyMwVE1LXo9LnhMRV/5kWd53re+3xhIy/7yn0nLcQkgE+jbV4ZCatEodmYiKXFfN1vHFBagIHYZU7ZwuRKEMTCOXafOAuUi9Eti1Tg9I0ROHAdtXmDVdeO5N7Gq0hzVZk/XM4lXa6PEPStAQGuVfP8b3HsYNWVl+1XoZZECy9vkadKuasflVVFc4EH6t0eT/fYTGV6Ba1ZJdfK34qe56zazpwiv5OOqMR6ixvFSRb9aq6WGunxa+/CJ+JqfFz8b6HvJJyGUiwB7H56z1IqJuqAvDl16rhZI87DyqijQhSM7MRthe1efraD+EiABwusGoDWtdfX09duzYYQtgcpDjMnjt2rVLe01nmTIwQgQkz1/0PpFNi2YAat6E2JJDNeLbKCFZ1YQlYsqVITh9YKeIcMK0AeILKw4zLevemOMKfZJsnjRqtprXTsnaK8uyC1NtNSGdxof9lsr2WMLucysw5cdr9OMWJju0eiwP5iI6EojP+QwPbjSGWTAa2yQtMCWM0muzpl0nzkIJilXYiolyaDVbrmUfwGhrYO1i7n2+ZLOg4fT+CvROulYPTLemILJiP4w/R2QtmD243Y1BHloS263pcxGhonGZz506ZXNjAQrHAs+8PR8vqFIiou6ki8KXCF6z0hFTVeTq26U5hQan+H1sC2R6U2SDn3/hGgEsNDRUC11ykE2SnR28pI3H6tRYG0ybjTwRLGRfKCMErStX83ygb9sIKnd6qG0ymiQtgyWktERr+hPre8xYblmx+WXd+dq+39J7zuNqzDPZD8ts9tMGV78tFL6PMlWbpdV0HXhfBAYXW5OhGmSfrqD3yn7UqqbHvinxqN1vbxZ0D27u4a1D+F2DtRq/eDsT03YA98xoa2d9IqKu1QXhyxW88ra5dwQ+hWrxWzhk2GQkqb+yQ1JGIMZ5BNU+dra3kiFLNkGGh4fD4XAEJHhpZFNgaCp+2eZbNDThlFFtpvXhUuOtSsRjU+3BzRZQCndif6MIZittjXX+qT2h1ie29Qs/ar4O1eF0aCKmGM2jMsj5WkPUEfvttXlrFYoPOBGfY++nZae/JmzgMqReWYMi1YQoFe8pQ1jafGS2475k1TVi3VdeJ0KIF7LDfX4+3nzoOlXQUd5FY4UDl1z+fYRG7MZJ91qx0Tcj0tInzF9f1TpdNWvetNAc3CK/a8yIiIJHwMOXFqbkSGy65V5eczBmkDYbTfvX4b0SIFnr8zXHciVk28iwVVBQgHfffTcwwUsj71n1Do7b+k/Nd3WKb0nhGhTIzuIL1XJT67DD55ovvS+U7Hju2q4Y3jI6xYv5P9Y7q1vn+9rh/s/rinE6wVj2TvQ74EfNlziuP8kO+uq4ZMd4W42e2dQqr4Y0jt+42Wr79lvTtAkHmhJwvYcbe8qO71one7PpUAxGh3tF9gNrSJuF0bWqo73huWmqk71l2Y0tBbnmji9egV0Yh7nG8iuN/mXt597ny/2+W6fX70bvrCz0NjraG155SnWydy074k17h/vWfLX8NRzFKCQbyy//vprjcufgBJw+sgnvqWkiovNBl99qIhh1zK0muoJ+laW85YLr9g16mf0WEuepgSu0vkJ/Z1+h4CDvUD81Au+06efBW00QUffVtVc7UgeLQz/3prxpY5Aiyo4fO8+Dl3RsPv5+NAE/GXOHKqCuI8LT1GtwfEdbg3A56pr6IILNjkTUDbHmy4PuW/MlyOY7tysBm9/I9HzW8s1WKTDksx3vwbNtuLmqhVZzdg364gx2sgaMiLoRhi8PunX4IiIioqDGZkciIiKiAGL46mCy1oyIiIjIG4YvIiIiogBi+CIiIiIKIIYvIiIiogBi+KIO9jgGv1qBkc+uafmxMkR0Xui73PWUBPcnLBCdr7rkVhMx4+ZgTKyacJZ6fHyQ/pomlBasw8E2PNexPdpzq4luf5uKgY8g5b8iUPXofLTttMvwNQuRTdtw4O7Z9kfWdKq5iHx2EXptjceRNarofDDtddyzMApFU6bZH3vkkyA+Z7M3YOT4mgC/h1p28YJHkZx0CKV3vGruk6vsQzhW341B6pm0VvIB5YeWA5FyPna7lr/1XozIikdtvnpguZyecMq2fpN6rV0Fym94KjAPt8+4BUPn90O1h+3JcJXgtmv6Mduf3StfF1PbvLxLtXTOiTpR4Gu+BmViDIqQt/ZFMeShFMmYPM7615B88PYcxDaWtvl5jtSVfocjt8RjTxB9aRJ1voOoveNX+OQGMeRXiGkZjPRpPWzE4xKHE2fRz6wR7psSgbO+/oUjn7XZbN0BCl4+kGFL2z/bMRORN11+k9WQlJm2h2fHjJuJkJJ14ldZGiZnDsaR87Tm65If/B0jx/RRU8CJ/ExUfKyPtzYvEc+iKnIBkofoZdb58g7vA+5ZgPgwNYlylGq1XHcg/sEcDFClLmdQ8Zef4IQPd4O/+N69uDJV/en/+VrsWfw7fVwja8RGoeGFGsTcOQ7a3ltrx2RNx5W7ceBUprmOM8VLceipVWKseQ2Ntq1+Bdo2+i6pQOJlermVa/lOdlchHswxHvLtxK5lI1BQKMeX4eaNs4Dcy/Ga+YQB97K5yHzrAYw2HgtVvhaPzluoJuRrR6FkWQ3SF46D9iNr3IZVP74Jx9V63OtC7Nv3zqdzJn8m17seXl77jqWGzKiZEtNxxs/T9jNXNaBqSufEkReGo3arGLWt21I+fg2GGuuzKUPZLVN9DBs/xWN3ZrrOzZECzM7/m5oQkh/BmgzXUyDOlvwZd2zdrqa8a7nmy1JzotVSiR+lLRx9H4PeTMGXuyJwyYkHcfQVMb1c/DiR5aoN8qUWxuO69f2Iw2uojrzbrIUya9TEH7SRq28GXt2CS+ZnqZ+JtdZM7tsEfLniQdRu1gostVTxYp6xjJUTR9Xrfa3R8vo6W62ea73WczZotEMEvHzUJ2VhkAixrtfIY7PUOFbk45MF7+rjcr0p+1FaOwHJYnnJrJHTavJGobdWauVem3grnsj9ES6v+Ady7tNOJlGHCLo+X9XbAh+2go0ero6LUJSJHWoww9PVK+zz8ssxIOvvGDBQzRf6jlmA2Nrl2vw9O89gwPhHcImad8kP7kZ8Xa653h1m8+JqVMjpv3wkfvHIQGbM9y14SV89NRx7bonHgWJvP8BEJN4ZhWpZM3bLWtSGjEPUbDVLumyWHqjk/Be2Aan3IHK8mteC04vl+pbiiEjvMiBoy4shIMFLNvvlRInAczkenSKG3BqMXliIVG3mQpSUA/Ejl2lTmmmxIkSVoUSFsdSVInjVisAll53yGHZFzsI9S+bqMzWJmK41K8r5a1EROg7T7pLlC/GaLFu2DQ1ifeu1+XJoPXhJrZ8zEZ5EGDbK97xThsjrN6CvmqsRP78rjZ+n+HmduSzT/Hn1XSKClwxjxjxRVvuOJWBdHyUCl7HuGgy+U61762wcUtvTwrkc1wZfgxdwU9aV2P/CrZitDQWoGJyJx5LVTBnMMvpjz1vG/Ft9Cl4d5dyHh9A75fviOz0F2K9CQgfpPfpuLdzImqfSXU5ETrjF0u/SgUHzZcDSa6bKK+KRsFzsR6vexVFZm7ViN85aavM+ucEV1NpFhqCsCBGm1Hrz68R+3mt5n4nwF7lFq/HrPToLl2yR++5A+LV6a0nf5SJ41YnApe3TszgakWXvVxafhWS5vLZufR3auje/ikOqDM7dKNWWl0Pw1CZSz9a14cuRhmuGhaB6b/M+X+evOxAzpg9O5HvqczVJBKkEnN6Z65r38XyUHu6DyKsmqQLhcC72/0t/Zt6X+w7gdJj4a1ubUoaMFL+Ku4Ks4TC+RH+Hhs+BSwdYgob8sjVqTrZuQn2TA73sj6nsFP/1TD7y892HN/HwZPWCFkRPHAZsX+EKPM+9iV2NiRimBSSgeJ0IRwmjVBgzXv+m6p+1DMMSRHAya7pWoWBDGcKuvA7RqkSes13LjP5cepgLG2gNZ53ldzhirblcsxu1iEIvWxi2/DxtP6/HEXaZCFsHrD9L18/64jHiHBQ/owcxac1aEQITEWYN4u3wev5DeF2NA3/D/iNAVESampZ6IynJOu0Hxygkq87jcjBqVFqVEa3Xsmz+EPURKRgksldjR1ekVOSbtUpfiZB31uFq4pRq812B6fR+EToiojvsohgZ/IxzIodBt6oZrbj42qHArtdcQe6VfBx1xiPUXN6Jo+tVSBUh6aTtnH0fofEiEBo1XbLpd4sIWEnXuo5LBitj/iv7xXs4Ar0y9EnfvIL7c3JY60UdrgvDVxLGZIo/R0vysPOoKiJg4GXogzP44ria9uDMybY/jPjLf/1EhLUEJD9YgLFiSPmBJbQFIVs46yR/uScLWVnuww14+D31ghbERDkQlvYAHtz4mRosTYhS4fsoM8PYXKReCZR9oGqXtFqwREw3lxWD2XzZ9WTT5Eh55ao2uDchCk0lcBoBSgTH2ruNZskynBNhK/LKx7U5GD8J4SFO1O/Uj/vifg70SV1kWfciDA7RZnUM2ax45yvmkDVYlWv+hgfe+gQY9nM1/xHcpOb4xFZLotcw+ecgnAcjxLncr4XWr2r9Xb4DuYWz9nDv86U3d7bu4kiHW3CzNCG2Rgu08UiwhL7mFyUQBacuCl+yU306YqqK8N7+U6qMNMc+15poWtKnvzUwTcKlEWrUR87XjSbFXJwZsyCoA9gXJzq/6bA9NV9Sw/bHVJOfa3D18VqF4gNOvelx2nUiapWg2NYsaG0yVIPWp6tryT51iZfJflZGs99a1Kp5rVuFc/Xin8tm6eHqznH2mi5B9i3T1+saOuSKy/6/weqMOFRsdjUr5h9R8wwn/4A71LxnS/ojy98A1lbOU1pfrq+WP+jqlyT0juyiwKD2p6u5Bzd/wpvr4gPLwCsXqRvogvDlCl5521ruoHl+Wo26w30Qn+Pqp+WyCQ0Hz6DvmBxXs+HVOYgPK0eVamb0Tzm+aFCjBi38JSDiajXdRS6+9x4MDilDg+UL2awFm73B1bHfpH/hm7UtfmhPzVfxnjKEpc1H5jRV4MHxD0rQEBmL1InD0LDBEqxUrdj0lZY+Yf4qrEKDiHRGM2czExfh1dxc5L60CBNUkUsr56ypxvwS0/pwqfFWjV+DGFtws/e/O32gDH1a689XWYMzIcPg8KHPX3Nn0WAkxeRH3Gq+7LbWnVRj55PvY1BWPM4e/NASUhy4RD2WVnbed791BDYfF2fV2hzYMWTzZ+/RNyPSr6ZARTbhOn3tu+bFZ6dw1jEUDq/blx3uvX1+iNou4OErJGUEYuRIbDqyZ80xhzGDtNna1Y9aWWYyQsR/yZly/kwkdU0npS4ha6ZK667BSNU0KId4FYZks+GendFms+HYrGhU/MXXe3LJKx1d6xz74AKt873RP0y3GhVaJ37jNfbO/N7JKxL1ZiQtGBm1Hkv8CEOyA7dqiroytcZyddsq1K6RHfBVU9V4Mc9Dp/7Ti9ei1tiuGIbeG4C+Uc9NU53sLU2HG40O90rhTSiqHYfpaTVmR3vdKhT8WO9k71r2M7cO961ZiNdyy0RYN5b/pMUg6M7bOfvqqQLtggjj5xFzapvvNV9bZ6P680QkqmXd1401U1Une+t8t878Yh2VxbC8xm2+Nyf/gE1HemPkj1WzY2oD9lhrvtyaJNdone+tfcQ6yeX9PFxZ54Fbn7IRq1WneXnlntmsZjS1WTumty4yy1hvFnrb7sP1Lo7mV5jzZQf1cnlHCxv7a0a8+agtMLn3+XJ1epdXLOplMtAZrzPny1toaJ3sXcv6flzy9h56J3vXstZt+2Dzq6jcBcv23bd9WAQ88Y/je8iYqJcQdYQuv9VEMDqvb7LaVYxbF/D+YN2fdrsIeRWk5QpFrWwY6o1bSlAA6bdjkFcK+t6cR4Zbn8zFjyI+xtO3L8UWVUbUXl17tSMR9TxxUc3u0yWvcOyDGpxj8KLu4vYnkJvL4EWdg+GLiDrWmqkoc2t2tDcjE3UDL92PHHmbCQYv6gRsdvSAzY5ERETUWVjzRURERBRADF9EREREAcTwRURERBRADF9EREREAcTwRURERBRADF903pPPMRz57JoOe8iw/x7HYHlLhi7dh0BahpvNO/r7d0d+IqKeoEvCV8w412OFsjPTEKLKdf2QpD1SSA3j/HhUBLXfwEeQ8uAK17Mjg4G8+73lnlGuwcdHzpAX+iOhBs9WkwGzEK9pDxFfi2ZPsSEiOg8EPnwNysQYFCFv7YtiyEMpkjHZErBCUiZj8Od5an4RqmPTMTmln5pL5yX5LEDtAc1LcaQJOFO8VE33lJt2/g5H5PHw0UpEROeFLr/JqnyQ9uTLjuC9gu0Q36vNyFoyLaxtMx4C2/mC4Sarl/zg7xg5xvWQlhP5maj4WB9vbV4inkVV5AIkD9HLrPP1h2svQHyYmkQ5Sh+VD+a+A/EP5mCAKnU5g4q//AQnjqlJr2Qtyj0iKBWg152zEKmVlbnd1Vw2rxnz9BB16KlVnp8FKDV73qPcxiKEl6nlbOzrxudrsWfx79SEINd1faKasGxbkM2OVyaWmNvpu6QCiZcBte/E48ga7SWdRtu2fBC55L7P2jGNQsMLNYi5c5z+yJ6mba7zIY/pyt04cCrTXIfruPRz1Wur6xi0bfUr0LZhHKM763nxTjYbzgJyL8dr5oPC3cvmIvOtBzA6VJsJNG7Dqh/fhONqUieXyUTtshEoKFRFQvSSTzA3qgCPzluoF0x7HfcsjELRlGko1grc1l2+1vVaw8RFePWXVwMfPY1blvH+5EQUXNjnKwjp4eq4CEWZ2KEGMzxdvcI+L78cA7L+jgED1Xyh75gFiK1drs3fs/MMBox/BJeoeZf84G7E1+Wa692hBS9pNSrk9F8+EgFIBjJjvi/By+DA4Dszce4Fo5YqETH3zlXzZBiYhUvNWqu1+CJ1kd7ktbUKXyAKvcbrr2yLvktESNHWq6+79rJZluY0EWKuj8IRbb/0wVvA0EJJuAg44jWdHbykr54aru3PgWL9p9BcIhK1YKqOK2QcoqzNhOI4tUAl57+wDUi9B5E+nMfTi+X69JpEGTJbOy92C1FSDsSPXKamhWmxCBNhu0SFseglNwDPy6ZFOTyGXRiHmUuM90L7pK4UwatWBC5j3ZGzcE8HrZuIKBC6Nnw50nDNsBBU7/Vc66U1UcY2obQkcLVeXe8OxIzpgxP5RiiymiSCVAJO78x1zft4PkoP90HkVZNUgXA4F/v/tUkb/XLfAZwOizDDl2bIyE7r01X7znDUag9PXgVnmRN9+qnapvGTEI5tqDS/3H+HGhE4Iq98XIyX4ZzxBpC1YKov18UDooD6Kp+a4k4vttaa/Q4NnwOXDrB+ITsQPqblL2iHEbz8aP677qE3kZ+f32z4U4dlAacIjcaxeTguWRNm1JZt3YT6Jgd6xemTnal43TY0JIxCqpqOnjgM2P6mqpkCji+eZqnNWoXiA06ERSWo6fZYhmEJZVhv1nStQsGGMoRdeR2iVYnmg6W4JSeHtV5EFJS6MHwlYUxmMlCSh51HVZGVCGaT02NQXbQOB71VCvREAy9DH5zBF/b2GZszJ/Vg1RZf/usnIqwlIPnBAowVQ8oPLKGtM8VFoU/IOFxp6TBvNreJL9Bz9XpouHhMFL4QAcOoBTtzqkwfaY1bp3x7k9rvRICRtUKL1HwPHfXFvg0Wy5wp2+Rz8JLef+QGZGVlNRt+6UsFUiexh85OUvg+yhoTMewuOTEXqVeKCP2B5aBlU6F5ReNnmJvWQXFfq2FLxHTLuh/McTUnExF1B10UvkTwmpWOmKoivLf/lCr7/9u7G+ioqrtf/F8eqS8lM4kkTyQgEJqYNiRXiEpyE0AlIS2zpM3SgFkXl7q0QtRia/+tNA8vLhYCF63ep60UBayu1iVrIURuWllDGwK1RvIQQJALpA8kNTHAhDTBZBKKWi3/vc/ZZ+bMS5LJy5yZkO+n69g5+8xLMjNkvvPbe59tIoNXb8Hsanb+ExG9ejfm382BaQ5uGKsuhsj9ltGlWI5L2cusC2CySqO6tzybqtp80e4WoeF52MXnaIezFddnL8a18XZcvhBCipHVsnmpPt1n9SLA+fhgEc6oY6eOJiLVP4DJn00FtP7M/gt/5av/QnrOBk2vZmldj4V3izh0Akc9la4NeLAsD6hZr7oGp2BrzVB+g6rHu+p+PVvAeDIiougVgfDlDV5BB9GbglfQYHbVew0X/zYGycXecVpe+9Fx+hJisou93Ya3FSM5rgHNqpuxfxpwuUNdNGjhLwVjb1P7Q2XbEW280mTPGLBgJuL6T4+g+4NmILUEcTe68VmTOtQn03UX7Q06mNzwxYVWdcmPDGh76pEw73hI46akaKp8Xfvjp3CzrR4dprFqniqYeE68lUaDrDhCdf0G9/BL5SgvL8eLj6gGk5b3TqAjYSKy7spEx97A8NNxXj0JhW9hYX8rX+J+9W5EPch55oeoitv8LabxZsHIAffi5y5/6WHVQEQUPSwPX7aMaUiSFybO8p7LS2zZE7TDSMpM1877ZcssMh1fiLQh6rUYDmRlqu7iDExXXYNyS1ZhSHYbHqsd5+k2zLlnHBp/E2x8WDBypqP3PnNWLdMG3xvjw3SvoVEbxG9cx3cw/8DJ0ynog+zN3YNGlUkGojFZecApWQn7GTo+TUWCrRWfaePH+iBCk+sTOdhf3e/MVpw1V778uiSna4PvezhNxba5OHUU2n3d0mtQHAr6ebbkz6QFo0kl+s+3tucwFMDUlTs1q9U0u3Qr2raZulrFc1IfZFB/90p9coJ2HbH163eufADVbXmYn9vqGWivK0NljVt8gVDdgmWJqDdXvp6sVF2GJUgWXyPuKJOXvSdbbVm5URugv1i7jgNt5Qfg/Y6wFc779EH2nm5HsQUMuH/vLLSInfw/wPhFRNEm4qeaiEbRcKoJoj7JUOlzKg7ymo0VbzyN2y7+HsU/+a1qIyKKDpGd7UhENMRml/0O5eUMXkQUvRi+iOiq8v6Gh1BcXMzgRURRi+GLaLiSyy6xy5GIaNhh+CIiIiKyEMMXERERkYUYvoiIiIgsxPBFREREZCGGLyIiIiILMXwNN7dtRM5TwZYe8mV/YCjPTj8wj2/5OSrW9rTocSrWv/NzbNYWZg6zJ5eiqmopHle7vXseX64+jq8i+LwNDf3s+b2esX78Nvzz6W24onaJiMgaEQlfSXneZYWKHLnackIeExymZYXElpemDowk+jJAxpJCVz89iFVVBW49h7dwWIyvni7BlYMv45rzqimc/Jc98mx+i36Hy/lFuKY9D58/2I/ljIiIaNCsD18iXGWjGhXbXxdbBeqQjnxzwDrnVMfU8dhZyM+IVwcpVHJ9yIPPLcAFK0LEoNVj+X3PoKBAbOVydewm7JCXxVa0sl6/igWuOJ7CP3EAo50WrYotz9P1ULLY1uFsF3Dp6Dq138O6k2Hwb2+uw9fiS/Dl7aqBiIjCzvrwJcPVgdNqpx2uT8SnTmy8b/XLox1dneriCKF3Fy5DchxMi1s7kfGdOeoauuu+szP4sfFrkKHac1ZtROB65P6Lawe7Ts8K1j5rqkw9i/VqMWSdbwVrYYpq9ijAZs9tS5ETq5pD4lcde2eRuDcz830HO+5l/A6+VbXn8VUO8LW3F2GUatHJ7rvjSJj5PG7uqTLlU8GS1zW1/3obrlW7hmt/fLwfi2ebH1ds/rfzq5713M1o3I9/VW0rrnm/Hl/ODt79qC/V8zusuEs1EBHRoEX5mK80TJzYhbPN7Wr/6qdXrF5AYwdwYbe8rG8n/7hfXUOIm4H0hD36sd0NiMku9gao88/ipGz/zaGg1ZPrvvMDJF8s99zvweeWwq2O9alwEe7HNr1CJbb1NUDOE96Q8/gWEaja9niO72hQBzQyPM3DuJrN6vhmHOxHsC5YOw94Rb9f7bbIwg9N4enxLeb7Ftt921CljpnJ4LU896JWWfOpqt1+O77sOIF/C1optOPmUgc+22xUqVKRZIScmdtwy7xEnNWOiW1Pq7iuCjhNrbhkSwwIX/0Rs/Z2dGjVMLltR9ukEty8SB2Ugcr82GI785/BqnYyeJXgBq2yFqSqduQIRsdl4l/DfpwbEdHwENnwZc/FjEwbXMdr0KWaJFvGQjXmaxaSmj/C6ZDTwQjRcQjH3npNv/zhMVzAONzQnw/Ob0zvV7XLo3IbSk2Bpeq9enTHjsUtckcEM0dKE3YsCRZ5hCfnIQdH8asBdiNWrdyI5ZVqB/WoOtWFmMTJal8XMzW7x2qXNMkTvDbiVdVmuJKYCLQ3+1W9vNr23Iq2D+SlrXDXuzEmXg9+12ZnAkdfVseEbdu1cBYnA9IHzbist/pUwa6Nt+NSe2jPQ/dKc1j6GTo+AW64yVzdsuPG7F4G1WOOJ3gFD2ZSPUZ12HElSe2a6OskPoR176kGIiIatAiGrzRkO9KBExWoPaealK6TOzzjvvZ1TgsclE8D9vkfF6DubylIV92O/t2ZvfPr+ivLsmZguCTCXYXxuGJbnuv7jnh1iV4NW66OB86inIwceZuGuoDgJV1JGFAc1YLUmKwVpq6/FbjZ86PV47OuRFw/UwZDEeA+9VbBLl8IcVyZX7di6iTVrvkZzm4+AHgeP3Cg/pisPCTAjU9re3u8rRjVLgNobyGOiIiGSoTClwheWlWrGvtO9t6l2NV8Fl32OOs+5EcAvWtTbuW4lL0s5ACmdSviKNYbXXsbjlo0MLwAm0XQg6lbcX2NuVYqmQbti59rXLF/AJOD+PegPmVe0BmUo9oGXl71DpT3bme3ySNb8dmndlw/+XnE3diK1lNA3KLFuP5GNz6T8wr6onVppqJtj/d+6z9RxwwfLMIZdezU0USk+gUw+bOdOgpvV2hQi3ElXjwHrRZNNCAiGuEiEL68wcs78L5nSZnpsDU3wKX2R4b9uHwRuCn9MbUfLg243KEumjz8UjnKy8vx4iOqwaztghpLlYr1T5gqX5UX0ILJyFKBR46t8hlwf+YiumNTUaAG6GtBrl8D7oGW86qrrnARfuhX+fKh/SzBVKFUBDPklgZUxka1tgLxE/t9zqvuU/UYk/WUd5B9MDdNFNlwP75oasUNU0twva0VnxndlH0yBbVFe/0qX76+uCB+hyC++M9bRWhLRWqQwf+6VFyJc2NUkH9k+oD7Ht4LREQ0IJaHL1vGNGhDSybO8jmfV/YE7bBpvJdql6elCCGkXW3cb5XjwjeKPbMSQ61OeWZBfn+GCEZG96Ixo9F/puMybfC9z2D+Xry64yi6U+aprr9SxJ8yV75EsClvQmqx6hZM/MC3OlW5Db+SA/TL9OOO1s1+A/J7U4W3xX0Z911VNhYnfSpffjMdq/TB96Wb1GEz8XMUGT/nFtMIMW3QeR6+6u8pF+TpIrRB9t6uQXP33xftbiRkZeIz2e33wX58emMqErpa8YU63qsPFsH1iRzsr+53ZivOmitffl2S07XB98FPU9G9ch3OIg9TzbMxDb1MNnhfBbopmQ9r/09ERIM3KiMj40p3tzWdR8PFlClT8PHHH6u9/hnMbSmyrjiO4/NvnsB1v/A/3cTVTJ5YdgWuvJ+M0UdUk9ldK/C7H96G1neL8dM3VBsREQ1KZGc7EkWRUc6X8TXk4UvHyBl4/q8HV+Cf7duDBK/ZWPFGOcoZvIiIhhwrX0Gw8jWSybUdHRi15VZrlhiKJLm24/3A6BFV6SMiijyGryAYvoiIiChc2O1IREREZCGGryHGqhcRERH1huGLiIiIyEIMX0REREQWYvgiIiIishDDV1g8hlfudaJSbK+MV01EREREQkRONZGU9yiyJ6oddx32OWvgv0wyEI80RxHS7V2oc+7A6YGve9xvQ3a6CNsa7Jo7Fnt2LcVm1UREREQjm/WVrwkOfb3G7a+LrQJ1SEd+Xpo66GXLyEd6p2t4L6jdtR+nusZhUi9rQBMREdHIYn34Ouc0LZTdDtcnXUBsPHzyiT0XMzKBuhMhr7xMRERENCxE4ZiveKTNTAdO7LO0q5GIiIjICpENX1qFywbXcdOYrwnZSEcdDp1sVw3D2X584h6DqRPmqH0iIiIa6SIYvtKQ7ZAVrgrUnlNNsm1WDOo+CDYAf3jaXOvAHvsyVN67E+s49ouIiGjEi9DC2iJklcxCUnO1afyXMMGBollJaseP/3XDaOgWx56DdXOXYewpB544r5qIiIhoRItA+OoheAUlrzsNHcP1VBNa+PoBcHABVlwtpTwiIiIaFMu7HW0Z06DVtibOQlHJo54te4J2mIiIiOiqFqFux+jGyhcRERGFSxSeauIqYpuDqbYWyFOZEREREUkMX2Gh1nacOwOoK+fSQkREROTBbscghq7bkYiIiMgXK19EREREFmL4IiIiIrIQwxcRERGRhRi+iIiIiCzE8EVERERkIYYvIiIiIgtF5FQTSXmPInui2nHXYZ+zBp7zkNpzke9Ih03taixcVFviqSaIiIgoXKwPXxMcKJrcoMJUPNIcRUjvNIUrGb5mAofMgcxiDF9EREQULtZ3O55zmqpY7XDJtXdi430rXURERERXKY75IiIiIrJQZMOXPRczMm1wHffrYrSnI7/kURRpmwNJqpmIiIhouIvg2o5pyC6ZhZgTFdh3sl21BbJlLER+ZjdqtzvhUm3hxjFfREREFC4RqnzpwSupubrX4CV1NZ+N2MB7IiIioqEWgfDlDV59nz4iHmkz02FrbrCs6kVEREQUTpZ3O+rdiIFzG13Vr6P2XODxrj66JcOB3Y5EREQULhEc8xW9GL6IiIgoXHiqCSIiIiILMXwRERERWYjhi4iIiMhCDF9EREREFmL4IiIiIrIQwxcRERGRhRi+iIiIiCzE8EVERERkIYavKPD4lp+jYm2q2vOXivXv/Bybn1S74fTkUlRVLcXjard3j+GVe3diXeBiBb0rfAtPVX2MVVs2qIbQjFv7EVbJ2w3gttHv25jw9i8x7bWHcK1qGRryNdqIUrU3UKXZTlTeK7bsx1QLERENRkTCV1LeoygqUZsjF8E+v32uk5emWkc6PYhVVQVuPYe3cJiDdXOLMa7u11jht+p51paP8dTaxWqvn7RgVokstWvWsnIaniuYgq01btUSRe58CLe8/WPEqN3o8Rp21I3DgrlrkK9a+m38RiyY0ICduxworH1NNRIR0WBYH74mOJCNalRsf11sFahDOvJ9wlU80hyPmq4jtj4X4B4p6rH8vmdQUCC28iax34Qd8rLYilbW61exQP63fiBen0N4+a/7VUs/VD6Al0WIem5JmWog4E84d/+P8NFjv8MXqmWo7PvrAux0z8BT35qjWvon3z4OOHcMm9U+ERENXsTXdtQW0p50FvucNdCKKCKcFU1uGFTguuGGG/DZZ5/hypUrqsXXqFGjcP311+Py5cuqxdeQrO0ou/CKJ6sdEZvKn0HpJrWjVbBKkROrdoXums2mAFWAzVXzxLW8fG8vaPcPEb424lXVZChY+yyW5xr1xC4c3LAGyyvVbsBjywCn7sPvPo378f3ZZFfWPFzcu8Cn6iW7BRfn2tWeScN2T9CSVbH5KdpFdNSsx8srt+o72IAHq0qQrPa83Di8YRqcnp9dPU6iM0h4870P3/vX3f3s23gmBzj00v1YvU81hiQNCa/9ABM8v14jGu7/T3Rr3YX3IEG1erlxbuMqtP1FXHz4x5g2ux11vwMmL70dX5eHG3fjo2V/kpdw7bLnkH6HumNTu07efwY6N7Yjybit+wjqTCHN5/YG//uxrcGuuWOxZ9fSfoeo/G/txH/Y97DqRUQ0hKJuzFfS5CR0dcYj2+hyFFv2BHUwBDabDXfeeSdycnK0kOVPtuXm5mL27NmIiQlXR5EIT9Pr9AqVqlKlFnvHUj2+RYSftj2e4zsa1AGNDEfzME4EHv34ZhzsVIdCUbgI92Ob577X1wA5TywSP5GuYO0in8cuCBLeJD14XdQqaz5VtfHTkdp1ClV+3Y1Gt+C74neRwUde1jZTSDq6RG+T1/FVhjfldTccQAfq8a5x2wLf4NWzxXC8U4I4z+NuR0fucjw4ROPkrl32ICZcFIFGVqe0TQYvSVWsNh7BP7RAZhxXwctgvx3pS+PhMq6bPBsJd+qHvnhhlXabusM9dacmI8W47f270Sbu698fVofufAiT74AIevrjNjSKNhnOfAKc0LUfp7pSMH282iciooiKbPiy52JGpg2u46rqhXjYYkWAyoxDs9HlWO1C0qyFSAtSVAmmq6sLtbW1iIuLCwhgRvAaM2YMDh06hPBV/KpQuqRKXRY21YlIMRaTCsVlEY4cKU3YYT5u9uQ85OAofjXQbsTKbSg13bbqvXp0x47FLWpfk5Le66D6SZ7gFRjMtG4o9yfoV+Eo3ArvFpH1AHZ4Kl1lqKxxI3m678D8P6+5H/fc09+ql5KcMYgxXbISpgLbX/4Ln7rtuG6KdiAEptuKsNcpAtbXb9K76a/9n7fg6+4zcKug131SHLTHBxm0vx+fiGw3zt7/rsdb7GPQ7Q5Iy0RENAgRDF9pyHakAycqUHtONSmuaidc6jLO1aLObUNcP2bVffrppzh48KBPAJObvCyD1+HDh7XrhJOcwegdEO/bhRhefoPyy7J8QkPVyjXY0TAZC9XxwIH6k5Ejuywb6oJWxOSHcdS5JRFxsXlYbMyGFFvQLtABktWphsZkpMgZiWK7ZVk/J4CYAhJwGm2P/Qjnfqt2B+GLCxdF2LoFdlVFi8lIBhpPqqDm64z7EmLsqs83BLK7Uc5wnH7WgXsHMraPiIh6FKHwJYJXySwkNVdj38l21Sa1o6tTfIjExav9gTMCWGxsrBa65Ca7JK0IXrLLbqGsbnm69vZggHWsftO6NHEU643H3nA04MP41SXen6slt9QvgMmfW/y8KfOCzqCUH+JRqfMAtnq6K9U2hIP6u5cZXYq78Y87ftD/ABYOH7fjH7BjwlI9FKYkN6LBv8tR6W8FSw7UL9zlwLGbndg1wMH6REQUXATClzd4BRtU72pywZaZjSS1jwnZSLe70OxXHQuFDFmyC/LGG2+E3W63JHh5dF7EGXXx8S2mylflBbRgMrLUeCQ9qOmXNWcuojs2FQWyi1LQwpRpYH5I2i5A79RMxfonfCtfvprQHnQ8WRVKRWiDCGb+5xfb524B7JN6PHWBq9WNuKl3Y5za75fKZnSInzmzv2O1Nh1BY2weFvZxigs54H737rexesDnXZAa8bn/8Ky/tIgQlIxYYyyWRWLm3w4c/rUKhXIzuif9zcEkO9Di7n8Fq78VMyIi6pvlsx212Y2ZgX2IrurXPd2PvtdxoXa7qRvSAoOf7eg7W7G75ihaclPRbsw6NM+EbNiD9a0z8UNs8wxsN89WlDMNnYmlyDoW4mzHwkWoMHU11ovHHpc7Fk7teoGzLOXjFxjjz/zv0/g5zdfRZjuKKx104InzqsmHHPy+HHcYj+GZ7Rh8RmPArMQnK7Gq2HjmjNmOfvdpMM2kDHb/jeVT8KbpORvYbEf/mY5CwKxEQc5qvMd49CCzHYOeRiLIfUue+5ezHWfjc+O+hJgXfomktl/jzAvii4s8v5gxC9LDmIlpwtmORERRJeKnmohGQ3KqiauY9oF88yn8773PRtfA+xHGJ4gpsi0FvuFQnqF+nvuFAY3dYvgiIhp6UXeqCYp++/76a9Ri4CfupKGQhuvHqose30ZsMvCPNnnOCZ0MTwvsAzwhrtBXNzMREfUfK19BsPIViuAnWyULBel2/MdhcyVMvkbTcWwA3Y1msnK2QJ5r71w5K2BEREOA4SsIhi8iIiIKF3Y7EhEREVmI4WuIyaoZERERUU8YvoiIiIgsxPBFREREZCGGLyIiIiILMXwNN7dtRM5Ta3Cd2u2J/QEnclbtxE3jVUO0k2e2r6pEltqNZnLR9GDrXobbFcdxfPbg82qPolLBJRzf04RGte0tVe10dSp8C0/Jxfy3bFANoRm39iPx907cbgC3lRav/rvnPda4/RL8F1b714ON+PJ2tUNRKSLhKynvURSVqM2RC+9iQ/FIc5iOebaFSPNfguWqNgc3PeVE8m1qN5rIkPTOWwNbu3Gkkss0vbMIBWp3QG7fi89zWnHtmz9TDZGXtUV9ePTwISKPP9XHeps9GtbvszhsnzcZyWKbO5gTrA0bcmkv3/fCgz7rs8rlwfzb+iGC74VwvYdbVk7TFv/fWuO/UGxotq7+d+39lbwrTrX4+reqA7jy3eP4arh8+R6BrA9fExzIRjUqtr8utgrUIR35eWnqYDtOO2W7aauWqzp2o2tg79ERy/2WAwefW4ALQddfpOHleXz53VSM/sPcqClVy2/u8xMOYKv4AJEfItrmWWdzGJOV5QceUzvUNxmsShBXs977PhCbeU3Vq1rlA3g5Gt/75xfha39oxT/v34YrqomiS8RPsqotoj3pLPY5axDsROmySpbeWYF9J9tVS/gN5iSrgz1Bq+wuTP+G2jHprn0BJ/+4X/9wmHkRdaenIj17jO8xafwaZHx/hlpYuwF1zy2Fb26VVbVlSPZ8YQp2nSBkeb0sT3yn91ePdwsKcVS77LcAdqf4cL7vAbSo3YDFr83H5bfEYnjuS364L861mxbe9l9c2/y4fZCVp7kXsf6+bdCXB5cLn8/0LHQuFzKXC5vLBcwXpmhXQH25eSHzwAXJ5YLnxkLongXIFc9t/RY592oyLYjud98+i5jrZHfj5wlOXO9f9ZLP2fQj2Nrq0J4rybxQufzWPqt1PXZgqee472Ljvq+H/3Odesq86Lm5DUGOexmvXQDzQuja6+3tuvX8XAN5n/kssD5Y6t8HDuHYy8/ic9UaMtnt+MyXcM6LhZU1SvmcL8RGVCcux3z1Hja/1gN/L+jtCHJdre2MfL0yUa8tgK8Om8jHNX4eM58F9Qf1Xujp5x6cUN7D5t/N53FD+rl12uMkOoO8f0P8vUo70Zg/GutKxiDw6GJ89fQKXHk/GaOPqCaPh/Fi+fcwpfH3KP7Jb1UbWSm6x3zZc5E+0YU6C4NXpOkVqxfQ2AFc2C0v65snXElxM5CesEc/trsBMdnF8PyZOP8sTsr23xxCsEh93Xd+gOSL5Z77PRhK8JKMb3jlInDI0OT5luv9YzJu7f3AK0b7ehxGHhaaSvZZW/y+IfsEMy/9D1+r+EM1xfMHZ9zapbijTfzhM24bavAKUUxuKRytm1FQ8AwKypuQWrwUj6tjj28R4ahNhCJ5TGw7GtQBjQhy0+s8x3xuW7kNRaoNnUex3riOJ3j53/dmHEyY5zeebDH+9U07Rp/q4aM8pUT/4y2fkw0HgNylcBSqY0Jc7nLPcdnFkTzX6AaRAcb8emxHh7iu3jW0FUdPuRE39W5Tl0kKEmLdqH9Pvh7quLh+sC4Zo0vlXfE8yQ8N/f7F5vmAER8sIjR62sV7KrlYjfcL4X2WtUUEL897QbzPEkoG3jUUYD8uvOxA3cUZmL5qo/ff1TAgXw8ZsAKeU2Vg74UynBCvY/J0U5dy4UQRLOpxQgakyj+jvtOOO8o+8nnfGY4uUa9Rpx6q9Pv3/rse3Huht597cPp+Dxu/m34dHyG8h3s3VL/XVvzbf7vx5VSOE41GkQ1fIlzNyLTBdbyHqldmOnCiFrLjkUw6xLfyt9Qaex8ewwXxJ/SG/vTtf2N6WD5UWlYWmr79qg/oRN+vvb4f6IG8wSvIH6qU28M3IL9hj7eStalOfLSMxST5YVK4CI6UJuzwq0Z5VaHUfMx82z4VIMvnvuuxfG8TYqZmm8aHpeJKnBujevpHIP+4Gx8I6oMw4RZ9V2M63vLeCXTEJiJJ7hTeLe75AHZ4PgTLUCk/kNWHbMtKJxpjM5Fl/B5P3o7kBqfn9dU+nLSwt1wf59OvMTlleNP8TX/TETQiEeNCes42IDOlHu96br8Vzr31fb6vDNd9ZydyVsnJKL6b//hK+SXoWO04pA+nSSsN272hJthzOsD3wtEdB9Bh+rc37q5MoOZt9e9TPP/3yTAHEcD08V79C8KDeC/08XMPW0P4e41qbQXiJwbpevwtflpczKpXBEUwfKUh2yHDVQVqz6kmM63q1YWzzSOn6mWFz/+4AHV/SxEfKvqHTsZ35qgjQ8CY+aM2/7L90SV6NWyxOh74TS4Vd8jbNBwJCF7yw/7dhlTMV7cdukpHT2yIN4eYXsjZj1VVxjZP/BYhKrxJBIbJWOi5rdhM3Zea8cH+cPYubrz3uek49WdvdVH7Rq5C7S2JiIv1vhaBr5eseNiRepd+X1nTU9F4zPQhKRnf8FWVc3E/ZqvKLhvjcVeZulf6pFVdvO8DbTN1WfVFvv+9VV/v1vihukKAMUieM1zHgPkG8QG/F7RQn4pM7d/rYmRNFV8TtAqol1Ep8gTyfszgG/B7oc/38DA1lL+XqxXXxCVy3FcUilD4EsGrZBaSmqt7HMslq1625o9wmgPth5zetSm3clzKXjZEAWwDHizLE9+IvSX6wJk8+rdk4490XLF/AJNjIrajMSV4N5JR5jfK8OENYF1oP6Mu9kKOF1soq1eeLsU94rfoD/Nt1eYZmyacb8YodTFUHed9Pxh75NMlojZTFeLoMaOipFebtG6moMTr+soBdIRYsZDVzfmyeuV5XPGaq2OhMd9WbT10YfsLtfIlx15Oz25Bnfx3YlSZhx032kJ4D2t6fS/oVWyt8qJVZU7gaJDxXRoR6nbIf/cJE0OqRA76vdDHe3jYGqrfKykRX3W09vtvCIVfBMKXN3hVHDit2vyoqlfdiR6OX/X24/JF4Kb0cH/jbsDlDnXR5OGXylFeXo4XH1ENZmda0WHujvLj+eAvfAsLe/u2VtksPqyDKcOb6ttzz2McGtDWqS6aPfKi9nOXv/SwajCJHQu9CCAHuPdenXp8izjeWY8q+QFTeUF8qE9GlvpZ9LClX/bovAjjM067rbrsceYiumNTUeD/nFXW4mTnZCzc0ttJKOoxqsOOK1r/UO+0cXGxvYUkE9m9I75dm8fkBdCuk4ikJ29HnKebKTjZFRWHVrSYPpRdrf7jxkw6Wz3DCeRYwIBqR0/vM1WFmT+AcyNJoVS+tEkvYw/hWKjjIfvlbqzethu7d7+N1fmqySx/Nd7eLY5vWy2uGej7L8vb7sav+vjeoT2nnb2EJLMQ3gtaN6UIVFnide7Y21vQlZUx8e++rdl0na1oafMbN2Y20PdCKO9hode/Z33o9T3clz7+VvYoxN8rFFcSE4H2YF/g5IB78by8sQKzVQtZy/LZjtrsxkzvmb0MrurXVfejPNdXEdI7ewlnYRbJ2Y5ejyF5VTFuUnv+sx29M7Hk9ebh8m/000rIb/bT1SxIL2NGo/9MR+Fv5QHf7OUfq++Jv4Afv1uMn76hGk30cVlGsJLfWvXuC//2wzWJuMMzk8d39o7kM4PHb7ajZwaUNruowXd2mxRshpsMX/OnAEFm8MiuQe9Mxj1Ase9sx+W5pvekHBxvrj6ZZzM27MH61pna7Eh9jJicOekNXN01R9GSm+q5b4PvY/Qy21HwmUkpaLMdv3kC1/1ike8fUb9ZYubXQjJmuAWdJaUJfE18Z8AZrylw2Gc2W+Dt/B9b19OsRN/bd9QcQEduJtr8Zsz19D4LuF+hx9lg/SX/faUfG3i1q8/ZjjJ8PYMZsZdw6KX7sXqfajbI8PWTGRjTeQg/X7Qaf1bNBhm+7vuGeCr/7z34oenX9X2uBFk5MVUDh+K9oM/u83udA96DQrB/mwGvufGzDPa90PfPbfxduHToF3how/uqMVShvYcN/u/D4D934PtX4/O8hfB7SQOe7TgbK954GrfZL+HDXz2Ede+pZrJMxE81EY2iI3yRVbRglPhBwCkeosfz+HJ1CfAHvz+i8oNvbqvf6TwooiJ4qongpywg3LUCv/vhbWjt4cvksNZb+Lp9Lz6b3Rr4pU3RvmSP/RC/eGQd+htJafAiO9uRiELwM4z+Qz2+/O5e/Eu1EFFfZHWnHOVXa/Dqzfht+Od3E/G1t4MELzU8g8Ershi+iIaDI3Nx3cFEfMG1HYeBDpRwbcco8D7WPVKM4uKrL3h51na8N/jI2X8V5GHUH27FNcFWOHnjp9pzUszgFVHsdgyC3Y5EREQULqx8EREREVmI4WuIsepFREREvWH4IiIiIrIQwxcRERGRhRi+iIiIiCzE8BUWj+GVe52oFNsr41UTERERkRCRU00k5T2K7Ilqx12Hfc4adKldyee44F16yBpDdroI2xrsmjsWe3YtxWbVRERERCOb9ZWvCQ5koxoV218XWwXqkI78vDR1UF/70XtcbNUuJM1yIIR1haNP136c6hqHSYFLWRIREdEIZX34Ouc0LZjdDtcnXUBsPIx8EhNrQ1dnu9oTujp8qmJEREREw1nUjflyNblgyyxC9gS5F4+0memwNTfApR0lIiIiGt4iG77suZiRaYPruGnMl6yMba8GZj2KopIi3PxJhalSNtzsxyfuMZg6YY7aJyIiopEuguErDdmOdOBEhe9g+gkOEbqmocMpx3xVozuzCEWOXE+35HCzudaBPfZlqLx3J9Zx7BcREdGIF6HwJYJXySwkNVdj30nT+C7ZzXhrErpO7MNpt9w/jVoRwFz2dKRr3ZDDzRysm+vE9LMOFO5agBUcvEZERDTiRSB8eYNXT92Jtth4dUmYkAIRx9AxbIPLJVxk6CIiIiLF8vN8yVNJ5GcG9r95z+WlwpnWKnWhzrlDVcKsMWTn+dIqXz8ADrLqRURERLqInGQ12jF8ERERUbhE3akmriq2OZhqa4E8lRkRERGRxPAVFmptx7kzgLpyLi1EREREHux2DGLouh2JiIiIfLHyRURERGQhhi8iIiIiCzF8EREREVmI4YuIiIjIQgxfRERERBZi+CIiIiKyUERONZGU9yiyJ6oddx32OWtgPg9pX8fDjaeaICIionCxvvI1wYFsVKNi++tiq0Ad0pGfl6YO6ms/ZseKwKUdfx21nb7HiYiIiIYz68PXOScqDpxWO+1wybV3YuOhL7WdhvRMG1zHvZUu14k6dE1MMS20TURERDR8ReGYry50mPsY3e3oRgxsdrVPRERENIxFNnzZczHDp9J1Gs3NNqRnersZk/JmsepFREREV40Ihq80ZDvSgRMVqD2nmgTXgWq4Js5CUcmj2jaxSeyjG11udQUiIiKiYSxCC2uL4FUyC0nN1abxXz2w5yJ/JnDIwhmPnO1IRERE4RKBylc/g5fjZpz9wNpTTRARERGFi+WVL3kqifxMfW6jmav6da370fe4C7XbneK/1mLli4iIiMIlQt2O0Y3hi4iIiMIlCk81QURERHT1YvgiIiIishDDFxEREZGFGL6IiIiILMTwRURERGQhhi8iIiIiCzF8EREREVmI4YuIiIjIQgxfVihchIqqpXhc7fbl8S0/R1WVvlWsTVWtw10BNovfZ/OTardXc7BurhOvjFe7HhvwYNXHWPXOWxinWgak8C08VVWJLLV7dUpDwmu/xISH1W4YlGYHe436R95H5b1iy35MtRARXf2sD19yvcaSR1FkbI5c+C82JJcY8hwvcSBJtY8Ury55BgUFz2BHg2roryeXouqdRSLu9Ecq1r/jDX3mzeoAWJq9DNnucjxxXjVQVNpcdwjjcnZiXeBqYaEZvxELJjRg5y4HCmtfU41ERFc/68OXuwb7tr+OCrXVdqYjPy9NHRQmOJCf2Y1a43hzErKDBDQaavVYfp8e+grKm8R+E3bIy2IrWlmvX8UKxgdy0A/jMrxZMAXP3fcAWlQLRVDXs7j3YAuyc9YgXzX1R759HHDuGDarfSKikSLi3Y7dnV3qkhSPtFuT0HWi1rOYtutEHbrsNyPJrhpCcMMNN2DUqFFqL5A8Jq8TVrL6ZFSPyrIQo5p1flWmLf2rUfncd9WzWF+o2rXuTdFWPBmIzcJyz3XMXZ6De+yCtc96b2t+bI1/9ayXrlbjZ/Wp0M3BuqkpqD+4NOADedzaj7BKdjnKbcsG1WqQ3ZGVyNK6E9V1/Lsmn6z03r4sD3Gq2eBz/+YuSXWfT61drBqArC1+1xHufvZt7N79Nlb3K4XIrsHnkHDntzHh7V9imrb92PReke3yuNoVYl74JW5ZJr+sqNsu+7F+uxe+rR2Tl327Gnu6b8l8zLhf5c6HcIt2fdN1XnsI16rDHufLUYsZWDjI7kciopEkwuErHkmTbHA1nfbsx9m7cLa5Xe2nIduRDpv4X1yIpS+bzYY777wTOTk5QQOYbMvNzcXs2bMRE+P7UTRkZLAoHouDG1QlacNRmJcuf3xLKXLa9ujHCjbjYMK80Lv2/O+7/CJyylTIqdyGIq2tCeg8ivXa/cttI17Vbjz4x74f29Rtn8H6GiDnCW94Kli7yHTfvo/rQ/4OIpC2lIvr3LcNVaoZtjmYamvAsSDdjS0rp+G5ginYWuNWLf5SMb8sEdWyMlawHY2xeSg0xpfJAFWciMMb5DGxbTiADnVII4LZ4txWvKvdVj5GIuYb4a3yAbxcXo+43KVwyKAprjs/pV5ctxBH5fFBs2PC0tn4fOOP8NH9v8Y5dzKSzCGoV+K2ae2o23gE/0i+B0ltv0bdYTcSMr6tjgMJ9xj3/SM0NCYjRYQ0nQxv9+Drh3+tHfvo/t34xx0/8Atu4vpvG7ffjTb77fj3gDFk+1F19hJSb+aYLSKiUEUmfE1wqPFcRUhHHerOqXaPeKQ55PFZQLXsehTf+OPi1bHedXV1oba2FnFxcQEBzAheY8aMwaFDh9DdbY5EQ+fxhVlAzTYsr1QNPgqQldKEHUuMyFGP5XubEDM1O6QxWgV3iaBkvu9Ne3CwczKyQhrIPrjHluGu1NQFWfVePbpjx+IWta9JSe99YsF4b/Aq3aTaDLaxiOm6iDNqt3/cIlwZgagMJxqAuPF6tSprYZ54zjbCGfT1EMenp6Kx3BumWlY6RXjLRJZR1dtUKAIZcMfCt+CY63tdw5/X3I977rkfq/ephn5o270KbX+Rl07DfdqNrycka+2haHv/d/hCu9QI1wvGlxgv730D3ScbRZ7K0Ktfd/5P3IgjaPLc5k/4u19wk7y3/xM6xc2/flNgMNznbhE5cFK/ux5vsY9Bt3ugAxuJiIavyISvc07PmK+K43HI9xlUb0O6owhxx9WYr3PxsMWKD44OoxrWt08//RQHDx70CWByk5dl8Dp8+LB2nYgovAnjMBkLPV1zYpPdhCG6JdGGmNxSU9deKXLE8xOSQT52QLeiX3dq1co12NHgvf9gFbXUXHmbJhz1D16CNgbIcosxLkFkkmKjy1FuJfCPPy0rN+JwQh7uaNuON4P87MPCx+34h7qIKfH4uv12pJu6HdPv8O/bb0Tnb9VFoXvZj3AmSMCDCMzdIjj7hPBe5H9rpzbDcfpZB+79637VSkQ0ckR8zBfONcAlPo5t2t/9dnS4xd/yExUidGlHBb0rssM8NCwERgCLjY3VQpfcZJdkRIOXh3cwu2czd7/1obtms+9txRZQRerRwB9b67KEqTvTrztVMmZqFhTsQYsIif4BrL5czuIUAS3IbEytghIhjeWqS9KzTfOplGVtWY7UU9tFACvxGf81rMjA5W5XlTLBfQR1WpejaVv2J3WwH/pZsdz31wUo3OXAsZud2PWtOaqViGjkiHj4smVMQ5L7LFzaUJ52uD7pgi0zH2nqS7jv8f6RIUt2Qd54442w2+2WBa8zrV2mrrwCbDZXiCprcbJThI/+DrJXXj3WhJjcRX4D3f2cuYju2FQU+F9nkI+tabuggloq1j/hP5HArAntneqin1eXbMZBZGG5/8/RzwpKqFytbsRNvVsNwN+AB30G3G/F0VNuJBf3ct4vNc6remUZnK8cAIzxXyYDG3AfCjuum6JfunbZc0gJvUfSTxoSZifjH6f/Sw9fvz2pjeGaHPL4sp5pFUv3J+hvj+sZ9yXE2FPUHhHRyGF9+PKM99K3/Elnsc9ZA6Ow1XVyB/adANK1MV+Bx/tLhi2n04k//elPllW8qlZu08OF1v02E+0b9sA7Ukqe0kEf6O7pvvPpotNPRirbForPJaOL0XN800Y1yN5724BZhZXb8Cs5GN5zHeN4X4/du1d3HEV3inHbUsSfMle+/Gc66gP7g5+mQv4c4jnR7sv0s3ftx6muFMwLqIYshuMdvUtwca5I5SklevdgwKzH4LQuQ+Rhsdal6EDbhu1oVMckOZhfG2Tv6XYUmzHgXs6SLDaN86p8ANUNdtxR9lFAABt6f8K53Y1IuEd1Cya8jwbzDx4C47bT3v4Bbjz9a1O3obhvNcje6HaUW/9PyjoHBTePQf1ZnqeLiChUozIyMq6Ea+D5cDVlyhR8/PHHao8sNX4jKnOAnbsCTzdBUUi+XlMv4n/vfbbflS859us/7Ht4glUiGnEiP+aLyOz8Uuw8l4IFXG4m+tnWYFfOONQe7H/wkgY6S5KIaLhj+KKos7n2BdTaiwe9biCFV2n6DLQcXIAVAx0TIIO2ewb+g2s7EtEIw27HINjtSEREROHCyhcRERGRhRi+hpismhERERH1hOGLiIiIyEIMX0REREQWYvgiIiIishDD13Bz20bkPLUG16ndntgfcCJn1U7cNFxO1yDPJF/VyxI/hCuO4/jswefVHvWptBONe5rE1gk+a0QUTawPX/Zc5JuWFypy5MKmDpkl5cnjCz1rPI4sc3DTU04k36Z2o4kMScbSOyPI41tCX4YpwJNLURVkIfF+uX0vPs9pxbVv/kw1hCZry8cDXwi88C08NWwD8efYe28H6ndNRvK8WPTvWSMiCi/rw5e7Bvu2v44KtdV2piM/z7y4bxqyRSib2Fk34PUcSTzNbzlw8LkFuHBeNdAw9jy+/G4qRv9h7ggpVT+G5FUbMajvXQVfIhFxOMI1qogoCkX8JKu2jIXIj/0IFQf0BX+T8hbCdmIHTiMX+Y6bcdYpLru1QyG74YYb8Nlnn+HKlSuqxdeoUaNw/fXX4/Lly6rF12BOsjrYE7TK7sL0b6gdk+7aF3Dyj/v1bseZF1F3eirSs8f4HpPGr0HG92cgRttpQN1zS+H79Mmq2jIkx6ndoNcJQlZByvLEx5m/erxboBad1hbAXo47YrUdoPMAtt73AFrULrABD1aVIFnt+RzXFrCG577Grf1IW0S7o2Y9Xl65VbT43bfP4/ZGLvi9CDh1ETm5k8Wvuwc7ME9btLy+/BmUbhKf02ufxfLED1CwpEq/SeEiVJSNhbNgI87IY7lBarPifjzXl5WtYnHfinG/+v1kqdfCrAk7xH2/ql2WP18pcozfy3y/iuxu/DzBieuDVb3Uwt8G4/kynr8ADdvx3JIyteP3eniO+bV7uHF4wzQ4K/U938cI9fUIzXXf2Ynp2UDjbwb4BaLgEo4/8yWcrHoRURSKcPiKR5qjCHHHX0ftOdVkkN2TAwhfNpsNeXl56OzsxMGDBwMCmAxeubm5iImJwYEDBxDsd49k+NLpAemGDxxo/FA1GWT4ukckh7+V4+Bbr6l9BAYoLYSNRbNfu/ahlrBHv+1AyA/7ua1+oUo3bm0lst4rVB/OelhKPWWEJ70LbFard9+HKXy5tA/1Vp8Pc+2DPtFpCg6hUuFG3NP6V4AfijCEms34FRZ5Aldv4UsPSHq3o6N1M4pW1qsWQwE2bwFKfYIYTOFKkG1zL2L9fdvgG6v0+10II3DpP2vGKfPjLMZXT6/AlfeTMfqIavKQIcmBNlMg8tfbc561RdxoifEc64EL5VPwpgyOkha4E1EdLFQFC8tTTwR9XwyYeq9f2B3k30FfGL6IKIpFphdjgkON+SpCOupQ5x+8BqGrqwu1tbWIi4tDTk6OFrYMRvAaM2YMDh06FDR4DQsdh3DMCE8fHsMFjMMN/RlY/43pg+vS6UHLSiN4SVtx9JQbcYkiKJrETb271/FiejXFN3h5pNw+4PFH9XuN4NMEZ0CAGowqb/CSNtWhHmMxqVDt96oAWSlN2OG5fT2W721CzNRs0/iwVFyJc2OUS+0GsCP1roGN6TrqCV5SGU40iNdnfGj3lTU9FY3l3tu3rHSiMTYTWSH83vILQM4qOSHEdwsY4/jhUhz8zSGMuceJjO/MUY0hSv0S9s7R4hklIoo+kQlf55yeMV8Vx+OQX+JAkjo0FD799FOt6mUOYHKTl2XwOnz4sHadkejzPy5A3d9SkK4+8Pr9odYbbYD2x1ilNv9ur6NL1uMw8rBYHX/wSXXAIxV3yNs0HAkIXi0rp+HdhlTMV7cd8CDyMJDVq6oqY5snfosQFd4kguhkLPTcVmym7kvN+IkI3nkuleHNDQeA3OXqOe/n4HhZvVLPp9zm++bkXizGuAQgudh721VBuymDk+/Bg8/JMYm+W2/VrZjs4tC+MMiKl5zhOO16JJeMEV8BiIiiT+TH755rgAsxsA1xKcYIYLGxsVrokpvskhzJwcugD8aXWzkuZS8bogC2AQ+W5QE16/FcwRRt21rj31+8Fc779GPPidAQJz68fQOYHDe0HY0pJUHD1dEl6rbiOh0icERDAJNdlgtl9argGRRo255+VlvMt1WbuXvyfDO8tdsgKh/Ay57nO1GE0xADmAzKxbJ6ZTynU0S4VcdCZL6tvvXc/WkWcuVLdjt+fwYu7Zbv1RDGJUpVY3DrvMlI/ugzNG6/JGIiEVH0iXj4smVMQ5L7LFz9GNcVKhmyZBfkjTfeCLvdPoyC135cvgjclP6Y2g+XBlzuUBdNHn6pHOXl5XjxEdVgdqYVHb10L3WcV7UG8eG+MNiAb0NlM4I8tOCt5gRWxgwNaOtUF80eeVH7uctfelg19EPCTaqrrwCbgwySP9Pa5dcdaNJ5EWfUxce3BKl8nbmI7thUFPg/Z5W1ONk5GQu39HYSinqM6rDjSgil4ZbzreqSl6vV3UtXrxttxg/+ZGVg5Ut7jVKRGfA66F3KycUDOw1FSJUvbbzXODT+ZgDjvaT60XDHfhl6FZKIyELWD7iX471mmT5J3HXY56zxnFZCm/2Y6T+7rAt1A5j1OFCRH3Avyen2xbhJ7fnPdjz28rP4XDsirzcPl9WsMH2WmD4L0suY0eg/01EwBu6byPD1vWTg43eL8dM3VKNJT7Pc/NsP1yTiDs8g+cAZdN6ZjILfAG59X3x0ajPwGvxmOgo+s/YUGb7mTwEaf4/in/xWNeqD2OP3PoPSM36zGD2D7M0zDrtwsLweGcW+A+59ryN4ZiWKsGbqauyuOYqW3FS0b1iD5aYqkDao3zNrspfZjkJ3je/Afm224zdP4LpfLPKtghnPkYfvbESd3yxR0/MmB+N7AlfnARxuy0Oq/+B8n8fobbajEDC7daDke3o6LoZa7QqGA+6JKIpF/FQT0Sg6wheR4Xl8uboE+EOwGY8UFMMXEUWxyI/5IqI+/Ayj/1CPL7+7F/9SLdSHqtFoxReYOKhlBYiIwoPhi2g4ODIX1x1MxBdc2zFE12HurmuR9wzXdiSi6MNuxyDY7UhEREThwsoXERERkYUYvqKMrJwRERHR1Yvhi4iIiMhCDF9EREREFmL4IiIiIrIQwxddFcyLW1esDb6ojDzLvDy+ucdliwZrDtbNdeKV8WrXRJ5NflXVR3D0sCxTaOTZ6oMtSB6NHsMr925EqdojIiIv68OXPRf5JY+iyNgcufBdTCgeaQ7T8bw01U5DRQaBAS9KLZebeeetHtYKjJxXl+iLUu/o5+LQQ6k0exmy3eV44rxqGAHm/Z/nsWnXSjxyt2rweA076sZhwdw1yFctRESksz58uWuwb/vrqFBbbWc68k0By5aRj5s/qVDHq+GaOAv5GfHqKNHAVa1cowW00k2qYSiN34gFExqws9Z3nUzD0SVT8FyB/7qLw1k+ntn1PP5H27Ee11/c99cF2Omegae+NUe1EBGRFPGTrGoLacd+hIoDp1WLr6S8R5GN6h6Ph0MkT7I6FCdp9V/wuLF8Ct4UgSNgIWSDeZFqv8Wajdui8C08VZYH85rcOu/C2r0t4hySJ5eiqniy2jEvMC0Xn14EvPIB4suMRazNi1N7ye5HR6vvwtS+i1934aDfotc63wWy0XkU6+/bBrl0ds+Lahtkd+MyjD3lCKx6+Txv5udKks/XUvF7OZFQZiw67n+dwAXJPa+J0NMi58bjwrR4ub6Qtv/9D8y8/7MSSb9fizfwv7DhRyn471+Ky39WB81sa7Br7ljs2bUUm1WTYXbZ7/D0DODDXz2Ede+pRiKiESDCY77ikTTJBleTdcHqqic+dBfmtooPWFlp0Tfjg7pl5TRt/90GoEN8KBvHvQFJfNBPP+JtL69HcnElsuShygfwsmpD5wFsNa5j+iDP2iKCV5sIXFr7ehxOKOlH96YIP8VjRTDSuw/l5hugbMgpm4l2dXxHw2Qs3BLqwn1VKNXuc4+IJ8HowWucCHvGYxd4gpcMdCJ4tYnApR3bjIMJ83zHldnmYKqtAceCdTcaz9uGA+hQTb7suKPMgbYN6jnrTMUsz3Mmw1kJ4jyvlTyuDkkiKC82vdZbaxIx3+gSlo8rXqu43KX6ODNx3aEKXtKe/6+HsOWvaz9OdaVgepBxcEREI1VkwtcEhxrTVYR01KHunGr3J66XPbELdScYzvonFZkDGpRdhjfNlapNR9CIRIwLaZD4BmTKD3fP7bfCuVd8+E+9ux/jw2zIuMsUavzUl3srVq8eawISbhKxafAK1s5EaudR/Mon7BkKkJXShB2eSlc9lu9tQszUbO9j28Yipusizqjd/mosN7ojt+LoKTfiElO0djx5P+7AAexQlSt/WdNTxW29YaplpRONsZnIMl6vTYUikAF3LHwLjrm+17XOfnziBsbZA7se39/wEIqLWfUiopEnMuHrnNMz5qvieBzySxxIUoc85MD8WUlwVe/A6Z4GlVAgVfFILpaz68TWz8Hx+qw8Y/Pt7upV4UTEidA333NbsZm6L/tWhdINIhrklqpZi0vxuDrSo9ixuEVdHIxbEm1A2wVPpctH4U3i+ZuMhWompbaZukalfHskph8sxrgEeF/nHl6vlpUbcTghT6tIGhVQq51xX0KMXQVKIiKKdLejcK4BLsTAZh6KJIOXIx04UYHanqpi1LNNhaqbagrebcvD4hADmBw/pHdN6bd9rmA7GtWx0Jhvq7b7HkCLOtqnym0oUt1+62vGisDTRwDrHHi1yexMa5e61BM5vkx1RxqbqVtynzvk33DIyfFfPs+336B+2RWcemp7P7uAh9Yt9jHodkdwGioRUZSJePiyZUxDkvssXEZ1yxS89p1sV400UK7WwLKhbOuxO7CzVYRhXdaWIJWvM63oMHdtGSr/jPrOVMzfskE19OCRF1FeXo7ylx5WDcFVnb+oLgUjx4dNRvep2uDVqn6qeq8e3Snzgp//q7IWJzv7GF/WdRHdtqGpwvnwe661MXXGoH/VRekZkxeMGudVvbIMzlcOAMb4L7MQX4+Bm4NJ4otVi3u/2veSA+7lY7/4iGogIhohrJ/tKMd7zTJ1MrrrsM9ZA6P2oM1unKh2PLpQ57Su+3E4z3YMnNEYbJB1T7MSfWfWddQcQEduJto2+FZTepxh53+/ghzYb8y208gP+/lTgMbfo/gnv1WNgt9MR99ZiX6zDQXvTEjJb6ai4rlOwH1LfrMeCxehoiwLMWq319mOgu/j67Mdp559Aff+1TdkBJ9hajxn+vOVsNdv9mKi0zMJwnx7+VxWJy5H5rGeZjsKcjKErDaqWavmmZH6bEc3Dvu8ng/jxfLvYYr7Q/zikXV4X7X25ZvLV+JHM3zP0Cef00P+sx57me3Y43uBiOgqF/FTTUSj4Ry+rk56+InfG6ZzdA2F8RtRmQPsDBYyotpsrHjjadx2MTwBqDTbiXnuwFCquWsFfvfD29D6bjF++oZqIyIaASI/5ovoanB+KXaeS8GC7MdUQ/TTu/3CF7zyv7UTC+yH8HJA8JKBrxzlDF5ENEIxfBENkc21L6DWXhx0bcdopJ/qoThMXX6PYWF6C3bufRb7VIvX+1j3iHhc8dgMXkQ0ErHbMQh2OxIREVG4sPJFREREZCGGryjDqhcREdHVjeGLiIiIyEIMX0REREQWYvgiIiIishDDVxR6flMTGveIbdPnqsXXFcdx/NMRmXX6iIiIaHCsP9WEWrvRszCJ3/JCAcsPNVej4sBptWONSJ5qwusrbNt+Fon7JmNuwCnTn8eXq0uAPyRj9BHVRERERMNCxM/zpa3liJ4CVjzSHEW4+RNrF9mOjvAFLF79dzyFsbh19TWqxWT8NvxzSSKuWT2X5UsiIqJhJOKf292dnppXEO3o6lQXydf5RbimIRVfsfuRiIhoWIlw+IpH0iQbXE09dSumYeLELpxttq7qNZz826l6fPXNObii9omIiCj6RSZ8yXFdJY+KrQjpqEPdOdWu2DIWquOzkNT8EU671YERZqvrWtjTP0OPtS1XK66JS2T4IiIiGkYiv7ajNsAeqN3uhEs1mckglj/prO+g/DCLljFfmtJONN7bAfd/3Rxk7JcceO/AqC234przqomIiIiiWuTHap9rEKErBja72vfT1XwWXfY4cY2RRw64b5x2PZLnTe5h0P1EXEErRjF4ERERDRsRD1+2jGlIcp+Fq4euxaTMdNiaZUAbmdyto9WlIJIS8VWHCF9ql4iIiKKf9d2O/ufx8jvPl9bNmOk5C9gIPs9XH6eaEP71YCO+aluHrzm3qhYiIiKKdpEf8xWFhkX44nm+iIiIhiV+bketrzAn/R9odQWrej2PL5fkYdQfGLyIiIiGG352RyF9bcezyEMCtgcsLSTXdnTgysF1XFqIiIhoGGK3YxDR0u1IREREVx9WvoiIiIgsxPA1xFj1IiIiot4wfBERERFZiOGLiIiIyEIMX0REREQWYvgKi8fwyr1OVIrtlfGqiYiIiEiw/lQT9lzkO9LhWUDIb3khr3ikOYqQbu9CnXMHTvew9mM4DNnpImxrsGvuWOzZtRRBTtdFREREI5D1lS93DfZtfx0VaqvtTEd+Xpo66GXLyEd6p2t4L6jdtR+nusZhkmmpSiIiIhrZIt7t2N0ZWPOS1bEZmUDdiQbVQERERHR1iHD4ikfSJBtcTafVvhSPtJnpwIl9lnY1EhEREVkhMuFrggNFJY+KrQjpqEPdOdUuTcjW2g6dbFcNw9l+fOIeg6kT5qh9IiIiGukiE77OOT1jviqOxyG/xIEk7UAasmfFoO6DYAPwh6fNtQ7ssS9D5b07sY5jv4iIiEa8KFhYWwSukmnokDMabQ4UzdJjWIDmalQcMHdPhs/QLY49B+vmLsPYUw48cV41ERER0YgW8QH3toxpSHKfhUuO7zJXxLStGi7IU02IyxYFr6F3CRevljIeERERDZr14csz3kvf8ied7eE8X0RERERXnyjodow+Q9vt+APg4AKsYLokIiIiIeLdjlc12xxMtbXgEwYvIiIiUhi+wkKt7Th3BlBXzqWFiIiIyIPdjkEMXbcjERERkS9WvoiIiIgsxPBFREREZCGGLyIiIiILMXwRERERWYjhi4iIiMhCDF9EREREFrL+VBP2XOQ70mFTu3DX+S4v5H9csnBRbYmnmiAiIqJwifh5vpLyHkU2TOFKhq+ZwKEIrvfI8EVEREThEvFux+5Orr1DREREI0eEw1c8kibZ4GqyrkuRiIiIKJIi0+04wYGiWUn65T7HfLlQu90p/msddjsSERFRuER+bUctiKHHgGXLWIj8zG5LAxjDFxEREYVL5E81ca5BhKoY2Oxq309X89mIDbwnIiIiGmoRD1+2jGlIcp+Fy60afMQjbWY6bM0yoBERERENf9Z3O5rHe0l+Y770bkbviK+uExXYd7Jd7VmD3Y5EREQULpEf8xWFGL6IiIgoXLi8EBEREZGFGL6IiIiILMTwRURERGQhhi8iIiIiCzF8BcHB9kRERBQuDF9EREREFmL4IiIiIrIQwxcRERGRhRi+erB49d/RuKcJjdsvYbFqIyIiIhos689wb89FviMdngWE/JYXMiTlPYrsiWqnuRoVB06rHWs9v6kJjtabcevqa1QLERER0cBFfHkhLWTBHK7ikeYoQnpn5AKXj9JONE67HslPXqcaiIiIiAYu4t2O3Z1+Na8J2dETvIiIiIiGWITDVzySJtngavIGraTJSejqjEd2yaMoUlv2BHWQiIiIaJiLTPia4FDBqgjpqEPdOdUuwpgtFrBlxqF5++uokFu1C0mzFiLNrq5itfrRcH/jMzyvdomIiIgGIzLh65xTD1ZyOx6H/BIHktQhyVXthEtdxrla1LltiPOM0LdY1Rjc+vPRcMiZj5s+V41EREREAxP5U02caxBBKwY2rbLVjq5OICYuXjsUFeSA+yXAy/Mmc9A9ERERDVrEw5ctYxqS3Gfhcuv7riYXbJnZ3kqYHIBvd6HZ0zUZAe2jsVVdJCIiIhoM6081Icd7zTJ1MgY5z5ctYyHyM41+Rhdqt5u6Ia3GU00QERHREIr4eb6iHsMXERERDaHIj/mKcs9P64C7dbTaIyIiIhochq8eGGs7lnwjDk4uLURERERDhN2ORERERBZi5YuIiIjIQqx8BXHDDTeoS0RERERDi5UvIiIiIgux8hWEUfm6fPmy9v9EREREQ4WVLyIiIiILMXwRERERWcj6bse7VuB3P7wNY9Qu3B/iF4+sw/vazmyseONp3KYtsm12CR/+6iGse0/thhm7HYmIiChcIj7m6+GXyvE9/B7FP/mtavHzyIsonw/8vvin6OEaQ47hi4iIiMIl4t2Of/v7JXUpuIczp+DSoQrLghcRERFROEU4fM3Gnd8cg49P9BCt7lqBguSPUbVB75QkIiIiGu4iE75kV2J5udiexm34EBVvqHY/D3/vNoBVLyIiIrqKRCZ8vfFTFBcX69tfbsTT5S/iYXXIQ6t6XcJ/17DqRURERFePyJ9q4o3/h4+RiJvvUvuKrHqNaayybIYjERERkRUiHr5mlxVgivu/8RdzyFJVrw9/zw5HIiIiurpYf6oJ7dQRU9SO4HOeL0md6+tiL6efCDOeaoKIiIjChWs7BsHwRUREROES+TFfRERERCMIwxcRERGRhdjtGITR7UhEREQ01Fj5IiIiIrIQK19EREREFmLli4iIiMhCDF9EREREFmL4IiIiIrIQwxcRERGRhRi+iIiIiCzE8EVERERkIYYvIiIiIgsxfBERERFZiOGLiIiIyEIMX0REREQWYvgiIiIishDDFxEREZGFGL6IiIiILMTwRURERGQZ4P8HGTKfhZ7/pXkAAAAASUVORK5CYII=;" vertex="1" parent="1">
                    <mxGeometry x="-256" y="1057" width="993.2" height="1273" as="geometry"/>
                </mxCell>
                <mxCell id="54" style="edgeStyle=orthogonalEdgeStyle;html=1;fontSize=31;fontColor=#000000;strokeWidth=2;strokeColor=#FFFF00;" parent="1" source="52" target="53" edge="1">
                    <mxGeometry relative="1" as="geometry"/>
                </mxCell>
                <mxCell id="52" value="" style="rounded=1;whiteSpace=wrap;html=1;fontSize=31;fillColor=none;strokeColor=#FFFF00;strokeWidth=3;" parent="1" vertex="1">
                    <mxGeometry x="-138" y="1513" width="374" height="213" as="geometry"/>
                </mxCell>
                <mxCell id="53" value="Declaracion del atributo con su respectivo valor" style="rounded=1;whiteSpace=wrap;html=1;fontSize=31;fillColor=none;strokeColor=#FFFF00;strokeWidth=3;" parent="1" vertex="1">
                    <mxGeometry x="429" y="1449" width="413" height="114" as="geometry"/>
                </mxCell>
                <mxCell id="63" value="&lt;p style=&quot;line-height: 89%;&quot;&gt;&lt;span style=&quot;font-size: 25px;&quot;&gt;Este input lo que esta haciendo es disparar el &lt;font color=&quot;#007fff&quot;&gt;metodo de la clase del componente&lt;/font&gt; y recibiendo el evento como parametro para despues guardarlo en el array sin hacer una mutacion del dato directamente&lt;/span&gt;&lt;/p&gt;" style="rounded=1;whiteSpace=wrap;html=1;fontSize=31;fillColor=none;strokeColor=#FF0000;strokeWidth=3;" parent="1" vertex="1">
                    <mxGeometry x="950" y="1907" width="437" height="223" as="geometry"/>
                </mxCell>
                <mxCell id="74" value="&lt;p style=&quot;line-height: 89%;&quot;&gt;&lt;br&gt;&lt;/p&gt;" style="rounded=1;whiteSpace=wrap;html=1;fontSize=31;fillColor=none;strokeColor=#FF0000;strokeWidth=3;" vertex="1" parent="1">
                    <mxGeometry x="-144" y="1738" width="655" height="171" as="geometry"/>
                </mxCell>
                <mxCell id="75" value="" style="shape=image;verticalLabelPosition=bottom;labelBackgroundColor=default;verticalAlign=top;aspect=fixed;imageAspect=0;image=data:image/png,iVBORw0KGgoAAAANSUhEUgAAAusAAAK8CAYAAABWcvFyAAAAAXNSR0IArs4c6QAAAARnQU1BAACxjwv8YQUAAAAJcEhZcwAADsMAAA7DAcdvqGQAAABhaVRYdFNuaXBNZXRhZGF0YQAAAAAAeyJjbGlwUG9pbnRzIjpbeyJ4IjowLCJ5IjowfSx7IngiOjc0NywieSI6MH0seyJ4Ijo3NDcsInkiOjcwMH0seyJ4IjowLCJ5Ijo3MDB9XX38XFknAAD/OElEQVR4Xuz9C3wUVZ43cP8YnUFN6CQkQAJEEoLBcImGOyHAIKLkAcnDBIZFxpEw4PuMo7ve1uVVcPcR9MO63mZ1nOcjaBwVWRYybBDeoFEZINwv0XCJIAnBAAkQcmmSUXQc33OqTnVXdfqaG93h9/VTUqdO17WrK/86/a/TXfr16/cjiIjI4mc/+xl69+6N6667Do2Njfj222/xt7/9TdUSERF1DAbrRERedO/eHTabDV27dkWXLl3UVCIioo7BYJ2IiIiIKEj9RP1LRERERERBhsE6EREREVGQYrBORERERBSkGKwTEREREQWpLoMHD+YDpkREREREQahLbGysz2A9OjoaR+9Zq0pE15bBH87BpUuXVIkodMhrN89dIqLQ5newLn8UhOhaFB4ezoCHQhKDdSKi0MecdSIiIiKiIMVgnYiIiIgoSDFYJyIiIiIKUgzWiYiIiIiCFIN1IiIiIqIgxWCdiIiIiChIMVgnIiIiIgpSDNaJiIiIiIIUg3UiIiIioiDFYJ2oA/z4s5vUmHWciIiIyJsusbGxP6pxj+RPVjc2NqqSf24L64I3kn6mSt79rux7fN70d1UiCi7h4eEt+8n2n1yHKwMy8Ne0mQjf+gf89MJX2uTve96CxkkP4qbiDeh6sgj4O899ah/y2t2ic5eIiIJGu7Ws1/1Njfjh0vc+7xeEf8cnFSX44DeqSEFn0ZoSVHz676rUtgJf9iRkzYhX467iRd0kNd4+/jrsF7j0m/fQ8L+eAn743hGoS3K8yw9/E3VP49KCd7XX+tTnHjzx3AKMUEUiIiK6NrRbsF77Nz0AP/LXH/FQ2fduh6OiTqr9wZ9gnYLCbz5AScUn4tYpcP/+aQVK1ixSpfY1bPnTeOE/PsD/+5VrwB6PX//hA1H3NJ5NU5PaQdOY+/BDWLQ2HrZvjfav2U0H/lv794fwHvjr6HnaOAW/ETnP4YnpcarkYsQCPPfEPfBQS0RE1CLtFqw3/iACERGDyxUUN/0dSTd2QVq4dejxU0DG9E3itURt6dCSHDz3CTBpaS5+72hhj0fWy7l4+k5g67IcPFOsJreDn1zR08auv1SBn319SBv/PnYg/hbdTxv/WcV+rU7q8u1l7V8iIiIiV+2Wsy5tSPkZZDZudul3WDXgp0i5qfm9wYXvgZmlV1TJG5kGk4kL645gyOx02OQk+y48l3ovVmr1esvtnCRVwEmsTbgT/6KNq3l3X0D62AHalJPrEnAnPkHFbFP5n7VRjXlZ9t3PIXWusRYzudw50JdgWoZsfV6qtlEwzy/TOZ7ueQS7eqQjXb5A24etmFTytKms75P+2gKsxRzHtnjbTss+a9vQEwXrgDlqH133w/0+ujnOZWuRMFks9T+cx0tyXZ7n7V2ED4z90+jbCbH+zAu7cGFsun4MtfXAeUyN9QrGso2yf/RW9KfvvIIt//xP+Oznv8cL07qKQP1e/J/3K9VrfGtJznrtvD/ibz36I2LzcnT9aoc2zT7lMeDHv8P2yata+UryRC1N5qcXTiLqg99p0zySaTAP9sBfNojPy0zj4G7A07kH9HGMwILnZsJ5Kpjq1LzHd3fHmLFRYkId9rzxIg6kPYGHTOUPz2qvFszLcq0zkS3JxragDBuefhtyjXHTjeVK1vlly/TPL+5B7dgx+vK17YRzfabt1l+7AcdvnYkx2uK8badgmlfbhh5/wQbMxEztZPJzH90c57rdr+PFTcA9TzyktkNy7q9k3WdRu+FpvC0q5T7o6zeWU6UXOghz1omIQl+7taxLMm+9x/VdtPGFJ7/HuJIrlkG2vNf+LZCH62xIvxt4LSEBCQlrcdKWjjn/odfIYG5ODxHoanVikEFqyQdwJl2IeXseVHUnMWB2BSqGmcvO1A5tWSLk1OoSnsORwU/jE7UeJz1QhwhGtdctE0GnMV0E6heM6e7mTxoC/F6v24V0PF3xsKX8sDlVJGkOhh9SyxLr6Dnbmbfve58HYI6xj2JejH3YOq/HfXQ5zmIbtLp/vlNbjl0LthPc38CYtve53XYMuFtuz0rcm5qAtWV6gJ/guIkSaxrbEwdN66moGG4pNz/ugajEu7+7F09uBqa+vBm/nwYRtAcWqLfUT75rwnV1Z9H15E6tLHuAuXLrHdrw4/VdtWkyiL/OLs4av1vWkzBzqLhpefppPP3GHtQN+Dnu6SOnx4lAcia6i2BQqxODDFKt6RpJGIjVWt3ru4ExDz6HeebyXCN9Q1+WiETVeo5j4INucuW1QF2+TH/d67svOqY/NLbWMd3d/FFje6BEq9+AsgEz8dxzqZbyAtOLo8b+HFijlrWhVmy3sSw/9lksK/WwXhfYPlqPM8bOE8e5Ch++KNZxUg+6nzYF6lLVphfF9okTvG4PXhfzyUBdBvAzxVYZ29fRgToREXUO7Rqsy7z160Ss/tu46/GvN1+PPyT9TBv+IeY6hF0Hra72e/Viv9ix6/dGS/q/4KD429izrwxN/x1zxsJUJ/zzWhH4DsEkxwOpYt4PVIj4zwdFuOla7ol47bVqWUadWOLWo3a1HpP/GI4BZWudrdxv3Yt7xfiiNZnW6TJQ/UjcDAwzZXmXFeDet+SIvmzXsq2ns/Vati6b11FQZsOQO/3dZxFUGy3Rb23FEbsNPW+VBV/76Ok4+8G0vSs/OQK7rafjmwd37LvXqsBdX49r2e/1BptvGxF2YK3Wki59M/hu/HjdT7VA/VsxrhF1N+1bowX2/inDBqO1/OwBHK+LQg8ZfY7IxBjswWpTMHjgYxFk3jpCBadSGf6i6quKj6POtRzVA1rcr5ZVYESi2nq6I06rdBoxNAllG5wBa9WmD8W4CIJ/bp2Osx/iLyeTkGoKwOt2F6j6AyjRgl9ruXusc6vrdq92toYfKMCeOrUsf/b55AYtaJYC20cPxzlAVdW1QHSc6T0gIiIKXLu3rEubLv2Aqu+A28O6aEPE9V0Qo1rc61qRr37yggh0HS6gUgt4DStRedEITgNlQ/rSClRU6MPTY23WAFpY1Lcn7BdEZOFGs+lfXoC9R7ypxbvlWr7Psk6Nanzvo8G6zgC8Vam+bbha1MOkskX9sWn4J9nC7vah07Z3fd3XuKH0E1WC1k1jz1fv1oYbv9iopgI3HPtYa4EPXBWqzNkNl0RZjWrOVqHWCE4DFTUGDz33HJ7TBpn64RqsigA0ug4XLSs0NJ9+9mKdJQBvuVbss6xToxqf+2hwWWcgDryN178cqK+HD54SEVELtXvLuhT10y54+/wP+PWJ7/ArMbwlxqOu16pEQO8zZd5PRsu4YRHie9hx4UtVDIie5qGniKjBTa60p+C22fRbe8J2sVK1VLfOgJ42XDhjLKk1++zfPoYuc756Dv5p41HkP5aDJzdfwaSl7R+w37T/v4G/+74T7fL3v+Em2QLfWq4tuH3i0L3uIlpyG6DlfqvUDWMwWqidPAW3zaf36RGF2mq3kX2AXG4SWrPPfu1j62npMWLZWtCeY/p6gYiIyE/tGqwb/ae/mPhT/NvN12kPmN52Uxcs63c9XkjUfzDJvz7WfZEpEzak/5MpX/s/5iAdR7DV0vLsD7msAZjjrk9vU7eFWoqHOada1H0gxptNF1v0wd0DcPJQCwPhpExn3/L/8QnmJJ3EQS3NpDX77GUfAyUfOrXkyQeHYcudvb7800YjR71SC9iNXmLas+tGozcYqX7Gs7jwyEeWof6ef1O18rX+psF4cKAEZVFjMM+Urz3irjHAlwesLc/+kMtyyRt3cHRNWIUDX9YhaaYzzztu+j1ivPl0+cDmzweUoaSFgXDU2EzTOuZhDI7jgIzGW7PP3vYxQF67cjRhSgwREbVUuwbrX1/5Ed+JWDxMrGVSxHX4//a9Hv/c96eYYPuJNu3K34HT4jVt4V8mJ2DtRfmwpkrtuPuCpaeYQPzL5Oewq4d82NFIE3HzY0xv3YtU7YFP9ZqlQ0Sg4GZ6xdPo+ZG1B5eAlB0B/kkta3ZP7FrmfDizNfvs1z66o+XNi0BfzBNon+n/8oF8yPVpsa6W9dMeiENLnsOTbh8mVQ+d/vNz7dp1o8N11+PvUb1Vwenv3eOBLm318TuAt5/egNqxD6m0DtmLSkt7HhHLemMPus80UkTcp3DIFuPXd3fHTPWah26F1qLtOv052bOKy8OYgajbfRGpxjrkg6svfqiC8dbss3/76I6WF6+t0/rQrEbm1IvbCZn2Im8E5AOmjuXL51kd205EROS/du26UfppFyBNROZju3VBhgjYZWLA7oYfsPvyjzjU9Hetn3Vyr2XdFVJba0nXjRY/+Qm+GTpN+6Ek/Pgjwna/ixuPFoiIPZCekK49eteNHd/dYWfCrhuJiEJfu7asSzLLZV/j3/H7qh8w+8vv8A9ikONyGgN1uiaIoPzGLz5E93dyEC2GGw9vZqBOREREfmn3YJ2IdDI3vct3f1UlIiIiIt/aPQ2GKNS1Og2G6CphGgwRUehjyzoRERERUZBisE5EREREFKQYrBMRERERBSkG60REREREQYrBOhERERFRkGKwTkREREQUpBisExEREREFKfazTuSD7GediIiI6GpgsE5EREREFKSYBkNEREREFKQYrBMRERERBSkG60REREREQeqq5qz36nszbu5/C3r27osff/wRF86dQWX5Vzh/tlK9goiIiIjo2nVVgvWf/qwrJv6vLAwdOVYr11+q0f6NjI7R/v1iTxG2F+Tjb3/7m1YmIqLWuy2sC95I+pkqefe7su/xedPfVYnoaojHdUOfwLD5Wbi5uyjWnsT+d57B14d36dVE14jrwsPD/02Ne3TTTTfhu+++U6XWuf7663Hvbx9DfP9bsHfrx9iy7n3s+0shPt+9A0cO7MEPf/seaWMnYMCgoTh2aB/+/nf+sfDHtEdewH0pNdj6ebWaEoym4ZEXpiG6cA++UlOCVffx/x/80/+Oxdd7v0KDmtaRrvb63euOiYv+CTP7fI09J4Jnq1oioOM7bAGefXQibgqy87Yl50jXn3TBrJjrVMm79y78APsPquBJkB4bckrLeRaP/fwmFO5p+3fI+9+d1lwvZJC+DCP+5d8xekwYLm55Cdt/vxKVN0zCsHmLcNvPp6Op6iQaLnT8t/BynxeN+Vm7HM+WC52/rdQyHZ6znjF1BmxRUXj3P/8dez77CH9takRMrzht+GvjZews/P9pdRHdozHurulqLqKOVbujAIcxGgv/cRpuVtM60tVev3u12PbxYWDkQjxyT/BsVUsE5/ENTEv2ofZv+hepR/76Ix4q+97tcFTUSbU/+PzSlYLFPY/ghX9dgDRV9F8aFvzrC+LzrIptqiXXCxmk/x7DVnyC//1/huG7T57B//xuPL4oeBc/fL8L9g13Ysvv7kVhETDo4Q+Q/dKfEf1TNWu7aH58Nr/6JJ58dbMqtZEWv390rejQYF2mv6SNHY+/bP4fLfVl8LBR+O1Ty3HfPz6pDb99+jncetsw1NVc1F5zu3itnIeo432Nzf+5CntlMPTQ3VchoLva6/fg9Ga8+tZe7Q/wQ3eFapgrBenxDUjg+9D4AyBjcHnhL276O5Ju7IK0cOvQQwQ/MqZv8tWqTuRLINeLnz6BFC1ITwf2PucM0lW1gwzaP1qJQ3sr8X33YRj+61+rCqLOq0Nz1hMHDsL0ufPx+v/9Fy0IX/Qv/4afdbUG499+81es+vf/i7/97Xs89K//jo3vv4XTJ4+rWk/k3e9c3Bqml74tXYNncnvjkRduwVdPvgrjHlh+fXVL2ZN49UN9fHTDl6hNuRW9m77Emv/7NpDzLOam3KC/+Nw2x92z/BrRMR3f4sv/egZvH1JFd+RXw/9wK4w5zu3Q16lPt2HvDmDi+N5anb6txdq4JLdrol4l5tsGjFf7IOcVd/cbxHbqr5b7PBP4UN8WfX/UsjytX/uqbDTspbW4NaV3s3U7qO2sKO0uXieXou9z8W3GcXAeA8t6NWodpnq3+yNfaaqDeg+KjWNket+04x+xV3s/3M4jRvXt2IaKmyeq88D8Pqlt2lGBhPHquJjm9e5m3P3QQozDTqx6/SMRHrln3i7juOrbZD3HxFSxLRNh7ILzvfEk8PV3yHHpdzcemj8O2L0Kr3/sfquM920bJprOAdP+ejxPBXOd2KZtXyeIkHSD4zyzfCZNn1XrMs9hm+k8cs+P42uck6bPrWWdguX4m9er5vXns6Qznx+udZ74d44YNqT8DDK5MLv0O6wa8FOk3NS8zebC98DM0iuq5EUwHhvZSmlsi2l93q7jls+qnKDtA5zrc/174O28dvmMNz8/vf0N8LCPXuaz7pfrtnjbXpftVJ/93gEcC/24efg7YubH9SLsNyWYltEVZz4WgXj+i/j2r6rCLGIRbv7NA7h9aA98V7YVJ/86HAMuv4YtK1eqFxg8nSveziHr8dD/Xnk6Ps599nxeyeW5XF/N54Li6f3zvFyd+XPl+rdVP1+c11bP55i5zs32mv8e+PFZp/bToS3rNyfdgvNnv9Z6fonte3OzQF264cab0LNPvKN3mPj+A1SNJ3qgnvD1Gjz55JNiEIGJqvHlhhSbOLnFPPJkFBf4uTdXYI22DNPXXHJ6Sq244Kvp/yVO5H94RJzWnqXdJv4A/Zd6/Y5z6D3e/PremJj0lVrWl0DKTCwYptfID+dEcUnV9+NJfJVkulAEwPv6b8CtEfr6vV9geyNBBEfydWtKgVv/4QXMNJfv0b+y21x2DjfcnOb8+u6eW9D73F7touJ9f6bhFkfdGnyJWzEzRyzlUDEqmnrjFsfXjmLZNwNfbpfvh4d5lBtSRgMfGvstbkgs75PYb3GcN6ht2dZwK+Y+4u1dNHyNj15fJcKgcVj44GT0VFPNXPfTfFwt55jYGnmRhLgYa68V779dvc4z3+u/Ksfl9Ed4/Z2dwNiFeOhO91ul6T1Ru0E29rf7+Ged57vH81Qcp39IcNaJP1yjTX/MtM+k6bMqg5Bntf11mc/4w+WVP8dXsn5uv+092vq5jRB/1NT2PCn/mFm+0vbvsyTP9QX/aj4/fF9rdP7ug67ub0CP67to4wtPfo9xJVcsg2x5r/1bIM8KBdGx0QJ1OK7Xa0rVJ8yP67jjsyr+hpwT5+0LWmOPs2xJFfF4Xuvb2V0EQFqdGJznp8HT3wBf++h+vuLcZ7TPjxZYiTpzoO5g2t41pd+itwi80sSn41V5vWjSA0T9GqUL6Fj4w4/rxXUiGmk6vAVVN/8a0149jsmP/R62iHi9LvFZDFxSguxXnxDXuoPYvnQ8tizPwYXLWnUzluP4pBHkeju+7q7Nno+Pg8/zynx9dX/s3L5/Ppbr62/rIyJQr3Xs/xpU3DzXuV7xN9q8n+YYxPffA9M5KI9NhOu5Te2lQ4P1Lj8xPdik/61w6yc/0TdLBuzX/dRHQtqwNHGx/xIbHAHSZrztNQh1+rZ0m/OP+Vk7vg2zmU54SXy4h/UWH1TTH/1Db2PvOSOYlB/wF8SFTB+MD0Nx7qvq4iB8+BXEx9DkHLYZNwJaYHoDbH1kYRomphhBqW7zq+LDrcYD4X394g7dtA75oTe235ozdw571XEs/qJCzOVSNo6VXL7puE1LEserTC7f1/6IC6HjjrwYxV9/axnvHqO2RHt/K1Cs7Y+neXTflm4w7fc2cZE1B/1ivz90Xmw3b5dBxS2Oi59frjcFjCbFNbVARC/TsXOynGPajcw25x9TcS697e4Pqyce1n+1j8v13jLVXPZ377kbkHCbfqQ8nadpOaMdN3waMd8GEWDo1GdSTHNss7xhjJBn4DnYHZ+nFvB4fCUfn1vTMdSOsThr0xx/AP38LN0zUdxmfYltjuMl19MdvRzL8YPXfdDJvPXrxPX3t3HX419vvh5/SPqZNvxDzHUIE5doWVf7vXqxX4Ln2GjXH9P1ujj3bTHu6zquc35WN+MrcTK6lh3XJMnTea220/n3SP9Mwdyg4el4+dxHT8fZD6bttRxXDwI6FgHydr344fIRnPr3VOQ98hyOfzsMP39pB2b853FkPz0HPWsLsOV3A/Hpy/8H9We8P1h6vsHNNno7vi26NvtzXpmvr/4eO99xh7e/rfr107QvYu1vHzqH3knqqv7hq6b9lMdAjWt8/T0wnYNqubKxjtpfhwbrF8+dQY+4vtr4peoqtz29/P2HH1Bzvkob79m7j5jnrDbuUR8bbmg47/xj0FLiw/CMbPXRAlfznfG3sLtswrkGI5iUd97qDlUMzg+HOYj31jperF1UnGpx3ghQWsXf9cs/ZuKu3tgHdy0HPskLkPMickvvc/jKcRy874/5RsH8NaD8Y2L8cUu7LQH4WgSgepXHeZpzPbYuDp0XW+cPPcVg4vV7seo/N+OCmmohLn5rvk7AXLldXh4SSovpjm8bjEuqv/xYv9Dhx0V+rf2bibj+0Cq8utnTVjUnPztOns9TX8ep93hjPjHIr2S1myXxx+P/yq+D9en+tf75d3ytfH1uZX0LbxrCbtXPI22QqX3+LCewfZAt69KmSz+g6jvg9rAu2hBxfRfEqBb3uhbnq1/NY5OGXhHNr9c6b9fx1rOc165/j+RnymNw7HK8/H7/XY9zAPy+9rWhQK8Xf30XZ94Yj42/zUdNtwvY848DseONf0GTa2qMh46NNr+qtybL42hp+fVwfFt2bZYCO6+s1z9vfC3X+9/WZvsiGyMdDUriZuBfzcdAm+ier3NFLleNUvvq0GD9QtVZLfVFPlja1HgZn+avw3ffOt9qOV64YS2+aWrEkBFjtLz28+f86JrJQ6tmwETQpQWtlq9qm18se0fcgNoaT2GtDEBkzrYRxAfSOu7SUjSsl5gSqNasv2Xk3Xd3edeutU585WwN8LI/MrjU8tDVjYL8atZBtiI0yNY3PQWm4gv9WHudpxlvf7gFuS1Ndh/HxhkE/b9XN3vNBTZuerSg3Usaid4C7C//1t/hx8X4w7v//4kbVF8Z0lbOz47389T1OMn5nL7Fl4751OC40TRuoGXQ7ky5cc//99c71xZeH8fYm3POr7aNwdkI4E7g+2D0CBP10y54+/wP+PWJ7/ArMbwlxqOu16pEQO/zUSY/dfSx8RTcBnodD4xlWa5/j/y61igBv/8hoBXXC3wvr2VX8HeXIN1Ii5ky4gpOfuKary7JG3d5/FxSQLwc38CuzYb2Oq98Ldd7rNBsXxyNmjJQnwvbIWP/9TQfj3ydu2q51P46NFivqT6H8i+PYtI9v9C6ZpT9qv/xuafx3msv4N3f/7s2fqx4PyKiojHxf/1vnDx2GJfO++g3XEvDMOfoTsMCbVx+JW76OuqeR0wPOfngSInRUwosOd/DFmC0pfXYhfahMd31ygBWjXonW6hvwK0TnIHetAnOB0T01hnn18dpOTPh9o64xetvBflVWsQteCSpu+mrOe/7Iy88zrt/GZRbW4M3l9UiYcJEJDQ40yF8zXNDykTH+6QdH0f6jGTeFnHBuudWS4t9cy0L5LylxGhfP5tzFsW5tMBj66//6+/Q4xLoH15T/rL+GVSfHS/nqX6cTPNpnzk1rn0mzbnMnvhKiWmrQF2d5+bt0b5uNx9jP8lrWUD5wC3bh0vf64H4i4k/xb/dfJ32gOltN3XBsn7X44VE/QeTjNe0TgcdG3Fe6d9oNb9ep+UsEOMtuI774um8lttp+XukX/e8X2uUgN9/z+TDh0GRSxzA9cL+yS58O/ppTP2X/4fIvnquuisjSP/fMi3m/P9g8z+OxMlTqtIt/RsIrUXay/EN7NpsaM15pbduu3+vfS3X+9/WZvsi1yXTarT01N6whZlulmWaqSWO8PX3oDdGm2KtR8Yby6X2ptpROobMQS/47/dx74OPYt7vHsfHeWu0gLymWk97kQYMTsXdv5iLRns9Plq/Wk31RrakySfV5Vdec7Up8mEQ6e1DE/GC/Ep8vJy4DdtkuoZW44a84BtPOGstd8+IJQu5z+i9xLzwAiZqdefgtYeJQ29jg+zNwHj9uXP+tagI8qu7XuKuV6YESPIJ73O9jS3ejG2lozH3H8T+/IPYwlKZezxa1Zm0Yv0tJy8uM7WH/raZ/gh72x+ZY3eL4z37VmymS2uwuLDWyvl2vKom+J7n21K7qBfHRyvJ98mc1iPe04ZbxLx6rdbCYsorddX9zhkY7WcQpLVsO1JPnOttdpMkU60gn6hX56R2nmk1zQSy/o47Lt0x+Z7RgbWQnasQny39nNX3V32uvJ2n8jj1EZ9Hda7LB6+2lX4L42yX32LIHhnkvPonXswuPvOuvVtovRx4+KMZyPH1Rfa7LFbs3B5zDwoBEdey/+plOj8EL8tq6T58feVHfCdi8bCfAJMirhODqlCu/B04LV7TFjr62Mhzw3K9lq9xN137HHi5jvvi6byW2+ny98jaE4c3gb3/FvJZgGFz9f0TnwX/fxhH5h2rv5PD9HW1nQCvF6f+D/7yj79G3/mLMOGZHfiubAv2rNZ7JPqJDNLn/W8MSeiKC4f+B1tedpMSYyIDYUdjluOaVuz5+Hq8Nns/Pm12Xrm8f6/6WK7XWKHZvsh64xsEcY7tENd7WaddW8V11zVn3evfg3PiVnum9dz2eWNCbaFDu240yPSWif8rC0NHjsWVb7/R+ly/7rrrYYuMws9uuAEle3die8FGfP992/xqasgSd9PW7hqDlwxYZS8O/v1R8ocMvExdUfngvQsxI+XC2vXVteBqHhdHeo4IJltL7ofR7Sq13k+7iPdHROtju3VBhgjYZYr67oYfsPvyjzjU9Hetn3Vyry3Pa/LgJj1oH3Z7PG7Q+pi4ggv7/wf73/EepFNr+Ph7IOMR2XVja25yqcU6NA3G8P13V/DJ//w31vzxVezf9ikaai/h0oVq7P1LoZj2Cj7duJ6ButuvoIKVfDq91tGLQ1uQT7R3d/RAQNc0c5oBtQmZ5bKv8e/4fdUPmP3ld/gHMchxOY2BOl11xgOmj+Rg47/+Ezb8biD+4u4BU6JrxFUJ1g3VZ05j//ZPsfm//oT/39p3cWDHZ2Jaa7+UDl2y9VB/QlsOc3Frw7Y2bKluH/o2T9TSVdoksJZ372L/ZUqNufszuoaoc8DxWRjfHV/+F1tziK45f92Kb7/Ox/cM0ukad1XSYIiIiIiIyLer2rJORERERESeMVgnIiIiIgpSTINpoRtvvFGNERERERG1D7asExEREREFKbast5DRsv7NN99o/xIRERERtTW2rBMRERERBSkG651Y17vXY/TSAiQMUxOCQOzyL7D001P68OYKNTUY2LBk4VxsyI4X4/F46bG5eH+STa9qa7GD8f5jGZivilfV0AxseGwalsQCEyZNE+NBsl1ERESkCelg/f6X8pCX9y6enqgmXFMmodfDwRWI+6N6yW1YNjkRK3fb1ZQQIgPbhYMxQRWJiIiI2luIBuv348W8PAy9eAhNasrVl4ypObMwJkYVg8CVj2Zh77JMVBxSE8gLO87UAU21DWK8AXXiXuJ8TQjeUATqYp34DDXgTDWwvUbsu70O5apKih49C7NGR6sSERERdbSQfMD0/pfeRd+Nv8ZzeBrv/uNAHP9PMb5NVXYQywOmMWMw654U4NhGrN97SZuuW4iEpdnopUqo34/PX3sGV1QRw17H6GlJqtCEirdm4fw5VZQs9UDjvhdw9KOtsM0rQEp/NdHEqLeu181yBesyzK+RLfa/A/K24MbfGMsoQ+myh0Q4668VuO/TOUhQJTTswspfzIOIBx1kOsyingVY9sBiNcXgMm/ZWutrHizE0uwBqiAO6e7n8dqSlaq0CJl/fgojIlQRJ7Fp8hQUq1KLybSVe1MRpopOlch/uQjvaOMydSYDjkNqL8Erq45iuypqrfJTZIqNwTwvMD97LrL6qYI40gc/2IzljgMmU3SmYbiRlWNZtlxvPxz+oA53GttorpfrTT6NV2pT8WiavoCm4s341VZ/3015EzoOcWd3IvfjE2oaERERdZTQ7g1mYhAE6zdPRE56HKp25WLLcW2SgwyI42uMANpF72cx+DeDUGMEyVpgDmdQrJVj3QbaOhlUP4kbd3prOZdB+1R847IMmct+e/Ixx42DVh5VrdatLzch0gjg9XLMCQ/70YwebEdagujmPAXraW8WAg8YAba+LOQl4r03jHImalbchgLxMleebwDaiAx8R9dZg3CNHkzfWmYEwSq4rivCzLxKFewn4EsjANfKUfhEBesyV/zRpArHcrVyWoMjmJ8wKQMTSotU8O66LuMmwQj+XeqNm4TTHrbFL9EYM3sGUlCKjev2wHw7SkRERO3rJ+pfaoGoYdNFoB6O0g+bB+qG8ORJ6KrGzboOHQTs+4MziD6Uh4r6JHTXctBFgDwuCY3m+jazEHGjwnB+p7OF/8pHfzCtW3d+sxHgb0X9iSaExzhb+L2JXZ6JhIZdWOclUPem2BGoS4txpAyI7L1IlSUbBkw0l10kDUeaGrWQN3Z58hkHl+Gl+9ULWmFoKobbKvGJo7XajuWbStDUr5/2sOb8calix3Z4CI7jkZVmQ/le5w3A9q07cNAej6FDjbIRqEt2bC+zI6y74+sDQbbEG630buplS7sM1KXqSnxptyGqh170zyXsWZeLnQ0pmJEzFclqKhEREbU/BustFoX+fcLVuHv21S+gAiNx+9KCZr2ydI0JQ/ioJ7Xp+iBbs1UlknCjGG+66E9Ldks04Ru/W1UDE9fTBtRUWlJeAiLTXIzeYsQw3XKPsBjvrdgFjH1K1RdaAnP58OqmsgGYruZ9eLkpqN/2HH6dnY1s1+HxP6kXtJJLrndg7Ki7qEbd0XqPmYsNajDSWbyKsnl9ELZXTEt7uolDKnPYiYiIOgyD9Rarw8EP/wu5uxqRck8Opg5Uky224vxrmdpDnnvf2o+wadaAXeaYa3WmQU9pKcM39dpL2kkYboxVoxr95qAtVF0wWpdbYMpqPJw9ABV5iVqPMXLYVKbqDIXz8JqqW7m7pwjMrQF78QPGvGtRL4J6R8Deni3rkk3cvKlRTY8oNznunri2dEfIWFuJx0v3ypb5zZj58hpteKXYj2NcZ3dJ1bEK7OFZmQaTg3ERpdiYm+vyXAYRERG1JwbrrXV8C3I/LEV4eo73XjPOfQ1zzzX20jKEj/odevVWEyz01JNe014XYZwnW/FNLdArZaEq+2sVasvFfOOedaTndL17KnrV70dVG/QaU73tCOqT5uC+B9WEgNlR85UafbDQpWXdqvrcBTXmThlk5yYObdGyLntOsSVgguVGRzh8GuUiqL7T0S+7DUtGx6OpuERLTSmvtSMsKV61dOvBtzOQr5Szo/9oZ5eQEyalor+9BPmH1QTBEVzHDsYD3lrWVX35CZX24mLCpPFays5h07K9U/nqDTuRy3x1IiKiDheSD5iOX/wuHhnp2m7ZhEMd+KCppTcYjew1IxX1H67HnhpZdukJRnD21qK49Pbi2uuK/uCncz+bze+yDkd9s+VK1l5hrL3BmNfb/MFVbTtitmDv6lX6BF9kC/nidDga6x29wbj21qKYenxJe9OU+iLmO1CTjgEX1MOqLj3ByMD+gONhUzfLdu1Jpg3oD38awbKX3mCMBzo16oFTbTaZX16CqHv74bBjXtfeYKw9xbiu82BxBIZ3L1HLd1mvUF64Bo8bwbiPXmh8kV03ThI3hmxNJyIiujpCuzeYq6h5sE50NchgPRV1nnp38diDDREREYUCpsEQEREREQUpButEREREREGKaTAtZKTBEBERERG1F7asExEREREFKbast1BiYiJOnTqlSoFpzbxEREREdO1gyzoRERERUZBisE5EREREFKQYrBMRERERBSkG652R/AXTh59FV1VsV72fxeClr8PLD+B3mNjlX2Dpp6f04c0VamowkL9gOhcbsuUvicofMZqL9yc5j5j8hVK9rgPEDsb7j2Vgviq2jvf9IiIiotYL0WA9GsmZC5A1Rw3pyWo6Xcuql9yGZZMTsXK3XU0hIiIiCm0hGax3G3wH+n6dj/y1b4uhCFXxGbhjcLSqvQbFjMGsnKngLUuwsuNMHdBU2yDGG1An7iXO13SGGwpf+5WMqTwviYiIWqVTdN0Yl74Ao1CE/F0n1JT2FzRdNw6cipz0OFTtysWW42qaTIMZV4vSE4OQMipMm9S47wUc/WirNi51vXs9bld1QBlKlz0kQi/DJPR6+EkkRKpi/X58/tozuKKK2vKnJamCZJ3f27Jt8woQX/MCTuJ3jtec35yJikPaqB8WIfPPT2FEhCqKJW2aPAXFqiTJdJhFPQuw7IHFaophBe77dA4SVAlla62vebAQS7MHqILY7d3P47UlK1VJLXesM82jIi8R772hCq0g02Ae7V6CfGQgq58+rbxwDR4/rI/r6SbTMNxY9ekizMyrVAVJpqBkoL8qNasfmoENU8xpNpXIf7kI72jj3pat10XtXYPDyXPVttlx8IPNWF6tvcCn6NGzMGMQUPrheuypUROJiIjIb8xZD2EyEMpJDxeBkClQN0SORErMFuxdlom9m8sQPipbhF6KCLZvH1UtgmhRJ4bP98UixZTj3vXubCBPr9u77AVUYCQG3D1Jr5Q56tNiUfGWqn9rPyy3cT6WLYWPehK3q237fF8Teo3zN79eBeo1IsienKgGa6DuTdqbw3HEMd9aVCTNwX0PqkoZyGf3xIEVRn2iJVDHlNWYPfaCuDFw1rdFoO7QLwN31m7GzJfX4JViO/qPHowJqmp+tgim60QQLepmvrwZB6MyLLnh87P74bBWJ4cilItlvTRUVcoc9SkRIsBW9R+UoElVSb6WLfWfMtexbfmnbRg+zv/8+kt71yN3VyNS7snB1IFqIhEREfkt9IP1PpkYFX8ZpUc6rlU9GCTflYMZgxqxM9dDi6VsDV+9Sh8/9DnOIxY39taLtpQknN/sbO2+8tEWnI8chEhVf+Wjh3D+nD4ObEX9iSaEx+gt6bZJI4F9fzDVW/latsa0bVcOH0NjZHf/gvUHf4kRESexqVmLuX+KHzAH9otxpEzc0/RepMqSDQMmmsuuBmCII7g3ux8v5uUhz3XIfRrj1St8Ol2EX23Vj9r20go02aJUS3k8hvarRL6jtduO5XsrEZYU7wjm38kzWsmlShw+DfSK0QPu+eNSxY7v8NAS7nvZGtO2vXNCvDbKZq335fgW5H5YivD0HMwafQ2nqxEREbVAaAfrtrG4IyMOVUXrcMKIDq8JyejfR40GbBJu7C6CuWkFGL3UGLLRS9VqtB5enPXOlBZf/Fi20HhiqzOl5twzOGpJwfEstndPoOECqlQ5YDLNxegtRgzTzZk8Inh/b8UuYOxTqr4QaapGUzgPr+WdREK2mv/Pq8Xtj+FPeCI7G9muQ85z2KFe0WKxNnH84pH12FxsMAZLSosg01xM9UYqjU/+LFsolwG64XARZq46iu2qGKhug0Yyh52IiCgAoRusy0A9MwU4ko99Z9W0a8YJbMnNxcZj4RiXMwtjYtTkAMg8cT3NxRhmqdbyhUj4jWw9f8FRJ1NVAuF52a1Tfe6CGmuBKavxcPYALc/cSGPZVKbqDDIgV3Urd/fEdNeA/Y0pznlr0rHIEbC3Qcu6VzLH3EhzUYMRMGtpLvFajrtRl39am8lPXpbdVuRzFfekoHFXLnJzt4izl4iIiPwVmsG6KVD/7OglNfHa07J8YD2tpdc0732jN11UD6P2fhYDTC3rV2qaEJ48SaWt6IF9uDYu+bfsFnvjICoi0jF7ubdUFW/sqPlKjT5Y6NKybuXrxqDqgvm7gHZsWa+uxJf2eGR57YfdjrqLanSo8yFVqbzWbkpricdL96bC8W76texW0h6A9vBcBREREfkUkr3BaL2/NIsvLqO0oOPSYYKmNxhJdt14TyRKjFZL1RuMswcXEVQvnYpv3nK2cFt7bBFMPb649uZSsS8WCfKBUC3P3NxTTBMq3tqCG39zO2o99gYjmJZt9AZj7pkmMC49ujh6g3HtJUYx9fiS9qYp9aVhFw7UpGPABdXji0tPMDIAPrDiNhQU6iXXnmDc9ULTUkZvMI5eWGRr+b1R+MRTjy1CU/FmRx75/GxT6ou9BAfrUnFrrVFvnlf25FKCqHvlA6n+LNvZG4yzZ5pAyK4b+6OcrelEREQt1im6brwagipYJyIiIqJOKXRz1omIiIiIOjkG60REREREQYrBOhERERFRkGKwTkREREQUpBishyD5gCoRERERdX4M1omIiIiIghSDdSIiIiKiIMVgnYiIiIgoSDFYJ5/kr44OvnuSKunkr5SOXlqAhGFqQoeQv156Cku14QtkTlGTg8HQDGx4bBqWxOq/SLrhsQzMV1XBLx4vPTYXGxYOxgQ1pSOYj5P8FdaOXj8REVEoCM1gvU8msuYscA7pyaqCOrfFeG9yIpZNXosKNYUkG5YsnIuXhqoiERERdRqhGayfLUD+2rfVkI/SiAzcMThaVVKgku/KwazRgR2/Kx/Nwt5lmag4pCZc6y7WoQkNOFMNbK9pAOx1KFdVwa8Sj7+8BjNXHcV2NaUjmI9Tea0dqLOb1h+NMbNnYUyMKhIREV2jusTGxv6oxj2Kjo5GY2OjKgWfuPQFSGnIx2dHL6kp7U92n3jq1ClVCkxr5pVaO7+TDIhmIAWl2LhuD5xHbxJ6PfwkEiJVUWjc9wKOfrRVjC1EwtJs9NKmNqHirVk4f04rCHodNpuDeHfTvItd/gUWjbWpElCRl4j33lAFjUyHyUTNittQUKgmaRYh889PYUSEKjbswspfzIOInxU53xwkqFKz+gcLsTR7gCoA9bufx2tLVqpSa8nW72kY7titSuS/XIR3VEmmgWT1UwXYcfCDzViubZicbzywqQRR92agv1bvnNc6n1NT8Wb8aqsIgCWZojMlXh8XygvX4PHD+rhMRXk0TW3U6SLMzKvUxzUyPaYfDn9QhzvvTUWYnGQvwSvmoN6ybPN2C7JudB1e2QQ8YMzfbB1eDJyKnPQ4VO3KxZbjahoREdE1phPkrCcjPv4yzlR2XKDeOSRjao4I1Bt2ItcSqMscdRGo1+ZpLedyKLU0Ea9ChTY9D+fVFKdVqBWv7ZWyUJWF3jeLIK0MtQEF6hewSUt30QdroO5Z7PJfAn805nseB5CO2csXqVog7c05iBQBuLHcZa6BfHZPHFhhzJ/Y9oF6nQhUZQu2NjgDdRkwZ0WJIFjVvVIMDBeBuTPn3SbKqaj7QNZvxkF7PO6cpAfY7+QZ0/Qg3Fi+I1CXAXfyacf0mYWV6D/FueztWzdr018pNl7vKh5Z90bhE23+IpTbUpFlpNvEDsb7UyJEgG4su8FluwXx+keN+T8oQVO/VC2v3y/HtyD3w1KEpwf+zQ8REVFnEbLBerfBs1XOegbiKr/ACU+xBjUXMwazcsYh/NhG5H58Qk1Uej+L+P5lKF29Sk0IjH3rfjT2v12El7quQwcB+/Lg39uzAlPG2lCRNwUiXg1Y9ZIpppb2lSg+ZkdkzyRV1kUO+jk8x4o2DJjoDO7N7n8pD3l5rsO7eHqieoE3Q1Mx3FaJfLctyiIYTrOhfK+ztXr71h1aQD7UlINeXmi0WNuxvcyOsO7G1we+VOJx83oPn0Y5ItDX34BZay03biwq5ezoFaO/uxNSEoDiHc6W9MMlzbbbMn91Jb602xDVQ6vwT80erM/dicZBM5BzF59NISKia0/IBuuXj65z5K1/1nAbsjLHopuqI++ik/q237E6txU19UnorvUSMwmRIr6qOSzTZ/wwJR6RIrir+UqVAzVlNR529BZzypJKIxU/oLe2L1L19z2oKjSL8d6KXcDYp9T8hUhTNdKfHs9Gdrbr8Gs8t029wIsJMSKw9prDbkfdRTXaDrSeVmRvL9pgpNK0Xv/uNoSlyR5djGWb03wUewW2O76+sGP5KmcKTsD6pDKHnYiIrjmdIA1GBO6VZ3DZFolwVSbvLu1dj9x2a63civoTTXoqTO9JiMEx1Dty2n0orES9Gg3cCty3OB0wpbms3O3anr8SBb9QaS4iMI/MdgnYC+fhNce8PTHdFLC3pmVde5DSK9fW5ghEuQa9LaSl2PSTOe4qVUWmsqi6tiBz4x0pNmpocTDujvlboNz12FOjphMREV0jOkWwHjckBd0qy1ClyuSPE9iSuxGlEeOQM3sMHBnB575GE4yWcb0/9ZQAm2KvHD6Gxu43wzZ0EJp2PoMrarpvi3GkzIYRv13tJVXFu/pzKs98ymrMdmlZt/BxY1B97oIa07WmZV1LPbGl4gGVZ26lp5b0H+3sY3zCpFT0t5cg3++g144zdWIZyc6HSC1Mrfrzs9uuZf2dE5UISxvvfw56oGSgfk8KGnflYv1ePpNCRETXppDsDUbmq98xxJTIUVmE/F0uudftrHP0BqOTXTemNmx0BkTDXsfoaSrXuzwPn9dMxQD8Qe8Nxlzn4NorDLQfUkqRue/LHhKhZGDS3jyF6aZVOHqDcemtRWfHAdUrjLUXmZM4sLsnRvQswLIHFouyS08wgqW3l2bLdi63bcieVcyBsrfeYMx1+sOpUXtdenDpXuKm5xbn8p29wbhOL8H5tATUab22uPZQozh6bJHzygdbnT28yO28s9ZzTzOWbTd6g2lRl5Cyp6JJwFa2phMR0bWtU3TdeDV0pmCdiIiIiIJTp0iDISIiIiLqjBisExEREREFKQbrRERERERBisE6EREREVGQYrB+jZEPpxIRERFRaGCwTkREREQUpBisExEREREFKQbrRERERERBisE6tamud6/H6HkLVYlaZOBU5Mweg2itMAm9Hi5AwjCtQERERNeYEA/Wo5GcuQBZc2Yj2fUn0ymILUTC0gKMfvhZdFVT/HH/S3nIy3sR96syJj6Nd/Py8O7i8WpCS43H07ly2ebBtJ4OFY0xqXGoKtmDS2qKX3o/i8HymPJGiYiIqFMJ6WC92+A7kNJQhSpVpo4XPXoWcu5KViU/DHsdo5fejm/2NakJVnJ5s0brbcpW49G3exOa7D3Rd6KaMnYgYHe/nJZo2v8qsrOztWFjRSJmtFPA7vWYxdyCvijF/uOq7Aft24xsoKZcTbAQwf/sWRgTo4pEREQUUkI3WLeNxcghQOmRMjWBOlryXTmYMagROz8+oaY42eYViKBcH5wpHAuRMK4Wny97CPVqiqtLe0vQOGiGx2D2+PELGDhWtqSPx4Qex/GpCGrDevQHcl5s3hrubpqf/vT4qzhkT8RkU6v9+MXvmlre38XT6qYhkHV7O2ZS8rAU4Ouv3LSqq28jtOF1OL5I6v0sBsRswd7XnsE3apLVJewpaUTKPTmYKu5tiIiIKLSEaLAejeRxIqg58hlO2NUk6kCytTYH4yJKsTF3C5qFnf2zEV/zAvYuy8Tn+5rQa5yR7rIKFSKovKKNe3ICW3I3ojRinClv22T3YVwYOAHjJ05A1MXtcDQm5x7GKSRiaI4qC/cPSQQqDuNPqhyYHThTq24EpIlPIwsrHS3vr+4Hhs1/WtwyCH6t28cxk2LGILVPFUr2Ng/Ve02bim/eyhTH9AVU1Cch/u5JesW5Z3B09Sp93JPjW5D7YSnC03M8fGtBREREwSo0g/U+o5AiUwWOBpTVS20iGVNzZiClYSdy13nIqy7Pw9GPtmqjVw4fQ2Nk94By07XW4HW52NmQghk5U8Uapf6I0pqT/4TDtQORNSMKdbt3aDW6PyF/fxMShxht2fdjaEITDm1sWagulV80pdhsew5PrHCub8fu42iyRYmtknyt249jJkQn9UW3s+VuA/nzm2fh/Dk5thX1J5oQHpOkTfdbzR6sz93p9VsLIiIiCj4hGKwnY1RGOEp37sZlNYU60MD+iFOjHSMOqS6twX86cgGJ3euwfZsIms9fUFNVAJ0wVE89yRmKxIpP8Zx4TUv17xGmxiSXh1D/cRjMtV7X7dcxS8bIQUDpIffpMW2qTypz2ImIiEJE6AXrfZJE4NMNKVovMHLIcJbT2WLY7mRKhbc0lTZhThnJxXpHWsgFnJEBcO4TyM55Do527u599XSUbdtx3K6no8g0lFNHWt6qrreOA00X9USb+196BMNwCK+qNJjs/zwEy6Ot3tbtzzGTAX3jGXxVo8ptLWYMZuWMQ/ixjWJb1mNPe62HiIiI2lToBetnC5C/9m3TUIQqXEZpgRjf1QGtkiS4S1NpKzJQ950y4t4OPLf9FBInvIvJ3Q8hP1dNDphsRZ+BRPshrDSlvqD2jLpBEPXzrS3rvtft7ZiJfW5Jd43+koH6PSlo3GW+8SEiIqJQEJo56xQUTnyci43HwjHO7xxo/Qd+ZI8mt48SoW7kSNwuezcx9bcePXoS+n69EbmuvaVM7IueatQr+bCnTSz7+HZny7ufwkY+otJcHsGw2o2W1vs/bTyEpoQZjvqo4y4t65If63Z7zGR3jeFVKA+gu0YnZy8xKTKBvn+23mOMo791cSMwqS/OfJiLLS1aPhEREV1NXWJjY39U4x5FR0ejsbFRlUhKTEzEqVOnVCkwrZlXuprrDn7348W8yaj7z1+3Kl+9ZVq2btmdY2rDRrZ6ExERUTNsWadO5f6XZrT6wdKWaum6ZWs7A3UiIiJyh8E6dQr3v6T30jKj+yG8+nhrHiwN3NVcNxEREXVuTINpIabBEBEREVF7Y8s6EREREVGQYrBORERERBSkGKwTEREREQUpButEREREREGKwToRERERUZBisE4hRP7okN5NYl7eu3h6opqsjF/8rqoTw0v3q6mdnX5MXsxRxfYw8Wm8ey0dU2N/teFFcYSDVTTGzM7B1IGqSEREnVJoBuu2sbhjzgJkmYd0f3/ynoJezoseAu4/4YnsbGRnb4S7zid3rPi1qMvGq/ub1JQgogWAwRz4kcO25/BreZ795yEE4ZnkNHAkUlCK/cdVmYiIOqXQbVm3l+KztW8j3xh2nVAV1JGiR89Czl0B3CgNnOrz9fcPScSpTSIgTxjK4DYYGMErf/CpwyXflYNZo6NVySq5XxyqSvbA/9++TcbUnKni/0REFEpC80eRZMv6OGB/wW5cVpM6Gn8USQ8kxvWpws7cLTBulbrevR4D8AdUxjyJlP76tPObM1FxSB/Xv7qfobUIblznLtCQaR2TUfefv8aZGXkYeiQbT+SqKgfna9z9tL9Mh3mkx6cBBJfj8XTuIuD4BQwbmQhUbMRGzMCMBIibBrl+ub4ZgDauZtG2wXWaO/rrxFJdNOGQafu1bR4Zphdc6vTtewTDbKqIU9iY/QT0vXPZDtmC/4/DEGY/hFdznsMOMcm6bGOfVMEH+eus8jhITftfxa9XyCUq8huQIYfx6sXJjuU3e403xraqojzujvfMj2Vb98t8THyRx2woDv9nHSYb6zcdLwdt+6LwabPlurwfbub1eszlvk03zgjX99rg43MSMwaz7olEiemzh2GvY3TK5/i8ZipuH6Wvu3HfCzj60VZtXJI31zMGAaUfrseeGjWRiIiCGnPWqQX0XNlxESKQMAcLSvioJxFf8wL2LsvE3s1l6DXtdTjiTBF27FmXi50NKZjhrpUvZygS7cexXQQv5RebkDiko9rWwzBsYB1elakPCTMw+eKrWjqNvv4/4XCFuNExb4vcThEgHvYZ9KrUHS2lQgaUMo1HDqYATQSFWVippss0HhF3zX9ahIS68YsXYVitCGQd83oISlXwe0EEhtlG8CimLRp5wbRe/wN16U+P6/NsFPvvljhW2o2RXPamUwgbmSVCYX+IgNnYVm275DcpM/DuYmOvBW/LFgHvI6b9enV/T8zIdR4z3xIxQwvE5fyv4hCGYZF53V6MX5wFvGNsd/N59UDdwzGX79H0niJAV3WbxA3iP7qmR8kWcBGoN+xErtsbWvGKYSnAsf3NPnvon43bY7bon723xIk06nfo1VvVCZf2rkfurkak3MNcdyKiUBG6wbotxZS3nok4NZnam+9AAuV5zta8Q5/jPGJxoylgkE58nIuNx8IxLmcWxsSoiYJMgWk6vl0LNHfsPi4C545LhTm13WgdPYVPXVqH/7RRBvHObdG2c3++ny25Pmx7Dk+Y1qftty0K6osJna/j0MsZqDcPxhMxtL0eQJWtykZreO5hceR6oq/Lg7/ujF88WdyUHUK+Y1vFTY0MyAdOcAbcXpatp0o5b1p2rPgUp2wDMcGPdetki7Yx/w5sP96EsB6WI+7RjhVPmFrCXee9H1kjwyzbZjZ+rIiQ9690zp+bj0N20/sjW8xzxiH82EbkftwsFFeS0b/PZZwpc/Ppq9+Pz1ev0sfPbUVNfRhujNWLDse3IPfDUoSne06xISKi4BGawbp9tyVf/bMj4RjFgL1jDOzfguPsJmBw6IaUYUb7+v0YmtCE47tV4LptO46bA5mrybItcjubB/QtJ9MqjN5HxGBODRHkg7MbKxIxQ9VbWp+VxJFyHjct/TLfXATBidPVsgNqfW5ntWfUzVGgxqNvd7HPxj5pg7tUowB17+vfsZGt44715lnSXTCxr7ilaEJduSq76N8jDGEjHzFttzm9CYhO6is+Ed5Fj05F3NkSv9NYwnpMUmPNdRs0kjnsRERBrlOkwVyuPHPVctevObJVLncjSiPGIWf2GPjXLteEb6rVqCLz3WcMasTO3FxnC6KWWhKGYf9oDWQ6LhXGG70FVdsWuZ0Vh9umVV24/yWxnziEV420CTe9kBjpKDJd5III9lwDdpkTrQX07oLx3CfUvOI1tcPwSLAE7C7B8fhePdWYf+Q+G/ulD+6fYfCbXzcPevoO9r/qWK+l96FtZ3BBjXoic++t2+38NkRLU8ndicZBMzw8iB2NW27uhqrTnlrdm2u66MxZ18iHvO9JQeMu8dlzk8ZGRETBpRME69FIHpeCbpVlqFJTqL35yDs3sc3LRq/6Y6g/pyYI2oOpbvLdtWBNPmRoDmQ2nfKdAtJBtFSLhMl4d0JPHNoYYKiuBXFeviVwBIrj8fR8a8u6VTnq7GrUxZ8e1/OnH/HSH7p8DiAY6Kk+w5DlOB4qfcSRiuSNunGa3kZdYWp5/WLdR/x/Ty+cV1up5nWSzzeIG07TMwdmfzoic+8XNfuNAKsT2OLphjiA7hq73v07JESWodbxcLcgA/X0cJR+mIst7PKRiCgkhGRvMN0Gz8YdQ5xfFl8+ko/PjrrNnm437A1Gp/UuEVHiaB2XvcEYPVFoZA7ta8/giipqwUK/cjf5uHoPG1HbXXOuTb2dwNyLhsHoTcO1xxTF3MOIR6Z1lzt7ACmXDwq69Cqj9Y7S3U3PIf7w1AuITKswpb6c2n8IPUcavZC42S/LPrn0BqPK4l3WekfR9sESTAbaa0rz9BJHryxyfybUmY6FfL3nXnqacdlvS28vfizbtccVtz26uNV8v8y9tTRbrsZ53Fx7oTm0vyeGuTtPVC86kufeYCTP74m8sU1t2Ij1e/Xrm2vZQvYGMy1JFaQylC57CM57O/m8SX+UszWdiCikhGbXjUGAwbp7WrAue6MwHnLrZGQQJnuK8bt7QgpCAd5UBAt33TWayWB9XK315piIiEIeu24k8lfOi5jRpg+WEgWgZg/Ws1WciOiaw2CdyBeZtiAfeNX6x/Y3hYSIiIio9ZgG00JMgyEiIiKi9saWdSIiIiKiIMVgnYiIiIgoSDFYJyIiIiIKUgzWiYiIiIiCFIN1IiIiIqIgxWCd2oVtXgFGL12PXr3VBCIiIiIKWEgH63HpC5A1Rw3pyWoqXcvkTcLguyepEhEREVFoC9FgPRrJmQswCkXIX/u2Puzi7/pdDdGjZyHnruY3SvbVmdi7bBbOn1MTiIiIiChgofmjSH0ykdWv7KoG6PxRJCD5rhyM61OFneafQO/9LAb/ZiTCtUIZSpc9BLs2Lk1Cr4d/B+RtwY2/yUYvbZr5NQuRsPR21L5Vi3hjGfX78flrz+CKGO1693rcHrMFe1evkjVqXd1RKea/IutGhenTzcrznK8nIiIiCjEh2bIe1y8OlxuiMcpIgRHDqD6qkjpANMbMFoF6RCk2mgN16dwzOLosE3vf2g/3t3dhSPjNVHzzlmx5fwEV9UmIt6StJCFFC8BVPUZigB9pLVc+miVen4nScqBx3wvauDYwUCciIqIQFoLBejS6RQDdhkSi0kiBKapCXMZsJNvUS6gdJWNqzgykNOxE7ro9uKSmBuL8ZiM9ZivqTzQhPCZJm65rQsVbRku7u3oiIiKia0eI5qwDVUUFqFLjOLsPpfZuiOymytR+BvZHnBrtMN1vRlc1SkRERHQtCcFg/RIuNwDhkdGqTB3q+Bbk5m5EacQ45Mwegw55F2q/1nLWiYiIiK41IdmyXnW6Ct2GjHK28PYZhRRbFSrPqjK1s0vYsy4XOxtSMCNnKtqt08zez2LAqDCcLzXlnTta2RciwfEgq9OVmiaEJ09iSzwRERF1CqGZBnO2AJ8dCXc+YJoB7FtrSouhDnHi41xsPBaOcaauG2WPLaOXFmC0FkgnIUWOL30d/j9OIB9AlfPoy2janImKQ3rNlY/+oD1weru2zKn4ZnPzh1itrxHDvIWqhoiIiCj0hGbXjUGAXTe2B9l1o+wphv2zExEREUkh+4ApEREREVFnx2CdiIiIiChIMVinILIKFcuYAkNERERkYLBORERERBSkGKxTQOQDqkRERETUMRisExEREREFKQbrRERERERBisE6EREREVGQYrBOQSXtzVNY+qk+PLx8kZoaDOLx0mNz8f4kGxA7GO+L8ZeGqqpOZH622ke/2LBk4VxsyI4X46bjQ0RERG0mBIP1aCRnLkDWHNdhNpIZJ4S84gcSsWxyIjaVqQnkBz1o7ow3D0RERNe6EAzWL+FEwdvIX2saiqrE9EZctuuvIGp7DagT59f5GvG/ajvOw466i6rqmmXHmTqgqbZBjJuODxEREbWZLrGxsT+qcY+io6PR2NioSsEnLn0BUhry8dnRS2pK+5NdGJ46dUqVAtOaeaVQXbfDg4VYmj1AFYD63c/jtSUrVUkn02EyLjSf7jpvRV4i3ntDFbAImX9+CiMiVBEnsWnyFBSrErAC9306BwmqhIZdWPmLeahWxZaTLdvjgU0liLo3A/21aZXIf7kI72jjwtAMbJgi00UkOw5+sBnL5Yrl9NF1eGXVUWzXKzUTJk3Do91LMDOvUk1xT6atZPVTBZOm4s341VY9cLa+xrRujdz2aRhu+lbKPK+W8nNvKsL0EnC6yOc2ERERUdsJ/Zx121ikxFehtAMDdWoFLdjuiQMr9HQXOTQLyD0SwfbtBx3zLcs7iYTsQqSp2tjlD2FEzVpnvSVQlzcAcxApbgwc9W0SqBtsGC6C2roP1mDmy5tx0B6PO438bRnwTokQQbKsE0Nhg3htBubLuot1aLJFqQA/cO/kGesDygvV8sVgBNsy6M+KKsEravor4oA41i3MzxaBep0IwFV9/mlVoYnHS2KfzjuWW4TyfhnMSyciIupAIR+sxw1JAY7sg0yEoWC3CJl3DkD97tdRUKgmBWQx3ntgsRoX3jiICvRE7BRVlpKGO4J3dyIH/Ryxatxs/OJ3kZeX12x4MUe9wA/lhUaLtR3by+wI66438U9ISQCKdzhbsw+XaMH8UJljrqXUKLKVfeFgTBCj/bvbVHpJa8QjK82G8r3OVvvtW3c41y1uIu7sV4l8Dy3lEyalor+9BPmH1QRU4vHCSoQlxWvbSERERO0vtIN1rVX9Ms5UslU9NCQhRsSv9ef8bUlvztxbzFJzSotQveQ2bCobgOkeepMpfuB5HEA6Fqn6+x5UFcKOFb9GdnZ2s+GJXPWCVpCBd1jaNGx4bK4azGknMtc7An3FHcT8ZBHw1zlb2R3536r3Gef8zpZx31qZW18nbjzUKBEREXW8kA7WZat6t8ovcELFNBTsylDTisbi2OVfYHqSzEM30lzWokLVGYzeZGRd/dinXAL2lSj4hapfsQuR2c6AvS1a1r2ReeBGqokxPK61WMuHNG2I6hGPoVF1yD8BDB1qQ98oU5BdfRS/ssxryoX3SS5bjWoiEBVIFot4sbkVfYK82yIiIqIOE7rBumpVLz0iohsKEStRfMxuyTMPWMMFR8qTzEE3t6xb+bgxKKxEvRqV2rNl/Z0TlQhLG48l7vJvDDEigi6rxPaLdeiVnCpi5Aac8TuhXu+VpX+y8QCroRKHT4vpo/XUGsmS2qKl4KiUGK1umuVh1e2lFWiypSLL0SVk87QaIiIial8h2huM7Gs9CykNRcjfdXWCdfYG03KyhXzRWGfzrrM3GJfeWhRP9fW7d6F+7BDUrLgNBYWuPcEIZWuxzJHj3nzZ7nqhaRm9R5WovUZruR74WnpzsfQGIzl7i9FeK+5e9F5aVO8sKGnWQ4x38keJjJ5ovPUG46WXmtNFeKU2FQ9gh8feYCw9xRAREVG76xRdN14NDNaJiIiIqL2FfteNRERERESdFIN1IiIiIqIgxWCdiIiIiChIMVgnIiIiIgpSDNaJiIiIiIIUg3UiIiIioiDFYJ2IiIiIKEgxWCciIiIiClIM1imopL15Cks/1YeHly9SUzvAg4VY+ufViFXFQAW03VNW4+FPC5Gmiu1L/rLpXLw/yab/GqkYf2moqqIOIH+RNoBjLn9R9rFpWCJORPnLthsey8B8VUVERNemkA3W49IXIGuOcxjVR1VQSCt+IBHLJidiU5maECJCcru1wHCum4EBonZsFg7GBFUkIiK6WkIyWO82eDZGoQj5a9/Wh6IqxGVkIk7VE5GhAXV24HyN+F+1HedhR91FVXW4CDNfXiOGzTgoqpuKN6tyEd5RL6EOdrEOTeI9O1MNbK9pAOx1KFdVRER0beoSGxv7oxr3KDo6Go2Njap09clW9ZSGfHx29JI+wTYWd2RGonRtAar0Ke0uMTERp06dUqXAtGZeKVTXDSxC5p8fAv5YgJjFc5CgTTuJTZOnoFgbd5JpJRkXnsdrS1aqKYpMV8keoApARV4i3ntDFSSX+vrd5mWswH2fGut1qZPz3XkBm44NwfSxNm2SdV59m6YnqYIIeg+suA0Fhaqo+Lvdrvsdu/wLLFLrda0zlrkODzle02y/W0WmakzDrWWb8autImpXZBrGo0kVeGXVUWx3N022Piefxiu1qXg0Td8uGfA3W4aqAyqR7++NQCuWPT97Lu6stb7W2MeovWvw+GE1yR2ZKnRvKsJU0cm87TK1KAP9tXHBXmI5Rs3qhfJC53qt222tIyIichWSLetVp6vQbUiWSn2JRvK4FHSrLOuwQJ1aw4YRizNRs8JIGxmA6W+uUHW+iGD79oPafNqQdxIJ2abcby0g7imCaFUvBmfQLG8U5iBSBOB63VrUj30K9z2oqqWIdEzvWeBYduTYXzqWLYPp6TG7sFItd+VuiP3wM+9c5qibt2vFLtSrKo3Y7kVjxY2CY9k9Md0lfz5SbOsitW0rd9uRcGfL8+v9tb20Ak22BExwrMiGCUk2NJVVOgPTfhl4tHuJ3iL/QYm4sxiv5VtrRMD9aFqDCHJla/0avFIcgaxAUkvMyy6sRFhaqjM9x8uyy2vtCOseob8uUNVH8Su1Pi0IV8t3ftsgg/4M9HJ8C7EZByFuKLLjtVq39eZ7BpftluvpP0XPUSciInInNHPWzxYgf20RkCHz1bPQ9+t85O86oSop2FXkOVukiz8/CcTE+xl4LsZ7DyxW48IbB1GBnoidIgsiGL9zAOp3v96stVsz5ecYgF1Y5wjeF6NQBr23m24UGkQwbizfsuwVmDLWhopP5qFaqxQx3ZLXcaBhAIaYg30P0manA562S0i7fYA4Js6W9OolBaiIGII0bd2Kaduqtx1BfURPPe1r4tN4Ny8Pea7DS/drr20VEbh+ctqGW1NUK3BsPG61VeITc4u1DGjzRGArVVfiS7sNUT304vzkeJQXOlvSt28tQbkl+PfBvOzDp1GOCPRV83pbtpY+oshWdu3hWjFvlM2UAtRSQ1Mx3HIM7Fi+qQRN/frpNxKyHiV409KqbxCB/Oh4NBWXOLZbpiLlm48xERGRi9AM1vtkiiD9NtQXyJz1IjQOyUJW5lh0U9UUYozA0w/mXleWmlJagCTERAD151zSTwy39ERkRDoWOeY9ZUo78YcdNV+p0Ta1CLExQEK2p/3S1R/7i+NGAYXz8JqRJrPtOfw6OxvZrsPjf9Je2lrvnKhEWFK81mI9IUVslTnQ9KBXjDyuNvSNAvpPsT64ak4NaTkfy5Z531E2sc3xGIpKnHe0suu54K3Wyjxy7fkBIiIiP4VgsB6N5NQ4XD7yGU5of/NOYJ8I2KtsKUhhjzChqeGCXylMWipKksznVukkk9eiQtUBZTA1qLonW6cd86rB3FLvlQ0xt6hRjX5z0FZkDrpluyY3z4d3qz1b1iXZoq21WMsUGODLUt+BpjkYlfnYejqIMWzG8rYImAWPy5YP0tqi0H9oP/SqLcFh9MN8sf292uphTblsNarpEeUmx90z/WbGoN94EBEReRKaLetCt4hoNSb0SYII31F/WZUpRKzAfdkDrK3GvpgC+7Q3zS3QK1F8zG7NYTeTaS0R6Zjdor7bF+NIGSx54rHLM5Eggv9CPx7yrLpgR+Sgn6t5xT4vTkekNi752G5f2rllXXuwshgYPn08bq0r8RpoT5g0XksROaw9LGnH9jI7+k9pj24g/Vt23xj95qK8NgJDx4mAuk7Mp+p8kq3z7lJ2tHSceNyppdZILqktLvPNz54mjok+bmy3NffeNa2GiIjIKiR7gwGSMWpOhil14jJKC9aplvaOwd5gWkI+5PkURphapL311mJwvsa1N5ddqB87BDWmXlmsvar4Xr6jVxXVG8zKXxh56fK18kFY57KtvcGYe2zxtd3m/Za9yMjecIbjiMfeYAT5LYDaFo89zLQZvacU195gHFQPKeddey2RPbZMMR6slJr39uLa80nznlM8kMseXWd6rexhJRV1Hzhb5j0vW98fmTuuldX2w6U3GV8892Tj0tvL6SLMNHLrBfN8sgebT7pPw9ATnnqDseOgaZ+IiIhchWiwfvUxWG8JPWiN+aQtux2kdqcFu1H4xCUQbx5QExERUVsL2TQYIuoINiyZLlulfT9YSkRERG2PwToRuSFTSWQvK9MwvK4ooPQRIiIiajtMg2khpsEQERERUXtjyzoRERERUZBisE5EREREFKQYrBMRERERBSkG60REREREQYrBOhERERFRkGKwTtcc+WuhSz89pYYW/sw/ERERUQcI2WA9Ln0BsuaoIXMsuqnp1MlNWY2HWxNgi/lnjwUOrEjEsslycP7kPxEREVGwCclgvdvg2RgVUYrP1r6NfDHsa0jBHenJqpbIi1t6IrLhCIoLVZmIiIgoiIVgsJ6MlCHdUFWyG5fVlKojpbgcn4Q4VaZgtgiZfzZSUMTw59WIVTXACtz36RfInKKKQtqbp/Dw8kViTNaJ1y9ORyQGYLojjcX8evUaY7AsWxfbu6caa86aHnMK9z2oKhw8Ld/bdisPFlqWbakjIiIi8iBE02Auo96I1CX7JTQiHN1sqkxBK3b5L4E/Gikoz+MA0jHbr8B1Md6T86zYhXqcxCZtfjnchgKtlVzeBMxB5O7nLcte9OYKbW4ZPMsgedFYcZJEiOmuQbMIpheNveBcbt5JJGS73giYly+GX8xDtar1Tsyb3dOUepOI15asVHVEREREnoVgsH4ClZXdkDLEmfYSl57BVvUQUb1kigqupZUoPmZHZM8kVW6FB3+JEREnUeQIglei4I8isE8aruW3Fz+gB8krd9uBhl1YaQmaRaB/5wDU7/5vZ/76G1OwqcyGARP1YD52eSYSxHzrWhxkO5dFRERE5K+QbFmv2lWEqvgMxwOm8adFGY24LOIwCnLaA6LOdBCtpbutNFwQ50HL1Z/zHIjH9RTbWVPpZ0u6q8V4b8UuYOxTar/ZAw0RERH5J0TTYE5gn3q4VHvA9HI0wu31Ilyn4LYC9y1OB0ypJFpLd1uJ6Gn9hkU+TKpG/RHZ29zyvQixMWpUqLrQyu0snIfXHPvcE9MZsBMREZEfQjRYN7GNxR2ZfXFmp/OBUwpujhZsrRtF15Z1G2Ju0cfkA5/TXTNkCitRjwEY4vrw5xsHUSGmZzjy392ktnik0nHG/tIZQLuk1VRvO4L6pDluHjo1+Nhuk+pzF9QYERERkXddYmNjf1TjHkVHR6OxMXjarWXXjXcMMXpWr8K+tQWtSn9oicTERJw6dUqVAtOaeaVQXbckA1ln6stJHNjdEyN6FmDZA4v1SbLXlOwB+njZWmzCHGRceN76QKb5NbDjwArjIVP9IdAEbbog5ncsV9HWP+gIVrp5ONS6beblKjKFR+uNRpG578ZyvG23ZXslN8smIiIiciMkg/VgwGCdiIiIiNpb6KfBEBERERF1UgzWiYiIiIiCFIN1IiIiIqIgxWCdiIiIiChIMVgnIiIiIgpSDNaJiIiIiIIUg3UiIiIioiDFYJ2IiIiIKEgxWCfS2LBk4VxsyI4X4/F46bG5eH+S8WumV9nQDGx4bBqWxAITJk0T4xmYr6qIiIioc/tJv363wNdwtXQbPBtZcxZgVB81wcSo04dMxKnpFPzS3jyFh5cvUqUQIoPmhYMxQRXbVHsum4iIiEJWkLasRyM5cwFG4gyq1BSLPpm4Y0gj9q19G/li2FcZh1GZY9FNVRMFzo4zdUBTbYMYb0CdHThfI/4XDC7WoUls05lqYHuN2D57HcpVFREREXVuXUaPHv+jGveosbFWDI2q1P5kq3lK/TrsO5uMUXMygCIRkJ9VlVogn4W+X+fjs6OX9Em2sbgjsy/OFKzDiQ6KrxITE3Hq1ClVCkxr5pVCdd2xy7/AorFuUkvK1mLZA4v1+kFHsPIX8yDiUo1l2oOFWHr7Qay8kOlYTv3u5/HakpXaOLAImX9+CiMiVFEtt9ViB+P9e1MRpopOlch/uQjvaOMyjWYahhu7d7oIM/MqtdH52XOR1c/0WrU8FG/Gr0rj/Vg2ERERXauCsmX98lEZqKtCM9GItF3GmUoVqEME9Jkp6Cb+i2TTelCrXnIblk1OxKYyPciW49qgAurqbUdQHzEEaVO0orAIaYNsqD/2F0fwjqQ5WNSzQJ9vxS5g7EPIVK9Pe1ME6jUiQNeW+zwOxMxpm3Sb6qP41ctrMLNQBN/2Erwix7XBGUzPzxaBep0I0LXpm3EwKsOR8/5Onijb45Gl5cOLoH66CtS3ijtLP5ZNRERE164QfsBUT5XJMlreRawTHhmt6igkFc5DUZkNAyaqAHvKzzEg4iSKHC3nQsMurDRaywv/gpMNNsRoj1WswJCkk9jkaElfiYJPTiJy0M8RK4sTn8a7eXnIcx1eul97devEY6hsOVct6TKlZvneSoQlxascdFFeVYTyfqlYMikVw1GCN2WgTkRERORDiAbr3ZCSmYXIEpWzfjYa3SKAxnqjtZ1CVfHnzgA7duIQYPd/o1iv8iiytwjup8QjEgMw/dNTWGoM2QPUK4Rtz+HX2dnIdh0e/5N6QSvE2tBLBOxZj83FBmMQ22NViccLGzA8LQIHNx3FdjWViIiIyJsQDNYvod4OXD6Sb8ljl6kx9ZdVkULXGwdRoaXCyBQY4OQ2U6u6B/XnjNecxCYjtcYYjPz3dm1Zl2SOuZHCooZVpqBc5qlPAfJlwH4vu14kIiIi/4RksF719WV0G3IHktXDfN0G34Y4+xlUMbMgJFRdsDvTU5pZjMLdwIjfPoQBNQUoKFST3Yhd/hBGRJzEkTdEQUuJGYDpb67QK121Rcu67JXFloAJrhteXYkvHTnp7hh56iV453AR8k+7ea2nZRMREdE1LSh7g5FdM2ZlNO85vcrUK4zsMeaOIeqJUnspPivYjY5sWGdvMK3ho9eWKavx8OJ01Ocl4j0ZiBtkbzDm1BatJX2KKU3GZbmCtbeY1pM/SvRomtHli5feYIQm7SFS6NNRgleMlnajdxlTjzGS52UTERHRtSo4g/UQwGC9HWnBek8UWQJxQQbrd16wdO1IRERE1JmFcG8w1DktQuZv0/16sJSIiIios2OwTkFCprDIXlz0vtLbMnWFiIiIKFQxDaaFmAZDRERERO2NLetEREREREGKwToRERERUZBisE5EREREFKQYrBMRERERBSkG60REREREQYrBOl098keO/rwafv/CfqCv70jyh5xavG3xeOmxuXh/kk3/dVMx/tJQVeWTnHcalgTlQelAQzOwYeFgTFBF+WuwG8Rx1IbseDW1Hbis10K+l57qgpI8lzIwX5Ws5C/0GsfSdL4SEVG7C+pgvdvg2ciaswCj+qgJLuLSF4j62Ujm34zQI4Pb7J448MdO8mukhfNQVJOORW+uUBOudXpAZ73pcDetfWzfuhkzX16DV4rtako7kMH4lAgc3HQU29Ukjbrh2nBvKsJsqXg0mG6mvN1coBL5xRHICqkbDCKizi9Ig/VoJGcuwEicQZWaYpWMUSKIj28oxWU1hUKJ8Sulr6OgUE3qBIofeB4HYubgvgfVBL81oE7ElOdrxP+q7TgPO+ouqioKUjYsmZ4q3vQdWG6+25SBugjSzxfqNwpNxfKmYbP1NUFM3uTk16XigWat5nacqQOaahvEuOl8JSKidheUP4okW9RT6tdh31kZlGcARW+LcVUpxKXPRrcj63ACY3FHZl+cKRDjHfx3gz+K1AoyneXOC1j5C/et6rHLv8Cisc5goSIvEe+9IUbUfJuODcF0VV+/+3nTr53KX0F9CiMiVLFhl2kdK3Dfp8NxZMUFZCxOR2Sz+ubr1ZStxbIHFmuj1vqT2DR5CopVycHHvrWYbBGd4kznkEHgr7bKk162VqeirrACt05JRZistJfglVXO1l6ZEvJomrHddhz8wAgeZWrDeGBTCaLuzUB/rb4S+S8X4R1tXFDBp7ZcB9NrLNtlXraeUgERtD5+WKsUXKfpZX29wukizMyr1MflcpNP45XaVMe2O/dZZ90vwWW/Je013Uucy3WwrtuybLnu0XV4ZRPwgLHv5m2TjNe4rE8/HtCOT7lYd1bNZtP+K56OmWlex/FvNs3Hdns6Zm7fR8nl/Za010bhE9fpRER0Vfzk9Omv4GvoaJePykBdFdyo2tXxwTm1nbTbB6D+2F+8BOoiIJ+ciGVq0AJ1Q0Q6pvcs0OvyTiJy7C+Rpqpil/8S+KMx3/M4gHTMXr5I1UoDMH1xTxRp9WtRIZY1xWgFn7Ias8cCB1bo828qE9NkMK8CdRmEm7dr5e6emO4uR/2Ng2K5Q5AmAqw2owVsESKoW6OldsjBHLTKoHv4FBlcyToRJNpSkWWkmojAKws7HPO9Iu4uhk83pzmIeUUQV6ctezMO2uNxp6NV1Wg91lNKZhbKYFUGlyqIk0GdebsKG8SyPOU8Nzc/ux8Oq+3StrtfhjVFRpS1QFutOywt1blscUweTWsQgaaxbtdg3Bt5k5KBXsZ+iXWfT5tmXbdMX9ECVlH/QQma+qVaUlnmJ8ejqazSGqhLh0+jXATUWSKgzupuupEweDtmat6hpu2YECPuPE+fVkGzH9vt6ZhVH8Wv1DTtpkabX19Gs4C8uhJfivPAvB1ERHT18AFT6mCLEBsD1J8zWsPNVmDKWBsq8ty0WBvMAbQMjNETsSowrl4yxZRWsxLFx+yI7JmkypJdBOPGshfjiAjII3vrwXzsxCGIbDiCYjV/8ecnxY1BT8TpRe0Gw7xd1UsKPATlZahpsCHmFlUUxi9+F3l5ec2GF3PUC7wSAdpoERi6pltYmAJoVMqYD71iVKAogrTHTYH99tIKNNminK3ZQnmh0Rpux/YyO8K6q68mYuNxq82OL0vV/FowaUNUD704ISXBmgZyuEQL9s1BXv8p6iFPbTC1ogvv5JkDRZftlmRQabRma+uOQF8tYNaPSXlhC1t+5X6hBG86jovM1bajvwjAnUzHVAtenfst1983ylMaSCUeF0Fw/ul49O+n7785mPZ+zFy3w4YJ4vQ9uFMdA3+22+MxC4Se8mJ5L4iI6KphsE4dLAmysdCtKfGIFIFCTUu/zJEPrX56CkvV0CylxYvqcxdEcO4MvmVwjrKDKjjXbzASsp3LXvrpHIiwy42VqK5x3gRIO1b8GtnZ2c2GJ3LVC7yKQJTYjZbnB8vWWFPA7DYVwgMtf96GW1PUcRzaTwTbIqhWaR39u9sQlmbqdeWxaRjucsjLC40WXL0Vt1xN18hvDBzzzkWWCG47RI8o9eCnc92WdBrJXoHtjpsjO5avMqfz6O+JN/JGpFwG04WVWsBu9Jzi65hpN1P9+umt4VpwbtoOf7a7jZTXmm7aiIjoqmKwTh1MtjyrUVcisKlXo4FbgfsWy4dWn1dpMDJVJYAA96sLYt02jFisB+PTk05ik9GCr8jceWPZ+nCbmwdkm39z0LqWdf1hvpaany2CQZQ40x5kSoeq801ftyO4FDdTrq3ZMifaGYzrQ7McbXe0dBC5POd8+adVXUewpIKooVleuyd+vCexNvSy16H8cJG2X+bA1+sxM6WgaK3wrqk2rdpu/8mbCv1hUiIiutoYrFMHa97y7CRTU0TA/NuW96XuCJK1HHT/Wx3TZlsD/WWWh0f1lJqE7EJHfrxn8psD67cDrWtZ11NT+k/xPxe8GRFZ6gGfTctB97tlfWiqNdAXgzkQf+eEzIke34puCU293gzNCKBlXU/T6G+kf6jA328yPcTmrscTf/mRJiJbwbXjLgJvsV9G4Ov7mOnvd6+YeExIasAn5mcTWr3dwsU6NNkSMMHre+YtzYeIiDpacAbrfTK1/tWz5mRoOcNxGXLc2d+60f96VmYKuon/UjLZ33ookfng5gdDzYofSMQm2V+5I93klJ9dIS5G4W4ZUKv5FvfEyQBa1ovX7QLGPuVYpz44g/PqJbfpD5Wa6909YPrgcCSYct/bguxO7xXZ/7Up/cHfH6R5Z6d8ONJIN5mGqLIAWtZlPjWsaRdycORgHy5SD0ia6/28qag+ik9Oy4db1Xyj63AwgJZ1Lc3E2C/5IKjlGwNn6o+WJmK8zvHjSDKvXH84U99mfbA8qOmDHnSbHnhVHD/GJG8etPXqD4Q6Hgj245ht31oiti0Dw+uMB0sNrd9uedzfFHehzvW7eb+0ZxWc6U5ERHR1dYmNjfXZdWN0dHSHdt0YCth1Y2voXSwOOGbudvHqSnvzFDIuWLdHTpsOZ9eNvun7FfOJSw82oUrmlLt2T6j1TOPSveA1Sd4QTMOtZdbuJA0yaH8AO9zWBbv52XNxZ637/SIioo7HNBi6Clai4I+yJfshZLZlF4ctpueZW63AkCSg/oLsw9E/aW8+hRE1aztHoC5o3Qa6kF0WQuZiq/K1y47lm0rEm+4+pUXmfIdiGom8yciKMvc4Q0REVxtb1luILettoL1+QKglZE8yxo8lKdYfXPJBzv9bYF0w7Eub0VuPLT28yAccXX8I6Frm7tuHkCV/cEn2fX+tf2tCRBRcGKy3EIN1IiIiImpvTIMhIiIiIgpSDNYpIGxVJyIiIuo4DNaJiIiIiIIUg3UiIiIioiDFYJ2IiIiIKEgxWKfWiRmDWTlTkayKRERERNR2gjpY7zZ4NrLmLMCoPmqCQzSSMxdoddqQzlDxakkelgIc248TqkxEREREbSdIg3U9GB+JM6hSU8y6Db4Dfb/OR/7at8VQhKr4DNwxOFrVUsdJRv8+VSjZe0mVpWRMZUs7ERERUZsIymBdBuORJW/js6PmINDp8tF1proTqKwU80QwWO9o0aNTEXe23KVV/QT2HwvHuJxZGNPsJ/yJiIiIKBBBGazLYHzfWVWgIJWMkYOA0kPNE2Au7V2P3F2NSLknB1MHqolEREREFLDQf8C0TyZGxV9G6RFmTXeogf0R13gGX9WosqvjW5D7YSnC03MwazS/9SAiIiJqidAO1m1jcUdGHKqK1uGEXU2jDhCNManiuJfsgftEJatug0Yyh52IiIioBUI3WJeBemYKcCSfKTMdLeYW9A2vQvlxVXZn4FTk3JOCxl25yM3dwt5iiIiIiFogNIN1U6Du6SFUaj8+u2uUgXp6OEo/zMUWbwE9EREREXkVnMF6n0zVh3oG4kQxLkPvT93obz1uSAq6iX+7Dcly9rU+ZzaSbXo9tSfZXeNlnCnzdJOUjKnpwM7c9djjKZ+diIiIiPzSJTY29kc17lF0dDQaGxtViaTExEScOnVKlQLTmnmlq7nu6NGzMCOiBLkfM7GFiIiIqL2Ffm8w1KG0bhkZqBMRERF1CAbrRERERERBisE6EREREVGQYrBORERERBSkGKxfY1rzcCkRERERdSwG60REREREQYrBOhERERFRkGKwTkREREQUpBisk0/Jd+Vg1uhoVXLR+1kMXvo6XH881javAKOXrkev3moCEREREQUsqIP1boNnI2vOAozqoyYY+mRq0x1DerKqoDYXMwapfapQsveSmkBEREREHSVIg/VoJGcuwEicQZWaYnG2APlr31ZDPkojMnDHYA8tv+STt5bz6KS+wLH9CPQ3S+2rM7F32SycP6cm+Cl69CzPrfhERERE15igDNa7Db4DkSVv47Oj/rTmXsLlBjVKAYrGmNk5GBdRiq1uW86TMXIQcKbMpW7Y6xi9VKa5iOE3IxGuJmu0tBhV55oeo83nfdqlvSVoHDQDOXfx2xIiIiKioAzWLx9dh31nVcGnZMTHX8aZSqZpBCYZU3NmIKVhJ3LX7RG3PM1Fj05F3NkS7KlREyQZjE+LRcVbsuVcDG/tR6Oq0px7BkfdTZcOfY7zSEL3YaosdO0RC5R/DrsqAyewJXcjSiPGIWf2GHE7QURERHTtCuqcdW+MfPasORmIq/wCJ5zRHvkSMwazcsYh/NhG5H7sKcElGrfc3A1Vp631tkkjgX1/CDi9RbcKVfua0CtloSpPQmQyULF1lSobLmHPulzsbEjBjJyp4raCiIiI6NoUssG6bH038tY/a7gNWZlj0U3VkXcyD93nsRo4Eikoxf7jqtxGrhw+hsb+t+tpL70nIQbHUO818I9DKnPYiYiI6BoVssG62eXKM7hsi7TmTpNHl/auR27uTq+54cn94nD566/cpse0yrmtqKnXU2G6Dh0EnNiKK6rKyZlLvzE3F+vZEw0RERFdozpFsB43JAXdKsvc9xxDHnjJDffSXeOVmiaEJ09CV620EAmuD5j6tBX1J5oQ1mMhIpOrUfnRVjXdIAN177n0RERERNeKLrGxsT+qcY+io6PR2NjsccH2I/tRz4hTBaeqore1B09lvvodQ0yJHJVFyN8VaOeCrZOYmIhTp06pUmBaM6/U2vldya4bUxs2OlqwZfeJMyJKPOSzT0Kvh59EQqQcb0LFW1tw429uR+2yh7SHRLvevR63jwqTlSZlKFX1OhHkL81Gr/I87F1tzVeX654kAnq2phMREREFa7AeAjpTsG4le4lJRf2H6629wBARERFRh+sUaTDUlmR6DAN1IiIiomDAYJ2IiIiIKEgxWCciIiIiClIM1omIiIiIghSD9RDUfg+XEhEREVEwYbBORERERBSkGKwTEREREQUpButEREREREGKwfq1IGYMZuVMRbIqyl8ZHT1voSq1s2GvY/TDz6KrKhIRERGR/4I6WO82eDay5izAqD5qQjPRSM5cIF4zG8k2NYmaSR6WAhzbjxOqTEREREShIUiDdT0IH4kzqFJT3Ok2+A6kNFR5fc01waXl3CoZ/ftUoWTvJVUOZdEYM3sWxsSoIhEREVEnF5TBugzCI0vexmdHvQSYtrEYOQQoPVKmJlyjBk5Fzj0paNy1xW3LefToVMSdLXdbZ5tXgNFL9SFhmJqomYReDzvrmqXMyNQWo67ZvCrNxqiflqSmGrwtW6+Ty3Nu23r06q2qcQl7ShqRck8Opg5Uk4iIiIg6saAM1i8fXYd9Z1XBrWgkj0sBjnyGE3Y16RoUPXoWctLDUfphLrYcVxMtkjFykLihOeQmVO+fjfiaF7B3WSY+39eEXuOceeW2eU8ioTZPq9u77AVUdM/G4LsnqdqFSEj5XNWJYXMZek17HY4sJBHI3z6qGqWmejPvy9b1mlbg2LbS8jAkTDIF9Me3IPfDUoSn52DW6Gg1kYiIiKhzCs0HTPuMQgpKsd9by3snl3xXDmYMasTO3PXYU6MmuhrYH3GNZ/CVu/ryPBz9aKs2euXwMTRGdlfB+kJ071+G0tWrtBKwFed3liE8eZKqX4UKR51w6HOcRyxu1Fq/J4mgPwnnNz8E9/dQvpatmLbNXiqC/e43W+tr9mB97k40DpqBnLvcJ/8QERERdQYhGKwnY1RGOEp37sZlNeXaI/PQ1ahH0RiTGoeqkj0I6Jam980IQxJSjDQVObikspjTZ0YvzUYvNd0nP5YtnS813ww8hL2vPYMrqthMn1TmsBMREVGnFXrBep8kxKEbUrReYOSQ4SynXyutrCewJTcXG4+FY1yOhwcuY25B3/AqlLtNj/GlzJnGYgwqYJb56CmyddxRl4fz+kx+8rxsv2kP1I5D+LGNyPX2zQIRERFRiAu9YP1sAfLXvm0ailCFyygtEOO7rq3OCS/tXY/cXe4fuGxxd43ntqKmPgkp3vphr691BNe2eeaW9a34phbolaLm7f0sBptbzv1Zti8yUNceqM3F+k7Rww0RERGRZ8EZrPfJNLWaA3EZeiu65/7Wr2GOBy7NXTfKNJnLOFPWkmB2K86/pj/46Ux1KXA8BHrloy04HzkSt6vp8TX7LS3r9tV5ON9fzfub7qh8az8aVZ2vZfsWjTGT+uKMxwdqiYiIiDqXLrGxsT+qcY+io6PR2OgMuQhITEzEqVOnVCkwrZnXH7KXmBkRJcj9+Nr6poGIiIioswnN3mDIKy09hoE6ERERUchjsE5EREREFKQYrBMRERERBSkG60REREREQYrBOhERERFRkGKwTkREREQUpBisExEREREFKQbrRERERERBisH6tUD+7P/S12FTRYNtnvwF0fXo1VtN6ACxy7/A0k9P6cObK9TUYGDDkoVzsSE7XozH46XH5uL9Sa5HLIjFDsb7Ypv17e+EtP3LwHxVpI43YdI0bFDvwfxsca4tHIwJehUREbWjoA7Wuw2ejaw5CzCqj5pgsI3FHWK6rHMM6c4f26fgVb3kNiybnIiVu+1qCmmGZnTO4Kez7hcREVEHCdJgPRrJmQswEmdQpaY0Yy/FZ2vfRr4x7LqGf7EzZgxm5UxFoLcr9tWZ2LtsFs6fUxOuaXacqQOaahvEeAPqxL3E+ZoQuqGoPopfvbwGM/Mq1QSitrW9Rnw27HUoF+PlteKzIT4k2/UqIRlTW3ANIiIi37rExsb+qMY9io6ORmNjoyq1P9minlK/DvvOJmPUnAyg6G0xriol2bI+DthfsBuX1aSOlpiYiFOnTqlSYFozbzMDpyInPQ5Vu3Kx5biaJg17HaOnJamCVIbSZQ+JkFSQaTG/GYlw1+mSNh98T/NqBe77dA4SVAkNu7DyF/NQrYqSTIdZ1LMAyx5YrKYYXOYtW2t9zYOFWJo9QBWA+t3P47UlK1VpETL//BRGRKgiTmLT5CkoVqXWk+kxGeivSrCX4JVVR1XA4qVOti4nn8Yrtal4NE1PrWkq3oxfbRVHU6Z33JuKMG2qWSXyXy7CO9q4TNGZhuFGVo5lvXpKQlY/fdyxXIO3dWtcln26yBTw63VRe9fgcLKxDjsOfrAZy81vpjv+7JfrayzrFuS2TzGn9ZiPiXW/m2+Xt2Mm36t+OPxBHe401m+ql+keD2AHPuk+zbH88sI1ePywPu6Z83hZXyvXl4o6uX2Q+xyFT14+jaHG+eLyfsr1G++Vdb+8b7fv99p12c2P5521m/Emxjte499+66JHz8KMQeI68eF67KlRE4mIqNWCsmX98lEZqKsCeST/OOakh4s/ji6BugzGp8Wi4i3Zci6Gt/bDcqt17hkcdTddOvQ5ziMJ3YepstC1R6z4q/15QIF6pAiiZbqLNrgE6t6kvTkcR4z5Jq9FRdIc3PegqpTLzu6JAyuM+kRToC5vAB7CiBoR3Dvmb/tAvZcIfmbKFmw5OAIsGaSZ6zbjIETAZM4f75eBR7uX6PWFlQhLS9Xzr40WcTFNC7yMZZuCqAmTUoFNxnR92Q+Y8unfydPr8k+rCa48rVuYny0C2joRJBvLjspolqvff4oexOnrsGH4OD/y4n3ulzieIuA8L4JBY3q52E7HumUgPyVCBKqq/oMSNOk1Ghl0ZkU5l/uKeKOH3+vMafd1zOT6s7Sg2X19WNo0xz7Lfeg/xZ98ef3bmV4x1uPXnFi3FrzLdYv9tqUia6iqEvudJW4U9O1W+zXdnEbkfbst77U4ZkgbjyXi46sRwfyjaQ0iQDeWHYEslxQlud/G/K8U29F/tP8pTJf2rkfurkak3JODqQPVRCIiarXQfcDUlmLKW89EnJp8rUi+KwczBjViZ27zVizbpJHAvj+0ML1lFar2NaFXykJVnoTIZKBi6ypV9i52eSYSGnZhnSmIDkTxA+YAezGOlAGRvRepsmTDgInmsouk4UhToxYTn8a7eXnIcx1eul+9wDsZ/PUXQeeb5lZrw9BUDLdV4hNHnR3LN4ngsl8/Z4AnA1aj1fjwaZQjAn2NIMqH7VuLTC3GdmwvsyOsu+PrA988rjseQ/tVIt/Rmi22e68I5pPirQHa6SJH6+w7J8Rro2ytzkE3jme+o9W2Eo/LGwm17vnjRLBdvMNDC74IWNNsKN/rbI3evnUHDtrF/qig1/cxky3Wxo2Dm3rTPgfyfmnpIRp5AzcXL8ntibWhFxpwxrQv5YVGa3mlXLwzwBc3OY+bzrHtpRVoskU5v7Hxtd3m97q6El/abYjqoRfnJ8eL9TpvArdvLRE3CgmYYN4v0/zN1+2H41uQ+2EpwtNzMGt0tJpIREStEZrBun23JV/9syPhGHVNBezJ6O/60G0bunL4GBr73y7CDaH3JMTgGOr9DPzjeoq5air9bklvRqa5GL3FiGG6OZNHBO/vrdgFjH1K1RdaAnP58OqmsgGYruZ9eLkpqN/2HH6dnY1s1+HxP6kXeNe/u9gvS46uC5XL2y5kK7Ps6UUNzjSGVtKCSNnK61y2Ne1EVy4DdMPhItM3Cq3k7Xj6ZEfdRTXqTkuOmdebEGfQ67pso4cUSeZ1a8FzbDyi6sRxM4Jwy/khAnRTaon8ZsSalmRatttUIhc+bp70GwEb+kbp35KYt9s1EG8qq3S+J9q3I87gPlDdBo1kDjsRURsI3ZZ1k8uVZ65a7vrVcQJbcnOx8Vg4xuXMwpgYNbmtnNuKmno9Fabr0EFidVtxRVX5UnXB2SoYsCmr8XD2AFTkOdNcNpWpOkPhPLym6lbu7ikCc2vAXvyAMe9a1Iug3hGwt7Jl3dli6oFrC2SPKN9Bll/0dBGY0m9kekLbkXnL+nIdQ1sF4764BJkTYgL4tsAcPGsi5OKUFh4zrzcPppsDI8XHMZgC2ot1aBIbMj8lQXxuSlDXPR4T5Lng542JlpYEZ3qPa/qPWz6WbX5QWuagO7dbDn48fxAI+QzNPSlo3JWL3Nwt4kpFRESt1QmC9Wgkj0tBt8oyzz3HdFKeckSv1DQhPHkSumqlhUhwPEzqr62oP9GEsB4LEZlcjcqPtqrpvlVvO4J6S555oOyo+UqNPljo0rJuVX3ughpzpwyy8wqHVrasaykB/TL0tAZXWppEPO505A7bsGR0PJqKS/xvlZRBnmtKgokj4IodjAfaqmVdS5OIR1Z79s3uYb/0FAtTrrZLaou8OXKm4+jBt/PmR08dMedTN0+rCeCYqXrLNwgm87MzxLIrsD2AoLZv9wYcPmzHGSQgKzlC9TLkJ0fwLc6j6V5a1n1s94RJ47X0LL0VXyyzzO5n7n0LaQ+7u3mGhoiIWiUoe4NBn0xkZTRPaqlSvcLI3mLuGNJNTQUuH8nHZ0cvqVLHCJreYCTZdeM9kShxtGRNQq+Hn0RCpBxvQsVbW3Djb25HrerNpevd63H7KNcQwKVXGBnkL81Gr/I87F3tX766g2whX5wObfWSozcY195aFFOPL2lvmlJfxHwHatIx4ILq8cWlJxgZgBxYcRsKCuW4m2W79iTTWjL9wRw0yvxeRyu0/gCqo3Xd3LOJ7KVjdJ3La1XvIKYA0FNPHa7TDxZHYLh8CFBbvst6FUcvID7XLdMuTL2mCM4eRPS65r2bBMZjDyQux9NzLzUyT7sEUff2w2FTK7a1NxhrzyaBHjNzryfWeQXL++yLWrbx/qsebRzL1/ZZPiBqao03czkm5eKGr1ea8Xrv222sy8l6TCRv+2b0BuN8DwIhu27sj3K2phMRtbngDNZDQFAF60QUANcbFistoHUE9sHE+3Y3vzEjIqLOoFPkrBMRERERdUYM1omIiIiIghTTYFqIaTBERERE1N7Ysk5EREREFKQYrIcg2TJPRERERJ0fg3UiIiIioiDFYJ2IiIiIKEgxWCciIiIiClIM1smDrhjwu1GYeFdXVb76wu8ahGlzTb++6JYNw58ahWm/64VwNaVzCML9SuvXjtuj9lcbBmFA8x80tgpkW9p9u31vr3Yui30bnqYmeBA719tnUP+M+lpGm2jXY+aqhfsltzGQc8Yfcb0w0bHMfohVk4NPW54L/p3DwacDPw+B6tDPz7XJ+7Uy9AV1sN5t8GxkzVmAUX3UBBdx6Qu0em1IT1ZTKVQZAUyz4Vq4yPFi7sKOg8/vw+bnv4S7H+skshIBZmYvVBfIc0YOx3CySlW1RtV5bJPLyz0N950XB3GASB2M50LgeMz8FaTBejSSMxdgJM7A/fVWrx+FIuSvfVsfdp1QdRSoYLkjbfz4mPpDqwdojj+8fzjv4Q+lOyrIC2ieUNBZ9+vaZJzrB4vVBGqduBvFje55nOXxJKKgJr+5CvxbuqD8USTZop5Svw77ziZj1JwMoOhtMa4qpT6ZyOpXdlUD9Kv5o0ht96NK8q72NgzEaWxrFgTqdRG7rkZAIU/mWwERrJvXLVveJ0afwUHciuGq90oZ0Buv0epHqLbpU19i8xq7Pu6gL9fxIWlwt9+eWZYvmNftuuzGA19g28dXVElSxzpCFUVgcfD506iWX7Pn9HPToq7qxZjP/XJdhuk1ct7hKMPx6NvcHjPfvBwz+W1A+rc4+FU0hqvtc91veSNorFfU4niu0eIpl9sXDY6y/tqBl1yPW/PXGVzfD7/fTz+227ps53vhm9regkviMqXeE8t2mY+n+XgYXM8T121zeT8Ey/sp9y2zlypYl9+qc8HrMdO3CW4+D9Zp3rR8vzRaPTy8Ty7LNn+G1H5Z3x8355v2GbsBx03Lt57bTs0/+55ZzzPzfsnzIAn48xlE5Bjb7noe+jhmXnm4Hmnj6hh4PIebf/Yc6212PHXa68W1e/MaiGVH4WzutxhoXLMC/Nx6XvYV9TfrSyDTv2Nmfq9a8/nweS6obW/ZNcf5t/jsrcZ6XD4D2vnv5fPhlcu5YH4/HOd9HfoYx83rueD/tdKfz4912a7vh49rpZe/ixrLMWv+frQnfb8Q0Pt0XXh4+L+pcY9uuukmfPfdd6rU/r67eAxnL8uxaPQZcjPwdbEq6+KGToCtoQk97rgLI4ak4VYxRNRbX9PeoqKiUF9fr0qBac28Umvn18mL1hAkVIkT+O1aNH93f8DPBvSBreYsqvz55LWprug9PgY4aV33z5J6IGFwb9jKvkDhO1+j6sYIDLn9J6ja36Rt/3dlF/HVDjGPmJ5wkx1fHbF+8GLn3obeal75uq/UfH4RH/yx037E4eePoVjOK9fj2DZ50RiCmCPGsi8jZs4Q9G40XqMuKrXiWP+xXF/3jgb9YtfYhNOy3Hg9kntewraXT+CouV7wvl/iffzHAfhOXMS2rZPzXYZtxq1IvrEGp8vEeyiOWfKImz0eM1+8HrO4SCQP6YPeV8r1/RL7MGRiOC6rbZcXpLF9qxz7VHVjDwyfdpOql++xDVc+v4hataPhQ/sg5pvz2nY7NX+dRlxop0z8XvxhUO+HPH7xf8Npf/bLdbtP/g0J0/rgpyfVOlyWXXVjH4yd6u8xk9vbGwm3XFHning/pgxAjONcuIIqub1yupv9ip07HEO/cZ4nl/uaj4nreVaDH1NjcUOlWrb84zQ7AqdyP8feAnlMbsLY2ZGO96NV54LXY3YFP4rtTI657Dw302Ix7JYmHF/nPI89a/l+QZxjU+YkIvkW+Sc5XBx7sR1y6Ovclti5sbj8R+Nzq38+HJ9NuV+W88bD+dYtHAlp1+OS6XPZeEQuT9/Wv201Pn9nXc5fL8R+De0lPh/qs6V9PjKM9+N6dB91MwaOuUEEtnK/5XqSkBilf659HjMfwu8aiOFd1HupHRfz++TjHHbz2RuW2Qc/aufCDegtttk45wzatVu7dkEsOwHJaZ4+H1508bXsH8Qxi0XCEH+PmfU63ZrPh89zwce10vs1R54Lcr/E32O1bZf7JmJogjrHfXzufQm/qy/Ctx3T55X7MGogBhrHTDvv+yBhvHFMvZ8LgVwrfR4zr+eZr2ul97+LWv2CGLVPLuvtANrfdO19GgibP+e+EIIPmEajm7iT6jYkEpVGCkxRFeIyZiPZ17OHpJMfbnGXHC7uJJu3Pgc5cXds3P02Hr6ExogbnHfOfgi/JTKg11v1Qh93uXXiQtwHp3HQcVdux/EDjYi9VZ2QInAZGHEeB9vhWMsLbWzDaRx3tDbYcbDgvHU/2/OYyVYWY7+K61CNMIRrD6bZMHBEOKp3OVtgGj8uw/EGD8cwIOKPbrrMT/avBcct83ZX1eNsQzj6DNVTwWJvtS678eMzqI6IRqzfD9zJli1jfjvOnhLHsIcfaWbiczkw0ct5Is8jy3lmFT40GjhQ5mypKa5ufrxbcy54OWbVfzmNxsQoR4ulPIaNB6r9e39asV+O1Dlxzuuteip1znQMq9eYz5MA3o/2ViW217TP7t6P6gKj5e0Kqr9qRHi02m4fx8wvpverOU/nsP7Zs7y3xWI7TqlzoeobZ4Aogi3jOZzw6HA0XjK2tYWfD7+W7eWY+bpOS628Vnrl8Vrp5zXHtG3VX4rzvbtM/RL778/n3ovGj08753U9ZorzmFrfr9ZfKz3xcZ75uFb69XdRjBnXr6tC7I98FiY807805JDtDaaqqMCZz352H0rt3RDZTZXJK/nhbs0FSH59ZX4A1HqiydYLa32wPDxSveYLHEc/R+8OAW2XfNBMfNhjxQdL2y/zw6Cx4oIe4VyuHMxf3YX3CBMX6m+df2jaWq3pj1gba9UxE1vV4LjSBrMraKxVo+L8De8u3lLjfdYGa6pBsJJBS/iI20zbbf2KuG2Zj5mgBe9GgGBDH/GH9HhrAkmTVu+XDOwc87r/6v3qcLlWuk2Hax/yJufgqV4welwK9Jmlxoue3tsraGjQg9DYW8X1o9YZ7Hqex1+tXLaP6/TV4981p/pLU2AqAz2VitLqz4fWeOdcd/NjYn0WpHrNPnXT0P7XyladM17/LorgXQTKcBy3AHPIXY6Z6/zeY6TmwkfE+lx/CAbrl3C5QexcpLibpBbRW6O+RKM8Ub10hSg/lO7y9eR0/UFQfTDu9nVXcPIP1nr/cig7gmnb1B1tQMGnvEAa+1QrLvrmgF22mqg6x6Du+hsvNmn/thvVwmLQbg7aTGuOWTgiLFegrohot+CxNfQ/OuY/DDI30vJePh9IDujVI/MurdvdXp8/12Omt8hprZRpUYg9JVsO206L90v+UbX0EiPmO6XqrjKZYqY9L2Tsk/h8tdsNvRvO67j+tyCQgN3aEq6fCzp5Eyc/9+KGrfu3OP4lxA2crG+LG/c2WLaX6/TV1pprTss/9zYMFzeJMM2/7UBgZ2F7Xis9n2d+8PV30ejpSdvnMHHjGkDAbppXH8zf3vmKkRTZiCCOfaN2/KzzuxOSLetVp6vQbcgoOL5p6TMKKbYqVJofQiUfZO8iX+B491s9dBkoc9rFXaHPfs1DlPkr1RZovGSaW36lGdEPwz39sfNVL1V/i8YWfH2of1XbDwMdAXTz9JM2E9Ax078ujU13nlvNv5p0BvMyv93/Fk+9Vdfx9bUKyFpMpSnprUcq6My8Cn1qa8fX+fV1s2Pico5owZ7p5kd+NR4+Iqlj+se2HDOd9hV4Yl9MTA/D8b8EEAC1+36ZgjnxB7LZeeZIdZAt3YG2DLqci4FytP6Jdf8igJZ1H8csMLLFWo36pNIkzC2B6lywfJPS40bgq3o0iu0MvzVW3KQ3obGtbnZbumx/rsOt0tJzoXXXnLb43DtuusW11HgA1re2uFZ6OmY+zjMf18pA/y62e4OaKxmoZ4rrZK7/jSlB2RuM1ttLRvMzr8rUK4zsMeaOIUbeSxX2rTWlxXSAztEbjE5+ZeO+Fw7xh+uUyxPUHUJfN8Qdp/lE1p6g1p76V9sjgzRHDw3yD62bP1iO7Vf7o0/VBPL0t7Zuy0VM5sea74abL9/65Lprvev8rusw6n3tl6AdB+cfevN+eT9mvvg4ZvKC46MnDesT/y77rF2wVJAt9kf28uM4D811DuZeDszbJpYre5f4BXDQpacIt5ot29d7IcgWOX+W7eEY+L1fLsdk26W+Wg8VlvdTbZd8L2TPFX2+NJ1nXvatVeeCH8dM0t7v7v4eK6fW7JdGq3ffG4zlHJQ3i7X90Md0vTPXVxfInkSc71+z80Djuu/Wz4nf1xWXz231gdMiOLFez8y9cbm+fz6PmUdurimW67yPc1iwHhfz59KoM3q6UOuS3yBo54TvZXvjfdm+j5nreyUZ1+lmrw3oWmnwcC7I89PHtdJ6TAXHNaf5fjXj5+fTHet6RTB8IAwDjePgxzHwvN3+8nDMBOuyreeZZZ/dXCtdP1+Wz2Wz4+Wy7HYl9zcKZwM6r4I1WA8BnSlYJyJqC4EEXkRE5J+QfcCUiIiCSJpMMWm7B0uJiEjHYJ2IiFpOfqUsn2/RcjAD+2qXiIh8Y7BOREQt5+glqaNyPomIri0M1omIiIiIghSDdSIiIiKiIMVgnYiIiIgoSDFYJyIiIiIKUgzWiYiIiIiCFIN1Cj69n8XgpQUYPW+hmhAEpqzGw5+ewlJtKITjV4yDwIRJ07DhsQzMF+Pzs+diw8LBmKBXtY3YwXj/MbHc7Hg1wV/xeEnM9/4km2MZLw1VVUREROSXoA7Wuw2ejaw5CzCqj5qgiUZy5gJtunWYjWQRE1Dws80rwOC7J6lSiCich9cmJ2LZil2oV5OIiIiI2luQBut6QD4SZ9C8295LOFHwNvLXmoYi+apGXLbrr6DAJN+Vg1mjo1UpCJx7BkeXZWLv6lVqAnmzvaYBsNehXIyX14oPQZ0d2/WqtlF9FL96eQ1m5lWqCf5qkJuC8zXif9V2nIcddRdVlTRwKnLuSlYFIiIicqdLbGzsj2rco+joaDQ2NqpS+5Mt6in167DvbDJGzckAit4W46rSjbj0BUhpyMdnRy+pKe0vMTERp06dUqXAtGZeqbXzO0VjzOwZSEEpNq7bI26DDJPQ6+EnkRCpiihD6bKHRKilDHsdo6clqUITKt6ahfPnVFGzEAlLs9FLlVC/H5+/9gxw93rcPipMTTQpz3ME5rLVPaW/NorGfS/g6Edb9YLS1WUZ5zdnouKQHJPb/Dsgbwtu/I2xbpft9mkRMv/8FEZEqCJOYtPkKShWJY1Mh1ncE0Wu013nbdiFlb+Y5/w1xwcLsTR7gCqIQ7L7eby2ZKUqAbHLv8Cisc6vhiryEvHeG6rQYjYsWTheHIYGDE+LB04XIR8ZyOonDnnhGjx+2HjNNAw3Vm0vwSurjjqCfZlWI18vNRVvxq+2mo7m0AxsSD6NV2pT8WiavoBmr/HK0/lHREREhqAM1p38CNZtY3FHZiRK1xa4aYVvP6EfrCdjas44xJ3didyPT6hpOi0gjtnivmVb5pP/ZhBqjABdC9xhCor1QD3MTaBtkAF5fI3nesnta1zXpZVj1c2CcYNh3Dzo5ZgT3tfjpILtmrVY9sBiNc0ND8F67PJCpG2bgoJCWdKXNeCYEZCvwH2fZqJmxW2q3oXHG4DWUoE4RAC+CXjg3lRABNNvYjwe7V6itZRPmJSBCaVFWK7dVeivv7WsecAtg/Y7a90E61P0mwCt1V0rA/kvF+Ed9RJ/yG92xvWpws7cLbCeiURERBTyD5jGDUkBjuzr0EA95MWMwSwRqIcf29gsUHfof7sI3ZrrOnQQsO8Pzpb0Q3moqE9C92F6sevdU9Grfj9O+hUgB0IE3+OS0Lgvz9lSfughlJaHIWaoM//9/GajlX8r6k80ITzG+AbAhwd/iRERJ7HJW6DuRfUSI1CXVqL4mB2RPc3rtmHAxEVq3J0BGPKgGrW4Hy/m5SHPdch9WoTc/infa7SUV+ITlyB8+1YjUJfs2F5mR1h3x1cLvsmWeCM95vBplCMCfWP1or9OfJyLjcfCMS5nFsbEqIlERESkCe1g3TYWKfGXcaaSX6AHIjqpL7qpcXeufDRLBMFJSJE9sojB/DBo15gwhI96UpuuD+Z0Gb0etV/jiiq3taaLbX0ToIvt3RNouNDymz5LbzGnLCktwGK8t2IXMPYp973JyIdX804iIVvN/+fVcMa7f8IT2dnIdh1ynsMO9YpWMXp6UYORznJ1dEPKMOawExERmYV0sC5b1btVfoET1sZC8uHS3vXIzd2JxkEzPD7gZ1+dib3yIc9leWgSwbk5YJe55Hqdc9DzxkWgX9Okj7STsB7mXmQm4cbuarSVqs9dUGMtsQL3LU4Hdj+PZbLHGDGs3O1yUhq9yWh1PTHdNWB/Y4pj3k016VjkCNhb37LuWTxeUqkxM+UDpGJ4pbjjP0wyDWbGoEbszM31/E0PERHRNSp0g3XVql56hH/cW+YEtuRuRGnEOOTMHgPPfcGU4RtTX4X20jKEj/odevVWE1xcOXwMjf2zkaDSYtyRAX148iR0VWX/qLSWUdnO9JxhYj2RZahsi5SbNw6iIiIds5d7S1Xxrv6cemB0ymrMtrSsW/m6Mai6YA6Y27llXdB6a5FiB+OBDm5Z1/LVI0qxkfnqREREbgXnA6Z9MpGVEacKTlWOB01l145ZSGkoQv6uq/MnPvQfMHWSAVNqw0as3yvTiVx7ghFMvbVoLL3BSC69rmgPoY5EuCoavcE4U2Nc1uFYvksvMoq5VxhrbzDmnmj0Zd6409nK7/VBWbfkg6BzkKBK5t5gXHtr0XmqP4kDu3tiRM8C/WFVl55gZG74AdPDps2X7aYXmhbRHxiN2rsGj18cjPfvjcInLxehfNI00wOmYtwRoFfiYHEEhqs6/UeNMqA653Fw9PgiHygdXWfqPUa+PhV1H2w25cF7Ibtu7FfO1nQiIiIvgrw3mODVmYJ1IiIiIgpOof2AKRERERFRJ8ZgnYiIiIgoSDFYJyIiIiIKUgzWiYiIiIiCFIP1a4x8OJWIiIiIQgODdSIiIiKiIMVgnYiIiIgoSDFYJyIiIiIKUgzWqUPJXxUdvbRAH+YtVFPbhvwl0KWfntKHN1eoqcFA/pLoXGzIjhfj8lc+5+L9Se31s/76ul4aqoqtND9bbLfYXjl42mb5K6iyvq3WqevIY0ZERBS8gjpY7zZ4NrLmLMCoPmqCSVz6Aq3OGNy9hoLPlY9mYe+yTHy+r0lNaTvVS27DssmJWLnbrqaEEPnT/QsHY4IqBot38tZg5strkH9aTWhTbXtjQURE1BkFabAejeTMBRiJM6hSU8xkED8KRchf+7Y+FFUhLiMTcaqeOk706FnIuStZlcg9O87UAU21DWK8AXXiXuJ8TQjeUHiwfetmLaB//LCa0CZ8HbNkTM2ZKv5PRETUuXWJjY39UY17FB0djcbGRlVqfzIYT6lfh31nkzFqTgZQ9LYYV5WCbFVPacjHZ0cv6RNsY3FHZiRK1xa4De7bg+wC8dSpU6oUmNbMK13NdZsl35WDcX2qsDN3C06oaTLN5faYLdi7epU+ofezGPyb7qhc9pAIv5yavc5vi5D556cwIkIVcRKbJk9BsSpJMh1mUc8CLHtgsZpiWIH7Pp2DBFVC2Vrrax4sxNLsAaoA1O9+Hq8tWalKarljnakYFXmJeO8NVWip2MF4/95UhKmiUyXyXy7CO9q4TAPJQH9tXLCX4JVVR7FdFZvVC+WFzuBZpqk8mubcbnOdv2Q6zJ21m/GrreZ30bxeOw5+sBnLq7WCg6d1y+Vl9VMTTZqKXdfhmbxRnDEIKP1wPfbUqIlERESdTFC2rF8+KgN1VXCj6nQVug3JUqkv0Ugel4JulWUdFqhTNMbMFoF6RCk2mgL19qcC9RoRZE9OVIM1UPcm7c3hOOKYby0qkubgvgdVpQzks3viwAqjPtESqGPKaswee0HcGDjrWx2oS9VH8auX12BmYaUehMtxbTACdZkqkoFeIojVp2/GQaTiUS2X20O9OdYdmiGC5QYR+KvlivX0nzINS2JVfatU4nG1reVqioW4EXnAvG4xGDcJenqNvq0ygDfq/Q3UpUt71yN3VyNS7snB1IFqIhERUScTmg+Yni1A/toiIEPmq2eh79f5yN/VcSHjtU2mH8xASsNO5K7bA/XdRsd48JcYEXESm5q1mPun+AFzYL8YR8qAyN6LVFmyYcBEc9nVAAxxBPdm9+PFvDzkuQ65T2O8ekWLDU3FcFslPnEEsXYs31SCpn79MF8WZT1K8KbbIFcE8qPj0VRcogJ/4XAR8k/bcGtKRz2sGY+h7ZmTfnwLcj8sRXh6DmaNjlYTiYiIOo/QDNb7ZIog/TbUF8ic9SI0DslCVuZYdFPV1I4G9r9qzwbE9u4JNFxo+TcoMs3F6C1GDNOT1HTNYry3Yhcw9ilVX4g0VaMpnIfX8k4iIVvN/+fVcDZO/wlPZGcj23XIeQ471CtaxV7nvuXaT17z42UajurtRR8y9JuAtiC/NdBa8tWy2/kB2m6DRjKHnYiIOp0QDNajkZwah8tHPsMJLQY5gX0iYK+ypSCFPcK0P9mSmbsRpRHjkDN7jHg3Ok71uQtqrAWmrMbD2QO0PHMjjWVTmaozyIBc1a3c3RPTXQP2N6Y4561JxyJHwN6OLeuSLcqSj44eUW5y3D3rFWNuRbehb5QalYw0HMdgpN+0kcNFjmXn16Xi0bYO2AdORc49KWjclSvOy45MySIiIuoYodmyLnSLMIWJfZIgwnfUX1ZlameXsGddLnY2pGCGux45ut+MrtrIQiT8ZiTCtfE28MZBVESkY/Zyb6kq3thR85UafbDQpWXdyteNQdUFc2t1G7SsX6xDky0BE1xzyQ+fRjnicaejj3GX1BaX+eZnT8NwR2xux/YyO8LSUp2t5c3SajpOea3rOvUeX/onG/n3AZKBeno4Sj/MxZbjahoREVEnE5S9wWhpLhnNky2qHL3C6L3EOF9xGaUF61RLe8dgbzA6rUeOiBLkfmy0aU5Cr4efREKkHG9CxeZjiJlm9AZjrjMpzwugVxiXHl0cvcG49hKjmHp8SXvTlPrSsAsHatIx4ILq8cWlJxgZSB5YcRsKCvWSa08w7nqhaS1rzyleeoM5XYSZeZWqYJ1P9qbySfdpGHrCU28w7nttca95LzOSo8cW2Tf8FNdA27l8155grPtksK7D/95g5LMT/VHO1nQiIurkgjNYDwEM1omIiIiovYVsGgwRERERUWfHYJ2IiIiIKEgxWCciIiIiClIM1omIiIiIghSDdQqIfECViIiIiDoGg3UiIiIioiDFYJ2IiIiIKEgxWCciIiIiClIM1imo2OYVYPRSfRh89yQ11arr3eu1+oRhakJA5C+dFiJNlToD+UuhGx7LwHwxPj97LjYsHIwJepUgfyFUTNOGaVgSqyaHOG2fLfvZHszHbi7en2T+NdarQd+el4aqYqvIZbmeD/qvycrzqH2o49na9y12MN5v1+3sWNpn1t1nU/5CsJpu/owT0bUnqIP1boNnI2vOAozqoyaYxKUv0Oq0IXMsuqnpFNrsqzOxd1kmSsvVhDYjg/QvkDllJaprzGWtstVil3+BpZ+esgwPL1+kaq+mSjz+8hrMfLkILTukNixZ2IoAUQYc7R5Ut4/52Rnof7pIHDt5/NbgV1vtqsaXVh6zdie3LwO9indgebWapKlEfnEEskL0/SIi6qyCNFiPRnLmAozEGVSpKWYyiB8VUYrP1r6NfDHsa0jBHenJqpZCRzKm5szCmBhV9NOVj2ZpAX3FITXBLytR8IvXgd+ewvSkAZj+6VOI+eQ2FBSq6rZQthbLJic6hteWrFQV7Wt7TYO4y6nTgvHyWhFQ1tmxXa+iFrOhb5Q4nicqVbnzmDBpPIajBG+6ufnYvnUz8utS8UC7fIugbhxXHeX5afJOnrwZ3Oxy4yRcrEMTGnBGTDd/xg3Ro2dh1uhoVSKizqxLbGzsj2rco+joaDQ2NqpS+5PBeEr9Ouw7m4xRczKAIhGQn1WVIsBrNs02FndkRqJ0bYHb4L49yC4MT506pUqBac28Uqiu2yJmDGbdkwIc24j1ey+piU4yHSa+5gUc/WirmiItRMLSbPTSxptQ8dYsnD+nFfwkW9OfwogIOW7HgRWmYP3BQiy9/SBWXsjEorF6oFK/+3lLwJ32pgz0VUExXiNb1hf1LMCyBxarGiutXi1XqshLxHtvqIJc950XsPKPwOzF6YiU02Tg72FZLSNTEFJR94FrUCBbWadhuLFpsiU5Tw9Q5dfzWf20UYum4s2+W5llqsK9qQhTRadK5L9chHe0cT3tor82LpjWrZGt8lPiVcG6XpkW8GhSBV5RgZ+xreWFa/D4Ye0l3rlun+u61bbB3+Upfh0zl/1y3WZt39Kc54qz3mWbjH2wlziOg7djpvN0Hphoy43CJ473yUStE/6cAyaWfXJ7rPvh8Ad1uNN4T8z7JLnsl/U88nwOG/M5j6F6rbhZsSzfC+v7YcdBy7FzWbdlu3ywnIMBzOcgGzvGIe7sTuR+fEJNI6LOKChb1i8flYG6Krh1GfWX1ahkv4RGhKOb8+8bBbOBU5EjAvXGXbluA3XPVqFimUyTycN5NcV/MlB/CPhjIjaVncSmybKV3SUNJmmOHnDLlvG8k4gc+0tnbrsIqKcnyflkq/nzONAgpomA2q/WczHvorEX1Lz6shOyXdYdkY5Fi3uiSNav2IX6pMw2S9HxZn62CDTqRHCjpXpsxsGoDEduttHid1DEZDLYCSgdpPoofiVfXyiCJhl4qXllOo4RkMzPFgGaaXp5vwxT6ogI4KZEiMDIqPe8Xi1AjtLX4V9gLZYtgqTzjn3S163ttwygtBx1/Sai/xQjZ92/fGHfx0ysO/m0Y7o8Pv2nmJYt1v9AWoMI3Jzzut0nFehp++AIOv04ZkP7ob+9Ats9BepSdSW+tMdjaBum8cgWe7k9rxR7OnfikaXdIMjtFu+HLRVZxvrlvpr364MScavu5O0cxuEibZ3GMTa+VfA3UJfrzsIOtWy5/cDw6c40IW15jnXLIYCA2/iMuOyP/05gS+5GlEaMQ87sMWAbO1HnFYIPmJ5AZWU3pAxxpr3EpWcgTo1TcJNf3eakh6P0w1xsOa4mdgiZBiNb0hchVku7Mcpapa5hF1YardlvHEQFeiJWBcxptw8QwflBiL/VwkoUHxNBR0w8LM+EiWDfnLN+34NyorhJuHMA6nf/t5pXeGOKuGGwYcBEc067bOmfor+m8C842WBDzC2ycD9ezMtDnuuQ+zTGy+pWEQFZv0rkO1o57Vi+txJhSfEdkrP8Tp45sKnE4dNArxjzHbcNt6Z4vwOfYATq/gZfwoRJqSJgLUG+IwiuxOMiaNb22wigZMAoapwBd6Ctnp6IdZlblcVOlyMCfV0e9PQaKMc4A/Xmgbz3YzYhJsKPNCk7ztS5vheKOj6BtKr7R7ZYG8fYei7MHydb8l3z6w2+z2Etted0PO6cJAJvcfd9cJP/54rc38dN+7q9tAJNtijnt0FSv35X8cHPS9izLhc7G1IwI2cqmAxK1DmFYLAOVO0qQlV8huMB0/jTooxGXG7rvx/UxqJxy81X+1FgGaSroDgAVRfEyZU0XLW0L0LaIBvqj/0FlvjBJWfdkeYi1J/z0QLfcATFjhsHuY3G/H/CE9nZyHYdcp7DDu21rRBrQy/Zoqm1HKvBkmrQzmSKgmnd1vQREdR+UCLukmQvGLLeTcu2LRXDxTxNZZX+B1+Gq5jXr/f+YQymNCBJBsNaa7uqd/OwZ/80mTohAtpmgbrvY9a/u/ebH4N89iGsu5YvFtz8PIfljeF5cdyaP1Tri0xzMS3bkbaiM24EjPU7WvSvijikMoedqFMKyWBdtq7vUw+Xag+YXo5GuL1ehOsU3PRWoNxdjUi5JwdTB6rJIaD63AXxf/lgqmw1fwojsAvrAniANLK3uRXdaN33R3u2rEsyV9ZoPVZDAK3ULaalNui5xMZ680+rOoOjlVumH0SIgMgl+JTpNSo4DbjnlSibJQjWWpw7gMx/zpItwWq/jBZ8i8POtAr5sOejLgG7PGZagOiu1xYfx0x7ANkPMqhvqpW5XqHA1zksA26Z6y8D9sDOFS3FRqbNGMt1k7Kipz7JQV9+xwbs0RgzOwfjIkqxMTfQtEIiChUhGqybaA+X9sWZnbthTmOnIHZ8C3I/LEV4ek6I9Gagp7LIh0IdLee/mGdtVfdIT5mx5r//EiMiTqLIr2C/HVvWVW5yVra31nQ9JaJ/cgtb3GWPFrYETHDtQ1pjR91FNTo0w+2DmQatNwx3HC3R/vchr6cymHKiZctsmg3le9vqJsXHMTP16qF1D6nG3fEUXL+TtxkHIQJ5L++du2OmTXO5UWlO7wnnfI2bdcubLNmK7PWcaVtaK78jrUV/3sDRuu3HOWzkqecf1tOdLM8I+MPxLYwI+qdbW9atGuRLO5AM1GcgpWEnctftAcN0os4rKHuDQZ9MZGU0z0KvUj3AyN5i7hhipFNUYV8H9gJjYG8wbUH2ZpCK+g/XY4/W97m5txenxn2qV5hhr2P0NJfuWFrUK4wbRo8sjiB8Be77NBM1Ro8xsj57gFbjIHPc1esD6w3GTU80lnW3oWa9aEjmHi1ce7Pw1IOIM6j0qzcYE2tvGrIVVM9NtvScYi/BwbpU3Fqrlt1su629cGjLNPUGY6zD721TD2gagZenfQ60NxgnT8fMdXoJzqclOHpnsR4ryXm8mm+TsSz1Gh/HTOfHfmnHxkNvMK7rVFO9a36OaRy9tshlWnuokefGnca5YJlf7lMJou6VDycb6/d8DuvHE27Odz+33+U8KRfvV68049i42a9mPd141vy9lvw/rvL5n0nYytZ0omtAcAbrIYDB+rVE7/Ix5hNzHro+bcAxa/eORMHO9UbHlTVQdqUCVNkDip9BKRERtU7op8EQtbskNEtpnvJzDBDTfD44ShRktm/doaXQuPvhIxnIy9513P1gkqyTP3/PQJ2IqGOxZb2F2LJ+jXGTBmP5YSOikNI89USfZk4vISKiYMBgvYUYrBMRERFRe2MaDBERERFRkGKwTh1GtsoTERERkf8YrBMRERERBSkG60REREREQYrBOhERERFRkGKwTp2WbV4BBt89SZWU3s9i8NICjJ63UE3oCPLXUE9hqTZ8gcwpanIwkL96+Zj+U/16P9oB/hS7oM83Fy85fr6/Lcgf3zF+1l52KTgX77vpF5yIiKizC9pgPS59AbLmqCFzLLqp6YZug2c76+dkIk5NJwo+i/He5EQsm7wWFWoKERERkT+CM1jvk4lRKEL+2rfFkI9SpOCO9GRVKYj6O4Y0Yp9W/zb2VcZhlJuAnjq36NGzkHOX6bzwx7lncHRZJvauXqUmXOMu1qEJDThTDWyvaQDsdShXVf7avnUzZr68Bo8fVhPahB1n6oCmWrFNYvvq7MD5GvOvaiZjas5U8X8iIqLOLSR+FEm2ot9x8xl8VrAblxGN5Mws9P06H58dvaS/wDYWd2T2xZmCdTjR/Fey20Wo/jBRKK/bLPmuHIzrU4WduVtwQk0DJqHXw08iIVIVhcZ9L+DoR1u1cZkWk9JfG7VMN+aLOeFrmg8uv3Jav/t5vLZkpSpJMh0mEzUrbkNBoZqkxC7/AovGGmkedhywvGYRMv/8FEZEqCJOYtPkKShWJX25c5CgSmjYhZW/mAfHD1O2kExveTSpAq+sOortbqfJ9JQM6IfUjoOWX8PUaa9PM/arEvnar2PKFJdpiNrrGuC7+1VNz+TN2oxBQOmH67GnRk0kIiLqZEIwZz0akbbLOFOpAnUkY1RmCrqJ/yLZtH4NiMaY2SJQjyjFRkugLoNxEajX5mGvbDkXQ6lLE7F9tfvpwFbUn2hCePIkdFVTgCTcGNmEmsOBBOo9RZAt0130wRqoezFlNabgdcd8K3cDI367GrGqOnb5QxhRs9ZRv8wSqANpb85BpLgxcNS3QaAubS+tQJMtAROMDRH6d7ehqaxSBe+VePzlNZgpAnC3rfFDM0Sg3iACdPmaNXilOAJZCwdjgmo17xXTuhz0S3vXI3dXI1LuycHUgWoiERFRJxP8wbptLEYO6YaqEtmqbiZb2GW+egZQJFNhgPDIaFVHnZNMfZiBlIadyF23B8btmqb3s4jvX4bSFqa3XPloC85HDkJkbzVh2O3oVS6mnVNlrxYh884BqN/9erMWc78UzsN7psC+etsR1Ef0tD6HkTQcaWrUnchBP3cE92bjF7+LvLy8ZsOLOeoF3lQfxSenbbg1xQiq4zG0XyU+2erf11fzk+NRXihb0nXbt5agXAX/5bXGMvQHSbWHU2Nt6KVScvx2fAtyPyxFeHoOZo3m55+IiDqfIA/W9VZzHMnHvrNqkqYbUjKzEFmictbPRqNbBNBYbwnfqLMZ2L8dHyRehdryMMQM1XuPsaUk4Xypv4F/EmLE+Vd/zs+W9GZkmovRW4wYFqfDlMmD6iW3YVPZAExX9Q8vX6RqdMUPPI8DSMciVX/fg6pC2LHi18jOzm42PJGrXuDDOycqEZYUjwmyMLQf+p8+7Qi+vbOhbxTQf8pcracYfTBSZvT8+LDu4qDFxiPq/9/evQBHcZ37ov8722djzOjFgDVCYCSEJcTTQiCQwCaQ4KDCgbstuJTjPCzHdtVJ4lMnO6mUy7FTu2KHcqXy2HUSZ1fZjuVkb8eXY5NdIqHkQAIbWwYjwBjxEAKEkCV5JIOERhpdWz7O9V2re/VMd89bMxI90v9X1TDdPf1avTTz9ZqvV18XV9pGK/socuYNGQtXMoediIgmHAcH6yJQ37EWeZ2Nwdx0TR8GBoEhSwCvp8YMWJveaaKRrah1e9CStQa121eLs55agy1tKhXmYUyf14b+d9WMmNog780crbLnn8AKHMYLRhrLs4cxoOYZTj6q5n1hFwYqn7AF7C+g4b7gstk1wYA9qZZ16XRHoDVcaykXwXsiLu/XU2CCg8pHlze25mTiwdIC4EIzrk8XFwQzczDt+mAgPz4uJZtQ++VS+A/XibphTYsiIiKaCBwarAcD9frD9q/fPnjfH0LG4g0oVo1xGYuWIW+wC95xurmUbqQ+vPNaHd72lWKLuTeQD97HMIowfbk+OuVLrwduJo3bu++hN3s6piy/E9OadiP+6vQCTp4bREHN/qipKlFd61R55o+g+r9bW9atYlwY7O+0BPrJtqzLvPTTHZnImTkHS3KaUR93jy8i6G4bxLyN0fttnz3dh9OnB9GFAmwtzlK9v8RJBupVLrT8qQ5vtKppREREE4wje4PRen9ZHHq3qFfmpqvWdMt7BltUTzHjZ7L2yHIjt22n9QaS1Yy6feqCbvmvsWpzkf768m68d20T5uM51ZvLwyh4qga5+twAa68wepB/ZwVw5bfb4sxXD7L26GLqDcbWS4zO1OPLxlfwmCn15cqRw8iuvA2N2o2k9p5ghLZdePrRx9WIrScYIbQXmiR5FuE/vrIUOLkXXzXnq8sHKm2UDy0ys/YKY+0NRhhstvYk09GIf9rdGViXbImPrwtIef/CPFxmazoREU1wadF1oxNN1oD5Rm6biIiIaLJx+A2mRERERESTF4N1IiIiIiKHYrBORERERORQDNaJiIiIiByKwTqlBXlzKhEREdFkw2CdiIiIiMihGKwTERERETkUg3UiIiIiIodisE5kIp9guuqpBhQsVxPSnXw66t/a8ZQ27EeZmuwI8qml/7wZT3r0J53+5z+vxYNq1g0ln9j6z/eL/ZFD4vtkPpYHa8Q6Hl6Eu/VZaW30x5WJJx++Hz9fokZTTNuviPsin5Sr17Exkco6XLIJtdtXw61GiYgMjg3W86oewtYdaqiuRIaabqa/ZzuKTU8zJ0pLy3+NVY/9GFPUaMrsfwC/+kIhnn72MAbUpLShBc03IIDvOYuv/uJV/NMfmjGsJo2rb+3HU398BWMVX5ITubF6aR68ze+gT00hIjI4M1jPr0YFGlG/6yUx1KMFpdhQVaxmSsWoEEH8HF8LhtQUooTMWI1ttZtETbIa+cs2HH26GlfeVRNo7Fy9LoJhH7p6gDev+YDB67isZqUz87Fc7h8Erg/iTX1WWpuox5WUVNXhGXdgtvimO9aqxiXZ0n6P/ROKiCajmzwez2fqdURutxt+v1+Njb+MRdux4fYuHGg4ogXneVXbkXHmNVxAJTZUz0ZXg3gtvjvGk+xKsL29XY0lJpllpcm47WT320J+CVblwXu4Dm8EvhwfRsFTNcjVXg/jym+3ofcDbUQj02Pm4zl0zvgBSufp03r3GkG9XPZO9P+2H3O+uRIuOWngGN771Y8wIl/LVvM1/cFx7f2b8JHcBn6MRcYyFm1oefo7iLdae545hUcqgz8xXdldiH//jRqRZDrM47eh8QsbcVJN0j2C6j8+gRVZatR3GC/c9wBE7KE8i6/9bQcK1FjIfNkKXDNfjYjDPrITv3ryBTU2WjJ1YS1UMZsM4sQf9uIZtXGZirF1rv7aPi/8Okzvka32X1mKafoMpRP1v2jEy2pMf08O/mqeppFpHZtRbhR3RyP+aXenGkmCdo6qkK1Ggy7hz+K8eeU5XnjGUv7aeTemyXNx5wm88GF1oC7Yz4e1nujrtdaHZNjKfLAZv3zxrAjo9fLKOdoojtGYbytr27LDJ/fiqwfNtd9W5qblZfrJd4uuqG0F68Xl/a/ie6flepfi+v4rWLBRne/Afum05cuCfzv6cvKV2iZM75dpLxvnmN6TGsX31GKpbw9eP2puV3dj9fYtKBVB/J7X2OJONJmlZc669/D4B+c0MbhXbROBugstfzIH6tKLuPJ0NY4+vVsE0OG5Kn6AOdd+qrW8v9c0jNw15rSVIpR+czo6tXX8FFewEvO/tF7Ni+KDH+GsXGZvmx7ga8vLIdFA/UMReBXiaTVYAvUoPM/838C/GcvtxHFUYfszj6i5QNnzO5AtAj5jvU/bA/ma23D8WWP5whQE6lInvhdIQ5FBmXitDcFgXAZYW3NEEKXm/VJEnOVfCabMPFgjAj8ZRAfWI4MwY3kRhN27FBABoTZ/vwy0ZSBvD8rDe7BGBHDX1brFPp3IWYv/WB8M9kbNSFnafUm/KDLKXAXUPYfOYCBrMco26m+XF1plCzMxcO6/guekaAceua1BX+7Zw0Dld1BtvF8E8+Z68sKR23BvytJt9GA71yhTOZgCYmmeCJav/0GV2eAcfDFQZjIoNi/biN6yzaYcdxU0B8pcf0+4c6UF6qpeBIPpTJRvlBddattYikeNbYvg+7tlvmAdE3Vh3kYjx30Qz7zYiMuZxvvFMY5BoC5/5Vua70WzJVCX+vDOa3V421eKLWF+BSSiycP5wXpmJVYuzoC3WW9VJxot2Xq1ZaEfb9e9jneuqYmJuLwbZ/9yUHs5cvoc/NnTTcG6bI03AuyDGLgwDNeMIm1sbD2LjZWZuLJ7dC2kPU9uRMN+NYIXcPLcILJvs+539sLPRwnoMjF/XTC4N/vGz3dj92778Hv8cJ16w6jNwdayTFw+GgwG3zz4lhYALtECPPG/bFm9oFq7ezpxXpyY3BkqQPPMwYLMQZxvUZdDpztwWRxHzkx9NDq5bnEBEWhJFwHd0U5MK5oz9jeRimC+sc1U3hs/j/lZl9BovkCSQf6jj+uv9/8XLvkyZYaFpuzO+ZZ60vNkA64Egv9v4Gch50oMdT/EXdq7o7t7/VLMG2zG85bWcKvgxdIg3mwbxLTp6ucceT5gXlaU78lBzCueo48uWYryTHOZh3e3EajbLhKsF2Jq29r5EhcBq+Zg+GRzMPA/3Yj6jkwsKDUuJMSFo7jYQ9lSPCmPUVwApjRQF9xFs5HRfRkX1LjdhX112HPOhTW127B6hppIRJOKw4P1YlRUlwJn6tHUrSYRjUox5uWrl+Nl+u2pv2HUbuMcZIsA5NpFNZ4oS28x7ZZUGunko3pr+yNq/te+pWZoHse/a623T4TtbeZ336tBTY19+Dp+cki9ISmDuH5VvQzhk+nUwWDPHpz3DKJXBGqBgExE9vNEUHY6niDMk4lcebEQ6C1GDOIcjJeT710KXDx51i0GjvzvmBdp2bNkcP8IPCLQK6gJnuunzOlN+B2+H3KuxFD7E7yl3hHNvOmiLEebwz4zB9Myl+K7pjI1p6XcPUME9bFywcXy5eICbbitM+Y+aLnlJr3XIl9gaHrO4vmTWSiXLfCpSHeyKMbKhUDLu5FCdbMMlC5n+zrRZOTgYF3eRLoWeZ2NOHCW2XqUrAt4o26cW6j631c56mNof2cSvbw8i689XiUCvmCaywtH7IHLC2i4T6VjiMA8WwR7loDdSN0w0ipMAfvYtaxL9pbwLOQE4rtBdF0X/82V3eqJ4O8rMuXlLVM+ux7MTyuTXe3pwfbl/fGlwOjMqTlqCGnNHSO/OaFaw2UKDHDpUOy0o4EPgu+R9zIY51oflqlfVpJrWdduOE2GzCO3l6kKjO3BdVhyea0F3Jw+E54W/JsuLAK/uGgyMTtHvTTIVJmiK6gXAfvWVHfDWTIPef4uXIzyS1/wF8E61O2LJ6gnoonGocF6MFCvP8wPJ0qdvqOvo+6wH6VfrsWmEjUx1Wb9GPMrpqG35UU1QQikzKxH7mPGjawmPf3wZy9E9iw1HrfHcaYtEyv+++hzjwPB3MZXsN3Wsm4R48Kg54MP1Std0i3rWgu4kdpi1ikzVzBvVTBwMtIw6mXruGcRvihTVUyBn+VmRZlWIW8aNM2PO7VBS6mZg601Y9iafvFDW2662ePYfwTifH8H8681mFKYQnme+Q5WZF3CGe3+BT3FqaAmUl/7ybWsv9lyBcPi4mhUfanLNKRAXngYseYbZJeblpzzcFQKlZYipVJiypYGuwdVKTd/DdQXlad+9CxelqlW5nz3pMXurlEG6muyWrCn7o2IaTJENPE5sjcYrfeXxaE9q3sbX9LSYcLPH0LLOPYKMxl7ZJFu1LaT3e8QsuvGL2ej2fgSlD22bLbnmMs8dL1XGNkbzJ0z3sDRV1QALgLyRdoNpTJP3dyTjC7YU4wu84EGUy8yu4HNqjcYW48zd4ogX5dYbzBlz7fjXtPuG73B2HuJ0QV7AbH3DnL8yG1YIW9Q1PKebT3BCJbeRWw9wcjg5/izRkttiqjeN3TReoORwXmwddw6TxfsYUTdsGgrFuPGQXvvIDrz+kOXD+29JDlRe21RvcYM2Hv8CTkfob29hNSHkN5/kmDvYSfQ64peXjlHgxdFWhlPbzb1omPtDUay3shpnx88H/beYIzzp5+TrBjrtZ9vcx1T2zT39qPqY0rOt/0zyE72WjX3MlvTiSg9um50oskYMEs3atvJ7vfYMnXFaAq+6QYJ1+WiNq0A52UgNlMEXKuuW29E1IIwWAJ+x4rUDacM1r/4YeqCbxpT4btrJCIK5eCcdSKiUZA3LKqXhrtLC8Q0/eE1Ws6yzYPyZtS0eCjTI6j+7/I+g9g3lpKzyV5eGKgTUTwYrBPRxKJ1v2ftsUXvS1tvNde6eYS195HwXf45iXx4lezB5QmsuLYrRf3ZExFROmAazChNxlQU6UZtO9n9JiIiIkpHbFknIiIiInIoButERERERA7FYJ2IiIiIyKEYrBMRERERORSDdSIiIiIih2KwTqSRDzZqwCpteB25CT32Xy6b6DIm8mmogW3/GvZnZ8at9mfYvXu3GH6Gb6hJQXfhh3Vy3m78/vG71LQb6Rv4mdiXn9Wq0USt+yF+rx3r7/HDdWqayV2P/14vi7ofiiNPknyS5PbVcKtR+aRZ/VyJ4YGH1dQ4ySflPvZjTFGjiZJPwjW2vehL69VUIiKayBwbrOdVPYStO9RQXYkMNV3nRnG1aX5VsZpONFov4srT1Tj69G70qinj5oMf4azc9m+PYfQdpIrg995CtP+5BjU138fv1FTDXY8/guV4F/9aU4OvP/uWmhoPPcgfdVA9Vg79BF8Xx1Lz5w+x/MHQgPytZ78uyqEGe/qX45GkLk7cWL00D97md2A8vmbkL9tEPanGe03Dasr4GXxF1tFqtDj/6U1ERJQizgzW86tRgUbU73pJDPVoQSk2mALyjEUbMPv9ejW/Ed45a7FhkdHuRRSHGauxrXYT0uIyT7bs3hNjT9fNxm1ox+k6NW4zb+Y0DLe+iUTC9LRQdxrtmTmYp0btfnemHdNmRpqrRKsLM+7AbPEJdKxVjTuauLDYvg2rZ6hRIiKaEJwZrHc3oP7wBTXSB+/7Q0CWO9C6PnT2NRw4a7RzXUBnpwjgxXyiuMjg98ul8B9+Q9Se+FnSH8KlvXhM6Sz2VAeZ/hBt2Whaj6Ela40lFWM8fOPnMs3kf2J5JlB4r55CE5JGE0i90Qd7C3wgHSXC/AAjrSUVaSuJiFEXipeXAu9fDLSqx8ecUiWGMKky5rpkT2ex1rNE0qL68E6zH6VfrsWmEjWJiIjSHnPWaVJxr9qG2ioXWv5UhzcSaS2d9WPk4TktBUFPgQAKaswB+TQUbJ6OTm3+T3EFKzHfCMJkTvpmD678Vl/26N4eFHwzwSDstTq87SvFlnH8NeB335MpNf+Kdweh0mv0IZhG8w38bPHpwPSaP7eLoN6ULy8C8EdWfog9xnwxfD9cy78M1P/Hcnwot1H7k3Fr/Y9ZF2asxtJ8L5qPJhaqZz5wJ/pVPdHSqubVoGC5millr0TpjDf0+b89BlR8O3jxJi7q7qzoQYta/r0mD0oTyXFvfQN1f2qBq6oW21axAYOIaCJwfrCeWYmVizPgbT6CITXJQqbMzBlCy5lE2khpMiq+pxZbFvrxdt3reOeamhivD36EK385qEaAkdPn4M+ebgqihkUw/h2IuFY4iIELw3AVr9fmT1myEGh6Dr0faDOBd3fjykARppsDuDhc2FeHPedcWFMbJtVhXg6mDV5H+FTmuzB7OvBhb6rD4N/h+98zZcfLlBTchtmWGz4LsSRavntuMFAPG8jHdBnXB6Ns4/J1DBcsCbnhNp664C6ajYzuywn9+iINvmLUA+lF9IuTMm2mqfV84Bjee+VF/fUHB3FtYBpmLNHnZ5YWoXdvcPmRv7yB3uyFyE7kl5hr7+D1urfhX7gldvoUERE5nsOD9WJUVJcCZ+rR1K0mmYlAfsPaPHgbX8OF4LcjURjFmJevXo7KeuQ+ZqQmiOGbK+FSc8IZudqjXolgfcY0uCp+YEpt+AEKstXMUclA6XIVhBnpI7KFO0yrtJ7K8gjw8miD4ej09RvDFhGam8ibQLXWdjU/TIpL4crlmBYl1z62t/CT2n/F9bvlNsL0giP34X9dxxfk9n9uzI2nLhRjpbjGanl3FI0AlpSnBpRGTZk/iI/61UtRx6aKi6rczcFlVz1Vg1w1d1TylzKHnYgozTk4WBeB+o61yOtsNOWnm8hAPVogT2RxAW/URWmZjiHzARFg4xjeM9IbYvTcMmWmB+h/HyNq3N/0U5UWERyuvKtmxinYGlyHun0qiDR6RTmzJGwwrKeyvAA8mPoeXWQ++paCdlOayx4RdtvUfT+QAiN7Zvmftn2U6TV7rhRiy6hz1WUXkPrFSLhecLSc+geBF+Q+BH4FiKMulMxDnr8LFxP9BUZLeZKt48HzHL3nFj1AH74a/NXGvKw+bAv+KhMP7YbZNXCd24O60fyKREREjuLQYD0YqAdvNDUxBephA3miCPqOvo66w6O8CS8QfK9Hbk20lvWHkVcxDb0teqrDYEsbXOa85FGQgfqarBbsqYtwU6xM94jYK8pb6OoHbssdTTisL1u4OLTndo0p9eYbP7e1rNtcvhq+q8Pffe9f8S5EIB9o+U7Uh+g6pF6G098VNg8+cl0I7a4xMcP4yPhhZfmvo7esL69BQXYb+rULNz19KndzEn3ty0Bdu2G2Dq8nmGtPRETOdJPH4/lMvY7I7XbD7x99D9CJyli0HRsWW3tWl7yNL2mt6LIP9oo5amLAEFoaxi8dprCwEO3tIe2IcUlmWWkybjvZ/Q6hBTXZaDaCX5m6sLlImxUk89BVq6ZsMTWlvvQ2HcO0CnlDqcwvlr1/WNMVZOuopeU8ZP1taNGW1Xv/uFME91bB+VqPJXMvB1vTw9Fu0szB38K1LgsyXeULV/81wT7WDbL1OhiIDx8z1mOf/i4+XFmC6//r6/iJCJ5ly/v/XGk+LtkKb+yfviwCuerGuszviYdcbglOR1pGtqzLFCFzbr2dvS7Yxy1kOlSYNKbLu3FU5aHLBxcFAvSBY7jSvxIzrv0UZ+U9D1HqgSGkPsgc91/9SFwohtYzSf5qo61b67pxvYj52ZpORDSRODJYTweTMWCWbtS2k93vCW9Mg3UnS0GwbiN/xVjq28OWaSIicgSH32BKRHE51IUPQ3piCZIpKDEfDpSOapegMGIvOCKUX1yI4atRk8ZDyF53GKgTEZFTMFgnmhB+h+/LR+//j/C9orz17At4d/oWrVcWy0ON0pXRC869hWh/M7QXHONhTPIG2L9NuF8TiIhoMmEazChNxlQU6UZtO9n9JiIiIkpHbFknIiIiInIoButERERERA7FYJ2IiIiIyKEYrBMRERERORSDdSIiIiIih2KwTiTJJ0s+9mNMUaOTheeZU3jqb+368PyzaqoTZOLJh+/Hf9bIRxXPwc//+X78x/ooD+Ffshb/+fAi3K1G05fpWD2L8B/i9c+XqFkJeQTVf2zH176lRuMQV13Y+AoeS7iu6Pvy2DOPqPEw5Hr/+Ao8ajQxiZSZXq/iLlO1vv/UhrV4UE1Ob3oZRP17Mrl7/Wb1d2ilTY9Q1g/WRClj+bf6z5vxpDjZ+jrGrlzlA862rXKrMfkE4NeRO0uNEqURxwbreVUPYesONVRXIkNN1+RXB+fJoapYzSC6UeRj6BtQsFyN2s36MRY99WvxNeksPU8uw9NfKMQLR8wPvKd0D/7Lnn8CK67twr//Rk2Iww2tC/sfQOO1KjziqAtGoecsvvqLV/FPf2jGsJqUmAQvDgxaQGtcJJiHcb5gEPvx3TIf6nd3qgnxefntZuRu1APyG2bGaizN96I5hQ84y3ygAYu+tF6N2cX4DiBKgjODdRGMV6AR9bteEkM9WlCKDeaAvLtBzVPzs9ZiwyLj6pkoDuKDfFvtJvAyz6kG0XUdGO73idc+XBfxY++1yXBBYTrWnkH0inK4flXNite39uPeokv486OPqwkpJILqX4mA/ukxWPfJR3fi+IwdCf0aoEtBmTnN6Ub8k7xI+MVenBCHNXxyrxpvxMvqLWNvDn6+cQ4u7w+/zTcP6vv0vdNqgpm8yNnvQ/m9YS54r14XFz4+dPWIdVwTf9+WJxC7sXr7NqyeoUZjsLacW7mLZgPnjuGCGk9rJZtQew+/rSaztHgoUsai7dhwexcONBzBkJpmJlvhS331OHB2/B4RPhkfTCTdqG0nu98W8oOvKg/ew3V4o1VNk2kwa/rRcmEhSiumaZP8TT/F2b8c1F5P+dLruHPGGzj6yovauNZS/s3p6Hz6O8ADDSgN8yR/ffkiFDxVg1w1LWgYV367Db0f6GOyxSa4DvM82VrzbWD3G5j6TWM9bWgR2xXf4XF6Fl/72w4UqDH4DuOF+x6A+K4MkCkQj9zWECYIsy3btsv6HhEYPlUzX40AA0d24ldPvqDG1Horg78nXNldmFBrbzTyJ/Tvlpl+qxhsxi9fPIs3tRHZorkZ5cbsDhH8WFoHZerEWgSK3FhWpj18ZSn0GmDWiXoVKMmf+L/YvxfP467A9i/vNwUt9nUEtq3v04K2vfjqQePshZuWDJly8gRm/DVSOY++LpQ93y4uAvTX9vOsi7RufZ/mnzOWMd4nLii+sBEn9XfrZH364och+5Qc27kWLOdLtmKLoFQ3iBN/2Itn7BvXzmkO/hoSLEeuZ7KebJ2rvbSQgbdxrq11OFjHgqLVD9tx2eu45bjM27Wv01iPdfvavk1vtv3dSObtRigvjb6dnKMRAvpIwn0+h5BB/RaUogV7XnsHod/8xdhUuxQDf3od71xTk7Q0mE34aO85zNi8Ei45aeAY3vvVjzAiX6vvgMC48X7xWTywRHz+q+8Fi8u7te8E6+d3UMh3iGkdvXurceVd/bWcNx/PoXPGDwLrMc+Pfbw00U2AnPVizJkzhK5OVl+Kzb1qm/gicKHlT2G+CLJXonSGCMifrsbR3x4DKr4dV37j4Cvi/U//FFcG9A9YbXkx6B/SL+KKWp9fC7KN+cFAXX5Ql04XXxpq3ntNQME3zSkz08S4/NKQ8+V2ijAn4k+xdnpglC2CK5nioA0JBEJlz5fjjLHcF3bhSpG55VOsu+Y2HH/WmF9oDeA2voLtlR+KgCw4P1WBeuDnea21UQz7rQHFgzUigLpuap3MWWvJ0X2wZi1yA62VYjCCfCPtQa5PBvDGfFsQNa1MBTJi3i9PDmLeKqMFUQQyIlDvFcGgsdzluca2B/Fm2yCmFc0JtjZ65mBB5iDOt6QiUBc2fh7zsy7hTJRAfbR14eSj+jJ/blMTLOJdt/l9tkBd+s0JXMlajLKNajxpMmA0n2u9pTpABuEbs0TAqc6XbA3+SvypJtHq2cu7g9uTFwf6e14NBt22OvzLk1nYmkDq1YM1c3FaLWvUs2C6jaiH5uMSQ2iwL+mBt14+5jqeibuLMnH5gj1QlzrxPWObakp4en2fVxya7x5V6xuo+1MLXFWRWs1lIC4CV9/bqIsQuLpXLUVed7MpUDeIz9LNspFFfZZiJebH8Vk68pdt2mdzizhgGYAbn/FG40307wBBXAjcWdET/Pzf24bczdb8eVfFDzDnmr7u95qGkbvGfA9VH955rQ5v+0qxhb8IT0rOD9YzK7FycQa8zdZWddnaruesr0Ve5ylcSNF3HU1c8ifTLQv9eLvO3NpiIltZjJbzDw7i2sA0zFgSb1A8Wg8jr2Iaet82WnPkF8NzWkA+3ZT72LvXCO4PYuDCMFwzVBNnDJ5nqlHgO4zXQlpB43PyUXNA9TjOiEAte5b5RsFMzF8X5cZBzMficGkN636I3+/ejd324effUG+IRgRgqyL/PC8DkCVzO015toN45minNUgW7OMJkYG8Wv+bLVcwnJmjtTTevX4p5ol59YGWRBHYiMDf2NabB5txObMAd6tc3rtLCzCtozlCy+Qo3HEbsn0fwqtGzZKtC9HEt+7PBwL10FZ5Qxuu+TIx4w41Ktz1+O9D64kYflar3hDNkqUoRzOeDxuo6uWPk28Fy/90swiuRf2JK8c8vnoWyYMiiDXXYXvdiOXl3eb634nTHUDujOAFqfw7WVBqHrcLBuqhgXwWcsRFZLLpRFqaS44I/NV43K69g9fr3oZ/4RZr+oeWvrgGrnN7ULcvUoKLG3fcLmKGjnDz5a+Wxq+S6rO0eP0YdyywXgTeRSLI3622K7z7HRH4275fLu8OBPcjp8/Bnz09ZL8u7KvDnnMurKmNP1WIJgaHB+vFqKguBc7Uo6lbTVKGzr4WyFs/4FsWehMqkUUx5uWrl3E5iI/61csxN4yPUhWs2eTdJr6sr3WOPqVApiUYPYSIwUiD0D2Of3/2MFD5hJq/H2VqjkbmN+++hIIatby5t49DP8HXa2pQYx++9zv1hiR4MpErApGt5hvzTOkA0su79+IEluK7an6iNwAOt3WqdBtBa403BU7XB4PzQsigygiiZOslcOLtcK2Xo+OZdZt6FSrpuhBFPOvOrqxCgQhXLh2KFtC/gB5xIW2+IHzr2a+H1hMxfL9OvSEJ86Znar+SBG/gNKW0xBJHPYssE7NzxPY3mpY1p7TEQ6a5mLZtTbkRF4l/aAYCxxb6a8G0MnFhKc5H2F91tGNLAZmfri5kRy1/aSAwlXnoMb/nS1Zq6SLHIqbQBI1cHaMP3jCGr6pW9pTIQOlytq9PJg4O1kWgrrWaN8bMRR/q7MJQZraeg0YU1gW8UZdIq8R6TJ2e6g/YSKZhqqU1rQhTs9XLJHk/DN+iGBfZnV7NfC3P3EhtCEmBMG44FMMLR27DvfaA/Tcbg8vK3j6MgD2plvV4yPzbYAqANgTy2aVBPPOimi6CmlwRNCXcY0cktpbEu2dkqVe6ly+o1leZAoMreDOF8ULPBx+qV6GSqgsxxLNumef+whFgxeO2OmLxCDzib3Pgg2BAn1TLehyCN28Gh/hzrGPVs+jM6TH6ECn/20ZL35Et88Fl6zvUPIOR0iUGLcXGFrDL4/7lSYRP+9Fu1E2BmTmYZrmBNE7mFnTTL6F9R18X42Fa3E2K5+Zh6P2LceV1T5kpPo363w/8qjmWps00/0qrf78kKvjrcF2UXxZoInJosB4M1OsPx66QeYtLkdHZFvanXyIz7cP+sB+lX67FphI1MZzlNSjIbkN/4AYfYfrt6mfJh1HwTXWDUoDeEp9b+rAat/ngfQyLINyc2qJ7Ef3im8ycnzjlS5uQO3AMXvO2R6nn0BkMWPLMEzWIaxfVS62XEfU6jGiBomQJ6JJqWdd7ignkwqrAJaCnE+cH52BrmL6hwwoXmGgtgvGnJBj0lJil2GrKHd5alonLR00BnEy1wFI8em8Bes3TU+HihxjIug15atQs+boQWbzrlt1D/rltPu6N2Kd6EWZkmeqckFTLuu08ajnmppZz7cKp7K7RdTEYVz2z1dUAlc+9MZmuGE1pKkvWhr2Z1aClo4Qhe3Sp7xDHEJIrL3vYyUTOTDU6StqFatRfmsKQgfqXS+E/XIfXw3a7KBte9qAlaw1qt6+GJas9oe4aVQpii0p9lAKpJ/LG/tCOAUauRUubifQdoNJtKmoQqHrq+6XTyGmPgwzU12S1YE/dGxOjhxtKiCN7g9F6f1kc+mOXt/ElLR0mZH6cQX0qTcYeWaQbte1k9zuE9oWQjWbjg0/2BLDZHInae1yRH94/EB+w8vUwrmg9Cui9wQTfI3sPCH7Am3sC0Fi2Ea03GPO29e1Ofdvac4ClZ5pYZAv541UINNbbeulYYW34tfT4Yu4BRC53/FoV5n+oco5tPcHI4OH4s8vQsF8fs/cEg3C9f4yanm+rF1kn6v9wHV+8F3g+Um8wQrA3DPOyOnMPHYZIPXUYvcGEv2FPsPUGE3nd8ubCSHn3o2XvecVm1HVBvzE00NOLYukVJsa6g/tkbMtaXzRj0BuM+TzKc/HX6Zux5EKk3mCk4Lm21gFDcH70emaw1jfz/JD1W3o0kvT1h+sNxtLbjFjuxPWlWGDUy5BjMvfaYl+ncQzWnl20fSu6YtsfIWTdUrheYfT1JtYbjOz1ZL2IbyPcV2QjA9ilvj2BoF52ILAlqzlCq7P181my9rgi9tj0Ody7dzewWe8Nxvictn4PCKo3mKDI3wHW3mCsn/8hn+mm3sa0sy57yJl7ma3pk1hadN3oRJMxYJZu1LaT3W8iJ9ECobDd4qWAdhGFFF4YjRc9iI/c7SSNL/0iA+ZuLhMhg/pV10OD/TETrrtGoonBwTnrREQTkGcRHi1L7Y2lFr/ZqKeaOO1poDGM5qmrNJb0noxGlapjdIn55/EK1CWZHsNAnSYmButERONBBjCyZw6tH/Y4byQcpdE/DfQG2fgK1s44jBdCHspFN9TpRv3m1Hjv/1AeXDP2dZxoMmEazChNxlQU6UZtO9n9JiIiIkpHbFknIiIiInIoBuuUFtiqTkRERJMRg3UiIiIiIodisE5ERERE5FAM1omIiIiIHIrBOk1Y8ul221ZZHkZtIp9E14AC2+P/5ZPkVj0VOp2IiIjoRnBssJ5X9RC27lBDdSUy1HQrN4qr5Xu2o9j+RGia3GasxtJ8L5rVY6iJiIiI0pEzg/X8alSgEfW7XhJDPVpQig1VxWpmUMaiDSj1eeFV4zS5uFdtQ+09ofVCchfNBs4dwwU1Hq+Rv2zD0aerceVdNSFeJZsi7gsRERHRaDkzWO9uQP1hI8zqg/f9ISDLbW1dz6zEysVAy5k2NYEmE5nismWhH2/vCxeOF2PlQqCrzd6q/jAKnmrQ0lxWPfUDFGSryRrzvNeRO0tN1ujzrKkxtmmtx9CStQa121cjUuINERERUaLSNGfdjeI1pcCZA7gwqCbRJOHG6u21WJPVgj11b4RtOXevWoq87ma8c01N0Mgc9RpMa/qp1nJ+9Omf4sqAmqV5EVe06bvRq6YEvYj+y0Bu6cNqXJh1O6ahDf2BFvg+vPNaHd72lWJL7SZxuUBERESUPOcH61oLega8zUcwpCYhvwKlaMGxs8xHnlyKsal2C0p9b6PutXdEeByOG3fcLupLhy2MX16DAhzDpb8cVBMSM3jwGPzz7oRxa8SUJQuBpt2wXyte2FeHPedcWFO7DatnqIlEREREo+TwYL0YFdWyBb0eTd1qkpy21oWWt03BO00OJfOQp15GVLJSv5BrVeOp8sFBXBsownQt7WU9souBa6ejBf4ZKF3O9nUiIiJKjoODdRGU71iLvM5GHDC3oOcXiYBNBEJaLzByEO8xxsPchEoTSOsbqKvbEzU3vHhuHobevxih1T0ZBzFwYVhPhZm1HjNwDgMfqFkmgVz6ujrUhc2nJyIiIoqfQ4P1YKAevNFUkTefar3EGEMjvBhCS4N4bX8vTUBRcsOjddfY0w9/9kJkqxtHMx+w32Aa28jpc/BPvx2ZSxZi+O0fYURNN8hAPVouPREREVGiHBmsZyxapqc7zFkb7GtdDBX52myiYG64qbtE2V1jRvfl8IHyBz/CpSag4Jt6jy9zrv0ULZfVPGn5r1VPMDXIxTT1PluvMGIdnf0rUVrRY7qxVCnZhDWIlktPRERElLibPB7PZ+p1RG63G36/X42RVFhYiPb2djWWmGSWlSbrtqOTN58uxcCfXrf1AkNERESUvpzfGwxRXC7gjToG6kRERDSxMFgnIiIiInIoButERERERA7FYJ2IiIiIyKEYrBMRERERORSDdSIiIiIih2KwTkRERETkUAzWiYiIiIgcisE6TTAPo0A+ifSxH2OKmpLuPM+cwlN/a9eH559VU50gE08+fD/+s2aOeD0HP//n+/Ef6zP1WaPwYE3o8nev34z/FOv9+RI1IV5L1orlNuNJj7GOtXhQzRprZc+rcyWGx555RE0dD6k9HxOKZxH+Q5SHXjZOYTpHav8SrucBbqzeXotNJWqUiCYUxwbreVUPYesONVRXIkNN12RWYoMxzxiqgo+dJxp/65H7WAMKlqvRFOp5chme/kIhXjgyqKaQRgbkDy/C3WrUKU4+Wqidrz+3qQkOIS+G5IVPcBi/CxgaYyUrUYoWHGtV40Q0oTgzWM+vRgUaUb/rJTHUi4+gUmywB+ODLTigzVfD4QtqBk0W7lXbUHuP/SLtRVx5uhpHf/UjjKgpNFYG0XUdGO73idc+XBfXEr3XUntB8ebBvfinX7yK751WE+J19TqGxT519Yh1XBP7N3gdl9WsiSuO89HRqJWnHOo75mCro1qax1DPWXxVHvfuTjXBCUznqGcQveL8Xb+qZiWoeG4evM3voE+N6y3t27B6hholorR2k8fj+Uy9jsjtdsPv96ux8ZexaDs23N6FAw1HMCQnyJb1NcAxY/wGKCwsRHt7uxpLTDLLSpN122bF99RiTb4Xb9e9AeMybcqXXsedFdP0kcu7cfSVF/XXGpkecyf6f9uPOd9cCZecNHAM7xlB/fJfY1Xpe3jv2qbAOvxNP8XZvxzUXmvrnvFGcJ2zfoxF35yOzqe/AzzQgNJ5+mQz8/KxPYuv/W0HCtQYfIfxwn0PQMSaATId5pHbGvD0o4+rKQbbsm27LO/RlqsMpkNc2V2If/+NGsEjqP7jE1iRpUZxCX/+wkacVGPJkiko3y0ztt2J+l804mU1pqdtbEa5KVNj+ORefPWgDDBlisBa6MU6iBN/2ItnjMKQKQNfWQp1pk3s6x8NvTzmn9uJXz35QoRptjILc64kmQ6z9kPzeoRv7cdTX/zQ9H557qpx7dllaNivTbCdr9SdD9myvhUiWDcCVvnLxKrr+OWLZ/GmOhc5R4MXRtq5m96svV97XXRFvdc03zYtMtu5HmyOcznBsp+SrBtLcV3VCbkfj+It/HX6Zmydq70Bl/cHj0M7bjU9WL/M7PXQWo/My9vropz3xf69eB53Bep5cNtyP+fi9B+u44tGfU3kuOM1YzW2fTkbzabPQk3JJtRWiSD+cB3eYIs7UVpjzjqlGT03c01WC/bYvpxG/rINR5+uxntNw2qKXRFKtQC7WrxvN3qzVyLPnLYyr0YPyOX83x4DKr6N3FlqXhSDr8j1/RRXBoDevfK1PiQaqGcf2amlT2hDmOAvkrLny3HGWO4Lu3ClaAe+9i01c+Mr2F75oQj4jPnmQF0Ght/BimsiuA/MT12gLoOs75b5ROCjt+T+8mQWtprSVh6sEQHSdXNLr5qh6cT3tOmNoS3iRivpfhF0yuBHLS/fm1ygLr2Ak+cGkb3w8/CoKbLezMgaxKVDetDteeb/Bv7NKK+dOI4qbE9VbroI5h8xna8XjtyGe//4imlfUufB4jkYbuuMK3B8s+UKhjMLcHdgRzJxd1Fm3MvfvX4p8GfjPO3FCSzFoynMp59WtlkLmvV6Noh5q4L17OXd+nat9cugAnVTPTTXI3khsDUnWMd+Kf44yr9iTR+S29YuarT51m3LgH3rV3LwV7Xey5lLsXXUeenhFS8vBc4dswbqUusbqPtTC1xVtdi2yq0mElE6cn6wnlmJlYsz4G22taJnlpry1quRpybTRFaMTbVbUOp7G3WvmX/yjdcwrvz2O9Db1V5Ev4gCp81cr41pZEu70XL+wUFcG5iGqWMRJdl4nqlGge8wXjO3wCbg5KPmAPtxnGkDsmeZg8f5WGwE7+EUlaNMvbRY90P8fvdu7LYPP/+GekN0Mhi8vD8Y+Lx5sFkEKyrg8yzCF+d2ot5RaQm6nicbcCVrMco2qgnfKkdBW0Og5bvnyY2B14Hg/rYiNZ6csjvn48ru4Pm07ss38LNw56Puh7hLe3cc5sobb/WcdRmEPh/SyhyBuED6a0cmFpSqANszBwsyO/HXOJd/82Bj8JcR8Rf4Ztsgpk0P/JyTvI7GQIu5fmGRo36ViWHJUpSL4whfD0WgXZaJy0eDLeFvHnwLJwbnYIk54JYXjGr50G3Llnjjb6ATp8UFQ+6M1F2kyM/EeflD6GqL8Gl47R28Xvc2/Au3hEkZJKJ04fBgvRgV1aXAmXo0datJ0uARS776gTMuVDBgn/hK5o37ObYE82Mk7zbx5X2tM+6W9BAytcLoLUYM95rjxv0P4Fe7L6GgRs23tdLKm1f/3DYf96plLb2XHPoJvl5Tgxr78L3fqTdEk4nZOcC8jdYbGuMKoG44ecGTifnr9LLQAuj3TKlHG1/BY6q85GBOMUrOI/DMQPBcaYMpvQm/w/fDnY/an+At9Y6YTDnrv2wrwHcTuMn05QudmFY0R2s1vrtU7NXJ5vh/yTB6Y1FDMDXqxrp7hrhgiHo/Q+w8csuvC9qvPqn4hSc+7lVLkdfdjHeuqQnR5C9lDjtRmnJwsC4C9R1rkdfZiANno7ehDnV23bDcdRpH8mfduj1oyVqD2u2rMR4/7A5fjTeVZfS8H8bZuhmODBxrZGuskZYRpheS32wMzrtWhUdsAbvRe4lMoRmofCIYsCfZsi7J/F0jONQHU+65g51875JKhXkWi4su4UwgdehZfO3xKsCUspTqXnrM51IfjHz2FLSsm2i/dCALs+P99eh0h/plRKbAAOdb4j3uOfj5V5aKQtXTVLQLhZOpLbPR0m4+jioTOTPVS00WcpxxnSG4ccftGfB2ROlcQeaz166B69we8dn5enxBPRE5jkOD9WCgHruXFzeK15Qio7MNXjWFJrI+vPNaHd72lWJL7SZRU8bGlC99GwXZbeh/V02Qpt+u+m5/GAXGTaoBB/FRP5Bb+rAaj1/PoTMYMOeZJ2wQ1y6ql9/ab21Zt4l+YdAGS+ySVMu6nuowb2OEllut94tgOoGWGxy4iS9OsscXSx51Cv3mBK5k3Ya8b5Uj+8j/DsnjH/hApSxp9wQkGL3J9Wov5I2q5pZzPaWmoGZ/+LSkVLSsm8g88nmDV/Cm6eIpkKKh3W9gP65O1Muc7XvvwoLrzQlfdAV6pvEswqOJtqwHUktkjnkKf6HRLkAi5c/raSvmHHS9zJpRn2jvRGMhVneN2o2npfAfrsPrRxNPGiQi53BkbzBa7y+LLT2ra7yNL2npMPb5Q2fqY7a+p9pk7ZHlRm7bTnbduCWrGXX75AWd7Of8ByLA1ucFBHqFkb3BbMJHv92G3g/0WZkPNGDONdVji+wNZrM5ym1Dy9NGfrtkXv8wruw9hxmb9d5ggu+R26hBrhpLqDcY2UL+eBUCux/oYcTeW4ti6vFF9joSCNDFcsevVWG+6oXE3hOMtXeRMOu29SSTLK3HEHNgZu4NQ/bysVF1HdjRiF/2i6BJhJ1a7rF5XoCtVxjBuv5U9AYTpJcdcNzUU4tk763l+JHbsCLQS4+tZx5l4EiwVxjz+bqyexdQE603GCFCbzOJsvZqItnKy9zLjgxI2wqwVfUGE6De02vqbSUe9vN04mQWyu3rjsK87/I+CGy09gZj9Fqj0fZR3tQpj83cq1CQtVcY+3us5WItt9B58sbW0B5mJGuvNVL09ydG9oi11LcnQiAub8RfDxxkazrRRJAWXTc60WQNmG/ktseUDNbX9Ae7ciSiUJZAmG6YSN01EtGE5PzeYIiIyAEy8eS9Mvc8gRtLaWxovbwwUCeaLBisExFRFDJPXPbiovdHnooUDiIiih+DdSLp3e/gKFNgiMIYxDMvqt584swxJyKi1GGwTkRERETkUAzWadw49uZSIiIiIodisE5ERERE5FAM1omIiIiIHIrBOhERERGRQzFYJweTT+GrxaYSNao9IbQBq7ThdeTOUpMt1Hse+zGmqClERERE6cqxwXpe1UPYukMN1ZXIUNPNLO+pKlZTacIoWYlStOBYqxrHi7jydDWOPr0bvWoKERER0UTmzGA9vxoVaET9rpfEUC/CtVJssATjbhRXP2R6jxgO81lu6acYm2q3YfUMNWpTPDcP3uZ30KfG46MC+jB9prtXbcO2VW41RkREROR8zgzWuxtMwXcfvO8PAVnuYOt6fgVKfSJQZ4CevmasxrbaNXCdO4h3rqlpZmL+0nwvLgda1WOb8qXXVYqMGB54WE0N6jvaDP/CLai9h7/CEBERUXpIy5z1vLl5GPK5UWGkwIihIl/NJOcr2YTaL5fCf7gOrx8N325evLwUOHcMiVyOjfxlG44+XY33mobVFLsLeKNuD1qy1qB2+2qwjZ2IiIiczvnBemYlVi7OgLf5CIa0CW5kZAEZi7PRaaTANHqRt3Y7ijO1N5CDyVSU2ioXWv5UhzcitpoXY17+ELraEkuAiU8f3nmtDm/7SrGldpPYEhEREZFzOTxYL0ZFdSlwph5N3WqS4m1sgFe9RncTWgYzkB3uLlRyEDfuuD32SXKvWoq87ubw6TEplYelzGEnIiIiB3NwsC4C9R1rkdfZiANnzS2sfRjyAa5sBlnpR2/VrjvsR+mXzV0ymukBvbdjrO5H0LuDXJPVgj11kdNwiIiIiJzAocF6MFAPdxOpt8OLjMUVyFPj2g2nmV502lrfyaFa30Ddn1rgqqoN7Z0lpLvGVJKB+haU+t5G3WuJ9jJDRERENP5u8ng8n6nXEbndbvj9fjU29jIWbceGxaHpEt7GlwLpMNb3eNG0y5QWMw4KCwvR3t6uxhKTzLJSum47lOy6cSkG/vR6IOWl+J5aLPXtCd/ivfzXWLW5SI0YhnHlt9vQ+8F65D72AxRkq8mGy7tx9JUXtZcyX349DrI1nYiIiNKGI4P1dMBgfQzI7hy/nI3mujcS6gWGiIiIaKJKy64baYK69g5eZ6BOREREFMBgnYiIiIjIoRisExERERE5FIN1IiIiIiKHYrBORERERORQDNaJiIiIiByKwToRERERkUMxWCciIiIicigG6+RAmSh/ogLlZWqUiIiIaJJybLCeV/UQtu5QQ3UlMtR0wI3iatO8wLAdxZnqLUREREREE4Azg/X8alSgEfW7XhJDPVpQig1VxWpmHy40yOmmodErpvsxNKi/g9KFbEFfiPl5apSIiIiILJwZrHc3oP6w8dD5PnjfHwKy3KbWdau8uXkYOtMEGbJTmsjLxbonFsB1vA2Xwp44P3w96iURERHRJJX+OeuZlSid40XL2T41gRyvbC42186Fv6EJh/aNqIlmI/D51EsiIiKiScz5wboIxlcuzoC3+QiG1CSzvMWlAFvV04brnoXYXD0NrXVNOHFSTSQiIiKisBwerBejoloG4/Vo6laTzLRW9SF0dbJVPT1MgecOl3o9Op77K7D5ieCw7p4pao6gpdaY58+FR80iIiIiSkc3eTyez9TriNxuN/x+vxobLyJQ37EWeZ2Npvx1K9ljjHYjaoT5Y6mwsBDt7e1qLDHJLCul67YDZBpMdS56Gti6TkRERBSNQ1vWYwfqRqt6y5nxD9QpSSc7sLeuA65qW8u4QbWQh51HRERENIk4MljPWLQMWm9+c9Za+lKvyNdmC24UrylFRucpXGB3jenJ24tDO8/Dv6KIXTcSERERReDgNBhnYxoMEREREY219O+6kYiIiIhogmKwTkRERETkUAzWiYiIiIgcisE6EREREZFDMVgnIiIiInIoButERERERA7FYJ2IiIiIyKEYrBMREREROdQ/uFyuf1GvI7r11lvxySefqDGScnJyMDAwoMYSk8yyUrpuOx6e+yuwbks+iu/Kx6yp19DR9nc1J0h/TxY+u3QV/Sl7Vlcmyp9YhuViu8V3pXrdSSqbi80P5Wv79EnVQmzccSuG3vLhxu+eg8pMllHNLfAeG4b2SeXYMiMiIkqMY1vW86oewtYdaqiuRIaabrDMF0NFvppBaa3n1Sbs3dmEE+P+kNRBnBDb3bvzPHrUFIol2TKbgvnfrkB5mRolIiKiEM4M1vOrUYFG1O96SQz1aEEpNlQVq5lAxqLtpvliaPQib2018tR8SheyZXYh5id44vSA/hwuedWEia7nY/gxDL84Xv/VYcAnxymqqGUmLxISr3dEREQ3wk0ej+cz9Toit9sNv//GhQcyON9wexcONBzBkBiXreqlvnocONunvyGzEhuqs9GyqwHjFb8VFhaivX10zb/JLCul67Yt8nKxrnYucPwUDu0bURODZKpLSZ9tnlrGpY304sTOjoRbdF33LMS6FfoapJ6GJpw4qUY08gJiNnx1oRcD1mX9aLW8Ry63AB41Bl8HDj3XGwwQZVpGda4aEUtHOO7RinZcsizLC/XXlv2W+7TgY7ROn4uSLDG9oU9cJ4vyDey7PKYcdNd9jBKj3O3HpYm3zILnzLpPQZZysZSZvbxDjzn8vkWg1h16/omIiJwlLXLWp9y2CIVZg2i/1KXlo/r/Pw+WrliBrIGT6B5yo3jDWuR/eArHO1XwPg6Ys54EGShtz0e/CJSOvB2aky65luRjxke91px1/zA63urGxUufYlbZzehLMAdZD+6GRcB4DiflesTgDYn2p2DWXZkYec+Wfy0uFJbkenHo5ff15abORPnazwVypD33L8OstlPYr+ZfNHKnNSKYfWiGCHrfw9EGfbvhcvFHK9pxyXmVs8V+/+ICzhr7vVnlb+dlo3hlPj492ITWmwuxZOUITu/swuc2evDftPxzWRYFKC6T0+W6r+GzihKU5NjvJYhQZuI8b1z3fwL75Z2aj8pNepn1n5H7Kda31KNt/9BrtnKRF2bbs9BulJn/VlRuzw7mndvWfdF/M4rnfIoOS7lH0ePT6lHx9kUoiHBvBBERkRM4vzeYzEqsXJwBb7Peqq7pbkD9rkZgrcxX34rZ79ej/vAFNZOcTAaPm6unobVuvFs0M1GywoWehsRb4zXeXpwwtYT7T/fBn3WLauXXue7ItoxbuZC/ZIp6bSVbmTc/YR/iTdOIdlxq3uFga7N/XxtafbnIN/LEfR1oVefBf7wnzDpki7ax7hH0XPTD5Q5/HHaeBbLlOrhf/n1d6MlywxPHcbmWuIHjbcGW9JM9pv2egvlV1nWPijinh3aeh3/FMmy+P1NNJCIichaHB+vFqKguBc7Uo6lbTZLyq0WQvgwDDTJnvRH+xVvD3oRKTjMFnjsih7NjKm+qCJf98I06utNvhgwE04F0HF3Pq6fQirlYp+Zbb5ocxAkR8EIGhdr8ucF0GcG4qdY6hKaUhBXzuJI55gimy23GMgWu6SJgrzaVmTlNKAaX2wVXoLzksAwlWWrmWCiczRx2IiJyJAcH6yJQ37EWeZ2Nwdx0jRvFS/MwdOYALgzK8QtoEgG7N7MUpewRxuFGcOk5EYg2DKOkdpx7AfF+FGhdHg2Z5lKCDhwygmkRfFvXp45NzXOJINVyfForrj7/0PFpKDcF7Em1rMc8LheyLBHyFGQlG/T2x1+WMic8eAEihzgvQgSZv25dNsW/xshUG3EB4dK2E/9+ERERjSeHBuvBQD1SektGllu9EvKLIMJ3DATyZMjRTnYEAtp198SXUpG8QXS3u1ByX24crcIRBILUKZh/n7Vl3SJGAK31TmKSVMt61OOS88TFQFVwnuue2fCYUl8SIoLbcplWc167So5BT5nxVFt/RbAagb9fpsuEpqD0nO+Fa0VRhAsW23Iy6DbdvBsXuUztXPjFxUQqb/QlIiJKNUf2BqP1/rI4NKnF2/iSSodRwbw2VRpCS8NrqqV9fLA3mFSw9yJi61FFMXoICen9Q5NYrzD2XkgCvYFYeh4xmHogUcGdsfWe4+JiY8UtaNW2HbrfkXs1kUJ7NklWxOMSrPNM5SX3q+pjrQcVl3iP3vvOFNM5CT0uS+8pscpMCDlnIT22WLcRvdzM59q8nJgue6y5DzgRV28wMqWpCPhjas8BERHRWEiLrhudiME6TXwyIA7fJSMRERGND+f3BkNERERENEkxWCciIiIicigG60QUwaD20CGmwBAREd04DNaJiIiIiByKwTqNG3lzKhERERHFj8E6EREREZFDMVgnIiIiInIoButERERERA7FYJ0mLPnkznX3TFFjinwS6RMV2Hx/6CPux458uJDYpjYsjPAI/RtEPiVU7ZN82ujmJ+aGPEE2Fn25CpSXqQkpIZ8yapwnvfxCziUREdEk4NhgPa/qIWzdoYbqSmSo6YZY84mcQ3aB2IS9O8+rR+UTERERxceZwXp+NSrQiPpdL4mhHi0oxYaqYjUTyFi0HRVZLTigzX8JTT7rfJocwracx+LtxSEZOL86qCZMcj0fw49h+L2A/+ow4JPjifHvOycuRJpw4qSakBIj8PeLdfeNaK99Prl/8rVBtrYn/isAERFRuvkHl8v1L+p1RLfeeis++eQTNTYOhi6htbNPjXyET6bMR2Hup/jgUhc+QTHu3HAH/Mf+hPYh/R1+3y3IL5+Fj89eSjjQGK2cnBwMDAyoscQks6w0WbcdJFMkyrFkageO/D8+UScM+vTKjfkovisfs3KATz7oRUfb37W5WnC/Rc2bei0wPbC+nFjTopPpIBt3FGrrl0OmvxteS1P6FMy6KxMj711Fv62iWpfNwmeXzO+xHlfxXTdj6C2fqa7LwHUZlqvtFi/9FN5jw6ZyicI/jA5jXT0+XDQtp+3Tps9Z1mWdZt6ufZ911uMy9ls/nsJP7eUj11eEaWo9/jPdquz/jv5j9veOYGhqPip3zAy7XSIiookiTXPWhzCgAnXNYJ8IAFzIGM80ZLpB9ACxpP889j7Xa7k489yvpmspJ0040a5mKD2vhp8uA7+ei6IG3ZEtapFhCrKy/Og+bW7NjUwGpetWDKt0F7WdeFua83JRgrbAcoeOAyX35Qb2xXVPkeW49u7ssKTTeO5fANfxU8H5tnIZLf9p8XeV5YbHlGPvcrvgvzig1h8jvadsrqVMDh2fhvJvy+PSW81dM5PLQdda9BuGUVKb6nx5IiIi53B+sJ5ZiZWLM+BtPiJCdOkCOjszULo4mPaSV7UWTrpnj8aIdnOoCkztaSwy4C3sxYlRprf493WhxxyYluXA094V56P2M1GywoWeBmsQHTev2O99wYsCPUi+xXThIBSK/VEvw7FeaATJXxP0G1vNQ5w3uYr9am13IX+JEVRnIl+UcatpX6PxLMi1lIm5jP19xuWEbGVXwXbeVHEMekpO3E52YG9dB1zVvAGViIgmJocH68WoqC4FztSjqVtNEryHG+GdszZwg+mcDjEOP4aYhjyhuZa4wwakqTGIblNgqgWa5+OsUFqQ6YdvVJG6pAesgWC6dq7lOGUL8on2XBg9ytiD0p5XT6EVc/VebsRgbmU2fk2wDufivAgRy5/vDV4IaBcw1+O8IJkC13RRjiKIDhyXuNAyLjhkfrzLLY4jLxtZ/b2A0co+ipx5g2uFhznsREQ04Tg4WBeB+o61yOtsxIGzRv664QKa1M2l2g2mQyKIGzR+mqeJSr+R8Tz8K5aNSdeLwcBUb0HujjeNxftRUnVPS99Bh37jqxzqOkLWFwy69eO3BuwjuPRccFnZymwE7Em1rEsnRXCuWsMTuoBRehqM/TYGdaEgb2ydPhUecQGG8z3wuUW5e26Bqz/BspRdT4qLG7+2nVH+skFERORgDg3Wg4F6/eELaloEmZXYUD0bXW8baTI0sck86VNonb4Am7X8Z0ULmHORr4JUmUNeXqi/jpsWmIqAsSwHruM9CQR+equ8Oc88YYEgdQrm32dtWbfSe0aJyHbhkGzLunFsWR5xATO9A61x9/ii3wfgqY7eY4vLPSwuikbEPrtRsmCa6v0lTjJQr56G1rpU90RDRETkHDd5PJ7P1OuI3G43/P5k2g4TI7tm3LA4tOd0b+NLWjqMdb4XTbsaxL/jq7CwEO3tIXcqxiWZZaXJum072Wpc0ncKh4wcai14y9Vft5/Hob7ZKEebmi9vTA2mYRj8x03LC/qNohABYCIBrU7uj/kCQbYqa0Gkeb8C/MFtyFx8U+pLz/EOuFbcglatpVimyCxDSZaaKYljC+bshx6X/ZiSpvYP9vXGOi5BL0/TpYevA4e0G2DVfhvHotYVKLOY5PI56GZrOhERTXCODNbTwWQNmG/ktomIiIgmmzTtupGIiIiIaOJjsE5ERERE5FAM1omIiIiIHIrBOhERERGRQzFYp7Qgb04lIiIimmwYrBMRERERORSDdSIiIiIih2KwTkRERETkUAzWiUzkEzc3P1GB8jI1Id3Jp4+K45HHtPmJ6I/+H296Wev7JJ/+uvnbuYGnuN5QSZaZY48rKfJJuuJY7s8Ur+XTYyuw7p4p+qyY9GXH5m9KX3fkfZH7uhDz89Roqskn76r1m8978m5kmSVI+3sZ7XGP5XESTRzODNYzK7Fhx0PYagzVlchQswwZi7YH5++oxlh9FhONC/mlPxZBnbcXh3Y2YW9dB9LuGcRJBQFJuMFlJgP8lAVSRE5W5kEJOtB6Uo0TUVjODNYHj+DArpdQr4YmXyk2VBWrmUJ+NTYs9qPJmN+Zh4owAT1RRBECQf++c9grArUT/PIYc/6rw4DvYy0g9veJf/s/Sr8LijAm5nGNwN8vj2dEe+3zyeOUrye5Hnmeh+H3Ws87xcezIBc9h3tNZSZb2sfwlxCiNHWTx+P5TL2OyO12w++/cR9BshV9Q9Yp1B++IMbcKK7eitnv1+PA2T79DbIlvno2uhpew4VBfdJYk10Jtre3q7HEJLOsNBm3nex+W8hW7GrxJdFgDsrlz+ULVPDuR2vdOVwSX8AG+RN3OdrQ6l6GctWLZHB5uWwOuus+RkntXL113NeBQ8+pLyG5vaqPg+Pa+2fDJ7cBcdFgLGPRixM7O9CjxmKR+7duRXAt1mMT5MVJ7S1oDVmn/HJchpIsNWreb425XAT7fFWWBv/xUzi0L9kgzrbNAOt5kS3QxrkIPWfh1hF8j728NO3nsfdV0wdIvGVmX26Uwu6TpNavzb+jz1L+lmnyXCy4jkN9swPrsZ8P6zYSq2OxRaorenllHT4PVBvz7du2Lhtaj2xlHlhen55/0Xi/sR5jvhwXf2sNfcivDvO3KdjLPfi3o7YJ299yyGdHMsayzKKvO3KZSTHWbfu7H1VdivT3lfIyJkp//+Byuf5FvY7o1ltvxSeffKLGxpsbBSuW4tMLf0X3kByfg6LyHHx44ji0Rh4Uo+L/KhfvmoJPe0+q94y9nJwcDAwMqLHEJLOsNBm3nex+G+QX88Z1/yiCtvdw9qKaqBmB961uXHxrCJl3ZWLkvavoD0as+MeimShecTsy205h/8vvwzs1C4vv/By8x4bxiah7s+4qQHHZCE7vPIeTb13DZxUlKMm5ho62v4svpWwUz/kUHdp7Jfl+tQ3vMDrkdv03o/g2EXT94gLOavvhCwQTsejBxrD4spTblst2w2v/1sxwoaDsZvTZ1uu6ZzZch87haINczrbfguf+ZZiljlmu92LgGCTxhf7QDHGR8p5avjuwXHLUubj0KWYFylSuP3hO5DFXzvYGyss7dSbKN9+KIXV8cr+LB0SQ+2+X1Xqy0d+gzrkIEirFe9vVfg/Nzsesz4lA5qV+07EJEcrMc385lnyk1i3LbN1iLDGV2Wh90nZVK0O5P0Y908r8jB4kffL/fg6zVrvx2SWjHKbg9k2345aLHbho1LOVBSgYuRw47oLN+fhvxvtFELRx3f8J1BPv1HxUbjLqcLL04M4lgrrQunIzpld4ULD4FlVXRJktLUJhoMxk8LgYM84Yyw5hxo7FmOU36rEKmvuNMpd1wTgn+roz+3vFuqaZ9qFPzZd/a7NQcEeEv01bmci/w+XV+aqM/47+Y+LzYON8FEyV7xfrf6gA/hQH6mNTZrHXHa3Moq5bBtnbswJ/P/rfV+jfSSyeLy/CjLY2nLX/3fT4tHUWb1+kyt02n2gScu4NpvnVKh99K0rRgpZuNT1AtrDL+WuBRpkKI77As91qHlEoLRdYBbXmVvO4tZ8PtC75T4svtqxbTC3istXWaCEaQc9FP1zu8cg7zkTJChd6GhJs1VL8+zpMZRF+v113ZEfJpXchf0n449RurgzcqGkMqfiJWx2z6edz/742tPpyka/dqJaJ/ELxnX9etXZ7B9DtE3s6U99P1xI3XL4+9Kjj7jnfC1jOZTRy3b04EWhJH8ElsR/RyyhFvL1obTeVtwjO87PENHOLp2w9NfZNO24XslTzqJZyYKon/n1d6Mlyw6OdDxnchTlfcd5HIS/6PGLbJywtu1Y9Dcbfna2eyeOAedlBtB73i/2VN7MKMq9ZHGewzMPJDgSd1tZlKczfpna+RFBalQv/8Z7g385JsR/mMhb7ckIsixUezJfHKD4DUtXaO5ZlFs+6I5ZZjHV7Pj8XON42us/QAPl35Ef36Qj7p903ch7+FcvUTc1Ek5tzg/XuhkDOen1zNjZYbiLNQGn1VmQ3q5z1bjcyssRH8oBKiyEKoQdw42r61LEP4PLkNvzwjSZSl2QrmSk4s6dh9Lx6Cq2YG3iPtdcGI5ARX6jafOs9AD2vNmn5/9ZhlBdKIaIds55THQj2tKA2GBhoucWBIFUPYtF+Pb6LHa28c62BrSUdYGzJCwvjwkBedMAcaEagX6RMgWu6ONZq036LQC14vsS5DDlXYjCli0Tjcos9Gm1uvkdcKGUF65gczPXQNXOauAiJngvuWiHrXpTgz0Q7/yYxc+9F4Hji+DRxgSgu9FOQ7mQY0zKLY90RyyzGulNBu5ho74rvs6BwNnPYadJLj64bu9vgFV9PGdp3bx8GxOfl0Jl6EaRrcwU3sjOHMDBOKTCUjvRg5JD40h3TrtzMxuPGQm8y28hEea1sJTsVCM4OHbevbQSXnlOBmwjMXSLYswTsRs8pgbINBuxj17IuBVuMdVOQFchn1m+GROECfZvaMZpaArWbAl0oqdX3qdzSUh4PmZ+rysQY4gxqk3ZSXFRoFxpT4LlDfDTGFZwG3yPzgC37Hbh4Sq5lXbuRNhnyFwHLfolBnRN7cB2OllN9HNo9I5ZqEYYW/Jv+No1fXHT6RY1FmQhc7+jTAvbyFPbYNKZlFse6o5ZZlHUnT9ZdV/CXr3C0RgS91T91F/hE6SstgvWMRcuQN9gFr/a33Qfv+0PIWLwBxarhzDqfKDKtt5eGYS1QG7O+fcUXTblM0zB/GQXSLGQ+qLlFU5EBpKm1N36D6G4Xged9ow8iAsGc2u+IYlwY2IOqpFvWte0ZqS1m8pjFxUBV8JiNn/21LuDEcZTIANy0XfPP/PrP+MELlL07E0gh0lJLRDmN4U/zMtCKnFYjUxJEgHVfEfL7o7dMuu4p0tJHurW0DT2NwlMdKZhNrmVdSwsTF0ej+pvSLkDmojxSd5Wx5ivyb/tEuzg3UQNqlUKl/W2q1JIVnmCZqJSbYGqRuIiRNzse7kWPTLVC7P2I11iWWbzrDltmsdZtqZ/6BX/k8g4jVneNMlAX65T3BoSmNBFNTs7sDUbmq681RS2DLTjQcATmhnOth5jFqrPGMPPH2mTskUW6UdtOdr9DaF8Ipp4IQno3kGy9h7i7gq1LluVlq6Q1ALf3ZGDuuaSnQfbwoHqDMQVb1l4pZLAZfxBp7RkluH3rOg3Bddu32Sp/7g8cZ+hxWXqFCCkze48sKWDZhnX91mO2lpe9PKTAvqtgwFoqkcrEYF6/uuEx0JJvK5ek2dYftpcaPZix5E+HnI/QOhRybLIFNVW/CtjLNbBu/XiyDgf3V9sP899TzL8h+3zj2PR1B3s2McrOqCux/zatZWKuY2pZc/mrMk7Z+R7LMoux7shlJt8cbd3G++VruUwXsmpz0G2ra5HIv82SvkjlJ9ddBPwxxZ8jRGkuLbpudKLJGDBLN2rbye732JJfbKHBN90gWpBi6xJOm+ZGtzhH/s+HBgtacA9bUOxU4Y5PkoGkpYtQIoeJVHeJKKr0yFknIoqXvEFOvTRoPcBoD68Jk5MsLrbkzcf6A3+cbgrm3yfTeGLfWErkONo9LgzUiRLFYJ2IJhat+71cmG+Y1LvslEHCCC790dyDjRwidfnnJDI9QO7rMq2/cWfvKxERpRLTYEZpMqaiSDdq28nuNxEREVE6Yss6EREREZFDMVgnIiIiInIoButERERERA7FYJ2IiIiIyKEYrBMRERERORSDdSKNfLCR0ZXfQsxP6LH/ctlElzGRDwoJbDvS4+AprRjn9P5MNeEG0PbBVJ+SqWfygUtRH+MfnXz6ZqCrzBtZJkREaciZwXpmJTbseAhbjaG6EhlqlllelZy/HcX87KekDeLEzibs3Xl+/B/YoT0oRGy7rmNUT57UAqG0C4CMfsNNQxLBYKIsweM4bzsW+TTVdfdMUWOj5/m87eFJSdazZPj3nRN/W004dJxdABMRJcqZwfrgERzY9RLq1dDkK8WGqmI1UypGhQji5/haMKSmECXE3uroZLJVc8K1Ro7g0nPy4kgfxjWIE+WpPyQpuP29qX5EvxEYvzqoJoyBqHVYPpW1F61p8vAkefGUigsUIqKJ6B9cLte/qNcR3Xrrrfjkk0/U2Pi7KXM+Cm8RXzydfdp4XtUGfHb4FTQPzkHhHZkYvHQO4/2k8JycHAwMDKixxCSzrDQZt53sflvI4Hd7PvobzuFiSDP6FMy6KxMj711Fvy16kwHFxh2FKL4rXwxZ+OyS8R61TM/nsOShRVgs5y/9FN5jwwj81chtPlQSZlmTDBcKym5G31s+a+DY8zE+W7cYlRW2dSr/WDQTBbcO4uKZ8H8E1v2+GUOW9csW7nJUbpTz7Putzyv8tBufra/Aui22fZfHtP4zeGcVBdY/a+o1dLT9XVs6EdoxuD9CR8Qyy0emvxte7XzJtKNlmBUYl+zTIh+XZ30JZg104WSE8tLp61uutm1Z/v4KlM+6hr6iksBxB/dNtYxrZRWmPKKUmXGeZuWI8pjl0bcrh9lDoec2ah2W57wIi0c+DH+MkepZtLqQl43iOZ+iL0dc6EQ419HrmS5SXf2kbQQzdizG8nDHSkQ0yaVBzrobebdnwNtxQY0D3sOv4cIYNljRxCUDis3V09Ba14QTJ9XEeOTlogRtppZgoOQ+c+qECyXVt6BVm38KrZiLcqOlULaAqm1qyzcMo6Q2kVZ9vRX6RL8IlEaRa2xuRT50fBrKTSkfrnvE2v6o9su+34qnugIlfae095xoF8f5eVMrf+ECrHN3qePqhWuFJ0W/VohgecF1tV/6uj3VxrEPortd7NcC037kTRXH1ItudU6jHVfP+V5tvyP/WiED9QVwHdePWRtsLe+uFcsCxy1/FfBUBcu051V9mRORHrhrLrO6DmBFkXa/g5EqIpfzm7dta52PXYczUbICaP2vxD4kY9aFLDEeZr81MepZbDINTWxzujgvDkpJIiJyAucG6/nVKmd9K0rRgpZuNZ1olLQWTy2gOIdLXjUxXt5enDClFPhP98GfdYspqPCL4KlD5QePoOeiH647srX5riVu4HhbcJsne9Dqy0V+mRqPkwwCtSAogZtZPQty0dNg7JcMCLvQk+WGRy3v39dhKgu1325bOkL7eRxSx64FutNlYKz4OnDICCZPXhfbmQbXaG+0tRDBmzlIta2757864C/MCVwY6GUczM+OelwnO0RAeR49MmDXctatF0Cue2bDI47LfL5DmI47tC7EYC4z7wC6fS5kmXcgirjqcJkoF18fehKs4zHrQpj9zl+iz49Vz+KTxEUpEdEE5txgvbshkBDl6j0AABMsSURBVLNe35yNDTuqkZIYgCYpmcOrXo6K7YbI2rlRgzP/1WH1SgR/bpfWEhtY9ollKMlSM0fF1rod0RS4potAqtq0308ssAZBlh5CZCAYelQ9581Bswh0U53fHYEMTCPutxYsGhc8U+C5Q3xknDYF1zGPy7ihWLZk51ougOT5Qv9HUY/Rf3EgOF/LTw8GqqPhmmm7QAornjos6mmVCJwPj+IcxVEXgkbg71cv46lnCctFCXPYiYg0aZAGI3S3wSsClIyJdo8djSM9OEu0ZdrguV8E2OjQbxqUQ4weNVwzp1kCPktagxoSSsMRgq2qYnlzq3MMPQ3W7e4NtMpmolxcdMC0b07prUOmepQX9gYC6tBeevSWXy0VJi8b+TC3JCd2XD2vynUHW7f9feNfBv6r8eRpx1GHZVlkBdOB4pdoXdADdPN+R65n8dIviMun639nxq85RESTXVoE6xmLliFvsAve+OMTorC0vGAtZ1wEBQmmoQSDbxFU3BetZV3mDLsCLdIydcRlzu8dBRmo60FMIi24KqAN5HqHFwi48nJRHrU1NZVEcBjIGZct4y5ra7Xk+zgw7rk/tKVWSz+ZPhWeJW74w7Qkx31cMm1ELO1TBautt3BB4vVjFOSNoCW24FpeLBgpVOFEq8Mh3TUmKP4y85j2O756Fp0M1MUFcf/5cfvlhogoXdzk8Xg+U68jcrvFl6F/HD8+Zb76WlNkM9iCAw1HAt00Zizajg2L7T2vD6GlYfxuPC0sLER7e6Q7yKJLZllpMm472f0OIX/yr5U3hKrgV/auUZ2rzQqSeeiqdVB7fzBA7zneIQJwY3n9hkRzoCJbGS0t5yHrl63G+rZlK3JoykFwvrasvNkyQmt62OXbRdCj3h8yX+Yeq4DIOq8XrcenoUTeRKgtqwdQWYcj/Aog96vq48C6tAD8idnwGWUWi7lMTPurs5apX5S3f4U7ZN3aRYzWAm+9iIl8XCN6UGhJQzKdZ4PtfJvLTG5T3nAbvuU3tC5I8pcV7f1R6kGQClyNfQwpG8Veh2OUf6x6FrUuxLHfkeuZ7XgMtjpajja2phMRheHMYD0NTMaAWbpR2052v4kcIeQCJ3W0YDlwoUVERBNFeuSsExFRVFp6DAN1IqIJh8E6EREREZFDMVgnIhov49j1JRERTQwM1omIiIiIHIrBOhERERGRQzFYJyIiIiJyKAbrREREREQOxWCdiIiIiMihGKwTSfJhNd/OjfiI94lKPkhn8xMV+hB4/L8TyKdeGvskn8xZgXX3TNFnhTNRzp88jicWYn6ecW6SeYR/DJYy08u7vEwbISIiB3FmsJ5ZiQ07HsJWY6iuRIaapXOjuNo0v6pYTSe6UWIEO/LR8GMZeI2S9iCdnU04dJydCVpM+Is3UV+rctFzOIXdSMYoM8/9MS64iIgoLGcG64NHcGDXS6hXQ5OvFBtMAXnGog2Y/X69mt8I75y12LDIreYSxcGhwTMZRuDvFxcTfSPaa59PvL4qX09wPR+L4HkYfq883mHAJ8eDZGt7vAGv1jIf6deSvGzkowOtJ9V4OpMXCY76VYiIKLVu8ng8n6nXEbndbvj9N67lLWPRdmzIOoX6wxfUFKu8qodQgcaI88dCYWEh2tvb1VhikllWmozbTna/LeSXe3UuehqacMIIVuS0qo9x4qIb5Sv0tkH/8VM4tE8PELUgyd0VfJy7DPZrb0Hrzg7g/gqUF+qTzfTlp6D8iQVhLgr8aK07h0siKJNkq2NwHeZ5ssW+CPhjF7JqjfX04oTYbo/2Oh4yjcS0D74OHLI9mCfk+AJsy7aft75HlaXBXGaStl5VnpKlzJNkX7f1uGS5LUNJljYS/35r53VumNbhYJnLc1XSdwonUBTYvuW47OsIbFvfp/yL5jIKNy0adT7sx2Oj16fI9cQ4Bvt+ZB0+D1SHqWfq7yNYvnI/ZsMn6ymil5nffp4M5mOIWGaC3PaC6zjUNzuwHms9U+daXHzY6zUR0UTwDy6X61/U64huvfVWfPLJJ2psvLlRsGIpPr3wV3QPqUk2GXPKkI/30drZp6aMvZycHAwMDKixxCSzrDQZt53sfhtkgLdx3T+KYPg9nL2oJkp52ShenI9ZI5ex998u4+KlT1GwOR//7dJV9Itv/38smomCWwdx8YwKEDJcKCi7GX1v+dBzphsX37qGz5Z68OnBJhx6TY53o6Pt7+KNI/CK13J9s8pGcHrnOZyU42/p65XkPlXO9uLQLy7grJjnnToT5ZtvxZBYtx83Y3rF7ShZfQu6xT4fbZDbKUJhzjW1/lj04M4lgpv9L7+v7dfFY8Ow/zWHHJ/iud+DoX8z9nkImVsWYJZf7KMWwYl1PzRD7Zf5mBURgFVu/sx0zMZyKSACuI3r/o8IBtW6/TejeM6n6FDH5rm/HEs+EgGfPJfy3KxbjCWBMouy3/5hdBjru60vcE4uaudC51qSj4JFHhSouuKdmoXFd34OXm3bYt3/Yz4+EcG7Xg/0MiueKrc9gk9yslB8x2fqvULeDCxZfTO6/9ITqA/RyfqkH09lxafB9QTIwFUc+1QRuP6iG/1qqoU4L+XrR9D6cp8psJX1TBzTYqOedWNodgnKlwzpdUL+fZjKV25n1l2ZGHlP1GNv9DL7pO2qVsZDs/OR2Waqh4G6Fq3MxHmR215ZEChvuZ3F61zq70P6O/qPifXPX4TKLTebphMRTQzOvcE0v1rlpG9FKVrQ0q2m24n3VcwZQsuZ8WtVp/Sk5cyuGNYCPKNF20K2zBqted4BdPtcyF8y1jm2mShZ4bLkDvv3taHVl4t8U/57T4OxzyPoueiHyx1vKsRseMRxnYir1TZUz6vmltlBdLeLdc40bztWGVmPI0C2pBo3tpqHuNIZREAq860bIv26kIl82aocaHkewSVRvq47sk2tv0meW1Nd8Z8WQW/WLdq6jfIOppcM4kRDcNv+fV3oyXLDk6fPdS1xw9XeFb4+RiSO57kmnOifa0vlkhdmy1DSLy5SorQw69u8HrbsgvVMvD7fC3FVaFr/2IhVZhrz3+ZJue/T4FJlaOh5Vd57MU2UgX6DLhHRROHcYL27IZCzXt+cjQ07qhHy+StvRF2bB2/ja7hgfC8ThSUDOPUyLnrO9Pjww5eqFmcbl1uEO/0fjb6lUaYgmIJpa7qPCKrqOoAVy9R82z0A3l4cEkGXp1otb775UM7b2aTd3GoZAgF2EvKmiu3kiqAtuN/mlJeY+x0H/8WBYJlqx2K6cIha3vKCx7hQmALPHUDrfyVzzLkoMXLYy+IJrOXFYZzb1PLnx0kydTSECyWfZw47EU0c6dF1Y3cbvOIDOMP8+SsD9epS4Ew9miK1uhMFiABNBIPxt7xNgWu6CMrG5aZGF7IsUdYUZBm51kny9yURAsnWb5XbbwTTJ+y3DZiCbr1sbYHvyY7gsrIl2AjYk2pZj4fMlw7utzaYW5tj7XcypsuLhSDXzGnqlU62WGutxtpNnn3oSahVXZKpLuLCaXqHdgyB3G2trE+hdfqCyL2yyIDeF+c2PbfAZbvBdczEKLN4BH85E+c1FRd9REQOkRbBesaiZcgb7ILX+Pw1BeoHzo5fnjqlP62rwoZhlNSKYCdan9JlHpRk9aLbfDNkIKDIRHnIDXV6S7xnQYRg0ytbDsOlhOipJZ6qYHAVmhYwelqKRuGCJPrPNrX6l80NeyOtQeu9JArLhUNSLeu2slYXFQFaClMuyuMM/MPut2xVNqWrxEtPiZmLkkB5h6Y54WQPWiHK8j43/Al3nahupoyY6hIpRUZS6UNxbVN/r+UXBJXqo++D6aZjQ4wyk+ffmoqki6vMYtBuqNUuXiKlRhERpS9n9gYj89XXmj7xB1twoOEIjPtLtd5f5qiRgCG0NIxfOsxk7JFFulHbTna/Q8gAT/Xmon25y3QPS6qEvScNFSRpLd5+tDb0iWpqWl4jc4aDQYy9ZxTrNqL1BmPetr7drMPB3kYi99wSgXasposLmf+rBXrmYzIx9cRh2S95ASGCwHyjF5GQMrMeU0hvLSFlmgxzWYv11n2MkvuAE4EANvTYAucjxn4brPsf3HdZJtaeVGxs5R1SDwR93bIVOLHykMuVoy3ytk1C6om9zltEKS/FXBd6GmSvMao3GFO5RSoznW0bUXqDsWxbnq9IPdHIbcv5C67H//dARJRm0qLrRieajAGzdKO2nex+EzlJSCA9DmJeZBARkSOlR846EdFEkZeL8nhv8kwhrbcUBupERGmHwToR0XiQqR7yJtraufCbukgkIiKKhsE6EdF4MN1Um6qnuBIR0cTHYJ2IiIiIyKEYrFNa4M2lRERENBkxWCciIiIicigG60REREREDsVgnYiIiIjIoRis04QlHwKz7p4pasxOPk2xIuQx/PJhNZufCJ1OREREdCM4M1jPrMSGHQ9hqzFUVyJDzdLkVwfnyaGqWM0gUvJyUVLYi1Y+BIaIiIjSmDOD9cEjOLDrJdSroclXig3mgLy7ITCvflc9WrLWYsMit5pJk0W0lnPXElEfjvegR43Hy7/v3Kj6wdYeHx+xFZ+IiIhodNIiDcbvG1KvwunDkE+9pElCpbBM78CJsC3nmShZIa7pTtvnZaJcPkFSG5ahJEtN1pjnLcT8PDVZo8+zpsZYp/n3dcG/Yhk235+pTyAiIiJKgTQI1t3Iuz0D3o4LatyuGHPmDKGrs0+N08Qmg2QRaPefx97neuFXU81c98yGp73L9jh3GeAvgOv4Ka3lfO/OU2i1XOQN4oQ2/XyY1vhBdLcDngWmQDxvKlzoRXegBV4uL9Y5fQE2fztXzCMiIiJKnnOD9UBe+laUogUt3Wq6krFou5q/Fnmdp3BhUM2giSsvF+ueUAH3q5FO+BR47nCh57xtfpkHJYjUEh9bz391wF+YA48aD59mM4JLzzXhRP9csZ9zA+8lIiIiGi3nBuvmvPTmbGzYUQ1zZsLQ2dcC8w/4loXehEoTjgyQY7ZYq6C8NcGc85i8A+j25SJfS3uRFwTh0mzMclHCHHYiIiJKUlrkrKO7DV4RpmVESAce6uzCUGY2Uw8mOP3mz/NRc8M9C3LhvzgQNj0mOSPouejXU2HyspGPPvRY0mykYC79oZ1NOMSeaIiIiChJaRGsZyxahrzBLngjZD7kLS5FRqcM6Gnii5IbHq27xp6P4c9yw6N+nvHcb7/BNDb/6T74p0+FZ4kb/sP2fHkZqEfPpSciIiJK1E0ej+cz9Toit1sEJ/5xDD9kvvpaU9LLYAsONByB0SeMzFffsNiU9NLZiPrDkW5AHRuFhYVob29XY4lJZllpsm7bTnbdWNJ3KtCCrXWf6O6KmM+uzV+hh/f+4yLgdy9D/nnVTWPZXGyuztXmBfnRWnfOcqOq3Ga5uCA4sbPDkq8u112ONramExERUUo5M1hPA5M1YL6R245O9hIzGz5bcE1ERESUztIjZ50oJpkew0CdiIiIJhYG60REREREDsVgnYiIiIjIoRisExERERE5FIN1IiIiIiKHYrBORERERORQDNaJiIiIiByKwToRERERkUMxWKcJRj4cqQKbv50L/Vml6U8+HXWzPCY53J+ppjrBFMz/trFPermvu2eKPith+rrKy9SoYhy7fXpM8om0TyzE/DxjHXPhUbPGmnzKrXG+Rl8eo5HK80HjRa8vel1NHdP5z8vFutH8DQWE/9skovHjzGA9sxIbdjyErcZQXYkMNcvKjeJq+Z7tKHZSDEOT0Nh9ofn3ncPenU04dJxPEbaQAbkDL8p6Xm3SzteJsXpY76jJAC7VQeE4UMFm4ILVCELHifniSxscc8E8TkF0mQcl6EDrSTVOROPOmcH64BEc2PUS6tXQ5CvFhqpiNTMoY9EGlPq84EMrJyf5JRr6pS2fZCqCped6wdB2rI3A3y8uJvpGtNc+n3h9Vb5OHeNC5USigULPx+L8D8MvPhz8V4cBnxyf6Mb+fNwQ3l4ckn/T2nAKreK4xov8VaZ8eodp+2J4dVDNTQ394i7VT182nX/vR6Lu++HrUbMS5FmQi57D5s9TeZGQhhd9RGnsJo/H85l6HZHb7Ybff+O+6jIWbceGrFOoP3xBTRFk63v1bHQ1nEJ29TIMNLyGC6n9DI2qsLAQ7e2jazpLZllpsm47SH5ZLNNaew6ZgnL5xbpuhWpnbT9v+1KVrYo56K77GCW1c/XWWJ9pedlKu+A6DvXNDqzDf/wUDu3Tgx1t3e6u4Dpla1/tLWjd2QGIi4byQn2ymXn52OT+LQimapj3TQnZhwDbsrZjt5SL0NNgDn5VWWapUfSKi50OjPJ7PYR12/Z12/ZbCO6beZ4frXWmYEYre3UOLVKx7/p2YSkj+zRbmYU5V5K8mCzps9UBWc+qPja9X657NnyB47OtO6QeJ8O+LbsY25b7Xp2rRmz1yDiuPwLlxrkJLC/XWwT8sQtZtcY5He250vcx/6K5XCOfD63+3dFnOT8h0yIeV7hthWFbPvB3H/iMuI58oy6b64qlHtvLI3qZybqV/GdOHEyfc5ZzpY7Z+llCRGMD+P8BefUiy1drltoAAAAASUVORK5CYII=;" vertex="1" parent="1">
                    <mxGeometry x="832" y="2220" width="1035.13" height="970" as="geometry"/>
                </mxCell>
                <mxCell id="79" style="edgeStyle=orthogonalEdgeStyle;html=1;entryX=1;entryY=0.5;entryDx=0;entryDy=0;strokeColor=#FF0000;strokeWidth=2;" edge="1" parent="1" source="76" target="63">
                    <mxGeometry relative="1" as="geometry">
                        <Array as="points">
                            <mxPoint x="1624" y="2527"/>
                            <mxPoint x="1624" y="2019"/>
                        </Array>
                    </mxGeometry>
                </mxCell>
                <mxCell id="76" value="&lt;p style=&quot;line-height: 89%;&quot;&gt;&lt;br&gt;&lt;/p&gt;" style="rounded=1;whiteSpace=wrap;html=1;fontSize=31;fillColor=none;strokeColor=#FF0000;strokeWidth=3;" vertex="1" parent="1">
                    <mxGeometry x="994" y="2443" width="455" height="167" as="geometry"/>
                </mxCell>
                <mxCell id="77" value="" style="ellipse;whiteSpace=wrap;html=1;strokeColor=#007FFF;fillColor=none;strokeWidth=2;" vertex="1" parent="1">
                    <mxGeometry x="1012" y="2572" width="412" height="30" as="geometry"/>
                </mxCell>
                <mxCell id="78" style="edgeStyle=orthogonalEdgeStyle;html=1;entryX=0;entryY=0.5;entryDx=0;entryDy=0;strokeColor=#FF0000;strokeWidth=2;" edge="1" parent="1" source="74" target="76">
                    <mxGeometry relative="1" as="geometry"/>
                </mxCell>
                <mxCell id="82" value="" style="endArrow=none;html=1;strokeColor=#33FF33;strokeWidth=4;" edge="1" parent="1">
                    <mxGeometry width="50" height="50" relative="1" as="geometry">
                        <mxPoint x="-92" y="1869.002857142858" as="sourcePoint"/>
                        <mxPoint x="162" y="1869.002857142858" as="targetPoint"/>
                    </mxGeometry>
                </mxCell>
                <mxCell id="84" style="edgeStyle=orthogonalEdgeStyle;html=1;strokeColor=#33FF33;strokeWidth=4;" edge="1" parent="1" source="83">
                    <mxGeometry relative="1" as="geometry">
                        <mxPoint x="37.28571428571445" y="1868.4285714285716" as="targetPoint"/>
                    </mxGeometry>
                </mxCell>
                <mxCell id="87" style="edgeStyle=orthogonalEdgeStyle;html=1;strokeColor=#33FF33;strokeWidth=4;" edge="1" parent="1" source="83" target="85">
                    <mxGeometry relative="1" as="geometry">
                        <Array as="points">
                            <mxPoint x="-321" y="1985"/>
                            <mxPoint x="-321" y="1604"/>
                            <mxPoint x="-667" y="1604"/>
                        </Array>
                    </mxGeometry>
                </mxCell>
                <mxCell id="83" value="" style="ellipse;whiteSpace=wrap;html=1;strokeColor=#33FF33;strokeWidth=2;fillColor=none;" vertex="1" parent="1">
                    <mxGeometry x="-279" y="1917" width="990" height="121" as="geometry"/>
                </mxCell>
                <mxCell id="85" value="tasks.update se encargara de actualizar el estado de la variable tasks - en este caso es como si se estuviera un push al array" style="rounded=1;whiteSpace=wrap;html=1;fontSize=31;fillColor=none;strokeColor=#33FF33;strokeWidth=3;" vertex="1" parent="1">
                    <mxGeometry x="-926" y="1821" width="492" height="297" as="geometry"/>
                </mxCell>
                <mxCell id="89" value="&lt;p style=&quot;line-height: 89%;&quot;&gt;&lt;br&gt;&lt;/p&gt;" style="rounded=1;whiteSpace=wrap;html=1;fontSize=31;fillColor=none;strokeColor=#007FFF;strokeWidth=3;" vertex="1" parent="1">
                    <mxGeometry x="1014" y="2782" width="721" height="211" as="geometry"/>
                </mxCell>
                <mxCell id="90" value="" style="endArrow=classic;html=1;strokeColor=#007FFF;strokeWidth=4;exitX=0.738;exitY=0.076;exitDx=0;exitDy=0;exitPerimeter=0;" edge="1" parent="1">
                    <mxGeometry width="50" height="50" relative="1" as="geometry">
                        <mxPoint x="1400.098" y="2812.036" as="sourcePoint"/>
                        <mxPoint x="1940" y="2812" as="targetPoint"/>
                    </mxGeometry>
                </mxCell>
                <mxCell id="91" value="Permite visualizar la posicion del elemento" style="text;html=1;align=left;verticalAlign=middle;resizable=0;points=[];autosize=1;strokeColor=none;fillColor=none;fontSize=30;" vertex="1" parent="1">
                    <mxGeometry x="1983" y="2788" width="585" height="48" as="geometry"/>
                </mxCell>
                <mxCell id="93" style="edgeStyle=orthogonalEdgeStyle;html=1;strokeColor=#FF0080;strokeWidth=4;fontSize=30;entryX=0.5;entryY=1;entryDx=0;entryDy=0;exitX=0.5;exitY=1;exitDx=0;exitDy=0;" edge="1" parent="1" source="92" target="94">
                    <mxGeometry relative="1" as="geometry">
                        <mxPoint x="570.1764705882356" y="2855.764705882353" as="targetPoint"/>
                    </mxGeometry>
                </mxCell>
                <mxCell id="92" value="" style="ellipse;whiteSpace=wrap;html=1;strokeColor=#FF0080;strokeWidth=2;fontSize=30;fillColor=none;" vertex="1" parent="1">
                    <mxGeometry x="1335" y="2880" width="275" height="46" as="geometry"/>
                </mxCell>
                <mxCell id="94" value="" style="ellipse;whiteSpace=wrap;html=1;strokeColor=#FF0080;strokeWidth=2;fillColor=none;" vertex="1" parent="1">
                    <mxGeometry x="-215" y="2045" width="552" height="149" as="geometry"/>
                </mxCell>
            </root>
        </mxGraphModel>
    </diagram>
</mxfile>